G04 ================== begin FILE IDENTIFICATION RECORD ==================*
G04 Layout Name:  REF_WLC_TX15W_C1-MP A11 15W POWER TRANSMITTER REV04 31MAR2022.brd*
G04 Film Name:    01_TOP*
G04 File Format:  Gerber RS274X*
G04 File Origin:  Cadence Allegro 17.2-S071*
G04 Origin Date:  Thu Mar 31 11:57:37 2022*
G04 *
G04 Layer:  ETCH/TOP*
G04 Layer:  PIN/TOP*
G04 Layer:  VIA CLASS/TOP*
G04 Layer:  BOARD GEOMETRY/OUTLINE*
G04 *
G04 Offset:    (0.0000 0.0000)*
G04 Mirror:    No*
G04 Mode:      Positive*
G04 Rotation:  0*
G04 FullContactRelief:  No*
G04 UndefLineWidth:     0.1270*
G04 ================== end FILE IDENTIFICATION RECORD ====================*
%FSLAX25Y25*MOIN*%
%IR0*IPPOS*OFA0.00000B0.00000*MIA0B0*SFA1.00000B1.00000*%
%AMMACRO48*
4,1,12,.032283,.017717,
.018898,.017717,
.018898,0.0,
.006693,0.0,
.006693,.017717,
-.006693,.017717,
-.006693,0.0,
-.018898,0.0,
-.018898,.017717,
-.032283,.017717,
-.032283,-.017717,
.032283,-.017717,
.032283,.017717,
0.0*
%
%ADD48MACRO48*%
%AMMACRO60*
4,1,12,.017717,-.032283,
.017717,-.018898,
0.0,-.018898,
0.0,-.006693,
.017717,-.006693,
.017717,.006693,
0.0,.006693,
0.0,.018898,
.017717,.018898,
.017717,.032283,
-.017717,.032283,
-.017717,-.032283,
.017717,-.032283,
0.0*
%
%ADD60MACRO60*%
%ADD15C,.02*%
%ADD35C,.016*%
%ADD31R,.027598X.027598*%
%ADD12C,.03*%
%ADD45R,.056X.017*%
%ADD22C,.018*%
%ADD57R,.03X.054*%
%ADD40R,.067X.018*%
%AMMACRO28*
4,1,6,-.033465,.045276,
-.033465,-.045276,
-.005906,-.045276,
-.005906,.005906,
.033465,.005906,
.033465,.045276,
-.033465,.045276,
0.0*
%
%ADD28MACRO28*%
%ADD39R,.049201X.023598*%
%ADD24O,.082677X.043307*%
%AMMACRO27*
4,1,6,-.033465,-.045276,
-.033465,.045276,
-.005906,.045276,
-.005906,-.005906,
.033465,-.005906,
.033465,-.045276,
-.033465,-.045276,
0.0*
%
%ADD27MACRO27*%
%ADD26R,.023598X.049201*%
%ADD14O,.141732X.043307*%
%AMMACRO58*
4,1,16,.046457,-.045079,
-.046457,-.045079,
-.046457,-.031693,
-.020866,-.031693,
-.020866,-.019488,
-.046457,-.019488,
-.046457,-.006102,
-.020866,-.006102,
-.020866,.006102,
-.046457,.006102,
-.046457,.019488,
-.020866,.019488,
-.020866,.031693,
-.046457,.031693,
-.046457,.045079,
.046457,.045079,
.046457,-.045079,
0.0*
%
%ADD58MACRO58*%
%AMMACRO46*
4,1,16,.045079,.046457,
.045079,-.046457,
.031693,-.046457,
.031693,-.020866,
.019488,-.020866,
.019488,-.046457,
.006102,-.046457,
.006102,-.020866,
-.006102,-.020866,
-.006102,-.046457,
-.019488,-.046457,
-.019488,-.020866,
-.031693,-.020866,
-.031693,-.046457,
-.045079,-.046457,
-.045079,.046457,
.045079,.046457,
0.0*
%
%ADD46MACRO46*%
%ADD63O,.177165X.161417*%
%ADD51R,.070866X.07874*%
%ADD52R,.161417X.137795*%
%ADD16R,.098425X.055118*%
%ADD38R,.074803X.051181*%
%ADD59R,.051181X.074803*%
%ADD56C,.03937*%
%ADD49R,.066929X.098425*%
%ADD43O,.007874X.033465*%
%ADD41O,.033465X.007874*%
%ADD50R,.027559X.009843*%
%ADD19R,.023622X.027559*%
%ADD47R,.013386X.035433*%
%ADD62R,.072441X.070866*%
%ADD61R,.035433X.013386*%
%ADD54R,.035433X.031496*%
%ADD36C,.04*%
%ADD64C,.106299*%
%ADD37R,.070866X.072441*%
%ADD23R,.027559X.011417*%
%ADD21R,.024409X.022051*%
%ADD44R,.022051X.024409*%
%ADD13C,.06*%
%ADD10C,.153543*%
%ADD17C,.05937*%
%ADD55R,.019701X.018701*%
%ADD42R,.248031X.248031*%
%ADD34R,.025591X.033465*%
%ADD25R,.027559X.038976*%
%ADD29R,.018701X.019701*%
%ADD18C,.067*%
%ADD11R,.06X.06*%
%ADD53R,.056X.056*%
%AMMACRO32*
4,1,6,.033465,-.045276,
.033465,.045276,
.005906,.045276,
.005906,-.005906,
-.033465,-.005906,
-.033465,-.045276,
.033465,-.045276,
0.0*
%
%ADD32MACRO32*%
%ADD20R,.035402X.025598*%
%ADD30R,.025598X.035402*%
%AMMACRO33*
4,1,6,.033465,.045276,
.033465,-.045276,
.005906,-.045276,
.005906,.005906,
-.033465,.005906,
-.033465,.045276,
.033465,.045276,
0.0*
%
%ADD33MACRO33*%
%ADD65C,.011811*%
%ADD66C,.019685*%
%ADD67C,.016535*%
%ADD68C,.013386*%
%ADD69C,.008*%
%ADD70C,.017717*%
%ADD71C,.007087*%
%ADD72C,.011024*%
%ADD73C,.01*%
%ADD74C,.006*%
%ADD75C,.015*%
%ADD76C,.012*%
%ADD77C,.007*%
%ADD78C,.005*%
%ADD84C,.079016*%
%ADD83C,.083016*%
%ADD82C,.076016*%
%ADD81C,.169559*%
%ADD80C,.072016*%
%ADD79C,.110016*%
G75*
%LPD*%
G75*
G36*
G01X81628Y60459D02*
X81206Y60881D01*
X82185Y61861D01*
G02X83141Y61717I424J-424D01*
G03X83372Y61403I1151J607D01*
G01X104215Y40560D01*
G03X105135Y40179I920J919D01*
G01X118527D01*
G03X119446Y40560I0J1300D01*
G01X120460Y41573D01*
X131390D01*
X131849Y41115D01*
Y35315D01*
G03X132230Y34395I1300J0D01*
G01X134460Y32165D01*
G02X134422Y31280I-424J-424D01*
G03X133740Y30435I1799J-2147D01*
G01X132862D01*
X131652Y31644D01*
G03X130733Y32025I-920J-919D01*
G01X129097D01*
X129032Y32237D01*
G03X128266Y32805I-766J-234D01*
G01X125908D01*
X125758Y33176D01*
X126190Y33609D01*
X126929D01*
G03X127730Y34409I0J801D01*
G01Y36850D01*
G03X126929Y37651I-801J0D01*
G01X126352D01*
X124777Y39226D01*
G03X123530Y39754I-1274J-1273D01*
G03X123246Y39776I-283J-1778D01*
G01X120197D01*
G03Y36174I0J-1801D01*
G01X122735D01*
X123360Y35549D01*
X122628Y34817D01*
X120982D01*
X120958Y34820D01*
G03X120831Y34831I-128J-791D01*
G01X114130D01*
G03X113892Y34794I0J-801D01*
G01X113848Y34781D01*
X112010D01*
G03X111209Y33980I0J-801D01*
G01Y32280D01*
G03X111334Y31850I801J0D01*
G03X111209Y31421I676J-429D01*
G01Y29720D01*
G03X111334Y29291I801J0D01*
G03X111209Y28862I676J-429D01*
G01Y27162D01*
G03X111213Y27083I801J1D01*
G01X111215Y27069D01*
Y26754D01*
X109889D01*
X106222Y30420D01*
Y34700D01*
G03X105841Y35620I-1300J0D01*
G01X100954Y40507D01*
Y42518D01*
G03X100154Y43319I-801J0D01*
G01X97594D01*
G03X96793Y42518I0J-801D01*
G01Y38978D01*
G03X96982Y38461I801J0D01*
G01X97026Y38410D01*
X97077Y38367D01*
G03X97594Y38177I517J611D01*
G01X99605D01*
X103620Y34161D01*
Y29881D01*
G03X104002Y28962I1300J0D01*
G01X108430Y24533D01*
G03X109350Y24152I920J919D01*
G01X109729D01*
G02X110153Y23128I0J-600D01*
G01X109983Y22958D01*
X109885Y22944D01*
G03X108424Y21260I240J-1684D01*
G03X108684Y20357I1701J0D01*
G01X108774Y20212D01*
X108613Y19897D01*
X108069D01*
G03X107268Y19096I0J-801D01*
G01Y16337D01*
G03X108069Y15536I801J0D01*
G01X110829D01*
G03X111630Y16337I0J801D01*
G01Y19096D01*
G03X111481Y19560I-801J-1D01*
G01Y19561D01*
X111426Y19639D01*
Y20159D01*
X111485Y20240D01*
G03X111809Y21019I-1360J1021D01*
G01X111823Y21119D01*
X112475Y21770D01*
X113810D01*
G03X114730Y22151I0J1300D01*
G01X115730Y23151D01*
G03X116009Y23568I-920J920D01*
G01X116087Y23752D01*
X120830D01*
G03X121448Y24043I0J801D01*
G01X121538Y24152D01*
X123925D01*
Y23744D01*
G03X124104Y23239I801J0D01*
G02X124063Y22437I-466J-378D01*
G01X120969Y19344D01*
X119685D01*
G03X118884Y18543I0J-801D01*
G01Y16102D01*
G03X119162Y15496I801J0D01*
G01X119266Y15407D01*
Y14412D01*
X119053Y14347D01*
G03X118486Y13581I234J-766D01*
G01Y11570D01*
X116170Y9255D01*
X104002D01*
X103465Y9792D01*
X103506Y9956D01*
G03X103588Y10630I-2718J674D01*
G03X102088Y13110I-2801J0D01*
G01Y14173D01*
G03X101707Y15093I-1300J0D01*
G01X98164Y18636D01*
G03X97244Y19017I-920J-919D01*
G01X95876D01*
Y19487D01*
G03X95075Y20287I-801J0D01*
G01X92515D01*
G03X91714Y19487I0J-801D01*
G01Y15946D01*
G03X92014Y15322I800J0D01*
G01X92126Y15232D01*
Y14302D01*
X92013Y14212D01*
G03X91709Y13581I502J-631D01*
G01Y10041D01*
G03X92515Y9235I806J0D01*
G01X95075D01*
G03X95881Y10041I0J806D01*
G03X95876Y10137I-806J2D01*
G03X96861Y10618I-207J1674D01*
G01X96862Y10619D01*
X96978Y10734D01*
G02X97999Y10366I424J-424D01*
G03X100787Y7829I2788J264D01*
G03X101461Y7911I0J2801D01*
G01X101626Y7952D01*
X102544Y7034D01*
G03X103463Y6653I920J919D01*
G01X116709D01*
G03X117629Y7034I0J1300D01*
G01X119835Y9240D01*
X121846D01*
G03X122647Y10041I0J801D01*
G01Y13581D01*
G03X122080Y14347I-801J0D01*
G01X121867Y14412D01*
Y15269D01*
X122092Y15327D01*
G03X122691Y16102I-201J775D01*
G01Y17387D01*
X125854Y20550D01*
X131441D01*
G03X132361Y20931I0J1300D01*
G01X133361Y21931D01*
G03X133742Y22850I-919J920D01*
G01Y25866D01*
G03X133361Y26786I-1300J0D01*
G01X132684Y27462D01*
X132837Y27833D01*
X133740D01*
G03X136220Y26333I2480J1301D01*
G03X139021Y29134I0J2801D01*
G03X137521Y31614I-2801J0D01*
G01Y32244D01*
G03X137140Y33164I-1300J0D01*
G01X134450Y35854D01*
Y41193D01*
X134830Y41573D01*
X136763D01*
G03X137683Y41954I0J1300D01*
G01X140709Y44981D01*
G02X141734Y44557I424J-424D01*
G01Y41732D01*
G03X142056Y40954I1101J0D01*
G01X150650Y32360D01*
X150643Y32226D01*
G03X150640Y32127I1798J-100D01*
G01Y32126D01*
G03X152441Y33927I1801J0D01*
G01X152440D01*
G03X152341Y33924I0J-1801D01*
G01X152207Y33917D01*
X143935Y42188D01*
Y55942D01*
G02X144960Y56366I600J0D01*
G01X146208Y55118D01*
X146167Y54953D01*
G03X146085Y54280I2718J-674D01*
G03X147585Y51799I2801J0D01*
G01Y43792D01*
G03X147966Y42872I1300J0D01*
G01X153239Y37600D01*
G03X154158Y37219I920J919D01*
G01X154435D01*
X155197Y36457D01*
X161108D01*
X161128Y36454D01*
G03X161232Y36447I103J794D01*
G01X164776D01*
G03X164880Y36454I1J801D01*
G01X164900Y36457D01*
X165118D01*
X166024Y37362D01*
Y41259D01*
X168298D01*
X168306Y40967D01*
G03X169106Y40187I800J22D01*
G01X172650D01*
G03X173450Y40969I0J801D01*
G01X173457Y41262D01*
X176195D01*
Y40809D01*
G03X176763Y40043I801J0D01*
G01X176975Y39978D01*
Y39141D01*
X176791Y39064D01*
G03X176298Y38325I308J-739D01*
G01Y35765D01*
G03X177099Y34964I801J0D01*
G01X180639D01*
G03X181440Y35765I0J801D01*
G01Y38325D01*
G03X180639Y39126I-801J0D01*
G01X179577D01*
Y39978D01*
X179789Y40043D01*
G03X180357Y40809I-234J766D01*
G01Y44349D01*
G03X179556Y45150I-801J0D01*
G01X176996D01*
G03X176195Y44349I0J-801D01*
G01Y44178D01*
G02X175905Y43879I-300J0D01*
G03X175765Y43867I43J-1300D01*
G01X175744Y43864D01*
X173457D01*
X173450Y44157D01*
G03X172650Y44939I-800J-19D01*
G01X169106D01*
G03X168306Y44154I0J-801D01*
G01X168300Y43860D01*
X166024D01*
Y47913D01*
X165236Y48701D01*
X156811D01*
X155949Y47839D01*
X155922Y47821D01*
G03X155372Y47271I968J-1518D01*
G01X155354Y47244D01*
X154421Y46311D01*
Y43557D01*
X154420Y43547D01*
G03X154419Y43495I799J-50D01*
G01Y41546D01*
G02X153394Y41122I-600J0D01*
G01X150187Y44331D01*
Y51799D01*
G03X151687Y54280I-1301J2480D01*
G03X148886Y57080I-2801J0D01*
G03X148212Y56998I0J-2801D01*
G01X148048Y56957D01*
X146525Y58480D01*
Y64913D01*
X146533Y64948D01*
G03X146583Y65354I-1652J406D01*
G03X145122Y67038I-1701J0D01*
G01X145023Y67052D01*
X140097Y71978D01*
G02X140529Y73002I424J424D01*
G01X143228D01*
G03Y76604I0J1801D01*
G01X141297D01*
X140171Y77730D01*
Y79567D01*
G03X140096Y79904I-801J-1D01*
G01X140068Y79965D01*
Y81780D01*
X140096Y81907D01*
G03X140171Y82244I-726J338D01*
G01Y84685D01*
G03X139370Y85486I-801J0D01*
G01X137165D01*
G03X136519Y85159I0J-801D01*
G01X135313D01*
X134978Y85494D01*
G02X134927Y86283I424J424D01*
G03X135092Y86771I-635J487D01*
G01Y87250D01*
X138823D01*
X139592Y86482D01*
G03X140512Y86101I920J919D01*
G01X156900D01*
X158935Y84065D01*
Y83283D01*
X158424D01*
G03X157787Y82967I0J-801D01*
G01X157696Y82848D01*
X155493D01*
X155403Y82967D01*
G03X154766Y83283I-637J-484D01*
G01X152006D01*
G03X151205Y82482I0J-801D01*
G01Y79722D01*
G03X152006Y78922I801J0D01*
G01X154766D01*
G03X155567Y79722I0J801D01*
G01Y80247D01*
X157696D01*
X157787Y80128D01*
G03X157918Y79992I638J484D01*
G02Y79063I-380J-465D01*
G03X157624Y78443I506J-620D01*
G01Y76572D01*
G03X158424Y75772I801J0D01*
G01X158935D01*
Y73831D01*
X157287D01*
G03X156487Y73030I0J-801D01*
G01Y71226D01*
X156484Y71206D01*
G03X156467Y70960I1784J-246D01*
G01Y67429D01*
X156363Y67339D01*
G03X156283Y67259I524J-605D01*
G01X156193Y67155D01*
X152933D01*
G03X150787Y68155I-2145J-1801D01*
G03Y62554I0J-2801D01*
G03X152933Y63554I0J2801D01*
G01X156193D01*
X156283Y63450D01*
G03X156363Y63369I605J524D01*
G01X156467Y63280D01*
Y62951D01*
X156207Y62691D01*
G03X155680Y61417I1273J-1273D01*
G01Y60247D01*
X155619Y60167D01*
G03X155459Y59686I641J-481D01*
G01Y57480D01*
G03X156260Y56680I801J0D01*
G01X158701D01*
G03X159038Y56754I-1J801D01*
G01X159098Y56782D01*
X162032D01*
G03X163306Y57310I0J1801D01*
G01X163458Y57462D01*
X164762D01*
G03X165563Y58263I0J801D01*
G01Y60823D01*
G03X164762Y61624I-801J0D01*
G01X161222D01*
G03X160421Y60823I0J-801D01*
G01Y60384D01*
X159517D01*
X159364Y60754D01*
X159541Y60931D01*
G03X160069Y62205I-1273J1273D01*
G01Y63280D01*
X160172Y63369D01*
G03X160448Y63974I-524J605D01*
G01Y66734D01*
G03X160172Y67339I-801J0D01*
G01X160069Y67429D01*
Y68699D01*
X160226Y68784D01*
G03X160648Y69490I-379J706D01*
G01Y71501D01*
X161156Y72009D01*
G03X161224Y72083I-918J922D01*
G01X161711Y72038D01*
G03X161917Y71771I1125J653D01*
G01X162187Y71501D01*
Y69490D01*
G03X162987Y68689I801J0D01*
G01X165547D01*
G03X166311Y69249I0J801D01*
G01X166377Y69459D01*
X167481D01*
X167547Y69249D01*
G03X168311Y68689I764J241D01*
G01X170871D01*
G03X171672Y69490I0J801D01*
G01Y73030D01*
G03X170871Y73831I-801J0D01*
G01X168311D01*
G03X167547Y73270I0J-801D01*
G01X167481Y73061D01*
X166377D01*
X166311Y73270D01*
G03X165547Y73831I-764J-241D01*
G01X164137D01*
Y75772D01*
X164765D01*
G03X165565Y76572I0J801D01*
G01Y78443D01*
G03X165271Y79063I-801J0D01*
G02Y79992I380J465D01*
G03X165402Y80128I-506J620D01*
G01X165493Y80247D01*
X167374D01*
G03X168294Y80628I0J1300D01*
G01X168557Y80890D01*
X170278D01*
G03X171078Y81691I0J801D01*
G01Y84451D01*
G03X170278Y85252I-801J0D01*
G01X167518D01*
G03X166717Y84451I0J-801D01*
G01Y82848D01*
X165493D01*
X165402Y82967D01*
G03X164765Y83283I-638J-484D01*
G01X163537D01*
Y85433D01*
G03X163156Y86353I-1300J0D01*
G01X159187Y90321D01*
G03X158268Y90702I-920J-919D01*
G01X153549D01*
G02X152957Y91401I0J600D01*
G03X152968Y91533I-790J132D01*
G01Y93254D01*
X156915Y97202D01*
X157043Y97200D01*
G03X157087Y97199I47J2800D01*
G03X154286Y100000I0J2801D01*
G03X154555Y98802I2801J1D01*
G01X154645Y98611D01*
X151128Y95094D01*
X149407D01*
G03X148729Y94719I0J-801D01*
G02X147870Y94549I-509J318D01*
G03X147404Y94699I-467J-651D01*
G01X141493D01*
G03X141366Y94689I0J-801D01*
G01X141342Y94685D01*
X140354D01*
X139370Y95669D01*
Y96507D01*
X139374Y96530D01*
G03X139383Y96654I-791J125D01*
G01Y99513D01*
X139563Y99592D01*
G03X140640Y101241I-724J1649D01*
G03X140157Y102467I-1800J0D01*
G01Y104331D01*
X140522Y104695D01*
X148454D01*
X149213Y103937D01*
Y102547D01*
X146498Y99832D01*
X144788D01*
X144698Y99935D01*
G03X144094Y100210I-604J-526D01*
G01X141732D01*
G03X140931Y99409I0J-801D01*
G01Y96654D01*
G03X141732Y95853I801J0D01*
G01X144094D01*
G03X144698Y96128I0J801D01*
G01X144788Y96231D01*
X147244D01*
G03X148517Y96758I0J1801D01*
G01X155864Y104105D01*
X159096D01*
X162372Y100829D01*
Y95669D01*
G03X162900Y94396I1801J0D01*
G01X173490Y83806D01*
Y73649D01*
X173414Y73563D01*
G03X173210Y73030I597J-533D01*
G01Y69490D01*
G03X174011Y68689I801J0D01*
G01X176571D01*
G03X177372Y69490I0J801D01*
G01Y73030D01*
G03X177168Y73563I-801J0D01*
G01X177092Y73649D01*
Y84552D01*
G03X176564Y85825I-1801J0D01*
G01X165974Y96415D01*
Y101575D01*
G03X165446Y102848I-1801J0D01*
G01X161116Y107179D01*
G03X159843Y107706I-1273J-1273D01*
G01X156919D01*
Y108268D01*
G03X156391Y109541I-1801J0D01*
G01X156175Y109757D01*
X156181Y109764D01*
X155354Y110591D01*
Y115433D01*
X155344Y115423D01*
Y124357D01*
X156372Y125384D01*
X157676D01*
G03X158476Y126185I0J801D01*
G01Y126546D01*
X166535D01*
G03X167809Y127073I0J1801D01*
G01X170565Y129829D01*
G03X171092Y131102I-1273J1273D01*
G01Y147864D01*
X171654Y148425D01*
X174550D01*
G03X175452Y148274I902J2618D01*
G01X175453D01*
G03X176367Y148430I0J2769D01*
G02X177165Y147863I198J-566D01*
G01Y144223D01*
G02X176367Y143657I-600J0D01*
G03X175453Y143813I-915J-2614D01*
G03X172683Y141043I0J-2769D01*
G03X174352Y138502I2769J0D01*
G01Y91083D01*
G03X174674Y90304I1101J0D01*
G01X181183Y83796D01*
Y67175D01*
X180782D01*
G03X180633Y67161I1J-801D01*
G01X180605Y67155D01*
X177401D01*
X177335Y67365D01*
G03X176571Y67925I-764J-241D01*
G01X174011D01*
G03X173210Y67124I0J-801D01*
G01Y65709D01*
X173181Y65647D01*
G03X173002Y64867I1622J-781D01*
G01Y61740D01*
X172952Y61665D01*
G03X172861Y61478I668J-442D01*
G01X172793Y61273D01*
X171499D01*
X171413Y61349D01*
G03X170880Y61553I-533J-597D01*
G01X167340D01*
G03X166539Y60752I0J-801D01*
G01Y58192D01*
G03X167340Y57391I801J0D01*
G01X170880D01*
G03X171413Y57595I0J801D01*
G01X171499Y57671D01*
X173496D01*
X173515Y57669D01*
G03X173620Y57662I103J794D01*
G01X176380D01*
G03X177181Y58463I0J801D01*
G01Y61222D01*
G03X176761Y61927I-801J0D01*
G01X176604Y62012D01*
Y62754D01*
X176813Y62821D01*
G03X177335Y63344I-242J763D01*
G01X177401Y63554D01*
X179857D01*
X179983Y63428D01*
Y60775D01*
X179133D01*
Y54973D01*
X179983D01*
Y49374D01*
G03X180783Y48573I801J0D01*
G01X183783D01*
G03X184584Y49374I0J801D01*
G01Y50368D01*
X188344D01*
X188409Y50156D01*
G03X189175Y49588I766J234D01*
G01X192715D01*
G03X193516Y50389I0J801D01*
G01Y52949D01*
G03X192715Y53750I-801J0D01*
G01X189175D01*
G03X188409Y53182I0J-801D01*
G01X188344Y52970D01*
X184584D01*
Y54973D01*
X185434D01*
Y60775D01*
X184584D01*
Y66374D01*
G03X183783Y67175I-801J0D01*
G01X183384D01*
Y84252D01*
G03X183062Y85030I-1101J0D01*
G01X176554Y91539D01*
Y137549D01*
G02X177578Y137974I600J0D01*
G01X178740Y136811D01*
Y92520D01*
X182283Y88976D01*
X194094D01*
X196850Y86220D01*
Y33858D01*
X201181Y29528D01*
X224380D01*
Y28643D01*
G03X222637Y26998I1604J-3446D01*
G01X198290D01*
X192746Y32542D01*
Y43859D01*
X192956Y43925D01*
G03X193516Y44689I-241J764D01*
G01Y47249D01*
G03X192715Y48050I-801J0D01*
G01X189175D01*
G03X188374Y47249I0J-801D01*
G01Y44689D01*
G03X188934Y43925I801J0D01*
G01X189144Y43859D01*
Y31796D01*
G03X189672Y30522I1801J0D01*
G01X196270Y23924D01*
G03X197544Y23396I1273J1273D01*
G01X222637D01*
G03X223731Y22136I3347J1801D01*
G02X223800Y21228I-356J-483D01*
G01X221762Y19191D01*
X209701D01*
X209611Y19294D01*
G03X209006Y19570I-605J-524D01*
G01X206246D01*
G03X205445Y18770I0J-801D01*
G01Y16010D01*
G03X206246Y15209I801J0D01*
G01X209006D01*
G03X209611Y15485I0J801D01*
G01X209701Y15589D01*
X222508D01*
G03X223781Y16117I0J1801D01*
G01X227257Y19593D01*
G03X227785Y20866I-1273J1273D01*
G01Y21850D01*
G03X229785Y25197I-1801J3347D01*
G03X227982Y28430I-3801J0D01*
G01Y29528D01*
X230315D01*
X238189Y37402D01*
X251969D01*
X253071Y36299D01*
Y3043D01*
X252390Y2362D01*
X230491D01*
G02X229994Y3297I0J600D01*
G03X230130Y3744I-665J447D01*
G01Y6304D01*
G03X229329Y7105I-801J0D01*
G01X225789D01*
G03X225082Y6680I0J-801D01*
G03X224410Y6819I-672J-1562D01*
G01X224409D01*
G03X223952Y6756I0J-1701D01*
G01X223769Y6829D01*
X223717Y6915D01*
G03X223033Y7299I-684J-416D01*
G01X220274D01*
G03X219473Y6498I0J-801D01*
G01Y3738D01*
G03X219607Y3294I800J0D01*
G02X219107Y2362I-500J-332D01*
G01X3150D01*
X2362Y3150D01*
Y93031D01*
X5394Y96063D01*
X31969D01*
X36378Y100472D01*
Y108228D01*
X49606Y121457D01*
Y169485D01*
X49892Y169770D01*
G02X50404Y169558I212J-212D01*
G01Y120864D01*
X39435Y109895D01*
G03X38908Y108622I1273J-1273D01*
G01Y81102D01*
G03X39435Y79829I1801J0D01*
G01X42687Y76577D01*
Y45118D01*
G03X43215Y43845I1801J0D01*
G01X64498Y22561D01*
Y12559D01*
G03X65026Y11286I1801J0D01*
G01X66711Y9600D01*
X66726Y9580D01*
G03X66916Y9357I1463J1050D01*
G01X69160Y7113D01*
G03X70433Y6585I1273J1273D01*
G03X72234Y8386I0J1801D01*
G03X71706Y9659I-1801J0D01*
G01X69667Y11699D01*
X69652Y11719D01*
X69652Y11720D01*
G03X69462Y11943I-1462J-1051D01*
G01X68100Y13305D01*
Y23307D01*
G03X67572Y24580I-1801J0D01*
G01X46289Y45864D01*
Y77323D01*
G03X45761Y78596I-1801J0D01*
G01X42509Y81848D01*
Y107876D01*
X53478Y118845D01*
G03X54006Y120118I-1273J1273D01*
G01Y173884D01*
X56563Y176441D01*
X77102D01*
X78620Y174923D01*
Y159530D01*
X78398Y159470D01*
G03X77134Y157827I437J-1644D01*
G03X77963Y156366I1701J0D01*
G02X77983Y155348I-307J-515D01*
G03X77209Y153921I926J-1426D01*
G03X78909Y152220I1701J0D01*
G03X80593Y153681I0J1701D01*
G01X80607Y153780D01*
X82809Y155982D01*
G03X83191Y156902I-919J920D01*
G01Y175317D01*
X84352Y176478D01*
X109156D01*
X113189Y180512D01*
X176063D01*
X177165Y179409D01*
Y169596D01*
X176266Y168696D01*
X176102Y168735D01*
G03X175454Y168813I-649J-2692D01*
G01X175453D01*
G03X172683Y166043I0J-2769D01*
G03X173596Y163989I2769J0D01*
G02Y163098I-402J-445D01*
G03X173359Y162855I1858J-2053D01*
G02X172481Y162824I-454J393D01*
G01X169269Y166035D01*
G02X169275Y166889I424J424D01*
G03X170124Y168898I-1953J2008D01*
G03X164522I-2801J0D01*
G03X165877Y166499I2801J0D01*
G01X166022Y166411D01*
Y166142D01*
G03X166403Y165222I1300J0D01*
G01X171502Y160124D01*
G03X172421Y159743I920J919D01*
G01X173008D01*
G03X173596Y158989I2445J1301D01*
G02Y158098I-402J-445D01*
G03X173008Y157344I1857J-2055D01*
G01X172448D01*
X155644Y174148D01*
G03X154724Y174529I-920J-919D01*
G01X96080D01*
G03X94835Y175029I-1245J-1301D01*
G03X93034Y173228I0J-1801D01*
G03X94412Y171478I1801J0D01*
G02X94695Y170470I-141J-583D01*
G01X88884Y164659D01*
G03X88357Y163386I1273J-1273D01*
G01Y149291D01*
G03X88884Y148018I1801J0D01*
G01X90144Y146758D01*
Y143959D01*
X94081Y140022D01*
Y135495D01*
X94869Y134707D01*
Y126339D01*
G03X95069Y125809I801J1D01*
G01X95144Y125724D01*
Y121496D01*
G03X95574Y120457I1470J0D01*
G01X96205Y119826D01*
G03X96493Y119602I1040J1039D01*
G01X96640Y119515D01*
Y114802D01*
X96632Y114735D01*
Y114734D01*
G03X96600Y114462I1163J-272D01*
G01Y111903D01*
G03X97795Y110708I1194J0D01*
G03X98582Y111005I0J1194D01*
G03X99370Y110708I788J898D01*
G03X100157Y111005I0J1194D01*
G03X100944Y110708I788J898D01*
G03X101732Y111005I0J1194D01*
G03X102519Y110708I788J898D01*
G03X103307Y111005I0J1194D01*
G03X104094Y110708I788J898D01*
G03X104881Y111005I0J1194D01*
G03X105669Y110708I788J898D01*
G03X106456Y111005I0J1194D01*
G03X107244Y110708I788J898D01*
G03X108031Y111005I0J1194D01*
G03X108819Y110708I788J898D01*
G03X109606Y111005I0J1194D01*
G03X110393Y110708I788J898D01*
G03X111181Y111005I0J1194D01*
G03X111968Y110708I788J898D01*
G03X112756Y111005I0J1194D01*
G03X113543Y110708I788J898D01*
G03X114330Y111005I0J1194D01*
G03X115040Y110711I787J898D01*
G02X115599Y110152I-39J-599D01*
G03X115893Y109442I1192J78D01*
G03X115596Y108655I898J-788D01*
G03X116791Y107460I1194J0D01*
G01X119350D01*
G03X119622Y107492I0J1194D01*
G01X119656Y107500D01*
X120072D01*
G03X120889Y107838I0J1155D01*
G01X121651Y108600D01*
X121713Y108623D01*
G03X122561Y109843I-453J1219D01*
G01Y110603D01*
X127193Y115235D01*
X129134D01*
G03X130054Y115616I0J1300D01*
G01X130351Y115913D01*
X130461Y115922D01*
G03X131588Y116443I-146J1795D01*
G01X136234Y121089D01*
G03X136540Y121498I-1273J1273D01*
G01X136626Y121654D01*
X139185D01*
X141506Y119333D01*
Y112951D01*
X140277Y111722D01*
X137117D01*
X136991Y111750D01*
G03X136654Y111824I-338J-726D01*
G01X134213D01*
G03X133875Y111750I1J-801D01*
G01X133815Y111722D01*
X131999D01*
X131873Y111750D01*
G03X131535Y111824I-338J-726D01*
G01X129094D01*
G03X128507Y111568I0J-800D01*
G01X128418Y111472D01*
X127244D01*
G03X126147Y111017I0J-1551D01*
G01X124946Y109817D01*
X124803D01*
G03X123986Y109478I0J-1155D01*
G01X121169Y106660D01*
X119691D01*
X119623Y106668D01*
X119622D01*
G03X119350Y106700I-272J-1163D01*
G01X116791D01*
G03X115596Y105505I0J-1194D01*
G03X115893Y104718I1194J0D01*
G03X115596Y103930I898J-788D01*
G03X115893Y103143I1194J0D01*
G03X115596Y102356I898J-788D01*
G03X115893Y101568I1194J0D01*
G03X115596Y100781I898J-788D01*
G03X115893Y99993I1194J0D01*
G03X115596Y99206I898J-788D01*
G03X115893Y98419I1194J0D01*
G03X115596Y97631I898J-788D01*
G03X115893Y96844I1194J0D01*
G03X115596Y96056I898J-788D01*
G03X115893Y95269I1194J0D01*
G03X115596Y94481I898J-788D01*
G03X115893Y93694I1194J0D01*
G03X115596Y92907I898J-788D01*
G03X115893Y92119I1194J0D01*
G03X115596Y91332I898J-788D01*
G03X115893Y90544I1194J0D01*
G03X115596Y89757I898J-788D01*
G03X115893Y88970I1194J0D01*
G03X115596Y88182I898J-788D01*
G03X115893Y87395I1194J0D01*
G03X115596Y86607I898J-788D01*
G03X115893Y85820I1194J0D01*
G03X115596Y85033I898J-788D01*
G03X116791Y83838I1194J0D01*
G01X119350D01*
G03X119622Y83870I0J1194D01*
G01X119656Y83878D01*
X120000D01*
X121958Y81920D01*
X121969Y81686D01*
X121893Y81596D01*
G03X121467Y80433I1375J-1163D01*
G03X121734Y79489I1801J0D01*
G01X121797Y79387D01*
X121748Y79152D01*
X121648Y79084D01*
G03X120428Y76772I1580J-2312D01*
G01Y76769D01*
G03X120452Y76404I2801J1D01*
G02X119433Y75901I-595J-79D01*
G01X114729Y80605D01*
X114736Y80739D01*
G03X114737Y80799I-1193J61D01*
G01Y83359D01*
G03X113543Y84554I-1194J0D01*
G03X112756Y84257I0J-1194D01*
G03X111968Y84554I-788J-898D01*
G03X111181Y84257I0J-1194D01*
G03X110393Y84554I-788J-898D01*
G03X109606Y84257I0J-1194D01*
G03X108819Y84554I-788J-898D01*
G03X108031Y84257I0J-1194D01*
G03X107244Y84554I-788J-898D01*
G03X106456Y84257I0J-1194D01*
G03X105669Y84554I-788J-898D01*
G03X104881Y84257I0J-1194D01*
G03X104094Y84554I-788J-898D01*
G03X103307Y84257I0J-1194D01*
G03X102519Y84554I-788J-898D01*
G03X101732Y84257I0J-1194D01*
G03X100944Y84554I-788J-898D01*
G03X100157Y84257I0J-1194D01*
G03X99370Y84554I-788J-898D01*
G03X98582Y84257I0J-1194D01*
G03X97795Y84554I-788J-898D01*
G03X97007Y84257I0J-1194D01*
G03X96220Y84554I-788J-898D01*
G03X95433Y84257I0J-1194D01*
G03X94645Y84554I-788J-898D01*
G03X93858Y84257I0J-1194D01*
G03X93070Y84554I-788J-898D01*
G03X92283Y84257I0J-1194D01*
G03X91496Y84554I-788J-898D01*
G03X90708Y84257I0J-1194D01*
G03X89999Y84551I-787J-898D01*
G02X89439Y85111I39J599D01*
G03X89146Y85820I-1192J-78D01*
G03X89442Y86607I-898J788D01*
G03X89146Y87395I-1194J0D01*
G03X89442Y88182I-898J788D01*
G03X89146Y88970I-1194J0D01*
G03X89442Y89757I-898J788D01*
G03X89146Y90544I-1194J0D01*
G03X89442Y91332I-898J788D01*
G03X89146Y92119I-1194J0D01*
G03X89442Y92907I-898J788D01*
G03X89146Y93694I-1194J0D01*
G03X89442Y94481I-898J788D01*
G03X89146Y95269I-1194J0D01*
G03X89442Y96056I-898J788D01*
G03X89146Y96844I-1194J0D01*
G03X89442Y97631I-898J788D01*
G03X89146Y98419I-1194J0D01*
G03X89442Y99206I-898J788D01*
G03X89146Y99993I-1194J0D01*
G03X89442Y100781I-898J788D01*
G03X89146Y101568I-1194J0D01*
G03X89442Y102356I-898J788D01*
G03X89146Y103143I-1194J0D01*
G03X89442Y103930I-898J788D01*
G03X89146Y104718I-1194J0D01*
G03X89442Y105505I-898J788D01*
G03X88248Y106700I-1194J0D01*
G01X85689D01*
G03X85416Y106668I0J-1194D01*
G01X85382Y106660D01*
X83950D01*
X81919Y108691D01*
G03X81504Y108957I-817J-817D01*
G01X81442Y108980D01*
X80762Y109659D01*
G03X79843Y110041I-920J-919D01*
G01X78002D01*
X77919Y110205D01*
G03X77205Y110643I-714J-362D01*
G01X74764D01*
G03X74426Y110569I1J-801D01*
G01X74366Y110541D01*
X72550D01*
X72424Y110569D01*
G03X72087Y110643I-338J-726D01*
G01X69856D01*
X65446Y115053D01*
G03X64173Y115580I-1273J-1273D01*
G01X60887D01*
Y116215D01*
X68856Y124183D01*
X76865D01*
X76955Y124080D01*
G03X77559Y123806I604J526D01*
G01X79921D01*
G03X80722Y124606I0J801D01*
G01Y127362D01*
G03X79921Y128163I-801J0D01*
G01X77559D01*
G03X76955Y127888I0J-801D01*
G01X76865Y127785D01*
X68110D01*
G03X66837Y127257I0J-1801D01*
G01X57813Y118234D01*
G03X57286Y116961I1273J-1273D01*
G01Y114526D01*
X55813Y113053D01*
G03X55286Y111780I1273J-1273D01*
G01Y110195D01*
X54372Y109281D01*
X48898D01*
G03X47624Y108754I0J-1801D01*
G01X45065Y106194D01*
G03X44538Y104921I1273J-1273D01*
G03X46339Y103120I1801J0D01*
G03X47612Y103648I0J1801D01*
G01X49644Y105680D01*
X53317D01*
Y100787D01*
G03X53845Y99514I1801J0D01*
G01X56065Y97294D01*
G02X55641Y96269I-424J-424D01*
G01X54135D01*
G03X53824Y96206I0J-801D01*
G01X53768Y96183D01*
X52607D01*
X52558Y96422D01*
G03X51774Y97063I-785J-161D01*
G01X49014D01*
G03X48213Y96262I0J-801D01*
G01Y93502D01*
G03X49014Y92701I801J0D01*
G01X51774D01*
G03X52558Y93341I0J801D01*
G01X52607Y93581D01*
X53335D01*
Y92909D01*
G03X54135Y92108I801J0D01*
G01X56288D01*
X56457Y91939D01*
G03X57306Y91587I849J849D01*
G01X65893D01*
X66535Y90945D01*
Y84252D01*
X66065Y83781D01*
X64594D01*
X64226Y84149D01*
Y85433D01*
G03X63425Y86234I-801J0D01*
G01X60984D01*
G03X60647Y86159I1J-801D01*
G01X60587Y86131D01*
X58992D01*
G02X58428Y86936I0J600D01*
G03X58476Y87209I-753J273D01*
G01Y89769D01*
G03X57676Y90569I-801J0D01*
G01X55258D01*
X55244Y90571D01*
G03X55118Y90577I-124J-1295D01*
G01X52564D01*
X52479Y90735D01*
G03X51774Y91157I-706J-379D01*
G01X49014D01*
G03X48213Y90356I0J-801D01*
G01Y87596D01*
G03X48384Y87102I801J0D01*
G02X48306Y86280I-472J-370D01*
G03X48215Y86195I1187J-1354D01*
G01X47304Y85283D01*
G03X46726Y83961I1224J-1322D01*
G01Y83873D01*
G03X46447Y83266I522J-607D01*
G01Y79726D01*
G03X46821Y79048I801J0D01*
G03X47254Y78349I1707J574D01*
G01X47255Y78349D01*
X47360Y78243D01*
Y75983D01*
G03X47416Y75539I1801J0D01*
G01X47425Y75503D01*
Y74999D01*
G03X48226Y74198I801J0D01*
G01X48930D01*
X48948Y74196D01*
G03X49161Y74183I216J1788D01*
G03X49374Y74196I-3J1801D01*
G01X49392Y74198D01*
X54136D01*
G03X54635Y74372I0J801D01*
G03X55560Y74833I-225J1612D01*
G01X58273Y77546D01*
X60354D01*
G03X61155Y78346I0J801D01*
G01Y79291D01*
X66378D01*
X68028Y77641D01*
Y76244D01*
X66009Y74226D01*
G03X65628Y73306I919J-920D01*
G01Y69054D01*
X64106Y67531D01*
X62594D01*
G03X61793Y66731I0J-801D01*
G01Y63191D01*
G03X62594Y62390I801J0D01*
G01X65154D01*
G03X65270Y62398I-1J801D01*
G01X65293Y62402D01*
X70315D01*
X71607Y63693D01*
G03X71740Y63826I-1134J1267D01*
G01X72165Y64252D01*
Y64783D01*
X72167Y64809D01*
Y64810D01*
G03X72173Y64961I-1694J151D01*
G03X72167Y65111I-1701J0D01*
G01X72165Y65125D01*
Y67480D01*
X73801Y69116D01*
X77439D01*
G03X78240Y69917I0J801D01*
G01Y72476D01*
G03X77439Y73277I-801J0D01*
G01X74135D01*
Y73585D01*
G03X74135Y73622I-1300J32D01*
G01Y73870D01*
X77088Y76823D01*
G02X78076Y76603I424J-424D01*
G03X80709Y74758I2633J956D01*
G03X82310Y75261I0J2801D01*
G01X82387Y75315D01*
X83268D01*
X83661Y74921D01*
Y73965D01*
X80891Y71195D01*
G03X80510Y70275I919J-920D01*
G01Y63865D01*
X78828Y62182D01*
X76617D01*
X76552Y62395D01*
G03X75786Y62962I-766J-234D01*
G01X72246D01*
G03X71445Y62161I0J-801D01*
G01Y59602D01*
G03X72246Y58801I801J0D01*
G01X75786D01*
G03X76552Y59368I0J801D01*
G01X76617Y59581D01*
X78828D01*
X79408Y59000D01*
Y57756D01*
G03X79789Y56836I1300J0D01*
G01X80157Y56468D01*
X80116Y56304D01*
G03X80034Y55630I2718J-674D01*
G03X82835Y58431I2801J0D01*
G03X82649Y58424I2J-2801D01*
G02X82009Y59023I-40J599D01*
G01Y59539D01*
G03X81628Y60459I-1300J0D01*
G37*
G36*
G01X3661Y156181D02*
X36772D01*
X38504Y154449D01*
Y139921D01*
X34567Y135984D01*
Y133071D01*
X33189Y131693D01*
X29764D01*
X28819Y130748D01*
X19016D01*
X16102Y127835D01*
Y112953D01*
X18819Y110236D01*
X28031D01*
X29016Y109252D01*
X33189D01*
X34685Y107756D01*
Y100945D01*
X32047Y98307D01*
X4567D01*
X2008Y100866D01*
Y124181D01*
X2000Y124173D01*
Y154520D01*
X3661Y156181D01*
G37*
G36*
G01X33189Y188465D02*
X42520D01*
X49173Y181811D01*
Y171142D01*
X48150Y170118D01*
Y121929D01*
X39646Y113425D01*
X34016D01*
X33465Y113976D01*
X29331D01*
X28346Y114961D01*
X25157D01*
Y116142D01*
X29016D01*
X30000Y115157D01*
X33465D01*
X34252Y115945D01*
Y117953D01*
X35945Y119646D01*
Y123312D01*
G03X36346Y124409I-1299J1098D01*
G03X34646Y126110I-1701J0D01*
G03X33649Y125787I0J-1700D01*
G01X30039D01*
X29871Y125619D01*
X29857Y125608D01*
G03X29726Y125477I497J-628D01*
G01X29716Y125464D01*
X29055Y124803D01*
X25118D01*
Y125984D01*
X28543D01*
X29528Y126969D01*
X33465D01*
X36024Y129528D01*
Y134409D01*
X40118Y138504D01*
Y155276D01*
X36220Y159173D01*
X3268D01*
X2126Y160315D01*
Y167953D01*
X3386Y169213D01*
X33189D01*
Y188465D01*
G37*
G36*
G01X2000Y186614D02*
X3733Y188346D01*
X29252D01*
Y180591D01*
X30866Y178976D01*
Y171142D01*
X3819D01*
X2000Y172960D01*
Y186614D01*
G37*
G36*
G01X3937Y229921D02*
X251575D01*
X253346Y228150D01*
Y100984D01*
X251575Y99213D01*
X234252D01*
X227165Y92126D01*
X213780D01*
X213386Y92520D01*
Y98819D01*
X213780Y99213D01*
X218110D01*
X219291Y100394D01*
Y104331D01*
X218110Y105512D01*
X204606D01*
X202480Y107638D01*
Y118425D01*
X203268Y119213D01*
X206220D01*
X206929Y118504D01*
X222598D01*
X223425Y119331D01*
Y122953D01*
X222953Y123425D01*
X214252D01*
X212992Y124685D01*
Y133543D01*
X213228Y133780D01*
X217677D01*
X218661Y134764D01*
Y138858D01*
X217520Y140000D01*
X212913D01*
X211693Y138780D01*
X207094D01*
X206283Y139591D01*
Y153016D01*
X207638Y154370D01*
X215555D01*
X217902Y156717D01*
Y166783D01*
X216535Y168150D01*
Y198819D01*
X211811Y203543D01*
X181496D01*
X175591Y209449D01*
X115539D01*
X109486Y215502D01*
X109491Y215633D01*
G03X109494Y215748I-2798J115D01*
G03X106693Y212947I-2801J0D01*
G03X106808Y212950I0J2801D01*
G01X106939Y212955D01*
X110557Y209337D01*
X108661Y207441D01*
X99600D01*
Y211182D01*
G03X98799Y211983I-801J0D01*
G01X97461D01*
G03X96672Y211325I0J-801D01*
G02X96419Y211081I-295J53D01*
G03X95461Y210603I235J-1670D01*
G01X92626Y207769D01*
G03X92132Y206576I1192J-1193D01*
G01Y204557D01*
X91624Y204049D01*
X89983D01*
X89966Y204051D01*
G03X89764Y204063I-203J-1688D01*
G03Y200661I0J-1701D01*
G03X89966Y200674I-1J1701D01*
G01X89983Y200676D01*
X92103D01*
X92121Y200674D01*
G03X92323Y200661I203J1688D01*
G03X93660Y201311I0J1701D01*
G01X93671Y201325D01*
X94251Y201906D01*
G02X95276Y201481I424J-424D01*
G01Y196063D01*
X94488Y195276D01*
X83071D01*
X79921Y198425D01*
X62598D01*
X58661Y202362D01*
X52795D01*
X48937Y206220D01*
X38031D01*
X29252Y197441D01*
Y191496D01*
X3898D01*
X2362Y193031D01*
Y228346D01*
X3937Y229921D01*
G37*
G36*
G01X79528Y186614D02*
X78740Y185827D01*
Y177953D01*
X78346Y177559D01*
X51299D01*
X50551Y178307D01*
Y184016D01*
X43071Y191496D01*
X33189D01*
Y198386D01*
X39173Y204370D01*
X48110D01*
X52087Y200394D01*
X58268D01*
X61811Y196850D01*
X77165D01*
X79528Y194488D01*
Y186614D01*
G37*
G36*
G01X98619Y70998D02*
G02X99644Y70574I424J-424D01*
G01Y67639D01*
X99383Y67605D01*
G03X98687Y66811I105J-794D01*
G01Y64370D01*
G03X98733Y64103I801J0D01*
G01X98751Y64054D01*
Y62051D01*
X98723Y61991D01*
G03X98648Y61654I726J-338D01*
G01Y59213D01*
G03X98723Y58875I801J1D01*
G01X98751Y58815D01*
Y50433D01*
Y50428D01*
X98751Y50303D01*
X98451Y50003D01*
X85592Y62862D01*
Y67847D01*
X88325Y70580D01*
G02X89308Y70373I424J-424D01*
G03X89445Y70098I1585J617D01*
G01X89490Y70025D01*
Y69153D01*
X89445Y69080D01*
G03X89193Y68189I1448J-891D01*
G03X90894Y66488I1701J0D01*
G03X92445Y67491I0J1701D01*
G01X92524Y67668D01*
X94813D01*
G03X95626Y68005I0J1151D01*
G01X98619Y70998D01*
G37*
G36*
G01X155513Y129620D02*
X155438Y129546D01*
X154135D01*
G03X153335Y128745I0J-801D01*
G01Y127441D01*
X152270Y126376D01*
G03X152257Y126363I1267J-1280D01*
G02X151743Y126572I-214J210D01*
G01Y127600D01*
X151431Y127912D01*
G03X150983Y128088I-425J-424D01*
G02X150372Y128557I-24J599D01*
G03X147638Y130754I-2735J-605D01*
G03X145062Y129054I0J-2801D01*
G01X142582D01*
X140542Y131093D01*
G03X139764Y131416I-778J-778D01*
G01X124016D01*
G03X123237Y131093I0J-1101D01*
G01X117593Y125449D01*
G02X116570Y125823I-424J424D01*
G03X113780Y128391I-2791J-233D01*
G03X111204Y126691I0J-2801D01*
G01X110468D01*
G02X110256Y127204I0J300D01*
G01X115488Y132435D01*
X115663Y132378D01*
G03X116535Y132239I872J2661D01*
G03X119336Y135039I0J2801D01*
G03X119197Y135911I-2801J0D01*
G01X119139Y136087D01*
X120463Y137411D01*
G03X120786Y138189I-778J778D01*
G01Y139308D01*
X121622Y140144D01*
X148363D01*
X149226Y141007D01*
Y146285D01*
X153516Y150575D01*
X154530D01*
G03X154800Y150622I0J801D01*
G01X154849Y150640D01*
X157009D01*
X157096Y150488D01*
G03X157388Y150105I1566J890D01*
G01X161207Y146285D01*
Y144685D01*
G03X162008Y143884I801J0D01*
G01X165551D01*
G03X166352Y144685I0J801D01*
G01Y147835D01*
G03X165551Y148635I-801J0D01*
G01X163951D01*
X160683Y151904D01*
Y153543D01*
G03X160544Y153993I-801J0D01*
G02Y154668I496J337D01*
G03X160683Y155118I-662J450D01*
G01Y157324D01*
G03X159882Y158124I-801J0D01*
G01X159305D01*
X157100Y160328D01*
G03X155827Y160856I-1273J-1273D01*
G01X155224D01*
X155135Y160959D01*
G03X154530Y161236I-605J-524D01*
G01X151770D01*
G03X150969Y160435I0J-801D01*
G01Y159421D01*
X150250Y158702D01*
G02X149226Y159126I-424J424D01*
G01Y165293D01*
X147970Y166549D01*
X120534D01*
X119672Y165686D01*
Y163218D01*
X117229D01*
G03X115956Y162691I0J-1801D01*
G01X114494Y161230D01*
X113191D01*
G03X112390Y160429I0J-801D01*
G01Y157869D01*
G03X113191Y157069I801J0D01*
G01X116731D01*
G03X117531Y157869I0J801D01*
G01Y159173D01*
X117975Y159617D01*
X119672D01*
Y141307D01*
X118907Y140542D01*
G03X118584Y139764I778J-778D01*
G01Y138645D01*
X117583Y137643D01*
X117407Y137701D01*
G03X116535Y137840I-872J-2661D01*
G03X113735Y135039I0J-2801D01*
G03X113874Y134167I2801J0D01*
G01X113931Y133992D01*
X110250Y130311D01*
G02X109226Y130735I-424J424D01*
G01Y134528D01*
G03X109194Y134819I-1352J-1D01*
G01X109187Y134851D01*
Y136339D01*
G03X109113Y136676I-801J-1D01*
G01X109085Y136736D01*
Y138539D01*
X109113Y138600D01*
G03X109187Y138937I-726J338D01*
G01Y141378D01*
G03X109113Y141715I-801J-1D01*
G01X109085Y141776D01*
Y154172D01*
G03X109085Y154228I-1801J53D01*
G03X108558Y155502I-1802J0D01*
G01X108474Y155585D01*
Y156888D01*
G03X108270Y157422I-801J0D01*
G01X108194Y157507D01*
Y160142D01*
G03X109100Y162205I-1895J2063D01*
G03X103498I-2801J0D01*
G03X104593Y159984I2801J0D01*
G01Y157507D01*
X104516Y157422D01*
G03X104313Y156888I597J-533D01*
G01Y153348D01*
G03X105113Y152547I801J0D01*
G01X105483D01*
Y141776D01*
X105455Y141715D01*
G03X105380Y141378I726J-338D01*
G01Y138937D01*
G03X105455Y138600I801J1D01*
G01X105483Y138539D01*
Y136736D01*
X105455Y136676D01*
G03X105380Y136339I726J-338D01*
G01Y133898D01*
G03X106181Y133097I801J0D01*
G01X106522D01*
Y129300D01*
X105962Y128740D01*
X103465D01*
X103110Y129094D01*
Y131850D01*
X101785Y133176D01*
Y144046D01*
X102036Y144088D01*
G03X104376Y146850I-461J2763D01*
G03X101575Y149651I-2801J0D01*
G03X99058Y148080I0J-2801D01*
G02X98095Y147919I-539J264D01*
G01X96907Y149108D01*
X92888D01*
X91958Y150037D01*
Y162640D01*
X97990Y168672D01*
X152797D01*
X167491Y153978D01*
Y131848D01*
X165789Y130147D01*
X156842D01*
G03X156787Y130148I-53J-1801D01*
G03X155513Y129620I0J-1802D01*
G37*
G36*
G01X92323Y148307D02*
X96575D01*
X98031Y146850D01*
Y129380D01*
X95669D01*
Y135039D01*
X94882Y135827D01*
Y140354D01*
X90945Y144291D01*
Y146929D01*
X92323Y148307D01*
G37*
G36*
G01X81890Y193189D02*
X91654D01*
X92480Y192362D01*
Y192251D01*
G03X92472Y192088I1693J-163D01*
G03X92479Y191937I1701J0D01*
G01X92480Y191924D01*
Y190591D01*
X95000Y188071D01*
X106811D01*
X108268Y186614D01*
Y178740D01*
X107480Y177953D01*
X83858D01*
X83465Y178346D01*
Y186220D01*
X81102Y188583D01*
Y192402D01*
X81890Y193189D01*
G37*
G36*
G01X112323Y65730D02*
X115107D01*
X116009Y64828D01*
G03X116929Y64447I920J919D01*
G01X121346D01*
G03X122201Y64064I1096J1301D01*
G01X122300Y64050D01*
X123215Y63135D01*
Y61378D01*
G03X124016Y60577I801J0D01*
G01X124691D01*
Y59055D01*
G03X124776Y58527I1687J0D01*
G02X124546Y57845I-570J-188D01*
G03X124199Y57185I453J-660D01*
G01Y56201D01*
G03X124368Y55709I801J0D01*
G03X124199Y55217I632J-492D01*
G01Y54232D01*
G03X124368Y53740I801J0D01*
G03X124199Y53248I632J-492D01*
G01Y52264D01*
G03X124368Y51772I801J0D01*
G03X124199Y51280I632J-492D01*
G01Y50295D01*
G03X124368Y49803I801J0D01*
G03X124199Y49311I632J-492D01*
G01Y48327D01*
G03X125000Y47526I801J0D01*
G01X127756D01*
G03X128107Y47607I0J801D01*
G01X128170Y47638D01*
X137402D01*
X138189Y46850D01*
Y46140D01*
X136224Y44175D01*
X119921D01*
G03X119002Y43794I0J-1300D01*
G01X117988Y42780D01*
X115394D01*
G02X114843Y43618I0J600D01*
G03X114990Y44331I-1654J713D01*
G03X113189Y46131I-1801J0D01*
G01X107400D01*
X105128Y48403D01*
G02X105193Y49308I424J424D01*
G03X105470Y49569I-1020J1361D01*
G03X106211Y49891I-37J1100D01*
G01X107393Y51072D01*
G03X107715Y51850I-778J778D01*
G01Y54282D01*
G02X108436Y54870I600J0D01*
G03X108780Y54835I343J1666D01*
G03X109763Y55148I0J1701D01*
G02X110710Y54659I347J-490D01*
G01Y53937D01*
G03X111033Y53159I1101J0D01*
G01X112214Y51978D01*
G03X112903Y51659I779J778D01*
G02X113178Y51338I-24J-299D01*
G03X113176Y51280I799J-56D01*
G01Y50295D01*
G03X113344Y49803I801J0D01*
G03X113176Y49311I632J-492D01*
G01Y48327D01*
G03X113976Y47526I801J0D01*
G01X116732D01*
G03X117533Y48327I0J801D01*
G01Y49311D01*
G03X117364Y49803I-801J0D01*
G03X117533Y50295I-632J492D01*
G01Y51280D01*
G03X117364Y51772I-801J0D01*
G03X117533Y52264I-632J492D01*
G01Y53248D01*
G03X117364Y53740I-801J0D01*
G03X117533Y54232I-632J492D01*
G01Y55217D01*
G03X116732Y56017I-801J0D01*
G01X113976D01*
G03X113711Y55972I0J-801D01*
G02X112912Y56538I-199J566D01*
G01Y59686D01*
X113256Y60030D01*
X115550D01*
G03X116350Y60831I0J801D01*
G01Y63391D01*
G03X115550Y64191I-801J0D01*
G01X113256D01*
X112323Y65124D01*
Y65730D01*
G37*
G36*
G01X107087Y189764D02*
X100394D01*
X100000Y190157D01*
Y195197D01*
X99094Y196102D01*
X97244D01*
X96850Y196496D01*
Y204843D01*
X97402Y205394D01*
X108780D01*
X110866Y207480D01*
X132677D01*
X133071Y207087D01*
Y184803D01*
X130827Y182559D01*
X114291D01*
X107087Y189764D01*
G37*
G36*
G01X120866Y165748D02*
X139912D01*
Y165435D01*
X139911Y165422D01*
G03X139908Y165354I798J-66D01*
G01Y157480D01*
G03X140709Y156680I801J0D01*
G01X147795D01*
X147812D01*
G02X148425Y156080I13J-600D01*
G01Y150578D01*
X147467Y149620D01*
X140709D01*
G03X139908Y148819I0J-801D01*
G01Y140945D01*
X128596D01*
Y148819D01*
G03X127795Y149620I-801J0D01*
G01X120472D01*
Y165354D01*
X120866Y165748D01*
G37*
G36*
G01X146457Y185039D02*
Y207087D01*
X146850Y207480D01*
X173622D01*
X179528Y201575D01*
X209843D01*
X212992Y198425D01*
Y174370D01*
X210189Y171567D01*
X202646D01*
X194124Y180089D01*
X181116D01*
X178528Y182677D01*
X148819D01*
X146457Y185039D01*
G37*
G36*
G01X202591Y166882D02*
X214575D01*
X216047Y165409D01*
Y158205D01*
X213535Y155693D01*
X207071D01*
X204051Y152673D01*
Y143106D01*
X203504Y142559D01*
X200024D01*
X199962Y142590D01*
G03X199213Y142764I-749J-1527D01*
G03X199011Y142752I1J-1701D01*
G01X198993Y142750D01*
X196834D01*
X196816Y142752D01*
G03X196614Y142764I-203J-1688D01*
G03X195158Y141943I0J-1701D01*
G01X195139Y141911D01*
X194094Y140866D01*
Y126063D01*
X199488Y120669D01*
Y107598D01*
X198976Y107087D01*
X196339D01*
X193976Y104724D01*
Y92441D01*
X193228Y91693D01*
X182087D01*
X180709Y93071D01*
Y137283D01*
X183150Y139724D01*
Y140413D01*
X183157Y140445D01*
G03Y141641I-2703J598D01*
G01X183150Y141673D01*
Y145413D01*
X183157Y145445D01*
G03Y146641I-2703J598D01*
G01X183150Y146673D01*
Y147441D01*
X202591Y166882D01*
G37*
G36*
G01X188693Y167114D02*
X189133D01*
X189207Y166924D01*
G03X190791Y165843I1584J620D01*
G03X192369Y166908I0J1700D01*
G01X192445Y167096D01*
X193351D01*
X193433Y167014D01*
Y159811D01*
X185315Y151693D01*
X183154D01*
X183086Y151900D01*
G03X182309Y153098I-2633J-857D01*
G02Y153989I402J445D01*
G03Y158098I-1857J2055D01*
G02Y158989I402J445D01*
G03X183222Y161043I-1857J2055D01*
G03X183193Y161444I-2769J0D01*
G01X183171Y161593D01*
X188693Y167114D01*
G37*
G36*
G01X184031Y178094D02*
X190657D01*
X193433Y175319D01*
Y171498D01*
X192455D01*
X192381Y171691D01*
G03X190791Y172787I-1590J-604D01*
G03X189207Y171706I0J-1701D01*
G01X189133Y171516D01*
X187408D01*
G03X186489Y171135I0J-1300D01*
G01X183307Y167953D01*
G02X182450Y167962I-424J424D01*
G03X181309Y168677I-1997J-1919D01*
G01X181102Y168744D01*
Y175165D01*
X184031Y178094D01*
G37*
G36*
G01X201969Y101811D02*
X202126Y101969D01*
X211024D01*
X211457Y101535D01*
Y85669D01*
X218110Y79016D01*
Y33465D01*
X217126Y32480D01*
X200984D01*
X198819Y34646D01*
Y86614D01*
X195669Y89764D01*
Y98898D01*
X195984Y99213D01*
X200394D01*
X201969Y100787D01*
Y101811D01*
G37*
G36*
G01X213622Y87008D02*
X214055Y87441D01*
X217598D01*
X219291Y89134D01*
Y89843D01*
X219882Y90433D01*
X223465D01*
X223819Y90079D01*
Y87835D01*
X220157Y84173D01*
X214213D01*
X213622Y84764D01*
Y87008D01*
G37*
G36*
G01X213189Y103543D02*
X213976Y104331D01*
X217126D01*
X217520Y103937D01*
Y100787D01*
X217126Y100394D01*
X213583D01*
X213189Y100787D01*
Y103543D01*
G37*
G36*
G01X195669Y104724D02*
X196890Y105945D01*
X199961D01*
X200551Y105354D01*
Y100945D01*
X200000Y100394D01*
X196063D01*
X195669Y100787D01*
Y104724D01*
G37*
G36*
G01X213701Y122362D02*
X222402D01*
X222559Y122205D01*
Y119606D01*
X222257Y119305D01*
X213530D01*
X213268Y119567D01*
Y121929D01*
X213701Y122362D01*
G37*
G36*
G01X212835Y138268D02*
X213622Y139055D01*
X216929D01*
X217559Y138425D01*
Y135276D01*
X217165Y134882D01*
X213228D01*
X212835Y135276D01*
Y138268D01*
G37*
G36*
G01X195315Y133307D02*
X195709Y133701D01*
X200236D01*
X201811Y135276D01*
Y136457D01*
X202205Y136850D01*
X210669D01*
X211457Y136063D01*
Y120512D01*
X210276Y119331D01*
X207283D01*
X206496Y120118D01*
X202598D01*
X195315Y127402D01*
Y133307D01*
G37*
G36*
G01X196119Y141758D02*
X199895D01*
X200236Y141417D01*
Y135276D01*
X199843Y134882D01*
X195906D01*
X195512Y135276D01*
Y141151D01*
X196119Y141758D01*
G37*
G36*
G01X235433Y97244D02*
X245669D01*
X249606Y93307D01*
Y51969D01*
X229528Y31890D01*
X223228D01*
X221850Y33268D01*
Y83661D01*
X235433Y97244D01*
G37*
%LPC*%
G75*
G36*
G01X83420Y42126D02*
G02X89021I2801J0D01*
G02X87311Y39546I-2801J0D01*
G01X87128Y39469D01*
Y38896D01*
X91181Y34843D01*
X93189D01*
X94016Y35669D01*
Y36901D01*
X92739Y38177D01*
X91894D01*
G02X91093Y38978I0J801D01*
G01Y42518D01*
G02X91894Y43319I801J0D01*
G01X94454D01*
G02X95254Y42518I0J-801D01*
G01Y39342D01*
X97352Y37244D01*
X97362D01*
X99724Y34882D01*
X100748D01*
X101339Y34291D01*
Y26850D01*
X101067Y26579D01*
X101099Y26422D01*
G02X101111Y26304I-589J-119D01*
G01Y24603D01*
G02X100510Y24002I-601J0D01*
G01X98980D01*
X98897Y23933D01*
G02X98389Y23752I-508J620D01*
G01X91689D01*
G02X90889Y24553I0J801D01*
G01Y25002D01*
G03X89864Y25426I-600J0D01*
G01X88795Y24357D01*
Y22636D01*
G02X88155Y21851I-801J0D01*
G01X87915Y21802D01*
Y20287D01*
X89375D01*
G02X90176Y19487I0J-801D01*
G01Y15946D01*
G02X89608Y15180I-801J0D01*
G01X89396Y15115D01*
Y14412D01*
X89608Y14347D01*
G02X90176Y13581I-234J-766D01*
G01Y10041D01*
G02X89375Y9240I-801J0D01*
G01X86815D01*
G02X86014Y10041I0J801D01*
G01Y10510D01*
X73937D01*
G02X73017Y10891I0J1300D01*
G01X69513Y14395D01*
G02X69132Y15315I919J920D01*
G01Y27296D01*
X64041Y32387D01*
G02X63660Y33307I919J920D01*
G01Y39892D01*
X63474Y39969D01*
G02X62979Y40709I305J740D01*
G01Y43465D01*
G02X63780Y44265I801J0D01*
G01X66142D01*
G02X66943Y43465I0J-801D01*
G01Y40709D01*
G02X66447Y39969I-801J0D01*
G01X66261Y39892D01*
Y33846D01*
X71353Y28754D01*
G02X71734Y27835I-919J-920D01*
G01Y15854D01*
X74476Y13112D01*
X86014D01*
Y13581D01*
G02X86581Y14347I801J0D01*
G01X86794Y14412D01*
Y15115D01*
X86581Y15180D01*
G02X86014Y15946I234J766D01*
G01Y17957D01*
X85694Y18278D01*
G02X85313Y19197I919J920D01*
G01Y21802D01*
X85074Y21851D01*
G02X84433Y22636I161J785D01*
G01Y25396D01*
G02X85234Y26196I801J0D01*
G01X86955D01*
X87087Y26328D01*
G03X86663Y27353I-424J424D01*
G01X84057D01*
G02X83273Y27989I0J801D01*
G01X83223Y28227D01*
X82135D01*
X82086Y27987D01*
G02X81301Y27347I-785J161D01*
G01X78541D01*
G02X77741Y28148I0J801D01*
G01Y29869D01*
X77072Y30537D01*
G02X76877Y30787I919J920D01*
G01X75984D01*
X75317Y30120D01*
Y24555D01*
X75723Y24148D01*
G02X76104Y23228I-919J-920D01*
G01Y19930D01*
X76344Y19881D01*
G02X76984Y19096I-161J-785D01*
G01Y16337D01*
G02X76183Y15536I-801J0D01*
G01X73423D01*
G02X72622Y16337I0J801D01*
G01Y19096D01*
G02X73263Y19881I801J0D01*
G01X73502Y19930D01*
Y22689D01*
X73096Y23096D01*
G02X72715Y24016I919J920D01*
G01Y30828D01*
X71378Y32165D01*
Y35394D01*
X71850Y35866D01*
X76063D01*
X78228Y38031D01*
X83740D01*
X84526Y38817D01*
Y39896D01*
G02X83420Y42126I1694J2230D01*
G37*
G36*
G01X134876Y11574D02*
Y17174D01*
G02X135676Y17975I801J0D01*
G01X141276D01*
G02X142077Y17174I0J-801D01*
G01Y11574D01*
G02X141276Y10773I-801J0D01*
G01X135676D01*
G02X134876Y11574I0J801D01*
G37*
G36*
G01X49017Y23758D02*
X52557D01*
G02X53358Y22957I0J-801D01*
G01Y20946D01*
X54252Y20053D01*
X60523D01*
X60591Y20092D01*
G02X61476Y20324I885J-1568D01*
G02X63277Y18524I0J-1801D01*
G02X63121Y17790I-1801J0D01*
G03X63221Y17424I274J-122D01*
G02X63557Y16772I-465J-652D01*
G01Y13425D01*
G02X62756Y12624I-801J0D01*
G01X56850D01*
G02X56184Y12981I0J801D01*
G01X56168Y13006D01*
X55376Y13798D01*
X53720D01*
G02X52801Y14179I0J1300D01*
G01X50248Y16731D01*
X48095D01*
G02X47175Y17112I0J1300D01*
G01X44729Y19557D01*
X42775D01*
X40211Y16994D01*
G02X39291Y16613I-920J919D01*
G01X37278D01*
X33143Y12478D01*
X33226Y12289D01*
G02X33583Y10606I-3794J-1683D01*
G02X29432Y14757I-4151J0D01*
G02X31115Y14400I0J-4151D01*
G01X31304Y14317D01*
X35820Y18833D01*
G02X36739Y19214I920J-919D01*
G01X38752D01*
X41917Y22379D01*
Y22918D01*
G02X42718Y23719I801J0D01*
G01X46258D01*
G02X47059Y22918I0J-801D01*
G01Y20907D01*
X47192Y20774D01*
G03X48217Y21198I424J424D01*
G01Y22957D01*
G02X49017Y23758I801J0D01*
G37*
G36*
G01X181832Y24092D02*
Y27632D01*
G02X182633Y28433I801J0D01*
G01X185193D01*
G02X185994Y27632I0J-801D01*
G01Y25744D01*
X192547Y19191D01*
X199252D01*
X199342Y19294D01*
G02X199947Y19570I605J-524D01*
G01X202707D01*
G02X203507Y18770I0J-801D01*
G01Y16010D01*
G02X202707Y15209I-801J0D01*
G01X199947D01*
G02X199342Y15485I0J801D01*
G01X199252Y15589D01*
X191801D01*
G02X190528Y16117I0J1801D01*
G01X183352Y23291D01*
X182633D01*
G02X181832Y24092I0J801D01*
G37*
G36*
G01X46038Y29419D02*
X46258D01*
G02X47059Y28618I0J-801D01*
G01Y26058D01*
G02X46258Y25257I-801J0D01*
G01X42718D01*
G02X41917Y26058I0J801D01*
G01Y28618D01*
G02X42718Y29419I801J0D01*
G01X42939D01*
G03X43171Y29909I0J300D01*
G02X42787Y30984I1317J1076D01*
G02X46189I1701J0D01*
G02X45806Y29909I-1701J0D01*
G03X46038Y29419I232J-190D01*
G37*
G36*
G01X49443Y29942D02*
G02X49087Y30984I1344J1042D01*
G02X52488I1701J0D01*
G02X52131Y29942I-1701J0D01*
G03X52369Y29458I237J-184D01*
G01X52557D01*
G02X53358Y28657I0J-801D01*
G01Y26098D01*
G02X52557Y25297I-801J0D01*
G01X49017D01*
G02X48217Y26098I0J801D01*
G01Y28657D01*
G02X49017Y29458I801J0D01*
G01X49206D01*
G03X49443Y29942I0J300D01*
G37*
G36*
G01X176298Y30065D02*
Y32625D01*
G02X177099Y33426I801J0D01*
G01X180639D01*
G02X181440Y32625I0J-801D01*
G01Y30065D01*
G02X180639Y29264I-801J0D01*
G01X179514D01*
Y28463D01*
X179726Y28398D01*
G02X180294Y27632I-234J-766D01*
G01Y24092D01*
G02X179493Y23291I-801J0D01*
G01X176933D01*
G02X176132Y24092I0J801D01*
G01Y24561D01*
X175717D01*
G02X174797Y24943I0J1300D01*
G01X173966Y25773D01*
G03X173159Y25812I-424J-424D01*
G02X172650Y25628I-510J617D01*
G01X169106D01*
G02X168306Y26429I0J801D01*
G01Y29579D01*
G02X169106Y30380I801J0D01*
G01X172650D01*
G02X173450Y29591I0J-801D01*
G03X173717Y29297I300J4D01*
G02X174494Y28924I-143J-1293D01*
G01X175380Y28038D01*
G03X176288Y28107I424J424D01*
G02X176700Y28398I645J-474D01*
G01X176912Y28463D01*
Y29264D01*
X176745Y29347D01*
G02X176298Y30065I354J718D01*
G37*
G36*
G01X29081Y37795D02*
G02X29882Y38596I801J0D01*
G01X32323D01*
G02X33124Y37795I0J-801D01*
G01Y35589D01*
G02X32963Y35109I-801J0D01*
G01X32903Y35029D01*
Y31496D01*
G02X32721Y30707I-1800J0D01*
G01X32691Y30644D01*
Y29724D01*
G02X31890Y28924I-801J0D01*
G01X29528D01*
G02X28924Y29198I0J801D01*
G01X28834Y29302D01*
X13801D01*
Y28161D01*
G02X13000Y27361I-801J0D01*
G01X7000D01*
G02X6199Y28161I0J801D01*
G01Y34161D01*
G02X7000Y34962I801J0D01*
G01X13000D01*
G02X13801Y34161I0J-801D01*
G01Y32903D01*
X28834D01*
X28924Y33006D01*
G02X29145Y33184I604J-526D01*
G01X29302Y33269D01*
Y35029D01*
X29241Y35109D01*
G02X29081Y35589I641J481D01*
G01Y37795D01*
G37*
G36*
G01X136388Y35827D02*
Y38386D01*
G02X139990I1801J0D01*
G01Y36573D01*
X150431Y26131D01*
X160469D01*
X160557Y26270D01*
G02X161232Y26639I675J-432D01*
G01X164776D01*
G02X165576Y25839I0J-801D01*
G01Y24522D01*
X166762Y23336D01*
X174252D01*
G02X175525Y22809I0J-1801D01*
G01X185116Y13218D01*
X213150D01*
X213217Y13428D01*
G02X213980Y13988I764J-241D01*
G01X216540D01*
G02X217341Y13187I0J-801D01*
G01Y9647D01*
G02X216540Y8846I-801J0D01*
G01X213980D01*
G02X213217Y9407I0J801D01*
G01X213150Y9617D01*
X184370D01*
G02X183097Y10144I0J1801D01*
G01X173506Y19735D01*
X166016D01*
G02X164743Y20262I0J1801D01*
G01X163116Y21888D01*
X161232D01*
G02X160504Y22355I0J801D01*
G01X160424Y22530D01*
X149685D01*
G02X148412Y23057I0J1801D01*
G01X136916Y34554D01*
G02X136388Y35827I1273J1273D01*
G37*
G36*
G01X60024Y54683D02*
Y57443D01*
G02X60825Y58244I801J0D01*
G01X63585D01*
G02X64385Y57443I0J-801D01*
G01Y54683D01*
G02X63745Y53898I-801J0D01*
G01X63506Y53850D01*
Y53475D01*
X63543Y53407D01*
G02X63702Y52783I-1141J-625D01*
G01Y52549D01*
X63888Y52472D01*
G02X64367Y51894I-305J-740D01*
G01X64417Y51655D01*
X65505D01*
X65554Y51894D01*
G02X66339Y52533I784J-162D01*
G01X68701D01*
G02X69502Y51732I0J-801D01*
G01Y50212D01*
X70565Y49148D01*
G02X70946Y48228I-919J-920D01*
G01Y44373D01*
X73775Y41545D01*
X75786D01*
G02X76587Y40744I0J-801D01*
G01Y38184D01*
G02X75786Y37383I-801J0D01*
G01X72246D01*
G02X71445Y38184I0J801D01*
G01Y40195D01*
X68726Y42915D01*
G02X68345Y43834I919J920D01*
G01Y47689D01*
X67859Y48176D01*
X66339D01*
G02X65554Y48814I0J801D01*
G01X65505Y49054D01*
X64417D01*
X64367Y48814D01*
G02X63583Y48176I-784J162D01*
G01X61220D01*
G02X60420Y48976I0J801D01*
G01Y51732D01*
G02X60795Y52411I801J0D01*
G03X60930Y52724I-160J254D01*
G02X60904Y52980I1275J257D01*
G01Y53850D01*
X60664Y53898D01*
G02X60024Y54683I161J785D01*
G37*
G36*
G01X67124Y58244D02*
X69884D01*
G02X70685Y57443I0J-801D01*
G01Y56482D01*
X71415D01*
X71480Y56695D01*
G02X72246Y57262I766J-234D01*
G01X75786D01*
G02X76587Y56461I0J-801D01*
G01Y53902D01*
G02X76211Y53223I-801J0D01*
G03X76044Y52362I318J-508D01*
G02X76196Y51892I-648J-470D01*
G01Y49132D01*
G02X75396Y48331I-801J0D01*
G01X72636D01*
G02X71835Y49132I0J801D01*
G01Y51892D01*
G02X71988Y52362I801J0D01*
G03X71820Y53223I-486J352D01*
G02X71480Y53668I425J679D01*
G01X71415Y53881D01*
X69385D01*
G02X69328Y53882I-2J1301D01*
G01X69321Y53882D01*
X67124D01*
G02X66323Y54683I0J801D01*
G01Y57443D01*
G02X67124Y58244I801J0D01*
G37*
G36*
G01X168311Y67925D02*
X170871D01*
G02X171672Y67124I0J-801D01*
G01Y63584D01*
G02X170871Y62783I-801J0D01*
G01X168311D01*
G02X167547Y63344I0J801D01*
G01X167481Y63554D01*
X166642D01*
X166552Y63450D01*
G02X165947Y63174I-605J524D01*
G01X163187D01*
G02X162386Y63974I0J801D01*
G01Y66734D01*
G02X163187Y67535I801J0D01*
G01X165947D01*
G02X166552Y67259I0J-801D01*
G01X166642Y67155D01*
X167481D01*
X167547Y67365D01*
G02X168311Y67925I764J-241D01*
G37*
G36*
G01X31404Y88202D02*
X34435Y91234D01*
G02X35709Y91761I1273J-1273D01*
G02X37509Y89961I0J-1801D01*
G02X36982Y88687I-1801J0D01*
G01X34478Y86183D01*
Y77794D01*
X34688Y77728D01*
G02X34981Y77562I-240J-764D01*
G01X35066Y77485D01*
X35615D01*
G02X36888Y76958I0J-1801D01*
G01X40407Y73439D01*
G02X40935Y72165I-1273J-1273D01*
G01Y58583D01*
G02X40407Y57309I-1801J0D01*
G01X38439Y55341D01*
G02X37165Y54813I-1273J1273D01*
G01X35080D01*
X34993Y54733D01*
G02X34688Y54555I-546J586D01*
G01X34478Y54489D01*
Y53896D01*
X37494Y50880D01*
G02X38021Y49606I-1273J-1273D01*
G01Y32995D01*
X38070Y32920D01*
G02X38202Y32480I-669J-440D01*
G01Y29724D01*
G02X38070Y29284I-800J0D01*
G01X38021Y29209D01*
Y24921D01*
G02X37494Y23648I-1801J0D01*
G01X37454Y23609D01*
G02X36181Y23081I-1273J1273D01*
G02X34380Y24882I0J1801D01*
G02X34414Y25229I1801J-1D01*
G01X34420Y25257D01*
Y29209D01*
X34370Y29284D01*
G02X34239Y29724I669J440D01*
G01Y32480D01*
G02X34370Y32920I800J0D01*
G01X34420Y32995D01*
Y48860D01*
X31404Y51876D01*
G02X30876Y53150I1273J1273D01*
G01Y54489D01*
X30667Y54555D01*
G02X30106Y55319I241J764D01*
G01Y57879D01*
G02X30907Y58680I801J0D01*
G01X34447D01*
G02X34968Y58487I0J-801D01*
G01X35052Y58415D01*
X36419D01*
X37333Y59329D01*
Y71419D01*
X34981Y73772D01*
X34790Y73681D01*
G02X34447Y73604I-343J723D01*
G01X30907D01*
G02X30106Y74405I0J801D01*
G01Y76965D01*
G02X30667Y77728I801J0D01*
G01X30876Y77794D01*
Y86929D01*
G02X31404Y88202I1801J0D01*
G37*
G36*
G01X82270Y127362D02*
G02X83071Y128163I801J0D01*
G01X85433D01*
G02X85679Y128124I0J-801D01*
G03X86463Y128695I184J571D01*
G01Y129341D01*
X81757Y134047D01*
G02X81376Y134967I919J920D01*
G01Y135912D01*
G02X80976Y137008I1301J1096D01*
G02X82677Y138709I1701J0D01*
G02X83848Y138241I0J-1700D01*
G03X84262I207J218D01*
G02X85433Y138709I1171J-1233D01*
G02X86794Y135987I0J-1701D01*
G01X86734Y135907D01*
Y135578D01*
X90683Y131628D01*
G02X91065Y130709I-919J-920D01*
G01Y123152D01*
X94121Y120095D01*
G02X94451Y119535I-920J-920D01*
G01X94473Y119461D01*
X95449Y118485D01*
G02X95771Y117706I-778J-778D01*
G01Y114863D01*
X95785Y114819D01*
G02X95840Y114462I-1140J-357D01*
G01Y111903D01*
G02X94645Y110708I-1194J0D01*
G02X93858Y111005I0J1194D01*
G02X93070Y110708I-788J898D01*
G02X92283Y111005I0J1194D01*
G02X91496Y110708I-788J898D01*
G02X90708Y111005I0J1194D01*
G02X89999Y110711I-787J898D01*
G03X89439Y110152I39J-599D01*
G02X89146Y109442I-1192J78D01*
G02X89442Y108655I-898J-788D01*
G02X88248Y107460I-1194J0D01*
G01X85689D01*
G02X85416Y107492I0J1194D01*
G01X85382Y107500D01*
X85046D01*
G02X84229Y107838I0J1155D01*
G01X83467Y108600D01*
X83406Y108623D01*
G02X82557Y109843I453J1219D01*
G01Y110485D01*
X78322Y114721D01*
X78128Y114623D01*
G02X77363Y114441I-765J1519D01*
G01X77362D01*
G02X76342Y114781I0J1701D01*
G01X76262Y114841D01*
X75904D01*
X75824Y114781D01*
G02X73102Y116142I-1020J1361D01*
G02X74213Y117737I1701J0D01*
G01X74409Y117809D01*
Y119148D01*
X74166Y119195D01*
G02X73881Y119283I242J1278D01*
G02X72197Y120984I16J1701D01*
G02X73898Y122685I1701J0D01*
G02X75218Y122056I0J-1701D01*
G03X75590Y121980I233J189D01*
G02X76378Y122173I788J-1507D01*
G02X77398Y121833I0J-1701D01*
G01X77478Y121773D01*
X78073D01*
X78146Y121970D01*
G02X78897Y122494I751J-277D01*
G01X81943D01*
X82479Y123030D01*
Y124058D01*
X82422Y124137D01*
G02X82270Y124606I649J469D01*
G01Y127362D01*
G37*
G36*
G01X30035Y65392D02*
X30315D01*
G02X31093Y65070I0J-1101D01*
G01X31783Y64380D01*
X34447D01*
G02X35248Y63579I0J-801D01*
G01Y61019D01*
G02X34447Y60218I-801J0D01*
G01X30907D01*
G02X30106Y61019I0J801D01*
G01Y62943D01*
X29859Y63191D01*
X14162D01*
G03X13595Y62396I0J-600D01*
G02X13801Y61162I-3595J-1234D01*
G01Y61161D01*
G02X10000Y64962I-3801J0D01*
G01X10001D01*
G02X11608Y64606I0J-3801D01*
G01X11798Y64517D01*
X12352Y65070D01*
G02X13130Y65392I778J-778D01*
G01X13489D01*
G03X13700Y65904I0J300D01*
G01X11798Y67806D01*
X11608Y67717D01*
G02X10001Y67361I-1608J3444D01*
G01X10000D01*
G02X13801Y71161I0J3801D01*
G02X13444Y69554I-3801J0D01*
G01X13355Y69363D01*
X15003Y67715D01*
X28520D01*
X30106Y69301D01*
Y71265D01*
G02X30907Y72065I801J0D01*
G01X34447D01*
G02X35248Y71265I0J-801D01*
G01Y68705D01*
G02X34447Y67904I-801J0D01*
G01X31822D01*
X29823Y65904D01*
G03X30035Y65392I212J-212D01*
G37*
G36*
G01X248031Y36234D02*
G02X250801Y33465I0J-2769D01*
G02X249476Y31102I-2769J0D01*
G03X249456Y30091I313J-512D01*
G02X250601Y27953I-1425J-2138D01*
G02X245462I-2569J0D01*
G02X246607Y30091I2570J0D01*
G03X246587Y31102I-333J499D01*
G02X245587Y32164I1444J2363D01*
G01X241946D01*
X241941Y31870D01*
G02X241140Y31084I-801J16D01*
G01X237600D01*
G02X237453Y31098I1J801D01*
G01X237297Y31127D01*
X236340Y30170D01*
Y21260D01*
G02X235959Y20340I-1300J0D01*
G01X233978Y18359D01*
Y15842D01*
G02X233597Y14922I-1300J0D01*
G01X230130Y11455D01*
Y9444D01*
G02X229329Y8643I-801J0D01*
G01X225789D01*
G02X224988Y9444I0J801D01*
G01Y10117D01*
X223041D01*
Y9647D01*
G02X222240Y8846I-801J0D01*
G01X219680D01*
G02X218880Y9647I0J801D01*
G01Y13187D01*
G02X219680Y13988I801J0D01*
G01X222240D01*
G02X223041Y13187I0J-801D01*
G01Y12718D01*
X225422D01*
X225478Y12742D01*
G02X225789Y12805I311J-738D01*
G01X227800D01*
X231376Y16381D01*
Y18898D01*
G02X231757Y19817I1300J0D01*
G01X233739Y21799D01*
Y30709D01*
G02X234120Y31628I1300J0D01*
G01X236576Y34085D01*
G02X236686Y34183I922J-918D01*
G01X236799Y34273D01*
Y34445D01*
G02X237600Y35246I801J0D01*
G01X241140D01*
G02X241802Y34896I0J-800D01*
G01X241891Y34765D01*
X245587D01*
G02X248031Y36234I2445J-1301D01*
G37*
G36*
G01X239539Y137021D02*
X241113D01*
G02Y119278I0J-8872D01*
G01X239539D01*
G02Y137021I0J8872D01*
G37*
G36*
G01X160574Y140250D02*
G03X161256Y140631I119J588D01*
G02X162008Y141155I752J-276D01*
G01X165551D01*
G02X166352Y140354I0J-801D01*
G01Y137205D01*
G02X165551Y136404I-801J0D01*
G01X162008D01*
G02X161283Y136865I0J801D01*
G03X160895Y137015I-272J-127D01*
G02X160236Y136882I-659J1569D01*
G02Y140283I0J1701D01*
G01X160237D01*
G02X160574Y140250I0J-1701D01*
G37*
G36*
G01X153333Y140945D02*
Y144094D01*
G02X154134Y144895I801J0D01*
G01X157677D01*
G02X158478Y144094I0J-801D01*
G01Y140945D01*
G02X157917Y140181I-801J0D01*
G01X157706Y140115D01*
Y135275D01*
X157916Y135209D01*
G02X158476Y134445I-241J-764D01*
G01Y131885D01*
G02X157676Y131084I-801J0D01*
G01X154135D01*
G02X153335Y131885I0J801D01*
G01Y134445D01*
G02X153895Y135209I801J0D01*
G01X154105Y135275D01*
Y140115D01*
X153894Y140181D01*
G02X153333Y140945I239J764D01*
G37*
G36*
G01X93034Y160976D02*
G02X94835Y162777I1801J0D01*
G02X96108Y162250I0J-1801D01*
G01X100669Y157689D01*
X101973D01*
G02X102774Y156888I0J-801D01*
G01Y153348D01*
G02X101973Y152547I-801J0D01*
G01X99413D01*
G02X98613Y153348I0J801D01*
G01Y154652D01*
X93562Y159703D01*
G02X93034Y160976I1273J1273D01*
G37*
G54D84*
X39432Y10606D03*
G54D83*
X49432D03*
G54D82*
X10000Y51161D03*
G54D81*
X243307Y12598D03*
X12598D03*
X243307Y219685D03*
X12598D03*
G54D80*
X172008Y14488D03*
X128476Y14374D03*
X10000Y41161D03*
X225197Y209843D03*
G54D79*
X28622Y21929D03*
X32244Y218780D03*
X220748Y220866D03*
%LPD*%
G75*
G36*
G01X90827Y26378D02*
X100748D01*
X101457Y25669D01*
Y24409D01*
X100354Y23307D01*
X90709D01*
X89764Y24252D01*
Y25315D01*
X90827Y26378D01*
G37*
G36*
G01X127067Y185630D02*
Y207283D01*
X132776D01*
Y185630D01*
X127067D01*
G37*
G36*
G01X146752D02*
Y207283D01*
X152461D01*
Y185630D01*
X146752D01*
G37*
G54D10*
X12598Y12598D03*
Y219685D03*
X243307Y12598D03*
Y219685D03*
X276374Y12598D03*
Y219685D03*
X507083Y12598D03*
Y219685D03*
G54D20*
X32677Y56599D03*
Y62299D03*
Y75685D03*
Y69985D03*
X50787Y21678D03*
Y27378D03*
X44488Y27338D03*
Y21638D03*
X55906Y88489D03*
Y94189D03*
X85827Y29433D03*
Y35133D03*
X74016Y33764D03*
Y55181D03*
Y39464D03*
X75669Y65496D03*
Y71196D03*
X74016Y60881D03*
X113780Y67811D03*
Y62111D03*
X126496Y30724D03*
Y25024D03*
X114961Y153449D03*
Y159149D03*
X169110Y53772D03*
X162992Y53843D03*
X169110Y59472D03*
X162992Y59543D03*
X155906Y133165D03*
Y127465D03*
X178869Y31345D03*
Y37045D03*
X190945Y45969D03*
Y51669D03*
X227559Y5024D03*
Y10724D03*
X221654Y88882D03*
Y94582D03*
X220591Y126630D03*
Y120930D03*
X239370Y27465D03*
Y33165D03*
G54D11*
X10000Y31161D03*
G54D30*
X48528Y81496D03*
X58174Y64961D03*
X63874D03*
X54228Y81496D03*
X88095Y11811D03*
Y17717D03*
X93174Y40748D03*
X93795Y11811D03*
Y17717D03*
X98874Y40748D03*
X106393Y155118D03*
X100693D03*
X120567Y11811D03*
X114867D03*
X131402Y56693D03*
Y50787D03*
X137102Y56693D03*
Y50787D03*
X164267Y71260D03*
X158567D03*
X169591D03*
Y65354D03*
X183913Y25862D03*
X178213D03*
X183976Y42579D03*
X178276D03*
X175291Y71260D03*
Y65354D03*
X215260Y11417D03*
X220960D03*
G54D21*
X31102Y40473D03*
Y36693D03*
X59134Y75669D03*
Y79449D03*
X72047Y86693D03*
Y90473D03*
X62205Y88111D03*
Y84330D03*
X70866Y112520D03*
Y108740D03*
X75984Y112520D03*
Y108740D03*
X133071Y87874D03*
Y91654D03*
X130315Y113701D03*
Y109921D03*
X133150Y97952D03*
Y101733D03*
X135433Y113701D03*
Y109921D03*
X157480Y54803D03*
Y58583D03*
X158661Y152441D03*
Y156221D03*
G54D12*
X3937Y24803D03*
Y32677D03*
X4094Y55630D03*
X4016Y69370D03*
X8661Y88583D03*
X3898Y88858D03*
X10630Y80118D03*
X7795Y93858D03*
X3937Y79921D03*
X4331Y193307D03*
X12205D03*
X4331Y201181D03*
X26772Y3937D03*
X20984Y71220D03*
X13504Y88583D03*
X29921Y94252D03*
X29843Y89961D03*
X17362Y80276D03*
X13819Y93898D03*
X26654Y212756D03*
X16811Y204409D03*
X16772Y200079D03*
X25984Y227953D03*
X34646Y3937D03*
X42520D03*
X50394D03*
X51819Y111846D03*
X41929Y212559D03*
X42087Y219882D03*
X49606Y220079D03*
X41732Y227953D03*
X49606D03*
X58268Y3937D03*
X66142D03*
X74016D03*
X55512Y116535D03*
X56732Y131693D03*
X57087Y126378D03*
X57480Y220079D03*
X65354Y227953D03*
X73228D03*
X57480D03*
X89764Y3937D03*
X81890D03*
X92952Y88261D03*
Y97631D03*
Y92513D03*
X93228Y101969D03*
X81102Y220079D03*
X88976D03*
Y227953D03*
X81102D03*
X97638Y3937D03*
X105512D03*
X113386D03*
X97283Y88261D03*
X101614D03*
Y97631D03*
Y92513D03*
X97283D03*
Y97631D03*
X112007Y88261D03*
Y93379D03*
X97480Y106102D03*
X97322Y102080D03*
X101653D03*
X112047Y107283D03*
X111969Y102953D03*
X101693Y107165D03*
X112007Y98497D03*
X96850Y220079D03*
X104724D03*
X112598D03*
X96850Y227953D03*
X104724D03*
X112598D03*
X121260Y3937D03*
X129134D03*
X120472Y220079D03*
X128346D03*
X120472Y227953D03*
X128346D03*
X137008Y3937D03*
X144882D03*
X152756D03*
X136220Y220079D03*
X144094D03*
X151969D03*
Y227953D03*
X144094D03*
X136220D03*
X160630Y3937D03*
X168504D03*
X158094Y34598D03*
Y30445D03*
X159843Y220079D03*
X167717D03*
X175591D03*
Y227953D03*
X167717D03*
X159843D03*
X192126Y3937D03*
X176378D03*
X184252D03*
X194882Y34252D03*
X187008Y37008D03*
X195157Y49094D03*
X186220Y47638D03*
X194488Y41732D03*
X194094Y57480D03*
X187008D03*
X194094Y65354D03*
X187008Y73228D03*
Y65354D03*
X194094Y73228D03*
Y81102D03*
X187008D03*
X183465Y220079D03*
X191339D03*
Y227953D03*
X183465D03*
X200000Y3937D03*
X207874D03*
X215039Y214291D03*
X207205Y214252D03*
X199213Y220079D03*
X207087D03*
X212283Y220157D03*
X214961Y227953D03*
X207087D03*
X199213D03*
X231496Y158268D03*
X231890Y152362D03*
X225984D03*
Y158268D03*
Y164173D03*
Y170079D03*
X220079D03*
Y175984D03*
X225984D03*
X236024Y205512D03*
X230709Y227953D03*
X237402Y157874D03*
X237795Y152362D03*
X243701Y158268D03*
X249606D03*
X243701Y152362D03*
X249606D03*
X237402Y164173D03*
X249606Y175984D03*
Y170079D03*
X243701Y164173D03*
Y170079D03*
Y175984D03*
X249606Y164173D03*
Y199606D03*
Y193701D03*
Y187795D03*
Y181890D03*
X243701D03*
Y187795D03*
Y193701D03*
Y199606D03*
X249606Y205512D03*
X243701D03*
G54D13*
X10000Y51161D03*
Y41161D03*
Y61161D03*
Y71161D03*
Y179094D03*
X28622Y21929D03*
X32244Y218780D03*
X43819Y124685D03*
X128476Y14374D03*
X172008Y14488D03*
X175787Y188465D03*
X225984Y25197D03*
X220748Y220866D03*
X225197Y209843D03*
G54D40*
X95039Y33130D03*
Y30571D03*
Y28012D03*
Y25453D03*
X117480D03*
Y28012D03*
Y30571D03*
Y33130D03*
G54D22*
X23071Y117520D03*
X23268Y120512D03*
X30039Y120197D03*
X50787Y30984D03*
X44488D03*
X33858Y121260D03*
X34646Y124409D03*
X70472Y64961D03*
X67323D03*
X68504Y114882D03*
X67244Y117598D03*
X57795Y153622D03*
Y140630D03*
Y147717D03*
X67362D03*
Y140630D03*
Y153622D03*
X57795Y175472D03*
Y165827D03*
Y170551D03*
Y159921D03*
X67362Y175669D03*
Y159921D03*
Y170551D03*
Y165827D03*
X76929Y26181D03*
X77047Y21496D03*
X84252Y20315D03*
X80315Y20866D03*
X93701Y45945D03*
X90894Y68189D03*
Y70989D03*
X93819Y61811D03*
X77362Y116142D03*
X74803D03*
X73898Y120984D03*
X76378Y120472D03*
X77953Y137008D03*
X82677D03*
X85433D03*
X84646Y158268D03*
X87402Y143701D03*
Y148031D03*
X80709Y148819D03*
Y144488D03*
Y139764D03*
X76772Y155512D03*
X77559Y151575D03*
X87402Y153150D03*
X78835Y157827D03*
X78909Y153921D03*
X77165Y170866D03*
Y174803D03*
Y166535D03*
X84646Y162598D03*
Y166535D03*
Y170866D03*
Y174803D03*
X77165Y162205D03*
X92323Y202362D03*
X89764D03*
X106693Y14173D03*
X100295Y20571D03*
X110125Y21260D03*
X108346Y49331D03*
X111220Y49252D03*
X108780Y56535D03*
X104173Y50669D03*
X104370Y53898D03*
X96142Y43661D03*
X113543Y150551D03*
X98031Y151181D03*
X94882Y153543D03*
X94173Y192088D03*
X96339D03*
X129882Y25024D03*
X116693Y46220D03*
X133740Y67835D03*
X129921Y59961D03*
X122441Y65748D03*
X118504Y62205D03*
Y59449D03*
X120079Y82283D03*
X133563Y120965D03*
X125630Y119685D03*
X127953D03*
X116142Y129921D03*
X122441Y138189D03*
X116299Y150551D03*
X116535Y139764D03*
X144882Y52756D03*
X136732Y64331D03*
X143031Y70709D03*
X144882Y65354D03*
X135827Y60630D03*
X136220Y86220D03*
X138839Y101241D03*
X136102Y101733D03*
X146063Y103543D03*
X140157Y113701D03*
X134961Y122362D03*
X137008Y120472D03*
X151575Y142520D03*
X151969Y166142D03*
X164173Y113780D03*
X171654D03*
X157874D03*
X158819Y123819D03*
X171811D03*
X164331D03*
X164567Y153150D03*
X160236Y138583D03*
X170472Y166535D03*
X162992Y168504D03*
X177717Y123819D03*
X184488Y153740D03*
X190791Y167543D03*
Y171087D03*
X187724Y162945D03*
X185016Y160098D03*
X189685Y160283D03*
X184177Y176287D03*
X199646Y104862D03*
X197126Y104921D03*
X213976Y103484D03*
X214055Y138031D03*
X196614Y141063D03*
X199213D03*
X224409Y5118D03*
X216476Y103484D03*
X216654Y138031D03*
G54D31*
X44094Y88976D03*
X50394D03*
X44094Y94882D03*
X50394D03*
X62205Y56063D03*
X68504D03*
X70315Y76652D03*
X64016D03*
X70315Y70866D03*
X64016D03*
X74803Y17717D03*
X81102D03*
X80315Y24016D03*
X86614D03*
X79921Y29528D03*
Y35827D03*
X74016Y44213D03*
Y50512D03*
X90945Y197244D03*
Y190945D03*
X109449Y17717D03*
X103150D03*
X153386Y74803D03*
Y81102D03*
X150787Y92913D03*
X153150Y152756D03*
Y159055D03*
X175000Y53543D03*
Y59843D03*
X168898Y76772D03*
X164567Y65354D03*
X158268D03*
X168898Y83071D03*
X157087Y92913D03*
X215354Y5118D03*
X201327Y17390D03*
X207626D03*
X209055Y85827D03*
X215354D03*
X204055Y108858D03*
X197756D03*
X215000Y120787D03*
X208701D03*
X208031Y143976D03*
X201732D03*
X221654Y5118D03*
G54D32*
X37126Y196220D03*
G54D23*
X31732Y108661D03*
X26614Y111614D03*
Y113583D03*
Y115551D03*
X31732Y110630D03*
Y112598D03*
Y114567D03*
Y116535D03*
X26614Y117520D03*
Y119488D03*
Y121457D03*
Y123425D03*
Y125394D03*
Y127362D03*
Y129331D03*
X31732Y118504D03*
Y122441D03*
Y124409D03*
Y126378D03*
Y128346D03*
Y130315D03*
Y132283D03*
G54D50*
X115354Y48819D03*
Y50787D03*
Y52756D03*
Y54724D03*
X126378Y48819D03*
Y50787D03*
Y52756D03*
Y54724D03*
X115354Y56693D03*
X126378D03*
G54D41*
X86968Y91332D03*
Y89757D03*
Y85033D03*
Y94481D03*
Y92907D03*
Y96056D03*
Y86607D03*
Y88182D03*
Y102356D03*
Y100781D03*
Y110230D03*
Y105505D03*
Y107080D03*
Y103930D03*
Y108655D03*
Y99206D03*
Y97631D03*
X118070Y91332D03*
Y89757D03*
Y85033D03*
Y94481D03*
Y92907D03*
Y96056D03*
Y86607D03*
Y88182D03*
Y102356D03*
Y100781D03*
Y110230D03*
Y105505D03*
Y107080D03*
Y103930D03*
Y108655D03*
Y99206D03*
Y97631D03*
G54D14*
X9016Y102283D03*
Y138661D03*
G54D33*
X37126Y183622D03*
G54D42*
X102519Y97631D03*
G54D51*
X124252Y144882D03*
Y161417D03*
X144252Y144882D03*
Y161417D03*
G54D24*
X30118Y103465D03*
Y137480D03*
G54D15*
G01X30709Y31102D02*
X12907D01*
X12848Y31161D01*
X10000D01*
G01X31102Y36693D02*
Y31496D01*
X30709Y31102D01*
G01X36220D02*
Y49606D01*
X32677Y53150D01*
Y56599D01*
G01X31102Y40473D02*
Y43976D01*
G01X32677Y75685D02*
X35615D01*
X39134Y72165D01*
Y58583D01*
X37165Y56614D01*
X32693D01*
X32677Y56599D01*
G01X33799Y88051D02*
X32677Y86929D01*
Y75685D01*
G01X36220Y27717D02*
Y24921D01*
X36181Y24882D01*
G01X36220Y31102D02*
Y27717D01*
G01X68189Y10669D02*
X66299Y12559D01*
Y23307D01*
X44488Y45118D01*
Y77323D01*
X40709Y81102D01*
Y108622D01*
X52205Y120118D01*
Y186378D01*
G01X48528Y81496D02*
Y79622D01*
X49161Y78989D01*
Y75984D01*
G01X48528Y81496D02*
Y83961D01*
X49488Y84921D01*
G01X35709Y89961D02*
X33799Y88051D01*
G01X48228Y106811D02*
X46339Y104921D01*
G01X55118Y107480D02*
X48898D01*
X48228Y106811D01*
G01X58646Y9390D02*
X58130D01*
G01X61476D02*
X58646D01*
G01D02*
X58686Y9350D01*
X64488D01*
G01X70433Y8386D02*
X68189Y10630D01*
Y10669D01*
G01X64921Y90118D02*
X62914Y88111D01*
X62205D01*
G01Y84330D02*
X57062D01*
X54228Y81496D01*
G01X67323Y96457D02*
X59449D01*
X55118Y100787D01*
Y107480D01*
G01X59087Y113780D02*
X57087Y111780D01*
Y109449D01*
G01X59091Y113783D02*
X59087Y113780D01*
G01X63524Y103406D02*
X64173Y102756D01*
X66090D01*
G01X61693Y105236D02*
X63524Y103406D01*
G01X55118Y107480D02*
X57087Y109449D01*
G01X70866Y108740D02*
X69213D01*
X64173Y113780D01*
X59087D01*
G01D02*
Y116961D01*
X68110Y125984D01*
X78740D01*
G01X75984Y108740D02*
X70866D01*
G01X80315Y24016D02*
Y20866D01*
G01D02*
Y18504D01*
X81102Y17717D01*
G01X89567Y45472D02*
X88622Y46417D01*
X79151D01*
X76946Y44213D01*
X74016D01*
G01X93150Y146299D02*
X90157Y149291D01*
Y163386D01*
X97244Y170472D01*
X153543D01*
X169291Y154724D01*
Y151181D01*
G01X113189Y44331D02*
X106654D01*
X100552Y50433D01*
Y60433D01*
G01D02*
Y65551D01*
X100591Y65591D01*
G01X107284Y135118D02*
Y140157D01*
G01X103504Y135118D02*
Y140157D01*
G01D02*
Y143071D01*
G01X100693Y155118D02*
X97197Y158614D01*
G01X107284Y140157D02*
Y154228D01*
X106393Y155118D01*
G01D02*
Y162111D01*
X106299Y162205D01*
G01X97197Y158614D02*
X94835Y160976D01*
G01X121063Y201378D02*
X106693Y215748D01*
G01X123268Y37953D02*
X123504D01*
X125826Y35630D01*
G01X123268Y37953D02*
X123245Y37975D01*
X120197D01*
G01X130315Y117717D02*
X133563Y120965D01*
G01X147047Y106496D02*
X131102D01*
G01X136102Y101733D02*
X133150D01*
G01X130315Y109921D02*
X135433D01*
G01X130315Y113701D02*
X135433D01*
G01X133563Y120965D02*
X134961Y122362D01*
G01X143307Y112205D02*
Y120079D01*
X137402Y125984D01*
X131890D01*
X129921Y124016D01*
G01X147244Y153150D02*
X132520D01*
X124252Y161417D01*
G01D02*
X117229D01*
X114961Y159149D01*
G01X121063Y196457D02*
Y201378D01*
G01X138189Y35827D02*
X149685Y24331D01*
X156378D01*
G01X138189Y35827D02*
Y38386D01*
G01X153386Y74803D02*
X150394D01*
G01X143228D02*
X140551D01*
G01D02*
X138267Y77087D01*
Y78346D01*
G01X158268Y65354D02*
X150787D01*
G01X138267Y83465D02*
Y78346D01*
G01X149606Y106496D02*
X147047D01*
G01X138839Y101241D02*
X138347Y101733D01*
X136102D01*
G01X143307Y112205D02*
X141023Y109921D01*
X135433D01*
G01X142913Y98031D02*
X147244D01*
X155118Y105906D01*
G01D02*
Y108268D01*
X151181Y112205D01*
G01X155906Y127465D02*
X153543Y125103D01*
Y114567D01*
X151181Y112205D01*
G01D02*
X143307D01*
G01X135433Y113701D02*
X138189D01*
G01D02*
X140157D01*
G01X150510Y156416D02*
X147244Y153150D01*
G01X150510Y156416D02*
X153150Y159055D01*
G01Y152756D02*
X153465Y152441D01*
X158661D01*
G01X153150Y152756D02*
X145276Y144882D01*
X144252D01*
G01X158661Y156221D02*
X155827Y159055D01*
X153150D01*
G01X156378Y24331D02*
X159031D01*
G01X215260Y11417D02*
X184370D01*
X174252Y21535D01*
X166016D01*
X163287Y24264D01*
X163004D01*
G01D02*
X162937Y24331D01*
X159031D01*
G01X169110Y53772D02*
Y52693D01*
X167283Y50866D01*
G01X162992Y53843D02*
Y50945D01*
G01X156890Y46303D02*
X159555D01*
G01X175000Y53543D02*
X174803D01*
X174574Y53772D01*
X169110D01*
G01X175000Y53543D02*
X174803Y53346D01*
Y49213D01*
G01X159555Y46303D02*
X163004D01*
G01X162992Y53843D02*
X162298D01*
X161339Y54803D01*
X157480D01*
G01D02*
Y52756D01*
X158661Y51575D01*
G01X169110Y53772D02*
X169039Y53843D01*
X162992D01*
G01X175291Y65354D02*
X174803Y64867D01*
Y60039D01*
X175000Y59843D01*
G01D02*
X174803D01*
X174433Y59472D01*
X169110D01*
G01X169591Y65354D02*
X164567D01*
G01X169591Y71260D02*
X164267D01*
G01X162992Y59543D02*
X162032Y58583D01*
X157480D01*
G01D02*
Y61417D01*
X158268Y62205D01*
Y65354D01*
G01D02*
Y70960D01*
X158567Y71260D01*
G01X175291Y75103D02*
Y84552D01*
X164173Y95669D01*
Y101575D01*
X159843Y105906D01*
X155118D01*
G01X157087Y92913D02*
X160236D01*
G01X169291Y151181D02*
Y131102D01*
X166535Y128346D01*
X156787D01*
X155906Y127465D01*
G01Y133165D02*
Y142520D01*
G01X163780Y146260D02*
X158661Y151378D01*
Y152441D01*
G01X183913Y25862D02*
Y25278D01*
X191801Y17390D01*
X201327D01*
G01X190945Y45969D02*
Y31796D01*
X197544Y25197D01*
X225984D01*
G01X175291Y71260D02*
Y75103D01*
G01Y65354D02*
X180603D01*
X182283Y63674D01*
G01X207626Y17390D02*
X222508D01*
X225984Y20866D01*
Y25197D01*
G01X221654Y88882D02*
X218598Y85827D01*
X215354D01*
G01X207717Y128687D02*
X208701Y127703D01*
Y120787D01*
G01X220591Y120930D02*
X217270D01*
X217246Y120906D01*
X215118D01*
X215000Y120787D01*
G01X226181Y36614D02*
Y25394D01*
X225984Y25197D01*
X3701Y143543D03*
X8031D03*
Y146732D03*
X3701D03*
X3858Y174016D03*
X8189D03*
X8228Y183622D03*
X3898D03*
X3937Y186535D03*
X8268D03*
X3937Y179134D03*
X31102Y43976D03*
X12756Y143543D03*
X25394Y143701D03*
X16339D03*
X20669D03*
X28780Y143622D03*
Y146811D03*
X20669Y153583D03*
Y150433D03*
Y146890D03*
X16339D03*
Y150433D03*
Y153583D03*
X25394D03*
Y150433D03*
Y146890D03*
X12756Y146732D03*
X25512Y172402D03*
X25591Y175551D03*
X17992D03*
X21929Y175591D03*
X12913Y174016D03*
X17953Y172244D03*
X21811Y172362D03*
X17480Y196339D03*
Y193189D03*
X14370Y196457D03*
X18031Y179252D03*
X15039Y179134D03*
X18071Y183622D03*
X12953D03*
X12992Y186535D03*
X18110D03*
X29134Y204921D03*
X27953Y202559D03*
X31102D03*
X25984Y204921D03*
X31890Y205118D03*
X36220Y27717D03*
X36181Y24882D03*
X52283Y62480D03*
X49331D03*
X46102Y91929D03*
X49488Y84921D03*
X35709Y89961D03*
X33799Y88051D03*
X45551Y99528D03*
X48228Y106811D03*
X46339Y104921D03*
X48976Y102677D03*
X50394Y99606D03*
X46614Y132008D03*
Y135157D03*
X43071Y132008D03*
Y135157D03*
X39134Y135551D03*
Y132008D03*
X45984Y152638D03*
Y148701D03*
X41654D03*
Y152638D03*
X45984Y144370D03*
X41654D03*
X36535Y143543D03*
X33110Y143622D03*
X36535Y146732D03*
X33110Y146811D03*
X46535Y138740D03*
X43110Y138858D03*
X41575Y156654D03*
X45906D03*
X45866Y174567D03*
X45827Y171378D03*
X41654Y171260D03*
X41693Y174449D03*
X45866Y167953D03*
X41535D03*
X41575Y164921D03*
Y160984D03*
X45906D03*
Y164921D03*
X70433Y8386D03*
X64488Y9350D03*
X68189Y10669D03*
X61476Y18524D03*
X54961Y63386D03*
X58819Y60866D03*
X55512D03*
X64921Y90118D03*
X53543Y97638D03*
X68898Y87157D03*
Y90157D03*
X59091Y113783D03*
X63524Y103406D03*
X61693Y105236D03*
X57087Y109449D03*
X56850Y209488D03*
X54094D03*
X65748Y207047D03*
X62205D03*
X88661Y52913D03*
X89567Y45472D03*
X88346Y61969D03*
X93268Y65748D03*
X91220Y61811D03*
X79331Y65827D03*
X89764Y142362D03*
X76417Y187402D03*
X78504D03*
X93701Y216142D03*
X92913Y213386D03*
X90945Y216142D03*
X89764Y213386D03*
X88189Y216142D03*
X86614Y213386D03*
X96850Y12992D03*
X113189Y44331D03*
X112205Y137008D03*
X110236Y133858D03*
X103504Y143071D03*
X113386Y139764D03*
X97197Y158614D03*
X94835Y160976D03*
Y173228D03*
X109449Y166142D03*
X99606D03*
X98858Y184961D03*
X102008D03*
X98858Y182598D03*
X105157Y184961D03*
X102008Y182598D03*
X105157D03*
X105079Y187047D03*
X101929D03*
X98780D03*
X101339Y218740D03*
X103031Y213031D03*
X100276Y212992D03*
X101890Y215630D03*
X99252Y216417D03*
X95669Y213386D03*
X98701Y202047D03*
X101850D03*
X105000D03*
X105039Y199843D03*
X101890D03*
X98740D03*
Y204331D03*
X101890D03*
X105039D03*
X123268Y37953D03*
X120197Y37975D03*
X129607Y38858D03*
X119094Y56693D03*
X123031Y52756D03*
X119094D03*
Y48819D03*
X123031D03*
X131890Y46457D03*
X132275Y76960D03*
X123268Y80433D03*
X127126Y155630D03*
X124370D03*
X121614D03*
X125197Y138976D03*
X114567Y178740D03*
X132283D03*
X126378D03*
X120472D03*
X138189Y35827D03*
X152441Y32126D03*
X138189Y38386D03*
X137102Y53740D03*
X135039Y46457D03*
X150394Y74803D03*
X143228D03*
X140551D03*
X144390Y81122D03*
X147047Y106496D03*
X149606D03*
X138189Y113701D03*
X150510Y156416D03*
X150000Y178740D03*
X144094D03*
X138189D03*
X157043Y12602D03*
X156378Y24331D03*
X159031D03*
X167283Y50866D03*
X162992Y50945D03*
X156890Y46303D03*
X159555D03*
X174803Y49213D03*
X158661Y51575D03*
X172047Y76378D03*
X160236Y92913D03*
X170984Y103110D03*
X171772Y129685D03*
X167717Y178740D03*
X161811D03*
X155906D03*
X195276Y21654D03*
X175291Y75103D03*
X179528Y73228D03*
X190591Y97309D03*
X188228Y94159D03*
X190591D03*
X188228Y97309D03*
X192913Y97230D03*
Y94081D03*
X178740Y83071D03*
X190591Y100065D03*
X188228D03*
X177559Y103150D03*
Y98819D03*
Y113780D03*
X190512Y134252D03*
X188228Y134291D03*
X192795Y134278D03*
X188150Y131482D03*
X190433Y131522D03*
X192795D03*
X188150Y128726D03*
X192795Y128766D03*
X190433D03*
X183087Y184039D03*
X181299Y182219D03*
X184803Y214488D03*
X190315D03*
X187559D03*
X212283Y3976D03*
X208268Y21654D03*
X214173D03*
Y28346D03*
X201969D03*
X208268D03*
X201969Y21654D03*
X205512Y33740D03*
X209843D03*
Y38740D03*
Y43740D03*
Y48740D03*
X205512Y53740D03*
Y48740D03*
Y43740D03*
Y38740D03*
X209843Y53740D03*
X205512Y73740D03*
Y68740D03*
Y63740D03*
Y58740D03*
X209843Y68740D03*
Y73740D03*
Y58740D03*
Y63740D03*
X196850Y90551D03*
X199606D03*
X207854Y97244D03*
Y94094D03*
X210217D03*
Y97244D03*
X205571Y94094D03*
Y97244D03*
X205512Y78740D03*
X209843D03*
X203937Y85039D03*
X213583Y116811D03*
X210827D03*
Y110512D03*
Y107756D03*
Y113268D03*
X207854Y100000D03*
X210217D03*
X205571D03*
X214409Y124843D03*
X205472Y134711D03*
X209882Y134750D03*
X207717D03*
Y131837D03*
Y128687D03*
X209882D03*
Y131837D03*
X205472Y131797D03*
Y128648D03*
X214213Y145551D03*
X211024Y145276D03*
Y142520D03*
X213780D03*
X199370Y214488D03*
X202126D03*
X196614D03*
X220866Y21654D03*
X220079Y28346D03*
X225984Y94882D03*
X222244Y117165D03*
X219882Y109961D03*
X222244Y108780D03*
X219882Y107205D03*
X222244Y106024D03*
X222283Y111614D03*
X219921Y112795D03*
X217126Y107638D03*
X219961Y115591D03*
X222323Y114409D03*
X217205Y115984D03*
Y110472D03*
Y113228D03*
X222835Y98031D03*
X225984D03*
X219685D03*
X217165Y124843D03*
X224724Y196142D03*
Y198898D03*
X224685Y193425D03*
Y188701D03*
Y185945D03*
Y183189D03*
X254926Y23609D03*
Y27539D03*
Y31469D03*
Y35399D03*
Y39329D03*
Y196885D03*
Y192955D03*
Y208675D03*
Y204745D03*
Y200815D03*
X264746Y35399D03*
Y31469D03*
Y27539D03*
Y23609D03*
Y39329D03*
Y192955D03*
Y196885D03*
Y200815D03*
Y204745D03*
Y208675D03*
G54D60*
X215118Y95965D03*
X197795D03*
X214961Y130453D03*
X197638D03*
G54D70*
G01X92323Y202362D02*
X93819Y203858D01*
Y206576D01*
X96654Y209411D01*
X97598D01*
G01X89764Y202362D02*
X92323D01*
G01X106693Y14173D02*
X109055Y11811D01*
X114867D01*
G01X103150Y17717D02*
X106693Y14173D01*
G01X93795Y11811D02*
X95669D01*
X96850Y12992D01*
G01X100295Y20571D02*
X97710Y23156D01*
G01D02*
Y25453D01*
G01X100295Y20571D02*
X103150Y17717D01*
G01X94173Y192088D02*
X96339D01*
G01D02*
X97637D01*
G01X114867Y11811D02*
X116441Y13386D01*
Y16363D01*
X117007Y16929D01*
Y17323D01*
G01X125826Y35630D02*
X123326Y33130D01*
X114810D01*
G01X129607Y35630D02*
Y38858D01*
G01D02*
X129567Y38898D01*
G01X126378Y59055D02*
Y61339D01*
X125119Y62598D01*
G01X137102Y53740D02*
Y56693D01*
G01Y50787D02*
Y53740D01*
G01X197126Y104921D02*
X197185Y104862D01*
X199646D01*
G01X213976Y103484D02*
X216476D01*
G01X216654Y138031D02*
X214055D01*
G01X199213Y141063D02*
X196614D01*
G54D25*
X26614Y108268D03*
Y132677D03*
G54D34*
X58130Y15098D03*
X61476D03*
X58130Y9390D03*
X61476D03*
G54D61*
X215118Y95965D03*
X197795D03*
X215316Y101083D03*
X215118Y98524D03*
X197993Y101083D03*
X197795Y98524D03*
X215159Y135571D03*
X214961Y130453D03*
Y133012D03*
X197638D03*
Y130453D03*
X197836Y135571D03*
G54D43*
X91496Y82080D03*
X89921D03*
Y113182D03*
X91496D03*
X105669Y82080D03*
X100944D03*
X107244D03*
X96220D03*
X94645D03*
X93070D03*
X110393D03*
X108819D03*
X104094D03*
X97795D03*
X102519D03*
X99370D03*
X111968D03*
X100944Y113182D03*
X97795D03*
X99370D03*
X102519D03*
X104094D03*
X105669D03*
X107244D03*
X108819D03*
X96220D03*
X110393D03*
X94645D03*
X111968D03*
X93070D03*
X115118Y82080D03*
X113543D03*
X115118Y113182D03*
X113543D03*
G54D16*
X8480Y151433D03*
Y163244D03*
X32890Y151433D03*
Y163244D03*
G54D52*
X121063Y196457D03*
X158465D03*
G54D71*
G01X83465Y85039D02*
X85033Y86607D01*
X86968D01*
G01X81854Y86257D02*
X83779Y88182D01*
X86968D01*
G01X81299Y88780D02*
X82277Y89757D01*
X86968D01*
G01X79170Y92162D02*
X79915Y92907D01*
X86968D01*
G01X80315Y90551D02*
X81096Y91332D01*
X86968D01*
G01X77953Y93701D02*
X78733Y94481D01*
X86968D01*
G01X77552Y96056D02*
X86968D01*
G01Y99206D02*
X62211D01*
X59843Y101575D01*
G01X80315Y105906D02*
X80709D01*
X82684Y103930D01*
X86968D01*
G01X80007D02*
X80315D01*
X81890Y102356D01*
X86968D01*
G01X75984Y97244D02*
X76371Y97631D01*
X86968D01*
G01Y84646D02*
Y85033D01*
G01X89921Y113182D02*
X89180D01*
X88386Y113976D01*
G01X83858Y109843D02*
X85046Y108655D01*
X86968D01*
G01X80708Y107874D02*
X81102D01*
X83471Y105505D01*
X86968D01*
G01X90551Y116142D02*
X91496Y115197D01*
Y113182D01*
G01X86968Y111457D02*
Y110230D01*
G01X81890Y109449D02*
X84259Y107080D01*
X86968D01*
G01Y100781D02*
X79389D01*
X78595Y101575D01*
G01X95669Y119291D02*
X96220Y118741D01*
Y113182D01*
G01X100944Y72598D02*
Y82080D01*
G01X136732Y64331D02*
X134260D01*
X127331Y71260D01*
X120248D01*
X111968Y79540D01*
Y82080D01*
G01X135827Y60630D02*
X126772Y69685D01*
X119602D01*
X110393Y78894D01*
Y82080D01*
G01X97244Y120866D02*
X97795Y120315D01*
Y113182D01*
G01X100944D02*
Y122992D01*
X101876Y123924D01*
G01X99370Y124409D02*
Y113182D01*
G01X133740Y67835D02*
X128740Y72835D01*
X120866D01*
X113543Y80157D01*
Y82080D01*
G01X126189Y80425D02*
Y81685D01*
X121267Y86607D01*
X118070D01*
G01Y85033D02*
X120479D01*
X123228Y82283D01*
Y80472D01*
X123268Y80433D01*
G01D02*
X123228Y80394D01*
Y76772D01*
G01X122835Y87401D02*
X122054Y88182D01*
X118070D01*
G01X125000Y90354D02*
X124022Y91332D01*
X118070D01*
G01X120079Y82283D02*
X119875Y82080D01*
X115118D01*
G01X123720Y89075D02*
X123038Y89757D01*
X118070D01*
G01X127165Y93701D02*
X126385Y94481D01*
X118070D01*
G01X125984Y92126D02*
X125204Y92907D01*
X118070D01*
G01X128346Y95276D02*
X127566Y96056D01*
X118070D01*
G01Y108655D02*
X120072D01*
X121260Y109843D01*
G01X126969Y104324D02*
X125190D01*
X123222Y102356D01*
X118070D01*
G01X126128Y106496D02*
X125000D01*
X122434Y103930D01*
X118070D01*
G01Y99206D02*
X124796D01*
X125584Y99993D01*
X125984D01*
G01X116726Y113182D02*
X115118D01*
G01X125984Y108661D02*
X124803D01*
X121647Y105505D01*
X118070D01*
G01X113543Y113182D02*
Y115118D01*
X114567Y116142D01*
X116535D01*
G01X123222Y109442D02*
X120859Y107080D01*
X118070D01*
G01X118720Y111988D02*
X118070Y111338D01*
Y110230D01*
G01X125394Y102165D02*
X124016Y100787D01*
X118077D01*
X118070Y100781D01*
G01X128346Y97631D02*
X118070D01*
G54D53*
X138476Y14374D03*
G54D17*
X10000Y200748D03*
X45433Y179094D03*
Y200748D03*
G54D44*
X83780Y120472D03*
X80000D03*
X92992Y127559D03*
X100591Y65591D03*
X96811D03*
X96771Y60433D03*
X100552D03*
X107284Y135118D03*
X103504D03*
X101141Y130118D03*
X104922D03*
X96772Y127559D03*
X103504Y140157D03*
X107284D03*
X125826Y35630D03*
X129607D03*
X117007Y17323D03*
X120788D03*
X121338Y62598D03*
X125119D03*
X123150Y118504D03*
X119370D03*
X142048Y83465D03*
X138267D03*
X142048Y78346D03*
X138267D03*
G54D62*
X206303Y163331D03*
Y175142D03*
G54D26*
X29055Y174055D03*
X36142D03*
X89764Y138189D03*
X96850D03*
X196969Y115945D03*
X204055D03*
X201339Y151457D03*
X208425D03*
G54D35*
X72677Y101575D03*
X86634Y115728D03*
X84902Y117461D03*
X111811Y120945D03*
X110264Y122780D03*
X109303Y120323D03*
X105118Y121260D03*
X126969Y104324D03*
X129370D03*
X126929Y99993D03*
X129331D03*
X117264Y113720D03*
X119016Y115472D03*
G54D72*
G01X62205Y109055D02*
X65354Y105906D01*
X80315D01*
G01X79921Y111417D02*
X81890Y109449D01*
G01X101876Y123924D02*
X104546Y126594D01*
X105728D01*
X107874Y128740D01*
Y134528D01*
X107284Y135118D01*
G01X101141Y130118D02*
Y127243D01*
X99370Y125472D01*
Y124409D01*
G54D18*
X29432Y10606D03*
X39432D03*
X49432D03*
G54D36*
X59843Y101575D03*
X62205Y109055D03*
X55118Y192913D03*
X86220Y42126D03*
X82835Y55630D03*
X80709Y77559D03*
X92913Y74803D03*
X93150Y146299D03*
X100787Y10630D03*
X113780Y125591D03*
X101575Y146850D03*
X106299Y162205D03*
X106693Y215748D03*
X123228Y76772D03*
X116535Y135039D03*
X136220Y29134D03*
X148886Y54280D03*
X150787Y65354D03*
X147638Y127953D03*
Y120079D03*
X157087Y100000D03*
X167323Y168898D03*
X191339Y111024D03*
X227323Y106417D03*
G54D54*
X170878Y28004D03*
X163004Y24264D03*
Y31744D03*
X170878Y42563D03*
X163004Y38823D03*
Y46303D03*
X155906Y142520D03*
X163780Y146260D03*
Y138780D03*
G54D63*
X240157Y88780D03*
X240326Y128150D03*
G54D27*
X25315Y196220D03*
G54D45*
X114810Y33130D03*
Y30571D03*
Y28012D03*
Y25453D03*
X97710D03*
Y28012D03*
Y30571D03*
Y33130D03*
G54D73*
G01X29432Y10606D02*
X36739Y17913D01*
X39291D01*
X43016Y21638D01*
X44488D01*
G01X26614Y117520D02*
X23071D01*
G01X34646Y124409D02*
X31732D01*
G01X44488Y21638D02*
X48095Y18031D01*
X50787D01*
X53720Y15098D01*
X58130D01*
G01X50787Y21678D02*
X53713Y18752D01*
X61248D01*
X61476Y18524D01*
G01X55906Y88489D02*
X55118Y89276D01*
X50693D01*
X50394Y88976D01*
G01X55906Y94189D02*
X55212Y94882D01*
X50394D01*
G01X88095Y11811D02*
X73937D01*
X70433Y15315D01*
Y27835D01*
X64961Y33307D01*
Y42087D01*
G01X61476Y15098D02*
Y18524D01*
G01X67520Y50354D02*
X69646Y48228D01*
Y43834D01*
X74016Y39464D01*
G01X62402Y50354D02*
X67520D01*
G01X62205Y56063D02*
Y52980D01*
X62402Y52783D01*
Y50354D01*
G01X74016Y55181D02*
X69385D01*
X68504Y56063D01*
G01X70315Y70866D02*
Y71102D01*
X72835Y73622D01*
Y74409D01*
X83465Y85039D01*
G01X75669Y71196D02*
X75339Y70866D01*
X70315D01*
G01X70472Y64961D02*
X70315Y65118D01*
Y70866D01*
G01Y76652D02*
X70276D01*
X66929Y73306D01*
Y65354D01*
X67323Y64961D01*
G01X63874D02*
X67323D01*
G01X70315Y76652D02*
X72249D01*
X81854Y86257D01*
G01X59134Y79449D02*
X60276Y80592D01*
X73111D01*
X81299Y88780D01*
G01X72047Y86693D02*
X72756Y87402D01*
X74482D01*
X79170Y92090D01*
Y92162D01*
G01X68898Y87157D02*
X69142Y87402D01*
X71338D01*
X72047Y86693D01*
G01X62205Y84330D02*
X64055Y82480D01*
X72244D01*
X80315Y90551D01*
G01X72047Y90473D02*
X72678Y89842D01*
X74093D01*
X77953Y93701D01*
G01X68898Y90157D02*
X69291Y89764D01*
X71338D01*
X72047Y90473D01*
G01X70130Y102756D02*
X71305Y103930D01*
X80007D01*
G01X88095Y17717D02*
Y11811D01*
G01X79921Y29528D02*
X77992Y31457D01*
Y32363D01*
X76591Y33764D01*
X74016D01*
G01X74803Y17717D02*
Y23228D01*
X74016Y24016D01*
Y33764D01*
G01X85827Y35133D02*
X88804D01*
X90827Y33110D01*
X97690D01*
X97710Y33130D01*
G01X85827Y29433D02*
X88292D01*
X89429Y30571D01*
X97710D01*
G01X86614Y24016D02*
X90610Y28012D01*
X97710D01*
G01X85827Y35133D02*
Y41732D01*
X86220Y42126D01*
G01X85827Y29433D02*
X85733Y29528D01*
X79921D01*
G01Y35827D02*
X80615Y35133D01*
X85827D01*
G01X86614Y24016D02*
Y19197D01*
X88095Y17717D01*
G01X131929Y42874D02*
X119921D01*
X118527Y41480D01*
X105135D01*
X84291Y62323D01*
Y68386D01*
X88189Y72283D01*
Y76827D01*
X90524Y79162D01*
G01X74016Y55181D02*
Y50512D01*
G01X82835Y55630D02*
X80709Y57756D01*
Y59539D01*
X79367Y60881D01*
G01D02*
X81811Y63326D01*
Y70275D01*
X85276Y73740D01*
Y76614D01*
X88189Y79527D01*
G01X75669Y65496D02*
X79000D01*
X79331Y65827D01*
G01X79367Y60881D02*
X74016D01*
G01X72835Y96457D02*
X75197D01*
X75984Y97244D01*
G01X80709Y77559D02*
X86968Y83819D01*
Y84646D01*
G01X86634Y115728D02*
X84902Y117461D01*
G01X88386Y113976D02*
X86634Y115728D01*
G01X77362Y116142D02*
X78740D01*
X83858Y111024D01*
Y109843D01*
G01X74803Y116142D02*
X77362D01*
G01X72677Y101575D02*
X74555D01*
G01X75984Y108740D02*
X79843D01*
X80708Y107874D01*
G01X83780Y120472D02*
X86220D01*
X90551Y116142D01*
G01X80000Y120472D02*
Y118426D01*
X86968Y111457D01*
G01X75984Y112520D02*
X78819D01*
X79921Y111417D01*
G01X73898Y120984D02*
X74409Y120472D01*
X76378D01*
G01D02*
X80000D01*
G01X85433Y137008D02*
Y135039D01*
X89764Y130709D01*
Y122613D01*
X93201Y119176D01*
G01X82677Y137008D02*
Y134967D01*
X87764Y129880D01*
Y121784D01*
X91787Y117761D01*
G01X83780Y120472D02*
Y125512D01*
X84252Y125984D01*
G01X92992Y127559D02*
Y121969D01*
X95669Y119291D01*
G01X78835Y157827D02*
X78921D01*
X79921Y158827D01*
Y180709D01*
X79134Y181496D01*
X75197D01*
G01X78909Y153921D02*
X81890Y156902D01*
Y180709D01*
X82677Y181496D01*
X87008D01*
G01X97598Y209411D02*
X98130D01*
G01X120567Y11811D02*
X116709Y7954D01*
X103463D01*
X100787Y10630D01*
G01X93795Y17717D02*
X97244D01*
X100787Y14173D01*
Y10630D01*
G01X98874Y40748D02*
X104921Y34700D01*
Y29881D01*
X109350Y25453D01*
X114810D01*
G01D02*
Y24071D01*
X113810Y23071D01*
X111936D01*
X110125Y21260D01*
G01X109449Y17717D02*
X110125Y18393D01*
Y21260D01*
G01X97710Y33130D02*
Y35046D01*
X93174Y39583D01*
Y40748D01*
G01X100591Y65591D02*
X100944Y65944D01*
Y72598D01*
G01X175453Y156043D02*
X171909D01*
X154724Y173228D01*
X94835D01*
G01X97637Y192088D02*
X98130D01*
G01X120567Y11811D02*
Y17102D01*
X120788Y17323D01*
G01X133150Y41732D02*
Y35315D01*
X136220Y32244D01*
Y29134D01*
G01X126496Y30724D02*
X130733D01*
X132323Y29134D01*
X136220D01*
G01X114810Y25453D02*
X126067D01*
X126496Y25024D01*
G01X129882D02*
X126496D01*
G01X114810Y28012D02*
X130295D01*
X132441Y25866D01*
Y22850D01*
X131441Y21850D01*
X125315D01*
X120788Y17323D01*
G01X114810Y30571D02*
X126343D01*
X126496Y30724D01*
G01X131929Y42874D02*
X133150D01*
G01Y41732D02*
X133071D01*
X131929Y42874D01*
G01X133150Y41732D02*
Y42874D01*
G01D02*
X134291D01*
G01X133150Y41732D02*
X134291Y42874D01*
G01X122441Y65748D02*
X116929D01*
X114867Y67811D01*
X113780D01*
G01X125119Y62598D02*
Y63071D01*
X122441Y65748D01*
G01X126378Y56693D02*
Y59055D01*
G01X134291Y42874D02*
X136763D01*
X140906Y47017D01*
Y64606D01*
X126189Y79323D01*
Y80425D01*
G01X144882Y65354D02*
X134803Y75433D01*
Y77717D01*
X133189Y79331D01*
X130905D01*
X122835Y87401D01*
G01X138267Y83465D02*
X137874Y83858D01*
X131496D01*
X125000Y90354D01*
G01X138267Y78346D02*
X135196Y81417D01*
X131378D01*
X123720Y89075D01*
G01X133071Y91654D02*
X132362Y90945D01*
X129922D01*
X127165Y93701D01*
G01X133071Y91654D02*
X134174Y90551D01*
X140191D01*
X141341Y89402D01*
X158268D01*
X162236Y85433D01*
Y82548D01*
X163236Y81548D01*
X163780D01*
G01X133071Y87874D02*
X132000Y88945D01*
X129165D01*
X125984Y92126D01*
G01X133071Y87874D02*
X133748Y88551D01*
X139362D01*
X140512Y87402D01*
X157439D01*
X160236Y84604D01*
Y82374D01*
X159409Y81548D01*
G01X121260Y109843D02*
Y111142D01*
X126654Y116535D01*
X129134D01*
X130315Y117717D01*
G01X129370Y104324D02*
X126969D01*
G01X131102Y106496D02*
X126128D01*
G01X126929Y99993D02*
X129331D01*
G01X125984D02*
X126929D01*
G01X117264Y113720D02*
X116726Y113182D01*
G01X119016Y115472D02*
X117264Y113720D01*
G01X116535Y116142D02*
X118897Y118504D01*
X119370D01*
G01X130315Y113701D02*
X127481D01*
X123222Y109442D01*
G01X123150Y118504D02*
Y116418D01*
X118720Y111988D01*
G01X133150Y101733D02*
X132717Y102165D01*
X125394D01*
G01X133150Y97952D02*
X132828Y97631D01*
X128346D01*
G01X133150Y97952D02*
X137322D01*
X137402Y98031D01*
G01X125630Y119685D02*
X127953D01*
G01X123150Y118504D02*
X124331Y119685D01*
X125630D01*
G01X119370Y118504D02*
Y118976D01*
X124409Y124016D01*
G01X156205Y38519D02*
X154158D01*
X148886Y43792D01*
Y54280D01*
G01D02*
X145224Y57941D01*
Y65012D01*
X144882Y65354D01*
G01X153386Y81102D02*
X153831Y81548D01*
X159409D01*
G01X150787Y92913D02*
X146469D01*
G01X150787D02*
X157087Y99213D01*
Y100000D01*
G01X170878Y28004D02*
X173575D01*
X175717Y25862D01*
X178213D01*
G01X156205Y38519D02*
X156508Y38823D01*
X163004D01*
G01X170878Y42563D02*
X175930D01*
X175946Y42579D01*
X178276D01*
G01X156205Y42559D02*
X170874D01*
G01X159409Y77507D02*
X160236Y76681D01*
Y72929D01*
X158567Y71260D01*
G01X163780Y77507D02*
X162836Y76564D01*
Y72691D01*
X164267Y71260D01*
G01X163780Y81548D02*
X167374D01*
X168898Y83071D01*
G01X175453Y151043D02*
X169429D01*
X169291Y151181D01*
G01X167323Y168898D02*
Y166142D01*
X172421Y161043D01*
X175453D01*
G01X178869Y31345D02*
X178213Y30689D01*
Y25862D01*
G01X178276Y42579D02*
Y37638D01*
X178869Y37045D01*
G01X190945Y51669D02*
X182689D01*
X182283Y52074D01*
G01X181299Y182219D02*
Y179015D01*
X179252Y176968D01*
Y169843D01*
X175453Y166043D01*
G01X190791Y167543D02*
X191645Y168397D01*
X193890D01*
X195221Y167066D01*
G01X190791Y167543D02*
X189920Y168415D01*
X188154D01*
X180782Y161043D01*
X180453D01*
G01Y166043D02*
X183237D01*
X187408Y170215D01*
X189920D01*
X190791Y171087D01*
G01X195221Y171406D02*
X194011Y170197D01*
X191681D01*
X190791Y171087D01*
G01X206303Y163331D02*
Y167359D01*
X205473Y168189D01*
X200384D01*
X199261Y167066D01*
G01Y171406D02*
X200510Y170157D01*
X205303D01*
X206303Y171157D01*
Y175142D01*
G01X224409Y5118D02*
X221654D01*
G01X227559Y5024D02*
X227465Y5118D01*
X224409D01*
G01X239370Y33165D02*
X237496D01*
X235039Y30709D01*
Y21260D01*
X232677Y18898D01*
Y15842D01*
X227559Y10724D01*
G01X220960Y11417D02*
X226866D01*
X227559Y10724D01*
G01X248031Y33465D02*
X239670D01*
X239370Y33165D01*
G54D55*
X156205Y42559D03*
Y38519D03*
X159409Y81548D03*
Y77507D03*
X163780Y81548D03*
Y77507D03*
G54D37*
X75197Y181496D03*
X87008D03*
G54D64*
X276693Y33307D03*
X276055Y198976D03*
G54D19*
X30709Y31102D03*
X36220D03*
X67520Y50354D03*
X62402D03*
X64961Y42087D03*
X72835Y96457D03*
X67323D03*
X84252Y125984D03*
X78740D03*
X124409Y124016D03*
X129921D03*
X137402Y98031D03*
X142913D03*
G54D46*
X101969Y200748D03*
Y183425D03*
G54D28*
X25315Y183622D03*
G54D74*
G01X10000Y61161D02*
X13130Y64291D01*
X30315D01*
X32307Y62299D01*
X32677D01*
G01X10000Y71161D02*
X14547Y66614D01*
X28976D01*
X32346Y69985D01*
X32677D01*
G01X50787Y27378D02*
Y30984D01*
G01X44488Y27338D02*
Y30984D01*
G01X90524Y79162D02*
X91496Y80134D01*
Y82080D01*
G01X88189Y79527D02*
X89921Y81259D01*
Y82080D01*
G01X93201Y119176D02*
X94670Y117706D01*
Y113207D01*
X94645Y113182D01*
G01X91787Y117761D02*
X93070Y116478D01*
Y113182D01*
G01X104173Y50669D02*
X105433D01*
X106614Y51850D01*
Y71850D01*
X104094Y74370D01*
Y82080D01*
G01X104370Y53898D02*
Y71417D01*
X102519Y73268D01*
Y82080D01*
G01X113780Y62111D02*
X111811Y60142D01*
Y53937D01*
X112992Y52756D01*
X115354D01*
G01X108780Y56535D02*
X108819Y56575D01*
Y72795D01*
X105669Y75945D01*
Y82080D01*
G01X107244D02*
Y76890D01*
X110630Y73504D01*
Y65260D01*
X113780Y62111D01*
G01X93070Y82080D02*
Y74960D01*
G01D02*
X92913Y74803D01*
G01X94645Y82080D02*
Y76535D01*
X93070Y74960D01*
G01X92913Y74803D02*
X95669D01*
X96220Y75354D01*
Y82080D01*
G01X131402Y50787D02*
Y51087D01*
X134252Y53937D01*
Y59055D01*
X125197Y68110D01*
X119120D01*
X108819Y78412D01*
Y82080D01*
G01X116535Y135039D02*
X105512Y124016D01*
X104724D01*
X102519Y121811D01*
Y113182D01*
G01X110264Y122780D02*
X109000D01*
X107480Y121260D01*
Y120866D01*
X105669Y119055D01*
Y113182D01*
G01X109303Y120323D02*
X107244Y118263D01*
Y113182D01*
G01X111811Y120945D02*
Y120090D01*
X109074Y117354D01*
Y117343D01*
X108819Y117087D01*
Y113182D01*
G01X147638Y127953D02*
X142126D01*
X139764Y130315D01*
X124016D01*
X110474Y116774D01*
Y113263D01*
X110393Y113182D01*
G01X111968D02*
Y115905D01*
X124803Y128740D01*
X138976D01*
X147638Y120079D01*
G01X105118Y121260D02*
X104094Y120236D01*
Y113182D01*
G01X113780Y125591D02*
X109449D01*
X105118Y121260D01*
G01X126378Y52756D02*
X129433D01*
X131402Y50787D01*
G01X126378Y54724D02*
X129433D01*
X131402Y56693D01*
G01X129921Y59961D02*
Y58740D01*
X131402Y57259D01*
Y56693D01*
G01X132275Y76960D02*
Y75559D01*
X142835Y65000D01*
Y41732D01*
X152441Y32126D01*
G01X116535Y135039D02*
X119685Y138189D01*
Y139764D01*
X124252Y144331D01*
Y144882D01*
G01X163780Y138780D02*
X163583Y138583D01*
X160236D01*
G01X175453Y141043D02*
Y91083D01*
X182283Y84252D01*
Y63674D01*
G54D65*
G01X101141Y130118D02*
Y131772D01*
X100394Y132520D01*
Y145669D01*
X101575Y146850D01*
G54D29*
X49161Y75984D03*
X53201D03*
X70130Y102756D03*
X66090D03*
X78595Y101575D03*
X74555D03*
X142429Y92913D03*
X146469D03*
X195221Y167066D03*
X199261D03*
X195221Y171406D03*
X199261D03*
G54D47*
X100689Y191890D03*
X103248D03*
X98130Y192088D03*
X100689Y209213D03*
X103248D03*
X98130Y209411D03*
G54D56*
X175453Y141043D03*
Y146043D03*
Y156043D03*
Y151043D03*
Y166043D03*
Y161043D03*
X180453Y141043D03*
Y146043D03*
Y156043D03*
Y151043D03*
Y166043D03*
Y161043D03*
X248031Y27953D03*
Y33465D03*
G54D38*
X75197Y191142D03*
X65354D03*
X75197Y202559D03*
X65354D03*
X187402Y198622D03*
Y210039D03*
X199213Y198622D03*
Y210039D03*
G54D75*
G01X10000Y41161D02*
X13058Y38103D01*
G01X6942Y44220D02*
X10000Y41161D01*
G01D02*
X13058Y44220D01*
G01X6942Y38103D02*
X10000Y41161D01*
G01X39432Y10606D02*
X42738Y7300D01*
G01X36126Y13912D02*
X39432Y10606D01*
G01D02*
X42738Y13912D01*
G01X36126Y7300D02*
X39432Y10606D01*
G01X104922Y130118D02*
Y132323D01*
X103504Y133741D01*
Y135118D01*
G01X128476Y14374D02*
X131535Y11316D01*
G01X125418Y17432D02*
X128476Y14374D01*
G01D02*
X131535Y17432D01*
G01X125418Y11316D02*
X128476Y14374D01*
G01X130315Y109921D02*
X127244D01*
X125984Y108661D01*
G01X172008Y14488D02*
X175066Y11430D01*
G01X168950Y17546D02*
X172008Y14488D01*
G01X168950Y11430D02*
X172008Y14488D01*
G01X225197Y209843D02*
X228255Y206784D01*
G01X222139Y212901D02*
X225197Y209843D01*
G01D02*
X228255Y212901D01*
G01X222139Y206784D02*
X225197Y209843D01*
G01X248031Y27953D02*
X250360Y25624D01*
G01X245703Y30281D02*
X248031Y27953D01*
G01D02*
X250360Y30281D01*
G01X245703Y25624D02*
X248031Y27953D01*
G54D66*
G01X92992Y127559D02*
Y133681D01*
X89764Y136909D01*
Y138189D01*
G01D02*
Y142362D01*
G01X96772Y127559D02*
Y130394D01*
G54D39*
X55512Y206299D03*
Y199213D03*
X84252Y197638D03*
Y190551D03*
G54D57*
X182283Y52074D03*
Y63674D03*
G54D48*
X103248Y191890D03*
Y209213D03*
G54D76*
G01X46769Y-15322D02*
X47644Y-14155D01*
X48394Y-13488D01*
X49394Y-13155D01*
X50269Y-13488D01*
X50894Y-14155D01*
X51394Y-15155D01*
X51519Y-16322D01*
X51394Y-17322D01*
X50894Y-18322D01*
X50144Y-19155D01*
X49269Y-19488D01*
X48269Y-19155D01*
X47394Y-18155D01*
X46894Y-16655D01*
X46769Y-14988D01*
X47019Y-12822D01*
X47394Y-11655D01*
X48019Y-10488D01*
X48894Y-9655D01*
X49769Y-9488D01*
X50644Y-9821D01*
X51269Y-10655D01*
G01X59144Y-9488D02*
X58144Y-9821D01*
X57394Y-10655D01*
X56894Y-11655D01*
X56519Y-12988D01*
X56394Y-14488D01*
X56519Y-15988D01*
X56894Y-17322D01*
X57394Y-18322D01*
X58144Y-19155D01*
X59144Y-19488D01*
X60144Y-19155D01*
X60894Y-18322D01*
X61394Y-17322D01*
X61769Y-15988D01*
X61894Y-14488D01*
X61769Y-12988D01*
X61394Y-11655D01*
X60894Y-10655D01*
X60144Y-9821D01*
X59144Y-9488D01*
G01X69144D02*
X68144Y-9821D01*
X67394Y-10655D01*
X66894Y-11655D01*
X66519Y-12988D01*
X66394Y-14488D01*
X66519Y-15988D01*
X66894Y-17322D01*
X67394Y-18322D01*
X68144Y-19155D01*
X69144Y-19488D01*
X70144Y-19155D01*
X70894Y-18322D01*
X71394Y-17322D01*
X71769Y-15988D01*
X71894Y-14488D01*
X71769Y-12988D01*
X71394Y-11655D01*
X70894Y-10655D01*
X70144Y-9821D01*
X69144Y-9488D01*
G01X77519Y-16155D02*
X80769D01*
G01X86769Y-15322D02*
X87644Y-14155D01*
X88394Y-13488D01*
X89394Y-13155D01*
X90269Y-13488D01*
X90894Y-14155D01*
X91394Y-15155D01*
X91519Y-16322D01*
X91394Y-17322D01*
X90894Y-18322D01*
X90144Y-19155D01*
X89269Y-19488D01*
X88269Y-19155D01*
X87394Y-18155D01*
X86894Y-16655D01*
X86769Y-14988D01*
X87019Y-12822D01*
X87394Y-11655D01*
X88019Y-10488D01*
X88894Y-9655D01*
X89769Y-9488D01*
X90644Y-9821D01*
X91269Y-10655D01*
G01X99144Y-9488D02*
X98144Y-9821D01*
X97394Y-10655D01*
X96894Y-11655D01*
X96519Y-12988D01*
X96394Y-14488D01*
X96519Y-15988D01*
X96894Y-17322D01*
X97394Y-18322D01*
X98144Y-19155D01*
X99144Y-19488D01*
X100144Y-19155D01*
X100894Y-18322D01*
X101394Y-17322D01*
X101769Y-15988D01*
X101894Y-14488D01*
X101769Y-12988D01*
X101394Y-11655D01*
X100894Y-10655D01*
X100144Y-9821D01*
X99144Y-9488D01*
G01X106769Y-15322D02*
X107644Y-14155D01*
X108394Y-13488D01*
X109394Y-13155D01*
X110269Y-13488D01*
X110894Y-14155D01*
X111394Y-15155D01*
X111519Y-16322D01*
X111394Y-17322D01*
X110894Y-18322D01*
X110144Y-19155D01*
X109269Y-19488D01*
X108269Y-19155D01*
X107394Y-18155D01*
X106894Y-16655D01*
X106769Y-14988D01*
X107019Y-12822D01*
X107394Y-11655D01*
X108019Y-10488D01*
X108894Y-9655D01*
X109769Y-9488D01*
X110644Y-9821D01*
X111269Y-10655D01*
G01X116769Y-11155D02*
X117519Y-10155D01*
X118394Y-9655D01*
X119394Y-9488D01*
X120644Y-9821D01*
X121519Y-10655D01*
X121769Y-11655D01*
X121644Y-12655D01*
X121144Y-13488D01*
X118644Y-15155D01*
X117519Y-16322D01*
X116769Y-17989D01*
X116519Y-19488D01*
X121769D01*
G01X129144D02*
X130019Y-19322D01*
X131019Y-18822D01*
X131644Y-17989D01*
X131894Y-16822D01*
X131644Y-15655D01*
X130894Y-14655D01*
X129769Y-14155D01*
X128519D01*
X127769Y-13822D01*
X127144Y-12988D01*
X126894Y-11822D01*
X127269Y-10655D01*
X128144Y-9821D01*
X129144Y-9488D01*
X130144Y-9821D01*
X131019Y-10655D01*
X131394Y-11822D01*
X131144Y-12988D01*
X130519Y-13822D01*
X129769Y-14155D01*
X128519D01*
X127394Y-14655D01*
X126644Y-15655D01*
X126394Y-16822D01*
X126644Y-17989D01*
X127269Y-18822D01*
X128269Y-19322D01*
X129144Y-19488D01*
G01X137519Y-16155D02*
X140769D01*
G01X149144Y-9488D02*
X148144Y-9821D01*
X147394Y-10655D01*
X146894Y-11655D01*
X146519Y-12988D01*
X146394Y-14488D01*
X146519Y-15988D01*
X146894Y-17322D01*
X147394Y-18322D01*
X148144Y-19155D01*
X149144Y-19488D01*
X150144Y-19155D01*
X150894Y-18322D01*
X151394Y-17322D01*
X151769Y-15988D01*
X151894Y-14488D01*
X151769Y-12988D01*
X151394Y-11655D01*
X150894Y-10655D01*
X150144Y-9821D01*
X149144Y-9488D01*
G01X159144Y-19488D02*
Y-9488D01*
X157644Y-11488D01*
G01Y-19488D02*
X160643D01*
G01X176644D02*
Y-9488D01*
X179769D01*
X180769Y-9989D01*
X181394Y-10655D01*
X181644Y-11988D01*
X181394Y-13322D01*
X180644Y-14155D01*
X179769Y-14655D01*
X176644D01*
G01X179769D02*
X181644Y-19488D01*
G01X191644D02*
X186644D01*
Y-9488D01*
X191644D01*
G01X189644Y-14321D02*
X186644D01*
G01X196019Y-9488D02*
X199144Y-19488D01*
X202269Y-9488D01*
G01X209144D02*
X208144Y-9821D01*
X207394Y-10655D01*
X206894Y-11655D01*
X206519Y-12988D01*
X206394Y-14488D01*
X206519Y-15988D01*
X206894Y-17322D01*
X207394Y-18322D01*
X208144Y-19155D01*
X209144Y-19488D01*
X210144Y-19155D01*
X210894Y-18322D01*
X211394Y-17322D01*
X211769Y-15988D01*
X211894Y-14488D01*
X211769Y-12988D01*
X211394Y-11655D01*
X210894Y-10655D01*
X210144Y-9821D01*
X209144Y-9488D01*
G01X220644Y-19488D02*
Y-9488D01*
X216019Y-16655D01*
X222269D01*
G01X236644Y-19488D02*
Y-9488D01*
X239644D01*
X240644Y-9989D01*
X241394Y-11155D01*
X241644Y-12488D01*
X241394Y-13822D01*
X240769Y-14822D01*
X239644Y-15322D01*
X236644D01*
G01X246644Y-19488D02*
Y-9488D01*
X249769D01*
X250769Y-9989D01*
X251394Y-10655D01*
X251644Y-11988D01*
X251394Y-13322D01*
X250644Y-14155D01*
X249769Y-14655D01*
X246644D01*
G01X249769D02*
X251644Y-19488D01*
G01X257644Y-9488D02*
X260643D01*
G01X259144D02*
Y-19488D01*
G01X257644D02*
X260643D01*
G01X265894D02*
Y-9488D01*
X269144Y-17822D01*
X272394Y-9488D01*
Y-19488D01*
G01X276019D02*
X279144Y-9488D01*
X282269Y-19488D01*
G01X281144Y-15988D02*
X277144D01*
G01X286644Y-19488D02*
Y-9488D01*
X289769D01*
X290769Y-9989D01*
X291394Y-10655D01*
X291644Y-11988D01*
X291394Y-13322D01*
X290644Y-14155D01*
X289769Y-14655D01*
X286644D01*
G01X289769D02*
X291644Y-19488D01*
G01X299144D02*
Y-14988D01*
X296644Y-9488D01*
G01X301644D02*
X299144Y-14988D01*
G01X316519Y-18155D02*
X317519Y-18988D01*
X318644Y-19488D01*
X319644D01*
X320644Y-18988D01*
X321394Y-18155D01*
X321769Y-16988D01*
X321519Y-15822D01*
X320894Y-14822D01*
X319769Y-14155D01*
X318269Y-13822D01*
X317394Y-13155D01*
X317019Y-11988D01*
X317269Y-10822D01*
X317894Y-9989D01*
X318769Y-9488D01*
X319644D01*
X320519Y-9821D01*
X321269Y-10655D01*
G01X327644Y-9488D02*
X330643D01*
G01X329144D02*
Y-19488D01*
G01X327644D02*
X330643D01*
G01X336394D02*
Y-9488D01*
X338894D01*
X339894Y-9989D01*
X340644Y-10655D01*
X341269Y-11655D01*
X341769Y-12822D01*
X341894Y-14488D01*
X341769Y-16155D01*
X341269Y-17322D01*
X340644Y-18322D01*
X339894Y-18988D01*
X338894Y-19488D01*
X336394D01*
G01X351644D02*
X346644D01*
Y-9488D01*
X351644D01*
G01X349644Y-14321D02*
X346644D01*
G54D67*
G01X59134Y79449D02*
X57874D01*
X54409Y75984D01*
X53201D01*
G54D49*
X120866Y52756D03*
G54D58*
X189331Y97244D03*
X189173Y131732D03*
X206654Y97244D03*
X206496Y131732D03*
G54D77*
G01X31732Y118504D02*
X30945D01*
X30315Y119134D01*
Y119921D01*
X30039Y120197D01*
G01X26614Y119488D02*
X24291D01*
X23268Y120512D01*
G01X26614Y121457D02*
X28780D01*
X30039Y120197D01*
G01X31732Y122441D02*
X32677D01*
X33858Y121260D01*
G01X90894Y68189D02*
X91524Y68819D01*
X94813D01*
X99295Y73301D01*
Y80117D01*
X99339Y80161D01*
Y82049D01*
X99370Y82080D01*
G01X90894Y70989D02*
X91528Y70354D01*
X94226D01*
X97795Y73923D01*
Y80739D01*
X97826Y80770D01*
Y82049D01*
X97795Y82080D01*
G54D68*
G01X96772Y127559D02*
X96614Y127401D01*
Y121496D01*
X97244Y120866D01*
G54D59*
X214764Y36614D03*
Y56299D03*
Y46457D03*
Y66142D03*
Y75984D03*
X208858Y196063D03*
Y185827D03*
X226181Y36614D03*
Y56299D03*
Y46457D03*
Y66142D03*
Y75984D03*
X220276Y196063D03*
Y185827D03*
G54D78*
G01X263776Y214565D02*
Y232283D01*
X519681D01*
Y0D01*
X263776D01*
Y17719D01*
G03X259846Y21649I-3930J0D01*
G01X259835D01*
G03X255906Y17719I0J-3930D01*
G01Y0D01*
X0D01*
Y232283D01*
X255906D01*
Y214565D01*
G03X259835Y210635I3930J0D01*
G01X259846D01*
G03X263776Y214565I0J3930D01*
G01X250859Y182655D02*
X250869D01*
G01X259846Y21649D02*
X259835D01*
G01X255906Y45219D02*
G03X263776I3935J5D01*
G01Y73031D01*
X289933D01*
Y143898D01*
X263776D01*
Y187065D01*
G03X255906I-3935J-5D01*
G01Y45219D01*
G01X259846Y190995D02*
X259835D01*
G01Y210635D02*
X259846D01*
G54D69*
G01X55906Y94189D02*
X57306Y92788D01*
X74284D01*
X77552Y96056D01*
G01X142429Y92913D02*
X137402D01*
X135433Y94882D01*
X128740D01*
X128346Y95276D01*
G01X170874Y42559D02*
X170878Y42563D01*
M02*
