G04 ================== begin FILE IDENTIFICATION RECORD ==================*
G04 Layout Name:  REF_WLC_TX15W_C1-MP A11 15W POWER TRANSMITTER REV04 31MAR2022.brd*
G04 Film Name:    02_BOTTOM*
G04 File Format:  Gerber RS274X*
G04 File Origin:  Cadence Allegro 17.2-S071*
G04 Origin Date:  Thu Mar 31 11:57:37 2022*
G04 *
G04 Layer:  ETCH/BOTTOM*
G04 Layer:  PIN/BOTTOM*
G04 Layer:  VIA CLASS/BOTTOM*
G04 Layer:  BOARD GEOMETRY/OUTLINE*
G04 *
G04 Offset:    (0.0000 0.0000)*
G04 Mirror:    No*
G04 Mode:      Positive*
G04 Rotation:  0*
G04 FullContactRelief:  No*
G04 UndefLineWidth:     0.1270*
G04 ================== end FILE IDENTIFICATION RECORD ====================*
%FSLAX25Y25*MOIN*%
%IR0*IPPOS*OFA0.00000B0.00000*MIA0B0*SFA1.00000B1.00000*%
%ADD15C,.02*%
%ADD20C,.016*%
%ADD12C,.03*%
%ADD18C,.018*%
%ADD19O,.082677X.043307*%
%ADD14O,.141732X.043307*%
%ADD24O,.177165X.161417*%
%ADD23C,.03937*%
%ADD21C,.04*%
%ADD25C,.106299*%
%ADD13C,.06*%
%ADD10C,.153543*%
%ADD16C,.05937*%
%ADD17C,.067*%
%ADD11R,.06X.06*%
%ADD22R,.056X.056*%
%ADD26C,.01*%
%ADD27C,.006*%
%ADD28C,.015*%
%ADD29C,.012*%
%ADD30C,.007*%
%ADD31C,.005*%
%ADD32C,.079016*%
%ADD33C,.083016*%
%ADD36C,.076016*%
%ADD35C,.169559*%
%ADD34C,.072016*%
%ADD37C,.075386*%
G75*
%LPD*%
G75*
G36*
G01X3780Y188386D02*
X35197D01*
X36260Y187323D01*
Y156693D01*
X38504Y154449D01*
Y139961D01*
X33858Y135315D01*
X23583D01*
X16181Y127913D01*
Y98701D01*
X15787Y98307D01*
X4567D01*
X2000Y100874D01*
Y186606D01*
X3780Y188386D01*
G37*
G36*
G01X3937Y229921D02*
X251575D01*
X253346Y228150D01*
Y149016D01*
X252362Y148031D01*
X220809D01*
X210818Y158022D01*
G03X210039Y158345I-778J-778D01*
G01X182677D01*
Y158508D01*
G02X182619Y159319I412J437D01*
G03X182722Y159457I-2169J1722D01*
G01X182730Y159468D01*
G03X183222Y161043I-2277J1575D01*
G03X182309Y163098I-2769J0D01*
G02Y163989I402J445D01*
G03X183222Y166043I-1857J2055D01*
G03X180453Y168813I-2769J0D01*
G03X178398Y167900I0J-2769D01*
G02X177507I-445J402D01*
G03X175453Y168813I-2055J-1857D01*
G03X172683Y166043I0J-2769D01*
G03X173596Y163989I2769J0D01*
G02Y163098I-402J-445D01*
G03Y158989I1857J-2055D01*
G02Y158098I-402J-445D01*
G03Y153989I1857J-2055D01*
G02Y153098I-402J-445D01*
G03X172683Y151043I1857J-2055D01*
G03X175453Y148274I2769J0D01*
G03X177507Y149187I0J2769D01*
G02X178398I445J-402D01*
G03X178596Y148989I2055J1857D01*
G02Y148098I-402J-445D01*
G03Y143989I1857J-2055D01*
G02Y143098I-402J-445D01*
G03X178398Y142900I1857J-2055D01*
G02X177507I-445J402D01*
G03X175453Y143813I-2055J-1857D01*
G03X172683Y141043I0J-2769D01*
G03X173828Y138801I2769J0D01*
G02X173476Y137715I-352J-486D01*
G01X169747D01*
X165739Y141723D01*
G03X164961Y142046I-778J-778D01*
G01X159449D01*
G03X158670Y141723I0J-1101D01*
G01X156237Y139290D01*
X127953D01*
G03X127174Y138967I0J-1101D01*
G01X114898Y126691D01*
X109449D01*
G03X108670Y126369I0J-1101D01*
G01X105166Y122864D01*
X105049Y122859D01*
G03X103517Y121260I69J-1599D01*
G03X105118Y119659I1601J0D01*
G03X106717Y121191I0J1601D01*
G01X106722Y121307D01*
X107798Y122383D01*
G02X108779Y122182I424J-424D01*
G03X108786Y122165I1485J597D01*
G01X108809Y122050D01*
X108634Y121777D01*
G03X107721Y120565I669J-1454D01*
G01X107706Y120467D01*
X103828Y116589D01*
G03X103506Y115811I778J-778D01*
G01Y63054D01*
X100115Y59664D01*
X14308D01*
G02X13721Y60386I0J600D01*
G03X13801Y61161I-3721J775D01*
G03X10000Y64962I-3801J0D01*
G03X7253Y63788I0J-3800D01*
G02X6219Y64202I-434J415D01*
G01Y65824D01*
X8202Y67806D01*
X8392Y67717D01*
G03X9999Y67361I1608J3444D01*
G01X10000D01*
G03X6199Y71161I0J3801D01*
G03X6556Y69554I3801J0D01*
G01X6645Y69363D01*
X4340Y67058D01*
G03X4017Y66280I778J-778D01*
G01Y59134D01*
G03X4340Y58356I1101J0D01*
G01X7312Y55383D01*
G03X7588Y55182I779J778D01*
G02X7681Y54172I-274J-534D01*
G03X6199Y51161I2319J-3011D01*
G03X13801I3801J0D01*
G03X13587Y52419I-3801J0D01*
G01X13524Y52597D01*
X14865Y53939D01*
X101733D01*
G03X101988Y53969I-1J1101D01*
G02X102712Y53519I140J-584D01*
G03X103090Y52778I1658J378D01*
G02X103039Y51936I-452J-395D01*
G03X102877Y51770I1135J-1267D01*
G01X58937D01*
G03X58159Y51448I0J-1101D01*
G01X47922Y41211D01*
G03X47600Y40433I778J-778D01*
G01Y35653D01*
X44631Y32684D01*
X44505Y32685D01*
X44488D01*
G03X46189Y30984I0J-1701D01*
G01Y31001D01*
X46188Y31127D01*
X48662Y33602D01*
G02X49687Y33178I424J-424D01*
G01Y32281D01*
G03X49087Y30984I1101J-1296D01*
G03X52488I1701J0D01*
G03X51888Y32281I-1701J0D01*
G01Y39308D01*
X60023Y47443D01*
X105079D01*
G03X105857Y47765I0J1101D01*
G01X106999Y48907D01*
G03X107321Y49685I-778J778D01*
G01Y52047D01*
G03X106999Y52826I-1101J0D01*
G01X106070Y53755D01*
X106071Y53881D01*
Y53898D01*
G03X105924Y54590I-1701J0D01*
G02X106471Y55435I548J245D01*
G01X107483D01*
G03X108780Y54835I1296J1101D01*
G03Y58236I0J1701D01*
G03X107483Y57636I0J-1701D01*
G01X104876D01*
G02X104452Y58661I0J600D01*
G01X106959Y61168D01*
G03X107282Y61946I-778J778D01*
G01Y81445D01*
G02X108306Y81869I600J0D01*
G01X113041Y77135D01*
G03X113819Y76813I778J778D01*
G01X130464D01*
X130516Y76576D01*
G03X132275Y75159I1759J384D01*
G03Y78761I0J1801D01*
G03X132042Y78746I-1J-1801D01*
G03X131322Y79014I-720J-833D01*
G01X125524D01*
G02X124961Y79819I0J600D01*
G03X125069Y80433I-1693J614D01*
G03X123268Y82234I-1801J0D01*
G03X121706Y81330I0J-1801D01*
G01X121620Y81180D01*
X114669D01*
X110353Y85495D01*
Y111946D01*
X116920Y118513D01*
G03X117243Y119291I-778J778D01*
G01Y123166D01*
X129590Y135513D01*
X158268D01*
G03X159046Y135836I0J1101D01*
G01X160093Y136883D01*
X160220Y136882D01*
X160236D01*
G03X161937Y138583I0J1701D01*
G01Y138584D01*
G03X161865Y139072I-1701J-1D01*
G02X162440Y139844I575J173D01*
G01X164505D01*
X168513Y135836D01*
G03X169291Y135513I778J778D01*
G01X176024D01*
G03X176802Y135836I0J1101D01*
G01X179194Y138228D01*
X179646D01*
X179961Y137913D01*
Y137626D01*
X176892Y134557D01*
X141408D01*
X141365Y134570D01*
G03X140552Y134691I-814J-2680D01*
G01X140551D01*
G03X138406Y133691I0J-2801D01*
G01X131095D01*
G03X129822Y133163I0J-1801D01*
G01X119593Y122934D01*
G03X119065Y121661I1273J-1273D01*
G01Y118069D01*
X115991Y114994D01*
G03X115463Y113720I1273J-1273D01*
G03X117264Y111920I1801J0D01*
G03X118537Y112447I0J1801D01*
G01X122139Y116050D01*
G03X122667Y117323I-1273J1273D01*
G01Y120915D01*
X131841Y130089D01*
X138406D01*
G03X140551Y129089I2145J1801D01*
G03X143120Y130774I0J2801D01*
G01X143199Y130955D01*
X176606D01*
G02X177030Y129931I0J-600D01*
G01X175553Y128454D01*
X136359D01*
G03X135039Y128785I-1320J-2470D01*
G03X132239Y125984I0J-2801D01*
G03X133142Y123924I2801J0D01*
G01X133239Y123835D01*
Y123187D01*
X132290Y122238D01*
G03X131762Y120965I1273J-1273D01*
G03X133563Y119164I1801J0D01*
G03X134836Y119691I0J1801D01*
G01X136313Y121168D01*
G03X136840Y122441I-1273J1273D01*
G01Y123839D01*
G03X137602Y124853I-1801J2145D01*
G01X176299D01*
G03X177572Y125380I0J1801D01*
G01X184673Y132480D01*
X185630D01*
X186142Y131969D01*
Y127677D01*
X188583Y125236D01*
Y122785D01*
X142244D01*
G03X140971Y122257I0J-1801D01*
G01X137049Y118336D01*
X131848D01*
X129226Y120958D01*
G03X127953Y121486I-1273J-1273D01*
G01X125630D01*
G03Y117884I0J-1801D01*
G01X127207D01*
X129829Y115262D01*
G03X131102Y114735I1273J1273D01*
G01X135462D01*
X135630Y114567D01*
Y113583D01*
X137008Y112205D01*
X137618D01*
X137666Y112188D01*
G03X138189Y112100I523J1513D01*
G03X138585Y112150I1J1601D01*
G01X140157D01*
G03X140563Y112204I0J1551D01*
G01X141733D01*
X144489Y114960D01*
X187954D01*
X188583Y114331D01*
Y113031D01*
X187982Y112431D01*
X145669D01*
G03X144396Y111903I0J-1801D01*
G01X143742Y111250D01*
X125591D01*
G03X124317Y110722I0J-1801D01*
G01X120774Y107179D01*
G03X120246Y105906I1273J-1273D01*
G01Y103326D01*
G03X119246Y101181I1801J-2145D01*
G03X122047Y98380I2801J0D01*
G01X122049D01*
G03X122393Y98402I-1J2801D01*
G03X123234Y98193I842J1592D01*
G01X129331D01*
G03Y101794I0J1801D01*
G01X124789D01*
X124724Y102006D01*
G03X123848Y103326I-2677J-825D01*
G01Y105159D01*
X126337Y107648D01*
X144489D01*
G03X144657Y107656I-1J1801D01*
G02X145296Y106918I56J-597D01*
G03X145246Y106497I1751J-421D01*
G01Y106496D01*
G03X147047Y104695I1801J0D01*
G01X151580D01*
G03X153543Y103892I1963J1997D01*
G03X155689Y104892I0J2801D01*
G01X188218D01*
X188583Y104528D01*
Y103543D01*
X185748Y100709D01*
Y96850D01*
X184858Y95960D01*
X175771D01*
X170457Y101273D01*
G03X169184Y101801I-1273J-1273D01*
G01X146022D01*
X141431Y106391D01*
G03X140157Y106919I-1273J-1273D01*
G01X130164D01*
G03X128891Y106391I0J-1801D01*
G01X128624Y106125D01*
X126969D01*
G03Y102523I0J-1801D01*
G01X129370D01*
G03X130643Y103051I0J1801D01*
G01X130910Y103317D01*
X133913D01*
G02X134460Y102471I0J-600D01*
G03X134302Y101733I1643J-738D01*
G03X136102Y99932I1801J-1D01*
G01X137601D01*
X142350Y95183D01*
G03X143623Y94656I1273J1273D01*
G01X166970D01*
X172349Y89278D01*
G03X173622Y88750I1273J1273D01*
G01X187628D01*
X187638Y88740D01*
X194331D01*
X196850Y86220D01*
Y33858D01*
X201181Y29528D01*
X223650D01*
G02X223968Y28419I0J-600D01*
G03X222183Y25197I2016J-3222D01*
G03X229785I3801J0D01*
G03X228000Y28419I-3801J0D01*
G02X228319Y29528I318J509D01*
G01X230315D01*
X238189Y37402D01*
X251969D01*
X253079Y36291D01*
Y3866D01*
X251575Y2362D01*
X3150D01*
X2362Y3150D01*
Y93031D01*
X5394Y96063D01*
X15709D01*
X16613Y95159D01*
Y87598D01*
G03X16994Y86679I1300J0D01*
G01X38844Y64828D01*
G03X39764Y64447I920J919D01*
G01X65690D01*
X65769Y64269D01*
G03X67323Y63260I1554J691D01*
G03X68487Y63721I0J1700D01*
G02X69308I411J-438D01*
G03X70472Y63260I1164J1239D01*
G03X72173Y64961I0J1701D01*
G03X70713Y66644I-1701J0D01*
G01X70614Y66658D01*
X68636Y68636D01*
G03X67717Y69017I-920J-919D01*
G01X41119D01*
X21183Y88953D01*
Y95631D01*
X21339Y95787D01*
X21890D01*
X21999Y95678D01*
Y89843D01*
G03X22336Y89029I1151J0D01*
G01X40919Y70446D01*
G03X41732Y70109I814J814D01*
G01X83972D01*
X86076Y68005D01*
G03X86890Y67668I814J814D01*
G01X89263D01*
X89343Y67491D01*
G03X90894Y66488I1551J698D01*
G03X92594Y68189I0J1701D01*
G03X92109Y69379I-1701J0D01*
G02Y69799I214J210D01*
G03X92594Y70989I-1215J1190D01*
G03X90894Y72690I-1701J0D01*
G03X89356Y71716I0J-1701D01*
G01X89275Y71544D01*
X88036D01*
X86007Y73574D01*
G03X85193Y73911I-814J-814D01*
G01X42831D01*
X25954Y90787D01*
Y95403D01*
X26614Y96063D01*
X31929D01*
X36378Y100512D01*
Y108228D01*
X49606Y121457D01*
Y169488D01*
X50551Y170433D01*
Y183937D01*
X43543Y190945D01*
X3976D01*
X2362Y192559D01*
Y228346D01*
X3937Y229921D01*
G37*
G36*
G01X39646Y113425D02*
X35945D01*
X34961Y114409D01*
Y118661D01*
X36575Y120276D01*
Y125354D01*
X36024Y125906D01*
Y134370D01*
X40118Y138465D01*
Y155315D01*
X38150Y157283D01*
Y187008D01*
X39055Y187913D01*
X43071D01*
X49173Y181811D01*
Y171142D01*
X48150Y170118D01*
Y121929D01*
X39646Y113425D01*
G37*
G36*
G01X187008Y100591D02*
X187598Y101181D01*
X191929D01*
X193976Y99134D01*
Y92992D01*
X193583Y92598D01*
X187559D01*
X187008Y93150D01*
Y100591D01*
G37*
G36*
G01X186969Y134724D02*
X187835Y135591D01*
X193504D01*
X194291Y134803D01*
Y128110D01*
X193346Y127165D01*
X187795D01*
X186969Y127992D01*
Y134724D01*
G37*
G36*
G01X183235Y156143D02*
X192126D01*
Y152144D01*
X182994D01*
G03X182309Y153098I-2541J-1100D01*
G02Y153989I402J445D01*
G03X183216Y155863I-1857J2055D01*
G01X183235Y156143D01*
G37*
G36*
G01X182994Y149943D02*
X192126D01*
Y147144D01*
X182994D01*
G03X182309Y148098I-2541J-1100D01*
G02Y148989I402J445D01*
G03X182994Y149943I-1857J2054D01*
G37*
G36*
G01Y144943D02*
X192126D01*
Y143425D01*
X191575Y142874D01*
X183110D01*
X182573Y143411D01*
G02X182544Y144228I424J424D01*
G03X182994Y144943I-2092J1814D01*
G37*
G36*
G01X183235Y156143D02*
X209583D01*
X218268Y147459D01*
Y147008D01*
X216142Y144882D01*
Y141535D01*
X214439Y139832D01*
X203199D01*
X200118Y142913D01*
X182677D01*
X182283Y143307D01*
Y143961D01*
X182375Y144050D01*
G03X182994Y144943I-1923J1993D01*
G01X205571D01*
G03X206349Y145265I0J1101D01*
G01X208874Y147790D01*
X209049Y147732D01*
G03X209921Y147593I872J2661D01*
G03X207120Y150394I0J2801D01*
G03X207260Y149522I2801J0D01*
G01X207317Y149346D01*
X205115Y147144D01*
X182994D01*
G03X182283Y148121I-2541J-1100D01*
G01Y148965D01*
G03X182994Y149943I-1831J2078D01*
G01X197303D01*
G03X198081Y150265I0J1101D01*
G01X198369Y150553D01*
X198724D01*
G03X201299Y148853I2576J1101D01*
G03Y154454I0J2801D01*
G03X198724Y152754I0J-2801D01*
G01X197913D01*
G03X197135Y152432I0J-1101D01*
G01X196847Y152144D01*
X182994D01*
G03X182677Y152693I-2541J-1100D01*
G01Y154394D01*
G03X183216Y155863I-2224J1649D01*
G01X183235Y156143D01*
G37*
G36*
G01X201614Y98937D02*
X203858Y101181D01*
X210630D01*
X211457Y100354D01*
Y85748D01*
X218110Y79094D01*
Y33465D01*
X217126Y32480D01*
X200984D01*
X198819Y34646D01*
Y86693D01*
X195669Y89843D01*
Y97953D01*
X196654Y98937D01*
X201614D01*
G37*
G36*
G01X218781Y122638D02*
X222441D01*
X224016Y121063D01*
Y114961D01*
X234646Y104331D01*
X252362D01*
X253346Y103346D01*
Y44685D01*
X250000Y41339D01*
X239764D01*
X230315Y31890D01*
X221260D01*
X219685Y33465D01*
Y79764D01*
X213228Y86220D01*
Y97283D01*
X218504Y102559D01*
Y104724D01*
X217717Y105512D01*
X201335D01*
X201252Y105676D01*
G03X199897Y106645I-1606J-814D01*
G01X199797Y106659D01*
X197638Y108819D01*
Y117677D01*
X202598Y122637D01*
X218780D01*
X218781Y122638D01*
G37*
G36*
G01X221654Y145669D02*
X248425D01*
X251969Y142126D01*
Y109055D01*
X249213Y106299D01*
X235039D01*
X225709Y115630D01*
Y121929D01*
X220748Y126890D01*
X196654D01*
X196181Y127362D01*
Y134409D01*
X197559Y135787D01*
X216772D01*
X217357Y136373D01*
X217406Y136396D01*
G03X218289Y137279I-752J1636D01*
G01X218312Y137328D01*
X219488Y138504D01*
Y143504D01*
X221654Y145669D01*
G37*
%LPC*%
G75*
G36*
G01X59672Y18559D02*
X59681Y18669D01*
G02X61476Y20324I1795J-146D01*
G02X63277Y18524I0J-1801D01*
G02X61622Y16729I-1801J0D01*
G01X61512Y16720D01*
X54479Y9687D01*
G02X53559Y9306I-920J919D01*
G01X53374D01*
G02X49432Y6456I-3942J1301D01*
G02Y14757I0J4151D01*
G02X52928Y12845I0J-4151D01*
G03X53857Y12744I505J323D01*
G01X59672Y18559D01*
G37*
G36*
G01X113889Y26325D02*
X128786D01*
G02X129882Y26725I1096J-1301D01*
G02Y23323I0J-1701D01*
G02X128786Y23723I0J1701D01*
G01X114428D01*
X111822Y21118D01*
X111809Y21019D01*
G02X110125Y19559I-1684J241D01*
G02X108424Y21260I0J1701D01*
G02X109884Y22944I1701J0D01*
G01X109983Y22957D01*
X112969Y25944D01*
G02X113889Y26325I920J-919D01*
G37*
G36*
G01X151340Y30701D02*
G02X150640Y32126I1101J1425D01*
G02X154242I1801J0D01*
G02X153542Y30701I-1801J0D01*
G01Y23491D01*
X169239Y7794D01*
X222835D01*
G02X223613Y7471I0J-1101D01*
G01X224267Y6818D01*
X224393Y6819D01*
X224409D01*
G02X222709Y5118I0J-1701D01*
G01Y5135D01*
X222710Y5261D01*
X222379Y5592D01*
X168783D01*
G02X168005Y5915I0J1101D01*
G01X151663Y22257D01*
G02X151340Y23035I778J778D01*
G01Y30701D01*
G37*
G36*
G01X6199Y34161D02*
G02X7000Y34962I801J0D01*
G01X13000D01*
G02X13801Y34161I0J-801D01*
G01Y28161D01*
G02X13000Y27361I-801J0D01*
G01X7000D01*
G02X6199Y28161I0J801D01*
G01Y34161D01*
G37*
G36*
G01X246587Y31102D02*
G02X245262Y33465I1444J2363D01*
G02X250801I2769J0D01*
G02X249476Y31102I-2769J0D01*
G03X249456Y30091I313J-512D01*
G02X250601Y27953I-1425J-2138D01*
G02X245462I-2569J0D01*
G02X246607Y30091I2570J0D01*
G03X246587Y31102I-333J499D01*
G37*
G36*
G01X120641Y59842D02*
Y65748D01*
G02X124242I1801J0D01*
G01Y60588D01*
X129289Y55541D01*
X137102D01*
G02X138375Y55013I0J-1801D01*
G01X139462Y53926D01*
G02X139990Y52653I-1273J-1273D01*
G01Y35827D01*
G02X139462Y34554I-1801J0D01*
G01X137769Y32861D01*
G02X136496Y32333I-1273J1273D01*
G01X129645D01*
G02X128372Y32861I0J1801D01*
G01X125080Y36152D01*
X120337D01*
G02X120075Y36171I0J1801D01*
G01X120053Y36174D01*
X118013D01*
X106486Y24647D01*
Y17874D01*
G02X105958Y16601I-1801J0D01*
G01X101076Y11719D01*
G02X99803Y11191I-1273J1273D01*
G01X94134D01*
G02X92861Y11719I0J1801D01*
G01X90317Y14262D01*
X74173D01*
G02X72900Y14790I0J1801D01*
G01X66498Y21191D01*
X38071D01*
G02X36798Y21719I0J1801D01*
G01X34908Y23609D01*
G02X34380Y24882I1273J1273D01*
G02X34414Y25229I1801J-1D01*
G01X34420Y25257D01*
Y27717D01*
G02X38021I1801J0D01*
G01Y25589D01*
X38817Y24793D01*
X67244D01*
G02X68517Y24265I0J-1801D01*
G01X74919Y17864D01*
X91063D01*
G02X92336Y17336I0J-1801D01*
G01X94880Y14793D01*
X99057D01*
X102884Y18620D01*
Y25393D01*
G02X103412Y26667I1801J0D01*
G01X114720Y37975D01*
X111916Y40780D01*
G02X111388Y42053I1273J1273D01*
G01Y44331D01*
G02X114990I1801J0D01*
G01Y42799D01*
X118013Y39776D01*
X120315D01*
G02X120578Y39757I0J-1801D01*
G01X120599Y39754D01*
X125826D01*
G02X127100Y39226I0J-1801D01*
G01X130391Y35935D01*
X135750D01*
X136388Y36573D01*
Y51907D01*
X136356Y51939D01*
X128543D01*
G02X127270Y52467I0J1801D01*
G01X121168Y58569D01*
G02X120641Y59842I1273J1273D01*
G37*
G36*
G01X132039Y67818D02*
Y67835D01*
G02X133740Y66134I1701J0D01*
G01X133724D01*
X133597Y66135D01*
X131022Y63560D01*
Y61257D01*
G02X131622Y59961I-1101J-1296D01*
G02X128220I-1701J0D01*
G02X128820Y61257I1701J0D01*
G01Y64016D01*
G02X129143Y64794I1101J0D01*
G01X132041Y67692D01*
X132039Y67818D01*
G37*
G36*
G01X140551Y73002D02*
G02Y76604I0J1801D01*
G01X143307D01*
G02X144580Y76076I0J-1801D01*
G01X149069Y71588D01*
G02X149596Y70315I-1273J-1273D01*
G01Y11890D01*
G02X149069Y10617I-1801J0D01*
G01X144659Y6207D01*
G02X143386Y5680I-1273J1273D01*
G01X71339D01*
G02X70065Y6207I0J1801D01*
G01X66916Y9357D01*
G02X66388Y10630I1273J1273D01*
G01Y10669D01*
G02X68189Y12470I1801J0D01*
G02X69652Y11719I0J-1801D01*
G01X69667Y11699D01*
X72085Y9281D01*
X142640D01*
X145994Y12636D01*
Y63111D01*
G03X145261Y63696I-600J0D01*
G02X144882Y63653I-380J1658D01*
G02X143786Y64053I0J1701D01*
G01X138425D01*
X138361Y63840D01*
G02X137324Y62736I-1628J491D01*
G03X137088Y61771I209J-562D01*
G02X137528Y60630I-1261J-1141D01*
G01Y60613D01*
X137526Y60487D01*
X142826Y55188D01*
G02X143148Y54409I-778J-778D01*
G01Y17945D01*
G02X142826Y17167I-1101J0D01*
G01X142077Y16418D01*
Y11574D01*
G02X141276Y10773I-801J0D01*
G01X135676D01*
G02X134876Y11574I0J801D01*
G01Y17174D01*
G02X135676Y17975I801J0D01*
G01X140520D01*
X140946Y18401D01*
Y53954D01*
X135970Y58930D01*
X135843Y58929D01*
X135827D01*
G02X134126Y60630I0J1701D01*
G02X135235Y62224I1701J0D01*
G03X135471Y63189I-209J562D01*
G02X135031Y64331I1261J1141D01*
G02X136492Y66015I1701J0D01*
G01X136591Y66028D01*
X136836Y66274D01*
G02X137756Y66655I920J-919D01*
G01X143786D01*
G02X144882Y67055I1096J-1301D01*
G02X145261Y67012I-1J-1701D01*
G03X145994Y67597I134J585D01*
G01Y69569D01*
X142561Y73002D01*
X140551D01*
G37*
G36*
G01X173490Y54777D02*
Y75103D01*
G02X177092I1801J0D01*
G01Y54031D01*
G02X176564Y52758I-1801J0D01*
G01X167943Y44136D01*
Y29370D01*
G02X167415Y28097I-1801J0D01*
G01X162376Y23057D01*
G02X161102Y22530I-1273J1273D01*
G01X156378D01*
G02Y26131I0J1801D01*
G01X160356D01*
X164341Y30116D01*
Y44136D01*
X163974Y44502D01*
X156890D01*
G02Y48104I0J1801D01*
G01X164720D01*
G02X165937Y47630I0J-1801D01*
G01X166149Y47436D01*
X173490Y54777D01*
G37*
G36*
G01X40774Y101903D02*
X46955Y108084D01*
G02X48228Y108612I1273J-1273D01*
G02X50029Y106811I0J-1801D01*
G02X49502Y105538I-1801J0D01*
G01X43848Y99884D01*
Y96299D01*
G02X43320Y95026I-1801J0D01*
G01X35072Y86778D01*
G02X33799Y86250I-1273J1273D01*
G02X31998Y88051I0J1801D01*
G02X32526Y89324I1801J0D01*
G01X40246Y97045D01*
Y100630D01*
G02X40774Y101903I1801J0D01*
G37*
G36*
G01X55813Y113053D02*
X57817Y115057D01*
G02X59091Y115584I1273J-1273D01*
G02X60891Y113783I0J-1801D01*
G02X60364Y112510I-1801J0D01*
G01X58887Y111033D01*
Y109449D01*
G02X55286I-1801J0D01*
G01Y111780D01*
G02X55813Y113053I1801J0D01*
G37*
G36*
G01X77963Y156366D02*
G02X77134Y157827I871J1461D01*
G02X78835Y159528I1701J0D01*
G02X80347Y158605I0J-1701D01*
G01X80431Y158443D01*
X82071D01*
G02X82991Y158061I0J-1300D01*
G01X86120Y154931D01*
G02X86502Y154012I-919J-920D01*
G01Y138331D01*
G02X87134Y137008I-1068J-1323D01*
G02X85433Y135307I-1701J0D01*
G02X84262Y135775I0J1700D01*
G03X83848I-207J-218D01*
G02X82677Y135307I-1171J1233D01*
G02X80976Y137008I0J1701D01*
G02X81691Y138394I1701J0D01*
G01Y152780D01*
X81232Y153239D01*
X80478D01*
X80391Y153087D01*
G02X78909Y152220I-1482J835D01*
G02X77209Y153921I0J1701D01*
G02X77983Y155348I1701J0D01*
G03X77963Y156366I-327J503D01*
G37*
G36*
G01X119672Y165686D02*
X120534Y166549D01*
X147970D01*
X149226Y165293D01*
Y161749D01*
X149544Y161431D01*
X157025D01*
X161037Y157419D01*
Y151243D01*
X159781Y149987D01*
X153481D01*
X149226Y145731D01*
Y141007D01*
X148363Y140144D01*
X120928D01*
X119672Y141400D01*
Y165686D01*
G37*
G36*
G01X180026Y183525D02*
X181813Y185313D01*
G02X183087Y185840I1273J-1273D01*
G02X184887Y184039I0J-1801D01*
G02X184360Y182766I-1801J0D01*
G01X182762Y181168D01*
X182749Y181150D01*
G02X181299Y180418I-1450J1069D01*
G01X181298D01*
G02X180863Y180471I0J1801D01*
G01X180698Y180513D01*
X179030Y178844D01*
X182677Y175197D01*
Y173643D01*
X185045D01*
G02X185824Y173320I0J-1101D01*
G01X188004Y171140D01*
X189073D01*
X189117Y171387D01*
G02X190791Y172787I1674J-300D01*
G02X192492Y171087I0J-1701D01*
G02X191876Y169777I-1701J0D01*
G03Y168853I383J-462D01*
G02X192492Y167543I-1085J-1310D01*
G02X190791Y165843I-1701J0D01*
G02X189110Y167284I0J1701D01*
G01X189071Y167539D01*
X186968D01*
G02X186189Y167861I0J1101D01*
G01X184009Y170041D01*
X121204D01*
X110156Y158993D01*
Y141732D01*
G02X109833Y140954I-1101J0D01*
G01X100257Y131377D01*
Y111751D01*
G02X99934Y110972I-1101J0D01*
G01X88594Y99633D01*
G02X87816Y99310I-778J778D01*
G01X80485D01*
X75099Y93925D01*
Y90532D01*
G02X74777Y89754I-1101J0D01*
G01X72215Y87192D01*
G02X71437Y86869I-778J778D01*
G01X70689D01*
X70626Y86653D01*
G02X68898Y85357I-1729J504D01*
G02X67097Y87157I0J1801D01*
G02X67492Y88283I1801J0D01*
G03Y89032I-469J375D01*
G02X67097Y90157I1406J1125D01*
G02X68235Y91832I1801J0D01*
G01X68425Y91907D01*
Y92439D01*
X58846D01*
X51292Y84885D01*
X51283Y84776D01*
G02X49488Y83120I-1795J146D01*
G02X47687Y84921I0J1801D01*
G02X49343Y86716I1801J0D01*
G01X49452Y86725D01*
X57387Y94660D01*
G02X58307Y95041I920J-919D01*
G01X68083D01*
X74841Y101799D01*
Y102296D01*
X74500Y102636D01*
X68256D01*
X67455Y101836D01*
G02X66535Y101455I-920J919D01*
G01X64173D01*
G02X63567Y101605I0J1301D01*
G02X63524Y101605I-38J1800D01*
G02X61736Y103187I0J1801D01*
G03X61475Y103449I-298J-36D01*
G02X59892Y105236I218J1787D01*
G02X61693Y107037I1801J0D01*
G02X63480Y105454I0J-1801D01*
G03X63742Y105193I298J36D01*
G02X65129Y104221I-218J-1787D01*
G01X65213Y104057D01*
X65996D01*
X66797Y104857D01*
G02X67717Y105238I920J-919D01*
G01X85681D01*
X94250Y113807D01*
Y139646D01*
G02X94631Y140565I1300J0D01*
G01X101849Y147783D01*
Y165354D01*
G02X102230Y166274I1300J0D01*
G01X112466Y176510D01*
G02X113386Y176891I920J-919D01*
G01X173398D01*
X177191Y180683D01*
X179645Y183138D01*
G02X179828Y183291I921J-919D01*
G02X180026Y183525I1470J-1040D01*
G37*
G36*
G01X102743Y214606D02*
X102768Y214610D01*
G02X103031Y214632I265J-1579D01*
G02X103295Y214610I-1J-1601D01*
G01X103320Y214606D01*
X103425D01*
X103454Y214577D01*
X103523Y214555D01*
G02X104632Y213031I-492J-1523D01*
G02X104272Y212019I-1601J0D01*
G01Y210138D01*
X104961Y209449D01*
X144134D01*
X146457Y207126D01*
Y185039D01*
X148327Y183169D01*
Y181516D01*
X147126Y180315D01*
X96636D01*
Y161722D01*
X98470Y159887D01*
G02X98998Y158614I-1273J-1273D01*
G02X97197Y156813I-1801J0D01*
G02X95924Y157341I0J1801D01*
G01X93562Y159703D01*
G02X93034Y160976I1273J1273D01*
G01Y181978D01*
X89422Y185591D01*
X75591D01*
X75147Y185147D01*
Y138148D01*
X79478Y133817D01*
X79609Y133822D01*
G02X79724Y133824I115J-2798D01*
G02X82525Y131024I0J-2801D01*
G02X82523Y130909I-2801J0D01*
G01X82517Y130777D01*
X86116Y127179D01*
G02X86643Y125906I-1273J-1273D01*
G01Y118266D01*
X87907Y117002D01*
G02X88435Y115728I-1273J-1273D01*
G02X86634Y113928I-1801J0D01*
G02X85361Y114455I0J1801D01*
G01X83674Y116142D01*
X81681D01*
X80407Y114869D01*
G02X79134Y114341I-1273J1273D01*
G01X74803D01*
G02Y117943I0J1801D01*
G01X78388D01*
X79302Y118856D01*
Y123152D01*
X72451Y130002D01*
X72320Y129997D01*
G02X72205Y129994I-115J2798D01*
G02X69404Y132795I0J2801D01*
G02X69406Y132910I2801J0D01*
G01X69412Y133042D01*
X68924Y133530D01*
G02X68396Y134803I1273J1273D01*
G01Y192313D01*
X67431Y193277D01*
G03X66407Y192853I-424J-424D01*
G01Y132202D01*
X72533Y126076D01*
G02X73061Y124803I-1273J-1273D01*
G01Y124368D01*
X75156Y122273D01*
X76378D01*
G02Y118672I0J-1801D01*
G01X74409D01*
G02X73597Y118865I0J1801D01*
G01X73533Y118898D01*
X70866D01*
X70631Y118662D01*
Y114055D01*
X69174Y112598D01*
X67559D01*
X64999Y115157D01*
Y122441D01*
X58779Y128661D01*
Y196180D01*
X73622Y211024D01*
X95433D01*
X99016Y214606D01*
X102743D01*
G37*
G36*
G01X240945Y79908D02*
X239370D01*
G02Y97651I0J8872D01*
G01X240945D01*
G02Y79908I0J-8872D01*
G37*
G54D32*
X39432Y10606D03*
G54D33*
X29432D03*
G54D36*
X175787Y188465D03*
G54D35*
X12598Y12598D03*
X243307D03*
X12598Y219685D03*
X243307D03*
G54D34*
X128476Y14374D03*
X172008Y14488D03*
X10000Y41161D03*
X225197Y209843D03*
G54D37*
X45433Y200748D03*
%LPD*%
G75*
G36*
G01X180698Y180513D02*
X180863Y180471D01*
G03X181299Y180418I436J1747D01*
G03X182501Y180878I0J1801D01*
G02X182913Y180866I200J-224D01*
G01X190203Y173577D01*
G02X190043Y172614I-424J-424D01*
G03X189117Y171387I749J-1527D01*
G01X189073Y171140D01*
X188004D01*
X185824Y173320D01*
G03X185045Y173643I-778J-778D01*
G01X120168D01*
G03X119390Y173320I0J-1101D01*
G01X106877Y160807D01*
G03X106554Y160029I778J-778D01*
G01Y142768D01*
X97876Y134090D01*
G02X96852Y134514I-424J424D01*
G01Y139107D01*
X104069Y146324D01*
G03X104450Y147244I-919J920D01*
G01Y164815D01*
X113925Y174290D01*
X173937D01*
G03X174857Y174671I0J1300D01*
G01X180698Y180513D01*
G37*
G36*
G01X131850Y181417D02*
X98189D01*
X97638Y181969D01*
Y187677D01*
X98543Y188583D01*
Y196142D01*
X99429Y197028D01*
X106988D01*
X107913Y197953D01*
Y204488D01*
X110906Y207480D01*
X132677D01*
X133071Y207087D01*
Y182638D01*
X131850Y181417D01*
G37*
G36*
G01X97520Y204882D02*
X98031Y205394D01*
X105709D01*
X106142Y204961D01*
Y199055D01*
X105748Y198661D01*
X98071D01*
X97520Y199213D01*
Y204882D01*
G37*
G36*
G01X160236Y151575D02*
X159449Y150787D01*
X153150D01*
X148425Y146063D01*
Y141339D01*
X148031Y140945D01*
X121260D01*
X120472Y141732D01*
Y165354D01*
X120866Y165748D01*
X147638D01*
X148425Y164961D01*
Y161417D01*
X149213Y160630D01*
X156693D01*
X160236Y157087D01*
Y151575D01*
G37*
G54D10*
X12598Y12598D03*
Y219685D03*
X243307Y12598D03*
Y219685D03*
X276374Y12598D03*
Y219685D03*
X507083Y12598D03*
Y219685D03*
G54D11*
X10000Y31161D03*
G54D20*
X72677Y101575D03*
X86634Y115728D03*
X84902Y117461D03*
X111811Y120945D03*
X110264Y122780D03*
X109303Y120323D03*
X105118Y121260D03*
X126969Y104324D03*
X129370D03*
X126929Y99993D03*
X129331D03*
X117264Y113720D03*
X119016Y115472D03*
G54D30*
G01X30039Y120197D02*
Y118465D01*
X23150Y111575D01*
Y89843D01*
X41732Y71260D01*
X84449D01*
X86890Y68819D01*
X90264D01*
X90894Y68189D01*
G01X33858Y121260D02*
Y119882D01*
X24803Y110827D01*
Y90311D01*
X42354Y72760D01*
X85193D01*
X87559Y70394D01*
X90298D01*
X90894Y70989D01*
G01X33858Y121260D02*
X32835Y122283D01*
X25039D01*
X23268Y120512D01*
G54D21*
X72205Y132795D03*
X79724Y131024D03*
X122047Y101181D03*
X135039Y125984D03*
X153543Y106693D03*
X140551Y131890D03*
X201575Y75591D03*
X209921Y150394D03*
X201299Y151654D03*
X223622Y140157D03*
G54D12*
X3937Y24803D03*
Y32677D03*
X4094Y55630D03*
X4016Y69370D03*
X8661Y88583D03*
X3898Y88858D03*
X10630Y80118D03*
X7795Y93858D03*
X3937Y79921D03*
X4331Y193307D03*
X12205D03*
X4331Y201181D03*
X26772Y3937D03*
X20984Y71220D03*
X13504Y88583D03*
X29921Y94252D03*
X29843Y89961D03*
X17362Y80276D03*
X13819Y93898D03*
X26654Y212756D03*
X16811Y204409D03*
X16772Y200079D03*
X25984Y227953D03*
X34646Y3937D03*
X42520D03*
X50394D03*
X51819Y111846D03*
X41929Y212559D03*
X42087Y219882D03*
X49606Y220079D03*
X41732Y227953D03*
X49606D03*
X58268Y3937D03*
X66142D03*
X74016D03*
X55512Y116535D03*
X56732Y131693D03*
X57087Y126378D03*
X57480Y220079D03*
X65354Y227953D03*
X73228D03*
X57480D03*
X89764Y3937D03*
X81890D03*
X92952Y88261D03*
Y97631D03*
Y92513D03*
X93228Y101969D03*
X81102Y220079D03*
X88976D03*
Y227953D03*
X81102D03*
X97638Y3937D03*
X105512D03*
X113386D03*
X97283Y88261D03*
X101614D03*
Y97631D03*
Y92513D03*
X97283D03*
Y97631D03*
X112007Y88261D03*
Y93379D03*
X97480Y106102D03*
X97322Y102080D03*
X101653D03*
X112047Y107283D03*
X111969Y102953D03*
X101693Y107165D03*
X112007Y98497D03*
X96850Y220079D03*
X104724D03*
X112598D03*
X96850Y227953D03*
X104724D03*
X112598D03*
X121260Y3937D03*
X129134D03*
X120472Y220079D03*
X128346D03*
X120472Y227953D03*
X128346D03*
X137008Y3937D03*
X144882D03*
X152756D03*
X136220Y220079D03*
X144094D03*
X151969D03*
Y227953D03*
X144094D03*
X136220D03*
X160630Y3937D03*
X168504D03*
X158094Y34598D03*
Y30445D03*
X159843Y220079D03*
X167717D03*
X175591D03*
Y227953D03*
X167717D03*
X159843D03*
X192126Y3937D03*
X176378D03*
X184252D03*
X194882Y34252D03*
X187008Y37008D03*
X195157Y49094D03*
X186220Y47638D03*
X194488Y41732D03*
X194094Y57480D03*
X187008D03*
X194094Y65354D03*
X187008Y73228D03*
Y65354D03*
X194094Y73228D03*
Y81102D03*
X187008D03*
X183465Y220079D03*
X191339D03*
Y227953D03*
X183465D03*
X200000Y3937D03*
X207874D03*
X215039Y214291D03*
X207205Y214252D03*
X199213Y220079D03*
X207087D03*
X212283Y220157D03*
X214961Y227953D03*
X207087D03*
X199213D03*
X231496Y158268D03*
X231890Y152362D03*
X225984D03*
Y158268D03*
Y164173D03*
Y170079D03*
X220079D03*
Y175984D03*
X225984D03*
X236024Y205512D03*
X230709Y227953D03*
X237402Y157874D03*
X237795Y152362D03*
X243701Y158268D03*
X249606D03*
X243701Y152362D03*
X249606D03*
X237402Y164173D03*
X249606Y175984D03*
Y170079D03*
X243701Y164173D03*
Y170079D03*
Y175984D03*
X249606Y164173D03*
Y199606D03*
Y193701D03*
Y187795D03*
Y181890D03*
X243701D03*
Y187795D03*
Y193701D03*
Y199606D03*
X249606Y205512D03*
X243701D03*
G54D31*
G01X263776Y214565D02*
Y232283D01*
X519681D01*
Y0D01*
X263776D01*
Y17719D01*
G03X259846Y21649I-3930J0D01*
G01X259835D01*
G03X255906Y17719I0J-3930D01*
G01Y0D01*
X0D01*
Y232283D01*
X255906D01*
Y214565D01*
G03X259835Y210635I3930J0D01*
G01X259846D01*
G03X263776Y214565I0J3930D01*
G01X250859Y182655D02*
X250869D01*
G01X259846Y21649D02*
X259835D01*
G01X255906Y45219D02*
G03X263776I3935J5D01*
G01Y73031D01*
X289933D01*
Y143898D01*
X263776D01*
Y187065D01*
G03X255906I-3935J-5D01*
G01Y45219D01*
G01X259846Y190995D02*
X259835D01*
G01Y210635D02*
X259846D01*
G54D22*
X138476Y14374D03*
G54D13*
X10000Y51161D03*
Y41161D03*
Y61161D03*
Y71161D03*
Y179094D03*
X43819Y124685D03*
X128476Y14374D03*
X172008Y14488D03*
X175787Y188465D03*
X225984Y25197D03*
X225197Y209843D03*
G54D23*
X175453Y141043D03*
Y146043D03*
Y156043D03*
Y151043D03*
Y166043D03*
Y161043D03*
X180453Y141043D03*
Y146043D03*
Y156043D03*
Y151043D03*
Y166043D03*
Y161043D03*
X248031Y27953D03*
Y33465D03*
G54D14*
X9016Y102283D03*
Y138661D03*
G54D24*
X240157Y88780D03*
X240326Y128150D03*
G54D15*
G01X36220Y27717D02*
Y24921D01*
X36181Y24882D01*
G01X96850Y12992D02*
X94134D01*
X91063Y16063D01*
X74173D01*
X67244Y22992D01*
X38071D01*
X36181Y24882D01*
G01X35709Y89961D02*
X42047Y96299D01*
Y100630D01*
X46339Y104921D01*
G01X33799Y88051D02*
X35709Y89961D01*
G01X46339Y104921D02*
X48228Y106811D01*
G01X143228Y74803D02*
X143307D01*
X147795Y70315D01*
Y11890D01*
X143386Y7480D01*
X71339D01*
X70433Y8386D01*
G01X68189Y10669D02*
Y10630D01*
X70433Y8386D01*
G01X59091Y113783D02*
X57087Y111780D01*
Y109449D01*
G01X68504Y114882D02*
X67244Y116142D01*
Y117598D01*
G01X100276Y212992D02*
X96339Y209055D01*
X74803D01*
X61142Y195394D01*
Y130197D01*
X67244Y124094D01*
Y117598D01*
G01X73898Y120984D02*
X71260Y123622D01*
Y124803D01*
X64607Y131456D01*
Y194472D01*
X75647Y205512D01*
X97559D01*
X98740Y204331D01*
G01X77362Y116142D02*
X79134D01*
X81102Y118110D01*
Y123898D01*
X72205Y132795D01*
G01D02*
X70197Y134803D01*
Y192638D01*
X73622Y196063D01*
X83465D01*
X89764Y202362D01*
G01X94173Y192088D02*
X75346D01*
X73346Y190088D01*
Y137402D01*
X79724Y131024D01*
G01X84902Y117461D02*
X86634Y115728D01*
G01X79724Y131024D02*
X84843Y125906D01*
Y117520D01*
X84902Y117461D01*
G01X74803Y116142D02*
X77362D01*
G01X76378Y120472D02*
X74409D01*
X73898Y120984D01*
G01X76417Y187402D02*
X78504D01*
G01D02*
X90157D01*
X94835Y182724D01*
Y173228D01*
G01X89764Y202362D02*
X92323D01*
G01X117267Y37975D02*
X104685Y25393D01*
Y17874D01*
X99803Y12992D01*
X96850D01*
G01X113189Y44331D02*
Y42053D01*
X117267Y37975D01*
G01X97197Y158614D02*
X94835Y160976D01*
G01D02*
Y173228D01*
G01X96339Y192088D02*
X94173D01*
G01X103031Y213031D02*
X102992Y212992D01*
X100276D01*
G01X138189Y35827D02*
X136496Y34134D01*
X129645D01*
X125826Y37953D01*
X123268D01*
G01D02*
X120337D01*
X120315Y37975D01*
X120197D01*
G01X117267D02*
X120197D01*
G01X122441Y65748D02*
Y59842D01*
X128543Y53740D01*
X137102D01*
G01X198529Y128648D02*
X190866Y120984D01*
X142244D01*
X137795Y116535D01*
X131102D01*
X127953Y119685D01*
G01X126969Y104324D02*
X129370D01*
G01D02*
X130164Y105118D01*
X140157D01*
X145276Y100000D01*
X169184D01*
X175025Y94159D01*
X188228D01*
G01X126929Y99993D02*
X129331D01*
G01X122047Y101181D02*
X123235Y99993D01*
X126929D01*
G01X119016Y115472D02*
X117264Y113720D01*
G01X140551Y131890D02*
X131095D01*
X120866Y121661D01*
Y117323D01*
X119016Y115472D01*
G01X197126Y104921D02*
X191417Y110630D01*
X145669D01*
X144488Y109449D01*
X125591D01*
X122047Y105906D01*
Y101181D01*
G01X133563Y120965D02*
X134961Y122362D01*
G01X127953Y119685D02*
X125630D01*
G01X138189Y38386D02*
Y35827D01*
G01X137102Y53740D02*
X138189Y52653D01*
Y38386D01*
G01X140551Y74803D02*
X143228D01*
G01X138839Y101241D02*
X143623Y96457D01*
X167717D01*
X173622Y90551D01*
X196850D01*
G01X140157Y113701D02*
X143779Y117323D01*
X192598D01*
X200118Y124843D01*
X214409D01*
G01X147047Y106496D02*
X149606D01*
G01X136102Y101733D02*
X138347D01*
X138839Y101241D01*
G01X213976Y103484D02*
X202343D01*
X200630Y101772D01*
X194449D01*
X189528Y106693D01*
X153543D01*
G01X140157Y113701D02*
X138189D01*
G01X149606Y106496D02*
X153346D01*
X153543Y106693D01*
G01X134961Y122362D02*
X135039Y122441D01*
Y125984D01*
G01X214055Y138031D02*
X187677D01*
X176299Y126654D01*
X135709D01*
X135039Y125984D01*
G01X196614Y141063D02*
X185945D01*
X177638Y132756D01*
X141417D01*
X140551Y131890D01*
G01X159031Y24331D02*
X156378D01*
G01X159031D02*
X161102D01*
X166142Y29370D01*
Y44882D01*
G01X156890Y46303D02*
X159555D01*
G01X166142Y44882D02*
X164720Y46303D01*
X159555D01*
G01X166142Y44882D02*
X175291Y54031D01*
Y75103D01*
G01X183087Y184039D02*
X181299Y182252D01*
Y182219D01*
G01X199646Y104862D02*
X197185D01*
X197126Y104921D01*
G01X216476Y103484D02*
X213976D01*
G01X205472Y128648D02*
X198529D01*
G01X214409Y124843D02*
X217165D01*
G01X216654Y138031D02*
X214055D01*
G01X199213Y141063D02*
X196614D01*
X3701Y143543D03*
X8031D03*
Y146732D03*
X3701D03*
X3858Y174016D03*
X8189D03*
X8228Y183622D03*
X3898D03*
X3937Y186535D03*
X8268D03*
X3937Y179134D03*
X31102Y43976D03*
X12756Y143543D03*
X25394Y143701D03*
X16339D03*
X20669D03*
X28780Y143622D03*
Y146811D03*
X20669Y153583D03*
Y150433D03*
Y146890D03*
X16339D03*
Y150433D03*
Y153583D03*
X25394D03*
Y150433D03*
Y146890D03*
X12756Y146732D03*
X25512Y172402D03*
X25591Y175551D03*
X17992D03*
X21929Y175591D03*
X12913Y174016D03*
X17953Y172244D03*
X21811Y172362D03*
X17480Y196339D03*
Y193189D03*
X14370Y196457D03*
X18031Y179252D03*
X15039Y179134D03*
X18071Y183622D03*
X12953D03*
X12992Y186535D03*
X18110D03*
X29134Y204921D03*
X27953Y202559D03*
X31102D03*
X25984Y204921D03*
X31890Y205118D03*
X36220Y27717D03*
X36181Y24882D03*
X52283Y62480D03*
X49331D03*
X46102Y91929D03*
X49488Y84921D03*
X35709Y89961D03*
X33799Y88051D03*
X45551Y99528D03*
X48228Y106811D03*
X46339Y104921D03*
X48976Y102677D03*
X50394Y99606D03*
X46614Y132008D03*
Y135157D03*
X43071Y132008D03*
Y135157D03*
X39134Y135551D03*
Y132008D03*
X45984Y152638D03*
Y148701D03*
X41654D03*
Y152638D03*
X45984Y144370D03*
X41654D03*
X36535Y143543D03*
X33110Y143622D03*
X36535Y146732D03*
X33110Y146811D03*
X46535Y138740D03*
X43110Y138858D03*
X41575Y156654D03*
X45906D03*
X45866Y174567D03*
X45827Y171378D03*
X41654Y171260D03*
X41693Y174449D03*
X45866Y167953D03*
X41535D03*
X41575Y164921D03*
Y160984D03*
X45906D03*
Y164921D03*
X70433Y8386D03*
X64488Y9350D03*
X68189Y10669D03*
X61476Y18524D03*
X54961Y63386D03*
X58819Y60866D03*
X55512D03*
X64921Y90118D03*
X53543Y97638D03*
X68898Y87157D03*
Y90157D03*
X59091Y113783D03*
X63524Y103406D03*
X61693Y105236D03*
X57087Y109449D03*
X56850Y209488D03*
X54094D03*
X65748Y207047D03*
X62205D03*
X88661Y52913D03*
X89567Y45472D03*
X88346Y61969D03*
X93268Y65748D03*
X91220Y61811D03*
X79331Y65827D03*
X89764Y142362D03*
X76417Y187402D03*
X78504D03*
X93701Y216142D03*
X92913Y213386D03*
X90945Y216142D03*
X89764Y213386D03*
X88189Y216142D03*
X86614Y213386D03*
X96850Y12992D03*
X113189Y44331D03*
X112205Y137008D03*
X110236Y133858D03*
X103504Y143071D03*
X113386Y139764D03*
X97197Y158614D03*
X94835Y160976D03*
Y173228D03*
X109449Y166142D03*
X99606D03*
X98858Y184961D03*
X102008D03*
X98858Y182598D03*
X105157Y184961D03*
X102008Y182598D03*
X105157D03*
X105079Y187047D03*
X101929D03*
X98780D03*
X101339Y218740D03*
X103031Y213031D03*
X100276Y212992D03*
X101890Y215630D03*
X99252Y216417D03*
X95669Y213386D03*
X98701Y202047D03*
X101850D03*
X105000D03*
X105039Y199843D03*
X101890D03*
X98740D03*
Y204331D03*
X101890D03*
X105039D03*
X123268Y37953D03*
X120197Y37975D03*
X129607Y38858D03*
X119094Y56693D03*
X123031Y52756D03*
X119094D03*
Y48819D03*
X123031D03*
X131890Y46457D03*
X132275Y76960D03*
X123268Y80433D03*
X127126Y155630D03*
X124370D03*
X121614D03*
X125197Y138976D03*
X114567Y178740D03*
X132283D03*
X126378D03*
X120472D03*
X138189Y35827D03*
X152441Y32126D03*
X138189Y38386D03*
X137102Y53740D03*
X135039Y46457D03*
X150394Y74803D03*
X143228D03*
X140551D03*
X144390Y81122D03*
X147047Y106496D03*
X149606D03*
X138189Y113701D03*
X150510Y156416D03*
X150000Y178740D03*
X144094D03*
X138189D03*
X157043Y12602D03*
X156378Y24331D03*
X159031D03*
X167283Y50866D03*
X162992Y50945D03*
X156890Y46303D03*
X159555D03*
X174803Y49213D03*
X158661Y51575D03*
X172047Y76378D03*
X160236Y92913D03*
X170984Y103110D03*
X171772Y129685D03*
X167717Y178740D03*
X161811D03*
X155906D03*
X195276Y21654D03*
X175291Y75103D03*
X179528Y73228D03*
X190591Y97309D03*
X188228Y94159D03*
X190591D03*
X188228Y97309D03*
X192913Y97230D03*
Y94081D03*
X178740Y83071D03*
X190591Y100065D03*
X188228D03*
X177559Y103150D03*
Y98819D03*
Y113780D03*
X190512Y134252D03*
X188228Y134291D03*
X192795Y134278D03*
X188150Y131482D03*
X190433Y131522D03*
X192795D03*
X188150Y128726D03*
X192795Y128766D03*
X190433D03*
X183087Y184039D03*
X181299Y182219D03*
X184803Y214488D03*
X190315D03*
X187559D03*
X212283Y3976D03*
X208268Y21654D03*
X214173D03*
Y28346D03*
X201969D03*
X208268D03*
X201969Y21654D03*
X205512Y33740D03*
X209843D03*
Y38740D03*
Y43740D03*
Y48740D03*
X205512Y53740D03*
Y48740D03*
Y43740D03*
Y38740D03*
X209843Y53740D03*
X205512Y73740D03*
Y68740D03*
Y63740D03*
Y58740D03*
X209843Y68740D03*
Y73740D03*
Y58740D03*
Y63740D03*
X196850Y90551D03*
X199606D03*
X207854Y97244D03*
Y94094D03*
X210217D03*
Y97244D03*
X205571Y94094D03*
Y97244D03*
X205512Y78740D03*
X209843D03*
X203937Y85039D03*
X213583Y116811D03*
X210827D03*
Y110512D03*
Y107756D03*
Y113268D03*
X207854Y100000D03*
X210217D03*
X205571D03*
X214409Y124843D03*
X205472Y134711D03*
X209882Y134750D03*
X207717D03*
Y131837D03*
Y128687D03*
X209882D03*
Y131837D03*
X205472Y131797D03*
Y128648D03*
X214213Y145551D03*
X211024Y145276D03*
Y142520D03*
X213780D03*
X199370Y214488D03*
X202126D03*
X196614D03*
X220866Y21654D03*
X220079Y28346D03*
X225984Y94882D03*
X222244Y117165D03*
X219882Y109961D03*
X222244Y108780D03*
X219882Y107205D03*
X222244Y106024D03*
X222283Y111614D03*
X219921Y112795D03*
X217126Y107638D03*
X219961Y115591D03*
X222323Y114409D03*
X217205Y115984D03*
Y110472D03*
Y113228D03*
X222835Y98031D03*
X225984D03*
X219685D03*
X217165Y124843D03*
X224724Y196142D03*
Y198898D03*
X224685Y193425D03*
Y188701D03*
Y185945D03*
Y183189D03*
X254926Y23609D03*
Y27539D03*
Y31469D03*
Y35399D03*
Y39329D03*
Y196885D03*
Y192955D03*
Y208675D03*
Y204745D03*
Y200815D03*
X264746Y35399D03*
Y31469D03*
Y27539D03*
Y23609D03*
Y39329D03*
Y192955D03*
Y196885D03*
Y200815D03*
Y204745D03*
Y208675D03*
G54D16*
X10000Y200748D03*
X45433Y179094D03*
Y200748D03*
G54D25*
X276693Y33307D03*
X276055Y198976D03*
G54D26*
G01X67323Y64961D02*
X66535Y65748D01*
X39764D01*
X17913Y87598D01*
Y118819D01*
X23504Y124409D01*
X34646D01*
G01X23071Y117520D02*
X19882Y114331D01*
Y88414D01*
X40580Y67717D01*
X67717D01*
X70472Y64961D01*
G01X61476Y18524D02*
X53559Y10606D01*
X49432D01*
G01X49488Y84921D02*
X58307Y93740D01*
X68622D01*
X76142Y101260D01*
Y102874D01*
G01X63524Y103406D02*
X61693Y105236D01*
G01X75039Y103937D02*
X67717D01*
X66535Y102756D01*
X64173D01*
X63524Y103406D01*
G01X77205Y103937D02*
X86220D01*
X95551Y113268D01*
Y139646D01*
X103150Y147244D01*
Y165354D01*
X113386Y175591D01*
X173937D01*
X180565Y182219D01*
X181299D01*
G01X76142Y103937D02*
X77205D01*
G01X76142Y102874D02*
X77205Y103937D01*
G01X76142Y102874D02*
X76102D01*
X75039Y103937D01*
G01D02*
X76142D01*
G01Y102874D02*
Y103937D01*
G01X85433Y137008D02*
X85201Y137240D01*
Y154012D01*
X82071Y157142D01*
X79520D01*
X78835Y157827D01*
G01X78909Y153921D02*
X79528Y154540D01*
X81771D01*
X82992Y153319D01*
Y137323D01*
X82677Y137008D01*
G01X129882Y25024D02*
X113889D01*
X110125Y21260D01*
G01X136732Y64331D02*
X137756Y65354D01*
X144882D01*
G54D17*
X29432Y10606D03*
X39432D03*
X49432D03*
G54D27*
G01X108780Y56535D02*
X103228D01*
X101732Y55039D01*
X14409D01*
X10531Y51161D01*
X10000D01*
G01Y71161D02*
X5118Y66280D01*
Y59134D01*
X8091Y56161D01*
X12067D01*
X12894Y56988D01*
X101223D01*
X106181Y61946D01*
Y114449D01*
X111811Y120079D01*
Y120945D01*
G01X109303Y120323D02*
X109118D01*
X104606Y115811D01*
Y62598D01*
X100571Y58563D01*
X12598D01*
X10000Y61161D01*
G01X104173Y50669D02*
X58937D01*
X48701Y40433D01*
Y35197D01*
X44488Y30984D01*
G01X104370Y53898D02*
X106220Y52047D01*
Y49685D01*
X105079Y48543D01*
X59567D01*
X50787Y39764D01*
Y30984D01*
G01X190791Y167543D02*
X189695Y168639D01*
X186968D01*
X184465Y171142D01*
X120748D01*
X109055Y159449D01*
Y141732D01*
X99156Y131833D01*
Y111751D01*
X87816Y100411D01*
X80029D01*
X73998Y94381D01*
Y90532D01*
X71437Y87970D01*
X69710D01*
X68898Y87157D01*
G01Y90157D02*
X69685Y89370D01*
X70857D01*
X72598Y91112D01*
Y94961D01*
X79449Y101811D01*
X87236D01*
X97756Y112331D01*
Y132413D01*
X107655Y142312D01*
Y160029D01*
X120168Y172542D01*
X185045D01*
X187548Y170039D01*
X189744D01*
X190791Y171087D01*
G01X110264Y122780D02*
X111106Y123622D01*
X112992D01*
X114173Y122441D01*
Y120079D01*
X107756Y113661D01*
Y83976D01*
X113819Y77913D01*
X131322D01*
X132275Y76960D01*
G01X123268Y80433D02*
X122913Y80079D01*
X114213D01*
X109252Y85039D01*
Y112402D01*
X116142Y119291D01*
Y123622D01*
X129134Y136614D01*
X158268D01*
X160236Y138583D01*
G01X105118Y121260D02*
X109449Y125591D01*
X115354D01*
X127953Y138189D01*
X156693D01*
X159449Y140945D01*
X164961D01*
X169291Y136614D01*
X176024D01*
X180453Y141043D01*
G01X133740Y67835D02*
X129921Y64016D01*
Y59961D01*
G01X138476Y14374D02*
X142047Y17945D01*
Y54409D01*
X135827Y60630D01*
G01X152441Y32126D02*
Y23035D01*
X168783Y6693D01*
X222835D01*
X224409Y5118D01*
G01X180453Y156043D02*
X181654Y157244D01*
X210039D01*
X223622Y143661D01*
G01X180453Y146043D02*
X205571D01*
X209921Y150394D01*
G01X201299Y151654D02*
X197913D01*
X197303Y151043D01*
X180453D01*
G01X223622Y143661D02*
Y140157D01*
G54D18*
X23071Y117520D03*
X23268Y120512D03*
X30039Y120197D03*
X50787Y30984D03*
X44488D03*
X33858Y121260D03*
X34646Y124409D03*
X70472Y64961D03*
X67323D03*
X68504Y114882D03*
X67244Y117598D03*
X57795Y153622D03*
Y140630D03*
Y147717D03*
X67362D03*
Y140630D03*
Y153622D03*
X57795Y175472D03*
Y165827D03*
Y170551D03*
Y159921D03*
X67362Y175669D03*
Y159921D03*
Y170551D03*
Y165827D03*
X76929Y26181D03*
X77047Y21496D03*
X84252Y20315D03*
X80315Y20866D03*
X93701Y45945D03*
X90894Y68189D03*
Y70989D03*
X93819Y61811D03*
X77362Y116142D03*
X74803D03*
X73898Y120984D03*
X76378Y120472D03*
X77953Y137008D03*
X82677D03*
X85433D03*
X84646Y158268D03*
X87402Y143701D03*
Y148031D03*
X80709Y148819D03*
Y144488D03*
Y139764D03*
X76772Y155512D03*
X77559Y151575D03*
X87402Y153150D03*
X78835Y157827D03*
X78909Y153921D03*
X77165Y170866D03*
Y174803D03*
Y166535D03*
X84646Y162598D03*
Y166535D03*
Y170866D03*
Y174803D03*
X77165Y162205D03*
X92323Y202362D03*
X89764D03*
X106693Y14173D03*
X100295Y20571D03*
X110125Y21260D03*
X108346Y49331D03*
X111220Y49252D03*
X108780Y56535D03*
X104173Y50669D03*
X104370Y53898D03*
X96142Y43661D03*
X113543Y150551D03*
X98031Y151181D03*
X94882Y153543D03*
X94173Y192088D03*
X96339D03*
X129882Y25024D03*
X116693Y46220D03*
X133740Y67835D03*
X129921Y59961D03*
X122441Y65748D03*
X118504Y62205D03*
Y59449D03*
X120079Y82283D03*
X133563Y120965D03*
X125630Y119685D03*
X127953D03*
X116142Y129921D03*
X122441Y138189D03*
X116299Y150551D03*
X116535Y139764D03*
X144882Y52756D03*
X136732Y64331D03*
X143031Y70709D03*
X144882Y65354D03*
X135827Y60630D03*
X136220Y86220D03*
X138839Y101241D03*
X136102Y101733D03*
X146063Y103543D03*
X140157Y113701D03*
X134961Y122362D03*
X137008Y120472D03*
X151575Y142520D03*
X151969Y166142D03*
X164173Y113780D03*
X171654D03*
X157874D03*
X158819Y123819D03*
X171811D03*
X164331D03*
X164567Y153150D03*
X160236Y138583D03*
X170472Y166535D03*
X162992Y168504D03*
X177717Y123819D03*
X184488Y153740D03*
X190791Y167543D03*
Y171087D03*
X187724Y162945D03*
X185016Y160098D03*
X189685Y160283D03*
X184177Y176287D03*
X199646Y104862D03*
X197126Y104921D03*
X213976Y103484D03*
X214055Y138031D03*
X196614Y141063D03*
X199213D03*
X224409Y5118D03*
X216476Y103484D03*
X216654Y138031D03*
G54D28*
G01X10000Y41161D02*
X13058Y38103D01*
G01X6942Y44220D02*
X10000Y41161D01*
G01D02*
X13058Y44220D01*
G01X6942Y38103D02*
X10000Y41161D01*
G01X39432Y10606D02*
X42738Y7300D01*
G01X36126Y13912D02*
X39432Y10606D01*
G01D02*
X42738Y13912D01*
G01X36126Y7300D02*
X39432Y10606D01*
G01X128476Y14374D02*
X131535Y11316D01*
G01X125418Y17432D02*
X128476Y14374D01*
G01D02*
X131535Y17432D01*
G01X125418Y11316D02*
X128476Y14374D01*
G01X172008Y14488D02*
X175066Y11430D01*
G01X168950Y17546D02*
X172008Y14488D01*
G01D02*
X175066Y17546D01*
G01X168950Y11430D02*
X172008Y14488D01*
G01X225197Y209843D02*
X228255Y206784D01*
G01X222139Y212901D02*
X225197Y209843D01*
G01D02*
X228255Y212901D01*
G01X222139Y206784D02*
X225197Y209843D01*
G01X248031Y27953D02*
X250360Y25624D01*
G01X245703Y30281D02*
X248031Y27953D01*
G01D02*
X250360Y30281D01*
G01X245703Y25624D02*
X248031Y27953D01*
G54D19*
X30118Y103465D03*
Y137480D03*
G54D29*
G01X404039Y-57330D02*
X403163Y-56163D01*
X402413Y-55496D01*
X401413Y-55163D01*
X400538Y-55496D01*
X399913Y-56163D01*
X399413Y-57163D01*
X399288Y-58330D01*
X399413Y-59330D01*
X399913Y-60330D01*
X400663Y-61163D01*
X401538Y-61496D01*
X402538Y-61163D01*
X403413Y-60163D01*
X403913Y-58663D01*
X404039Y-56996D01*
X403789Y-54830D01*
X403413Y-53663D01*
X402789Y-52496D01*
X401913Y-51663D01*
X401039Y-51496D01*
X400163Y-51829D01*
X399538Y-52663D01*
G01X391663Y-51496D02*
X392663Y-51829D01*
X393413Y-52663D01*
X393913Y-53663D01*
X394289Y-54996D01*
X394413Y-56496D01*
X394289Y-57996D01*
X393913Y-59330D01*
X393413Y-60330D01*
X392663Y-61163D01*
X391663Y-61496D01*
X390663Y-61163D01*
X389913Y-60330D01*
X389413Y-59330D01*
X389038Y-57996D01*
X388913Y-56496D01*
X389038Y-54996D01*
X389413Y-53663D01*
X389913Y-52663D01*
X390663Y-51829D01*
X391663Y-51496D01*
G01X381663D02*
X382663Y-51829D01*
X383413Y-52663D01*
X383913Y-53663D01*
X384289Y-54996D01*
X384413Y-56496D01*
X384289Y-57996D01*
X383913Y-59330D01*
X383413Y-60330D01*
X382663Y-61163D01*
X381663Y-61496D01*
X380663Y-61163D01*
X379913Y-60330D01*
X379413Y-59330D01*
X379038Y-57996D01*
X378913Y-56496D01*
X379038Y-54996D01*
X379413Y-53663D01*
X379913Y-52663D01*
X380663Y-51829D01*
X381663Y-51496D01*
G01X373288Y-58163D02*
X370039D01*
G01X364039Y-57330D02*
X363163Y-56163D01*
X362413Y-55496D01*
X361413Y-55163D01*
X360538Y-55496D01*
X359913Y-56163D01*
X359413Y-57163D01*
X359288Y-58330D01*
X359413Y-59330D01*
X359913Y-60330D01*
X360663Y-61163D01*
X361538Y-61496D01*
X362538Y-61163D01*
X363413Y-60163D01*
X363913Y-58663D01*
X364039Y-56996D01*
X363789Y-54830D01*
X363413Y-53663D01*
X362789Y-52496D01*
X361913Y-51663D01*
X361039Y-51496D01*
X360163Y-51829D01*
X359538Y-52663D01*
G01X351663Y-51496D02*
X352663Y-51829D01*
X353413Y-52663D01*
X353913Y-53663D01*
X354289Y-54996D01*
X354413Y-56496D01*
X354289Y-57996D01*
X353913Y-59330D01*
X353413Y-60330D01*
X352663Y-61163D01*
X351663Y-61496D01*
X350663Y-61163D01*
X349913Y-60330D01*
X349413Y-59330D01*
X349038Y-57996D01*
X348913Y-56496D01*
X349038Y-54996D01*
X349413Y-53663D01*
X349913Y-52663D01*
X350663Y-51829D01*
X351663Y-51496D01*
G01X344039Y-57330D02*
X343163Y-56163D01*
X342413Y-55496D01*
X341413Y-55163D01*
X340538Y-55496D01*
X339913Y-56163D01*
X339413Y-57163D01*
X339288Y-58330D01*
X339413Y-59330D01*
X339913Y-60330D01*
X340663Y-61163D01*
X341538Y-61496D01*
X342538Y-61163D01*
X343413Y-60163D01*
X343913Y-58663D01*
X344039Y-56996D01*
X343789Y-54830D01*
X343413Y-53663D01*
X342789Y-52496D01*
X341913Y-51663D01*
X341039Y-51496D01*
X340163Y-51829D01*
X339538Y-52663D01*
G01X334039Y-53163D02*
X333288Y-52163D01*
X332413Y-51663D01*
X331413Y-51496D01*
X330163Y-51829D01*
X329288Y-52663D01*
X329038Y-53663D01*
X329163Y-54663D01*
X329663Y-55496D01*
X332163Y-57163D01*
X333288Y-58330D01*
X334039Y-59996D01*
X334289Y-61496D01*
X329038D01*
G01X321663D02*
X320789Y-61330D01*
X319789Y-60830D01*
X319163Y-59996D01*
X318913Y-58830D01*
X319163Y-57663D01*
X319913Y-56663D01*
X321039Y-56163D01*
X322288D01*
X323039Y-55830D01*
X323663Y-54996D01*
X323913Y-53830D01*
X323538Y-52663D01*
X322663Y-51829D01*
X321663Y-51496D01*
X320663Y-51829D01*
X319789Y-52663D01*
X319413Y-53830D01*
X319663Y-54996D01*
X320288Y-55830D01*
X321039Y-56163D01*
X322288D01*
X323413Y-56663D01*
X324163Y-57663D01*
X324413Y-58830D01*
X324163Y-59996D01*
X323538Y-60830D01*
X322538Y-61330D01*
X321663Y-61496D01*
G01X313288Y-58163D02*
X310039D01*
G01X301663Y-51496D02*
X302663Y-51829D01*
X303413Y-52663D01*
X303913Y-53663D01*
X304289Y-54996D01*
X304413Y-56496D01*
X304289Y-57996D01*
X303913Y-59330D01*
X303413Y-60330D01*
X302663Y-61163D01*
X301663Y-61496D01*
X300663Y-61163D01*
X299913Y-60330D01*
X299413Y-59330D01*
X299038Y-57996D01*
X298913Y-56496D01*
X299038Y-54996D01*
X299413Y-53663D01*
X299913Y-52663D01*
X300663Y-51829D01*
X301663Y-51496D01*
G01X291663Y-61496D02*
Y-51496D01*
X293163Y-53496D01*
G01Y-61496D02*
X290164D01*
G01X274163D02*
Y-51496D01*
X271039D01*
X270039Y-51996D01*
X269413Y-52663D01*
X269163Y-53996D01*
X269413Y-55330D01*
X270163Y-56163D01*
X271039Y-56663D01*
X274163D01*
G01X271039D02*
X269163Y-61496D01*
G01X259163D02*
X264163D01*
Y-51496D01*
X259163D01*
G01X261163Y-56329D02*
X264163D01*
G01X254789Y-51496D02*
X251663Y-61496D01*
X248538Y-51496D01*
G01X241663D02*
X242663Y-51829D01*
X243413Y-52663D01*
X243913Y-53663D01*
X244289Y-54996D01*
X244413Y-56496D01*
X244289Y-57996D01*
X243913Y-59330D01*
X243413Y-60330D01*
X242663Y-61163D01*
X241663Y-61496D01*
X240663Y-61163D01*
X239913Y-60330D01*
X239413Y-59330D01*
X239038Y-57996D01*
X238913Y-56496D01*
X239038Y-54996D01*
X239413Y-53663D01*
X239913Y-52663D01*
X240663Y-51829D01*
X241663Y-51496D01*
G01X230163Y-61496D02*
Y-51496D01*
X234789Y-58663D01*
X228538D01*
G01X214289Y-60163D02*
X213288Y-60996D01*
X212163Y-61496D01*
X211163D01*
X210163Y-60996D01*
X209413Y-60163D01*
X209038Y-58996D01*
X209288Y-57830D01*
X209913Y-56830D01*
X211039Y-56163D01*
X212538Y-55830D01*
X213413Y-55163D01*
X213789Y-53996D01*
X213538Y-52830D01*
X212913Y-51996D01*
X212039Y-51496D01*
X211163D01*
X210288Y-51829D01*
X209538Y-52663D01*
G01X199163Y-61496D02*
X204163D01*
Y-51496D01*
X199163D01*
G01X201163Y-56329D02*
X204163D01*
G01X188913Y-52330D02*
X189663Y-51829D01*
X190538Y-51496D01*
X191538D01*
X192663Y-51996D01*
X193538Y-52830D01*
X194163Y-53830D01*
X194663Y-55496D01*
X194789Y-56996D01*
X194538Y-58496D01*
X194163Y-59496D01*
X193413Y-60496D01*
X192538Y-61163D01*
X191663Y-61496D01*
X190789D01*
X189913Y-61163D01*
X189163Y-60663D01*
X188538Y-59996D01*
G01X181663Y-61496D02*
X182663Y-61330D01*
X183538Y-60663D01*
X184289Y-59663D01*
X184789Y-58496D01*
X185039Y-57163D01*
Y-55830D01*
X184789Y-54496D01*
X184289Y-53329D01*
X183538Y-52330D01*
X182663Y-51663D01*
X181663Y-51496D01*
X180663Y-51663D01*
X179789Y-52330D01*
X179038Y-53329D01*
X178538Y-54496D01*
X178288Y-55830D01*
Y-57163D01*
X178538Y-58496D01*
X179038Y-59663D01*
X179789Y-60663D01*
X180663Y-61330D01*
X181663Y-61496D01*
G01X174538D02*
Y-51496D01*
X168789Y-61496D01*
Y-51496D01*
G01X164413Y-61496D02*
Y-51496D01*
X161913D01*
X160913Y-51996D01*
X160163Y-52663D01*
X159538Y-53663D01*
X159038Y-54830D01*
X158913Y-56496D01*
X159038Y-58163D01*
X159538Y-59330D01*
X160163Y-60330D01*
X160913Y-60996D01*
X161913Y-61496D01*
X164413D01*
G01X154789D02*
X151663Y-51496D01*
X148538Y-61496D01*
G01X149663Y-57996D02*
X153663D01*
G01X144163Y-61496D02*
Y-51496D01*
X141039D01*
X140039Y-51996D01*
X139413Y-52663D01*
X139163Y-53996D01*
X139413Y-55330D01*
X140163Y-56163D01*
X141039Y-56663D01*
X144163D01*
G01X141039D02*
X139163Y-61496D01*
G01X131663D02*
Y-56996D01*
X134163Y-51496D01*
G01X129163D02*
X131663Y-56996D01*
G01X114289Y-60163D02*
X113288Y-60996D01*
X112163Y-61496D01*
X111163D01*
X110163Y-60996D01*
X109413Y-60163D01*
X109038Y-58996D01*
X109288Y-57830D01*
X109913Y-56830D01*
X111039Y-56163D01*
X112538Y-55830D01*
X113413Y-55163D01*
X113789Y-53996D01*
X113538Y-52830D01*
X112913Y-51996D01*
X112039Y-51496D01*
X111163D01*
X110288Y-51829D01*
X109538Y-52663D01*
G01X103163Y-51496D02*
X100164D01*
G01X101663D02*
Y-61496D01*
G01X103163D02*
X100164D01*
G01X94413D02*
Y-51496D01*
X91913D01*
X90913Y-51996D01*
X90163Y-52663D01*
X89538Y-53663D01*
X89038Y-54830D01*
X88913Y-56496D01*
X89038Y-58163D01*
X89538Y-59330D01*
X90163Y-60330D01*
X90913Y-60996D01*
X91913Y-61496D01*
X94413D01*
G01X79163D02*
X84163D01*
Y-51496D01*
X79163D01*
G01X81163Y-56329D02*
X84163D01*
M02*
