G04 ================== begin FILE IDENTIFICATION RECORD ==================*
G04 Layout Name:  REF_WLC_TX15W_C1-MP A11 15W POWER TRANSMITTER REV04 31MAR2022.brd*
G04 Film Name:    PSM*
G04 File Format:  Gerber RS274X*
G04 File Origin:  Cadence Allegro 17.2-S071*
G04 Origin Date:  Thu Mar 31 11:57:37 2022*
G04 *
G04 Layer:  PIN/SOLDERMASK_TOP*
G04 Layer:  PACKAGE GEOMETRY/SOLDERMASK_TOP*
G04 Layer:  BOARD GEOMETRY/OUTLINE*
G04 Layer:  BOARD GEOMETRY/SOLDERMASK_TOP*
G04 *
G04 Offset:    (0.0000 0.0000)*
G04 Mirror:    No*
G04 Mode:      Positive*
G04 Rotation:  0*
G04 FullContactRelief:  No*
G04 UndefLineWidth:     0.1270*
G04 ================== end FILE IDENTIFICATION RECORD ====================*
%FSLAX25Y25*MOIN*%
%IR0*IPPOS*OFA0.00000B0.00000*MIA0B0*SFA1.00000B1.00000*%
%AMMACRO45*
4,1,12,.033783,-.019217,
-.033783,-.019217,
-.033783,.019217,
-.017398,.019217,
-.017398,.0015,
-.008193,.0015,
-.008193,.019217,
.008193,.019217,
.008193,.0015,
.017398,.0015,
.017398,.019217,
.033783,.019217,
.033783,-.019217,
0.0*
%
%ADD45MACRO45*%
%AMMACRO58*
4,1,12,-.019217,-.033783,
-.019217,.033783,
.019217,.033783,
.019217,.017398,
.0015,.017398,
.0015,.008193,
.019217,.008193,
.019217,-.008193,
.0015,-.008193,
.0015,-.017398,
.019217,-.017398,
.019217,-.033783,
-.019217,-.033783,
0.0*
%
%ADD58MACRO58*%
%ADD28R,.027598X.027598*%
%ADD42R,.056X.017*%
%ADD55R,.03X.054*%
%ADD62C,.024*%
%ADD37R,.067X.018*%
%ADD36R,.054201X.028598*%
%ADD23R,.028598X.054201*%
%AMMACRO25*
4,1,6,-.033465,.045276,
-.033465,-.045276,
-.005906,-.045276,
-.005906,.005906,
.033465,.005906,
.033465,.045276,
-.033465,.045276,
0.0*
%
%ADD25MACRO25*%
%AMMACRO24*
4,1,6,-.033465,-.045276,
-.033465,.045276,
-.005906,.045276,
-.005906,-.005906,
.033465,-.005906,
.033465,-.045276,
-.033465,-.045276,
0.0*
%
%ADD24MACRO24*%
%AMMACRO56*
4,1,16,.047957,.046579,
.047957,-.046579,
-.047957,-.046579,
-.047957,-.030193,
-.022366,-.030193,
-.022366,-.020988,
-.047957,-.020988,
-.047957,-.004602,
-.022366,-.004602,
-.022366,.004602,
-.047957,.004602,
-.047957,.020988,
-.022366,.020988,
-.022366,.030193,
-.047957,.030193,
-.047957,.046579,
.047957,.046579,
0.0*
%
%ADD56MACRO56*%
%AMMACRO43*
4,1,16,-.046579,.047957,
.046579,.047957,
.046579,-.047957,
.030193,-.047957,
.030193,-.022366,
.020988,-.022366,
.020988,-.047957,
.004602,-.047957,
.004602,-.022366,
-.004602,-.022366,
-.004602,-.047957,
-.020988,-.047957,
-.020988,-.022366,
-.030193,-.022366,
-.030193,-.047957,
-.046579,-.047957,
-.046579,.047957,
0.0*
%
%ADD43MACRO43*%
%ADD49R,.070866X.07874*%
%ADD61O,.181102X.165354*%
%ADD50R,.161417X.137795*%
%ADD35R,.074803X.051181*%
%ADD57R,.051181X.074803*%
%ADD54C,.03937*%
%ADD63C,.11811*%
%ADD47R,.070866X.102362*%
%ADD40O,.007874X.033465*%
%ADD14R,.106299X.062992*%
%ADD38O,.033465X.007874*%
%ADD21O,.086677X.047307*%
%ADD48R,.031496X.01378*%
%ADD32R,.027559X.031496*%
%ADD60R,.072441X.070866*%
%ADD52R,.035433X.031496*%
%ADD34R,.070866X.072441*%
%ADD20R,.027559X.011417*%
%ADD16C,.1*%
%ADD10C,.153543*%
%ADD12C,.065*%
%ADD53R,.019701X.018701*%
%ADD39R,.248031X.248031*%
%ADD31R,.025591X.033465*%
%ADD22R,.027559X.038976*%
%ADD26R,.018701X.019701*%
%ADD15C,.067*%
%ADD13O,.147732X.049307*%
%ADD51R,.06X.06*%
%ADD46C,.064*%
%ADD33C,.046*%
%ADD11R,.065X.065*%
%ADD44R,.016386X.038433*%
%ADD59R,.038433X.016386*%
%ADD19R,.02835X.02598*%
%ADD41R,.02598X.02835*%
%AMMACRO29*
4,1,6,.033465,-.045276,
.033465,.045276,
.005906,.045276,
.005906,-.005906,
-.033465,-.005906,
-.033465,-.045276,
.033465,-.045276,
0.0*
%
%ADD29MACRO29*%
%ADD18R,.035402X.025598*%
%ADD27R,.025598X.035402*%
%ADD17R,.026622X.030559*%
%AMMACRO30*
4,1,6,.033465,.045276,
.033465,-.045276,
.005906,-.045276,
.005906,.005906,
-.033465,.005906,
-.033465,.045276,
.033465,.045276,
0.0*
%
%ADD30MACRO30*%
%ADD64C,.012*%
%ADD65C,.005*%
G75*
%LPD*%
G75*
G36*
G01X12969Y200748D02*
G03I-2969J0D01*
G37*
G36*
G01X29252Y191496D02*
Y197795D01*
X20197D01*
Y191496D01*
X29252D01*
G37*
G36*
G01Y182047D02*
Y188346D01*
X20197D01*
Y182047D01*
X29252D01*
G37*
G36*
G01X48402Y179094D02*
G03I-2969J0D01*
G37*
G36*
G01X42244Y191496D02*
Y197795D01*
X33189D01*
Y191496D01*
X42244D01*
G37*
G36*
G01Y182047D02*
Y188346D01*
X33189D01*
Y182047D01*
X42244D01*
G37*
G36*
G01X48402Y200748D02*
G03I-2969J0D01*
G37*
G36*
G01X132776Y185630D02*
Y207283D01*
X127067D01*
Y185630D01*
X132776D01*
G37*
G36*
G01X152461D02*
Y207283D01*
X146752D01*
Y185630D01*
X152461D01*
G37*
G54D10*
X12598Y12598D03*
Y219685D03*
X243307Y12598D03*
Y219685D03*
X276374Y12598D03*
Y219685D03*
X507083Y12598D03*
Y219685D03*
G54D11*
X10000Y31161D03*
G54D20*
X31732Y108661D03*
X26614Y111614D03*
Y113583D03*
Y115551D03*
X31732Y110630D03*
Y112598D03*
Y114567D03*
Y116535D03*
X26614Y117520D03*
Y119488D03*
Y121457D03*
Y123425D03*
Y125394D03*
Y127362D03*
Y129331D03*
X31732Y118504D03*
Y122441D03*
Y124409D03*
Y126378D03*
Y128346D03*
Y130315D03*
Y132283D03*
G54D30*
X37126Y183622D03*
G54D12*
X10000Y51161D03*
Y41161D03*
Y61161D03*
Y71161D03*
Y179094D03*
X43819Y124685D03*
X172008Y14488D03*
X175787Y188465D03*
X225984Y25197D03*
X225197Y209843D03*
G54D21*
X30118Y103465D03*
Y137480D03*
G54D13*
X9016Y102283D03*
Y138661D03*
G54D22*
X26614Y108268D03*
Y132677D03*
G54D31*
X58130Y15098D03*
X61476D03*
X58130Y9390D03*
X61476D03*
G54D40*
X91496Y82080D03*
X89921D03*
Y113182D03*
X91496D03*
X105669Y82080D03*
X100944D03*
X107244D03*
X96220D03*
X94645D03*
X93070D03*
X110393D03*
X108819D03*
X104094D03*
X97795D03*
X102519D03*
X99370D03*
X111968D03*
X100944Y113182D03*
X97795D03*
X99370D03*
X102519D03*
X104094D03*
X105669D03*
X107244D03*
X108819D03*
X96220D03*
X110393D03*
X94645D03*
X111968D03*
X93070D03*
X115118Y82080D03*
X113543D03*
X115118Y113182D03*
X113543D03*
G54D41*
X83780Y120472D03*
X80000D03*
X92992Y127559D03*
X100591Y65591D03*
X96811D03*
X96771Y60433D03*
X100552D03*
X107284Y135118D03*
X103504D03*
X101141Y130118D03*
X104922D03*
X96772Y127559D03*
X103504Y140157D03*
X107284D03*
X125826Y35630D03*
X129607D03*
X117007Y17323D03*
X120788D03*
X121338Y62598D03*
X125119D03*
X123150Y118504D03*
X119370D03*
X142048Y83465D03*
X138267D03*
X142048Y78346D03*
X138267D03*
G54D32*
X67520Y50354D03*
X62402D03*
X64961Y42087D03*
G54D14*
X8480Y151433D03*
Y163244D03*
X32890Y151433D03*
Y163244D03*
G54D50*
X121063Y196457D03*
X158465D03*
G54D23*
X29055Y174055D03*
X36142D03*
X89764Y138189D03*
X96850D03*
X196969Y115945D03*
X204055D03*
X201339Y151457D03*
X208425D03*
G54D33*
X59843Y101575D03*
X62205Y109055D03*
X55118Y192913D03*
X86220Y42126D03*
X82835Y55630D03*
X80709Y77559D03*
X92913Y74803D03*
X93150Y146299D03*
X100787Y10630D03*
X113780Y125591D03*
X101575Y146850D03*
X106299Y162205D03*
X106693Y215748D03*
X123228Y76772D03*
X116535Y135039D03*
X136220Y29134D03*
X148886Y54280D03*
X150787Y65354D03*
X147638Y127953D03*
Y120079D03*
X157087Y100000D03*
X167323Y168898D03*
X191339Y111024D03*
X227323Y106417D03*
G54D51*
X138476Y14374D03*
G54D15*
X29432Y10606D03*
X39432D03*
X49432D03*
G54D60*
X206303Y163331D03*
Y175142D03*
G54D24*
X25315Y196220D03*
G54D42*
X114810Y33130D03*
Y30571D03*
Y28012D03*
Y25453D03*
X97710D03*
Y28012D03*
Y30571D03*
Y33130D03*
G54D16*
X28622Y21929D03*
X32244Y218780D03*
X220748Y220866D03*
G54D34*
X75197Y181496D03*
X87008D03*
G54D52*
X170878Y28004D03*
X163004Y24264D03*
Y31744D03*
X170878Y42563D03*
X163004Y38823D03*
Y46303D03*
X155906Y142520D03*
X163780Y146260D03*
Y138780D03*
G54D61*
X240157Y88780D03*
X240326Y128150D03*
G54D43*
X101969Y200748D03*
Y183425D03*
G54D25*
X25315Y183622D03*
G54D17*
X30709Y31102D03*
X36220D03*
X72835Y96457D03*
X67323D03*
X84252Y125984D03*
X78740D03*
X124409Y124016D03*
X129921D03*
X137402Y98031D03*
X142913D03*
G54D44*
X100689Y191890D03*
X103248D03*
X98130Y192088D03*
X100689Y209213D03*
X103248D03*
X98130Y209411D03*
G54D26*
X49161Y75984D03*
X53201D03*
X70130Y102756D03*
X66090D03*
X78595Y101575D03*
X74555D03*
X142429Y92913D03*
X146469D03*
X195221Y167066D03*
X199261D03*
X195221Y171406D03*
X199261D03*
G54D53*
X156205Y42559D03*
Y38519D03*
X159409Y81548D03*
Y77507D03*
X163780Y81548D03*
Y77507D03*
G54D35*
X75197Y191142D03*
X65354D03*
X75197Y202559D03*
X65354D03*
X187402Y198622D03*
Y210039D03*
X199213Y198622D03*
Y210039D03*
G54D62*
X254926Y23609D03*
Y27539D03*
Y31469D03*
Y35399D03*
Y39329D03*
Y196885D03*
Y192955D03*
Y208675D03*
Y204745D03*
Y200815D03*
X264746Y35399D03*
Y31469D03*
Y27539D03*
Y23609D03*
Y39329D03*
Y192955D03*
Y196885D03*
Y200815D03*
Y204745D03*
Y208675D03*
G54D27*
X48528Y81496D03*
X58174Y64961D03*
X63874D03*
X54228Y81496D03*
X88095Y11811D03*
Y17717D03*
X93174Y40748D03*
X93795Y11811D03*
Y17717D03*
X98874Y40748D03*
X106393Y155118D03*
X100693D03*
X120567Y11811D03*
X114867D03*
X131402Y56693D03*
Y50787D03*
X137102Y56693D03*
Y50787D03*
X164267Y71260D03*
X158567D03*
X169591D03*
Y65354D03*
X183913Y25862D03*
X178213D03*
X183976Y42579D03*
X178276D03*
X175291Y71260D03*
Y65354D03*
X215260Y11417D03*
X220960D03*
G54D18*
X32677Y56599D03*
Y62299D03*
Y75685D03*
Y69985D03*
X50787Y21678D03*
Y27378D03*
X44488Y27338D03*
Y21638D03*
X55906Y88489D03*
Y94189D03*
X85827Y29433D03*
Y35133D03*
X74016Y33764D03*
Y55181D03*
Y39464D03*
X75669Y65496D03*
Y71196D03*
X74016Y60881D03*
X113780Y67811D03*
Y62111D03*
X126496Y30724D03*
Y25024D03*
X114961Y153449D03*
Y159149D03*
X169110Y53772D03*
X162992Y53843D03*
X169110Y59472D03*
X162992Y59543D03*
X155906Y133165D03*
Y127465D03*
X178869Y31345D03*
Y37045D03*
X190945Y45969D03*
Y51669D03*
X227559Y5024D03*
Y10724D03*
X221654Y88882D03*
Y94582D03*
X220591Y126630D03*
Y120930D03*
X239370Y27465D03*
Y33165D03*
G54D63*
X276693Y33307D03*
X276055Y198976D03*
G54D54*
X175453Y141043D03*
Y146043D03*
Y156043D03*
Y151043D03*
Y166043D03*
Y161043D03*
X180453Y141043D03*
Y146043D03*
Y156043D03*
Y151043D03*
Y166043D03*
Y161043D03*
X248031Y27953D03*
Y33465D03*
G54D36*
X55512Y206299D03*
Y199213D03*
X84252Y197638D03*
Y190551D03*
G54D45*
X103248Y191890D03*
Y209213D03*
G54D64*
G01X47674Y-41345D02*
X48549Y-40178D01*
X49299Y-39512D01*
X50299Y-39179D01*
X51174Y-39512D01*
X51799Y-40178D01*
X52299Y-41178D01*
X52424Y-42345D01*
X52299Y-43345D01*
X51799Y-44345D01*
X51049Y-45179D01*
X50174Y-45512D01*
X49174Y-45179D01*
X48299Y-44179D01*
X47799Y-42678D01*
X47674Y-41012D01*
X47924Y-38845D01*
X48299Y-37678D01*
X48924Y-36512D01*
X49799Y-35678D01*
X50674Y-35512D01*
X51549Y-35845D01*
X52174Y-36678D01*
G01X60049Y-35512D02*
X59049Y-35845D01*
X58299Y-36678D01*
X57799Y-37678D01*
X57424Y-39012D01*
X57299Y-40512D01*
X57424Y-42012D01*
X57799Y-43345D01*
X58299Y-44345D01*
X59049Y-45179D01*
X60049Y-45512D01*
X61049Y-45179D01*
X61799Y-44345D01*
X62299Y-43345D01*
X62674Y-42012D01*
X62799Y-40512D01*
X62674Y-39012D01*
X62299Y-37678D01*
X61799Y-36678D01*
X61049Y-35845D01*
X60049Y-35512D01*
G01X70049D02*
X69049Y-35845D01*
X68299Y-36678D01*
X67799Y-37678D01*
X67424Y-39012D01*
X67299Y-40512D01*
X67424Y-42012D01*
X67799Y-43345D01*
X68299Y-44345D01*
X69049Y-45179D01*
X70049Y-45512D01*
X71049Y-45179D01*
X71799Y-44345D01*
X72299Y-43345D01*
X72674Y-42012D01*
X72799Y-40512D01*
X72674Y-39012D01*
X72299Y-37678D01*
X71799Y-36678D01*
X71049Y-35845D01*
X70049Y-35512D01*
G01X78424Y-42179D02*
X81674D01*
G01X87674Y-41345D02*
X88549Y-40178D01*
X89299Y-39512D01*
X90299Y-39179D01*
X91174Y-39512D01*
X91799Y-40178D01*
X92299Y-41178D01*
X92424Y-42345D01*
X92299Y-43345D01*
X91799Y-44345D01*
X91049Y-45179D01*
X90174Y-45512D01*
X89174Y-45179D01*
X88299Y-44179D01*
X87799Y-42678D01*
X87674Y-41012D01*
X87924Y-38845D01*
X88299Y-37678D01*
X88924Y-36512D01*
X89799Y-35678D01*
X90674Y-35512D01*
X91549Y-35845D01*
X92174Y-36678D01*
G01X100049Y-35512D02*
X99049Y-35845D01*
X98299Y-36678D01*
X97799Y-37678D01*
X97424Y-39012D01*
X97299Y-40512D01*
X97424Y-42012D01*
X97799Y-43345D01*
X98299Y-44345D01*
X99049Y-45179D01*
X100049Y-45512D01*
X101049Y-45179D01*
X101799Y-44345D01*
X102299Y-43345D01*
X102674Y-42012D01*
X102799Y-40512D01*
X102674Y-39012D01*
X102299Y-37678D01*
X101799Y-36678D01*
X101049Y-35845D01*
X100049Y-35512D01*
G01X107674Y-41345D02*
X108549Y-40178D01*
X109299Y-39512D01*
X110299Y-39179D01*
X111174Y-39512D01*
X111799Y-40178D01*
X112299Y-41178D01*
X112424Y-42345D01*
X112299Y-43345D01*
X111799Y-44345D01*
X111049Y-45179D01*
X110174Y-45512D01*
X109174Y-45179D01*
X108299Y-44179D01*
X107799Y-42678D01*
X107674Y-41012D01*
X107924Y-38845D01*
X108299Y-37678D01*
X108924Y-36512D01*
X109799Y-35678D01*
X110674Y-35512D01*
X111549Y-35845D01*
X112174Y-36678D01*
G01X117674Y-37178D02*
X118424Y-36179D01*
X119299Y-35678D01*
X120299Y-35512D01*
X121549Y-35845D01*
X122424Y-36678D01*
X122674Y-37678D01*
X122549Y-38679D01*
X122049Y-39512D01*
X119549Y-41178D01*
X118424Y-42345D01*
X117674Y-44012D01*
X117424Y-45512D01*
X122674D01*
G01X130049D02*
X130924Y-45345D01*
X131924Y-44845D01*
X132549Y-44012D01*
X132799Y-42845D01*
X132549Y-41679D01*
X131799Y-40679D01*
X130674Y-40178D01*
X129424D01*
X128674Y-39845D01*
X128049Y-39012D01*
X127799Y-37845D01*
X128174Y-36678D01*
X129049Y-35845D01*
X130049Y-35512D01*
X131049Y-35845D01*
X131924Y-36678D01*
X132299Y-37845D01*
X132049Y-39012D01*
X131424Y-39845D01*
X130674Y-40178D01*
X129424D01*
X128299Y-40679D01*
X127549Y-41679D01*
X127299Y-42845D01*
X127549Y-44012D01*
X128174Y-44845D01*
X129174Y-45345D01*
X130049Y-45512D01*
G01X138424Y-42179D02*
X141674D01*
G01X150049Y-35512D02*
X149049Y-35845D01*
X148299Y-36678D01*
X147799Y-37678D01*
X147424Y-39012D01*
X147299Y-40512D01*
X147424Y-42012D01*
X147799Y-43345D01*
X148299Y-44345D01*
X149049Y-45179D01*
X150049Y-45512D01*
X151049Y-45179D01*
X151799Y-44345D01*
X152299Y-43345D01*
X152674Y-42012D01*
X152799Y-40512D01*
X152674Y-39012D01*
X152299Y-37678D01*
X151799Y-36678D01*
X151049Y-35845D01*
X150049Y-35512D01*
G01X160049Y-45512D02*
Y-35512D01*
X158549Y-37512D01*
G01Y-45512D02*
X161549D01*
G01X177549D02*
Y-35512D01*
X180674D01*
X181674Y-36012D01*
X182299Y-36678D01*
X182549Y-38012D01*
X182299Y-39345D01*
X181549Y-40178D01*
X180674Y-40679D01*
X177549D01*
G01X180674D02*
X182549Y-45512D01*
G01X192549D02*
X187549D01*
Y-35512D01*
X192549D01*
G01X190549Y-40345D02*
X187549D01*
G01X196924Y-35512D02*
X200049Y-45512D01*
X203174Y-35512D01*
G01X210049D02*
X209049Y-35845D01*
X208299Y-36678D01*
X207799Y-37678D01*
X207424Y-39012D01*
X207299Y-40512D01*
X207424Y-42012D01*
X207799Y-43345D01*
X208299Y-44345D01*
X209049Y-45179D01*
X210049Y-45512D01*
X211049Y-45179D01*
X211799Y-44345D01*
X212299Y-43345D01*
X212674Y-42012D01*
X212799Y-40512D01*
X212674Y-39012D01*
X212299Y-37678D01*
X211799Y-36678D01*
X211049Y-35845D01*
X210049Y-35512D01*
G01X221549Y-45512D02*
Y-35512D01*
X216924Y-42678D01*
X223174D01*
G01X237549Y-45512D02*
Y-35512D01*
X240549D01*
X241549Y-36012D01*
X242299Y-37178D01*
X242549Y-38512D01*
X242299Y-39845D01*
X241674Y-40845D01*
X240549Y-41345D01*
X237549D01*
G01X247549Y-45512D02*
Y-35512D01*
X250674D01*
X251674Y-36012D01*
X252299Y-36678D01*
X252549Y-38012D01*
X252299Y-39345D01*
X251549Y-40178D01*
X250674Y-40679D01*
X247549D01*
G01X250674D02*
X252549Y-45512D01*
G01X258549Y-35512D02*
X261549D01*
G01X260049D02*
Y-45512D01*
G01X258549D02*
X261549D01*
G01X266799D02*
Y-35512D01*
X270049Y-43845D01*
X273299Y-35512D01*
Y-45512D01*
G01X276924D02*
X280049Y-35512D01*
X283174Y-45512D01*
G01X282049Y-42012D02*
X278049D01*
G01X287549Y-45512D02*
Y-35512D01*
X290674D01*
X291674Y-36012D01*
X292299Y-36678D01*
X292549Y-38012D01*
X292299Y-39345D01*
X291549Y-40178D01*
X290674Y-40679D01*
X287549D01*
G01X290674D02*
X292549Y-45512D01*
G01X300049D02*
Y-41012D01*
X297549Y-35512D01*
G01X302549D02*
X300049Y-41012D01*
G01X317424Y-44179D02*
X318424Y-45012D01*
X319549Y-45512D01*
X320549D01*
X321549Y-45012D01*
X322299Y-44179D01*
X322674Y-43012D01*
X322424Y-41845D01*
X321799Y-40845D01*
X320674Y-40178D01*
X319174Y-39845D01*
X318299Y-39179D01*
X317924Y-38012D01*
X318174Y-36845D01*
X318799Y-36012D01*
X319674Y-35512D01*
X320549D01*
X321424Y-35845D01*
X322174Y-36678D01*
G01X330049Y-45512D02*
X329049Y-45345D01*
X328174Y-44679D01*
X327424Y-43679D01*
X326924Y-42512D01*
X326674Y-41178D01*
Y-39845D01*
X326924Y-38512D01*
X327424Y-37345D01*
X328174Y-36345D01*
X329049Y-35678D01*
X330049Y-35512D01*
X331049Y-35678D01*
X331924Y-36345D01*
X332674Y-37345D01*
X333174Y-38512D01*
X333424Y-39845D01*
Y-41178D01*
X333174Y-42512D01*
X332674Y-43679D01*
X331924Y-44679D01*
X331049Y-45345D01*
X330049Y-45512D01*
G01X337549Y-35512D02*
Y-45512D01*
X342549D01*
G01X347299D02*
Y-35512D01*
X349799D01*
X350799Y-36012D01*
X351549Y-36678D01*
X352174Y-37678D01*
X352674Y-38845D01*
X352799Y-40512D01*
X352674Y-42179D01*
X352174Y-43345D01*
X351549Y-44345D01*
X350799Y-45012D01*
X349799Y-45512D01*
X347299D01*
G01X362549D02*
X357549D01*
Y-35512D01*
X362549D01*
G01X360549Y-40345D02*
X357549D01*
G01X367549Y-45512D02*
Y-35512D01*
X370674D01*
X371674Y-36012D01*
X372299Y-36678D01*
X372549Y-38012D01*
X372299Y-39345D01*
X371549Y-40178D01*
X370674Y-40679D01*
X367549D01*
G01X370674D02*
X372549Y-45512D01*
G01X376799D02*
Y-35512D01*
X380049Y-43845D01*
X383299Y-35512D01*
Y-45512D01*
G01X386924D02*
X390049Y-35512D01*
X393174Y-45512D01*
G01X392049Y-42012D02*
X388049D01*
G01X397424Y-44179D02*
X398424Y-45012D01*
X399549Y-45512D01*
X400549D01*
X401549Y-45012D01*
X402299Y-44179D01*
X402674Y-43012D01*
X402424Y-41845D01*
X401799Y-40845D01*
X400674Y-40178D01*
X399174Y-39845D01*
X398299Y-39179D01*
X397924Y-38012D01*
X398174Y-36845D01*
X398799Y-36012D01*
X399674Y-35512D01*
X400549D01*
X401424Y-35845D01*
X402174Y-36678D01*
G01X407299Y-45512D02*
Y-35512D01*
G01X412049D02*
X407299Y-41679D01*
G01X412799Y-45512D02*
X409424Y-38845D01*
G54D19*
X31102Y40473D03*
Y36693D03*
X59134Y75669D03*
Y79449D03*
X72047Y86693D03*
Y90473D03*
X62205Y88111D03*
Y84330D03*
X70866Y112520D03*
Y108740D03*
X75984Y112520D03*
Y108740D03*
X133071Y87874D03*
Y91654D03*
X130315Y113701D03*
Y109921D03*
X133150Y97952D03*
Y101733D03*
X135433Y113701D03*
Y109921D03*
X157480Y54803D03*
Y58583D03*
X158661Y152441D03*
Y156221D03*
G54D46*
X128476Y14374D03*
G54D37*
X95039Y33130D03*
Y30571D03*
Y28012D03*
Y25453D03*
X117480D03*
Y28012D03*
Y30571D03*
Y33130D03*
G54D55*
X182283Y52074D03*
Y63674D03*
G54D28*
X44094Y88976D03*
X50394D03*
X44094Y94882D03*
X50394D03*
X62205Y56063D03*
X68504D03*
X70315Y76652D03*
X64016D03*
X70315Y70866D03*
X64016D03*
X74803Y17717D03*
X81102D03*
X80315Y24016D03*
X86614D03*
X79921Y29528D03*
Y35827D03*
X74016Y44213D03*
Y50512D03*
X90945Y197244D03*
Y190945D03*
X109449Y17717D03*
X103150D03*
X153386Y74803D03*
Y81102D03*
X150787Y92913D03*
X153150Y152756D03*
Y159055D03*
X175000Y53543D03*
Y59843D03*
X168898Y76772D03*
X164567Y65354D03*
X158268D03*
X168898Y83071D03*
X157087Y92913D03*
X215354Y5118D03*
X201327Y17390D03*
X207626D03*
X209055Y85827D03*
X215354D03*
X204055Y108858D03*
X197756D03*
X215000Y120787D03*
X208701D03*
X208031Y143976D03*
X201732D03*
X221654Y5118D03*
G54D65*
G01X263776Y214565D02*
Y232283D01*
X519681D01*
Y0D01*
X263776D01*
Y17719D01*
G03X259846Y21649I-3930J0D01*
G01X259835D01*
G03X255906Y17719I0J-3930D01*
G01Y0D01*
X0D01*
Y232283D01*
X255906D01*
Y214565D01*
G03X259835Y210635I3930J0D01*
G01X259846D01*
G03X263776Y214565I0J3930D01*
G01X250859Y182655D02*
X250869D01*
G01X259846Y21649D02*
X259835D01*
G01X255906Y45219D02*
G03X263776I3935J5D01*
G01Y73031D01*
X289933D01*
Y143898D01*
X263776D01*
Y187065D01*
G03X255906I-3935J-5D01*
G01Y45219D01*
G01X259846Y190995D02*
X259835D01*
G01Y210635D02*
X259846D01*
G54D29*
X37126Y196220D03*
G54D38*
X86968Y91332D03*
Y89757D03*
Y85033D03*
Y94481D03*
Y92907D03*
Y96056D03*
Y86607D03*
Y88182D03*
Y102356D03*
Y100781D03*
Y110230D03*
Y105505D03*
Y107080D03*
Y103930D03*
Y108655D03*
Y99206D03*
Y97631D03*
X118070Y91332D03*
Y89757D03*
Y85033D03*
Y94481D03*
Y92907D03*
Y96056D03*
Y86607D03*
Y88182D03*
Y102356D03*
Y100781D03*
Y110230D03*
Y105505D03*
Y107080D03*
Y103930D03*
Y108655D03*
Y99206D03*
Y97631D03*
G54D47*
X120866Y52756D03*
G54D56*
X189331Y97244D03*
X189173Y131732D03*
X206654Y97244D03*
X206496Y131732D03*
G54D39*
X102519Y97631D03*
G54D48*
X115354Y48819D03*
Y50787D03*
Y52756D03*
Y54724D03*
X126378Y48819D03*
Y50787D03*
Y52756D03*
Y54724D03*
X115354Y56693D03*
X126378D03*
G54D57*
X214764Y36614D03*
Y56299D03*
Y46457D03*
Y66142D03*
Y75984D03*
X208858Y196063D03*
Y185827D03*
X226181Y36614D03*
Y56299D03*
Y46457D03*
Y66142D03*
Y75984D03*
X220276Y196063D03*
Y185827D03*
G54D49*
X124252Y144882D03*
Y161417D03*
X144252Y144882D03*
Y161417D03*
G54D58*
X215118Y95965D03*
X197795D03*
X214961Y130453D03*
X197638D03*
G54D59*
X215118Y95965D03*
X197795D03*
X215316Y101083D03*
X215118Y98524D03*
X197993Y101083D03*
X197795Y98524D03*
X215159Y135571D03*
X214961Y130453D03*
Y133012D03*
X197638D03*
Y130453D03*
X197836Y135571D03*
M02*
