M48
INCH,TZ
T01C.008
T02C.01
T03C.015
T04C.019685
T05C.027559
T06C.039
T07C.03937
T08C.04
T09C.043307
T10C.098425
T11C.129921
T12C.02
T13C.106299
;LEADER: 12 
;HEADER: 
;CODE  : ASCII 
;FILE  : REF_WLC_TX15W_C1-MP A11 15W POWER TRANSMITTER REV04 31MAR2022-1-2.drl for board D:/Logan/Projects/CY-RB3111_REF_WLC_TX15W_C1-MP A11 15W POWER TRANSMITTER REV03.1/Gerber/#Taaaany09548.tmp ... layers TOP and BOTTOM
;T01 Holesize 1. = 8.000000 Tolerance = +3.000000/-3.000000 PLATED MILS Quantity = 144
;T02 Holesize 2. = 10.000000 Tolerance = +3.000000/-3.000000 PLATED MILS Quantity = 328
;T03 Holesize 3. = 15.000000 Tolerance = +3.000000/-3.000000 PLATED MILS Quantity = 165
;T04 Holesize 4. = 19.685039 Tolerance = +3.000000/-3.000000 PLATED MILS Quantity = 2
;T05 Holesize 5. = 27.559055 Tolerance = +3.000000/-3.000000 PLATED MILS Quantity = 12
;T06 Holesize 6. = 39.000000 Tolerance = +3.000000/-3.000000 PLATED MILS Quantity = 2
;T07 Holesize 7. = 39.370079 Tolerance = +3.000000/-3.000000 PLATED MILS Quantity = 3
;T08 Holesize 8. = 40.000000 Tolerance = +3.000000/-3.000000 PLATED MILS Quantity = 11
;T09 Holesize 9. = 43.307087 Tolerance = +3.000000/-3.000000 PLATED MILS Quantity = 3
;T10 Holesize 10. = 98.425197 Tolerance = +3.000000/-3.000000 PLATED MILS Quantity = 2
;T11 Holesize 11. = 129.921260 Tolerance = +3.000000/-3.000000 PLATED MILS Quantity = 8
;T12 Holesize 12. = 20.000000 Tolerance = +2.000000/-2.000000 NON_PLATED MILS Quantity = 20
;T13 Holesize 13. = 106.299213 Tolerance = +2.000000/-2.000000 NON_PLATED MILS Quantity = 2
%
G90
T01
X76929Y26181
X77047Y21496
X80315Y20866
X84252Y20315
X100295Y20571
X106693Y14173
X110125Y21260
X129882Y25024
X224409Y5118
X144882Y52756
X118504Y59449
X116693Y46220
X111220Y49252
X108780Y56535
X108346Y49331
X104370Y53898
X104173Y50669
X96142Y43661
X93701Y45945
X50787Y30984
X44488
X67323Y64961
X70472
X90894Y68189
Y70989
X93819Y61811
X118504Y62205
X120079Y82283
X122441Y65748
X129921Y59961
X133740Y67835
X135827Y60630
X136220Y86220
X136732Y64331
X143031Y70709
X144882Y65354
X216476Y103484
X213976
X199646Y104862
X197126Y104921
X171654Y113780
X164173
X157874
X146063Y103543
X140157Y113701
X138839Y101241
X136102Y101733
X129370Y104324
X129331Y99993
X127953Y119685
X126969Y104324
X126929Y99993
X125630Y119685
X119016Y115472
X117264Y113720
X86634Y115728
X84902Y117461
X77362Y116142
X74803
X72677Y101575
X68504Y114882
X67244Y117598
X23071Y117520
X23268Y120512
X30039Y120197
X33858Y121260
X34646Y124409
X57795Y140630
Y147717
X67362Y140630
Y147717
X73898Y120984
X76378Y120472
X77953Y137008
X80709Y139764
Y144488
Y148819
X82677Y137008
X85433
X87402Y143701
Y148031
X105118Y121260
X109303Y120323
X110264Y122780
X111811Y120945
X116142Y129921
X116535Y139764
X122441Y138189
X133563Y120965
X134961Y122362
X137008Y120472
X151575Y142520
X158819Y123819
X160236Y138583
X164331Y123819
X171811
X177717
X196614Y141063
X199213
X214055Y138031
X216654
X190791Y171087
Y167543
X189685Y160283
X187724Y162945
X185016Y160098
X184488Y153740
X184177Y176287
X170472Y166535
X164567Y153150
X162992Y168504
X151969Y166142
X116299Y150551
X113543
X98031Y151181
X94882Y153543
X87402Y153150
X84646Y174803
Y170866
Y166535
Y162598
Y158268
X78909Y153921
X78835Y157827
X77559Y151575
X77165Y174803
Y170866
R02Y-4331
X76772Y155512
X67362Y175669
Y170551
Y165827
Y159921
Y153622
X57795Y175472
Y170551
Y165827
Y159921
Y153622
X96339Y192088
X94173
X92323Y202362
X89764
T02
X36181Y24882
X36220Y27717
X61476Y18524
X64488Y9350
X68189Y10669
X70433Y8386
X96850Y12992
X120197Y37975
X123268Y37953
X129607Y38858
X138189Y35827
Y38386
X152441Y32126
X156378Y24331
X157043Y12602
X159031Y24331
X195276Y21654
X201969
Y28346
X205512Y33740
Y38740
X208268Y21654
Y28346
X209843Y33740
Y38740
X212283Y3976
X214173Y21654
Y28346
X220079
X220866Y21654
X209843Y78740
R07Y-5000
X205512Y78740
R07Y-5000
X179528Y73228
X175291Y75103
X174803Y49213
X172047Y76378
X167283Y50866
X162992Y50945
X159555Y46303
X158661Y51575
X156890Y46303
X150394Y74803
X143228
X140551
X137102Y53740
X135039Y46457
X132275Y76960
X131890Y46457
X123031Y52756
Y48819
X119094Y56693
R02Y-3937
X113189Y44331
X93268Y65748
X91220Y61811
X89567Y45472
X88661Y52913
X88346Y61969
X79331Y65827
X58819Y60866
X55512
X54961Y63386
X52283Y62480
X49331
X31102Y43976
X33799Y88051
X35709Y89961
X45551Y99528
X46102Y91929
X46339Y104921
X48228Y106811
X48976Y102677
X49488Y84921
X50394Y99606
X53543Y97638
X57087Y109449
X59091Y113783
X61693Y105236
X63524Y103406
X64921Y90118
X68898Y87157
Y90157
X123268Y80433
X138189Y113701
X144390Y81122
X147047Y106496
X149606
X160236Y92913
X170984Y103110
X177559Y98819
Y103150
Y113780
X178740Y83071
X188228Y94159
Y97309
Y100065
X190591Y94159
Y97309
Y100065
X192913Y94081
Y97230
X196850Y90551
X199606
X203937Y85039
X205571Y94094
Y97244
Y100000
X207854Y94094
Y97244
Y100000
X210217Y94094
Y97244
Y100000
X210827Y107756
Y110512
Y113268
Y116811
X213583
X217126Y107638
X217205Y110472
Y113228
Y115984
X219685Y98031
X219882Y107205
Y109961
X219921Y112795
X219961Y115591
X222244Y106024
Y108780
Y117165
X222283Y111614
X222323Y114409
X222835Y98031
X225984Y94882
Y98031
X217165Y124843
X214409
X214213Y145551
X213780Y142520
X211024Y145276
Y142520
X209882Y134750
Y131837
Y128687
X207717Y134750
Y131837
Y128687
X205472Y134711
Y131797
Y128648
X192795Y134278
R02Y-2756
X190512Y134252
X190433Y131522
Y128766
X188228Y134291
X188150Y131482
Y128726
X171772Y129685
X150510Y156416
X127126Y155630
X125197Y138976
X124370Y155630
X121614
X113386Y139764
X112205Y137008
X110236Y133858
X103504Y143071
X97197Y158614
X89764Y142362
X46614Y135157
Y132008
X46535Y138740
X45984Y152638
Y148701
Y144370
X45906Y156654
X43110Y138858
X43071Y135157
Y132008
X41654Y152638
Y148701
Y144370
X41575Y156654
X39134Y135551
Y132008
X36535Y146732
Y143543
X33110Y146811
Y143622
X28780Y146811
Y143622
X25394Y153583
Y150433
Y146890
Y143701
X20669Y153583
Y150433
Y146890
Y143701
X16339Y153583
Y150433
Y146890
Y143701
X12756Y146732
Y143543
X8031Y146732
Y143543
X3701Y146732
Y143543
X3858Y174016
X3937Y179134
X3898Y183622
X3937Y186535
X8189Y174016
X8228Y183622
X8268Y186535
X12913Y174016
X12953Y183622
X12992Y186535
X14370Y196457
X15039Y179134
X17480Y193189
Y196339
X17953Y172244
X17992Y175551
X18031Y179252
X18071Y183622
X18110Y186535
X21811Y172362
X21929Y175591
X25512Y172402
X25591Y175551
X41535Y167953
X41575Y160984
Y164921
X41654Y171260
X41693Y174449
X45827Y171378
X45906Y160984
Y164921
X45866Y167953
Y174567
X76417Y187402
X78504
X94835Y160976
Y173228
X98740Y199843
X98780Y187047
X98858Y182598
Y184961
X99606Y166142
X101929Y187047
X101890Y199843
X102008Y182598
Y184961
X105039Y199843
X105079Y187047
X105157Y182598
Y184961
X109449Y166142
X114567Y178740
X120472
R08X5906
X181299Y182219
X183087Y184039
X224685Y183189
R02Y2756
Y193425
X224724Y196142
Y198898
X202126Y214488
X199370
X196614
X190315
R02X-2756
X105039Y204331
X105000Y202047
X103031Y213031
X101890Y215630
Y204331
X101850Y202047
X101339Y218740
X100276Y212992
X99252Y216417
X98740Y204331
X98701Y202047
X95669Y213386
X93701Y216142
X92913Y213386
X90945Y216142
X89764Y213386
X88189Y216142
X86614Y213386
X65748Y207047
X62205
X56850Y209488
X54094
X31890Y205118
X31102Y202559
X29134Y204921
X27953Y202559
X25984Y204921
T03
X3937Y24803
Y32677
X4094Y55630
X26772Y3937
X34646
R15X7874
X158094Y30445
Y34598
X160630Y3937
R03X7874
X186220Y47638
X187008Y37008
Y57480
X192126Y3937
X194094Y57480
X194488Y41732
X194882Y34252
X195157Y49094
X200000Y3937
X207874
X194094Y81102
R02Y-7874
X187008Y81102
R02Y-7874
X112047Y107283
X111969Y102953
X112007Y98497
R02Y-5118
X101693Y107165
X101653Y102080
X101614Y97631
Y92513
Y88261
X97480Y106102
X97322Y102080
X97283Y97631
Y92513
Y88261
X93228Y101969
X92952Y97631
Y92513
Y88261
X55512Y116535
X51819Y111846
X29921Y94252
X29843Y89961
X20984Y71220
X17362Y80276
X13819Y93898
X13504Y88583
X10630Y80118
X8661Y88583
X7795Y93858
X4016Y69370
X3898Y88858
X3937Y79921
X56732Y131693
X57087Y126378
X220079Y170079
Y175984
X225984Y152362
R04Y5906
X231496Y158268
X231890Y152362
X237402Y157874
Y164173
X237795Y152362
X243701
Y158268
R03Y5906
X249606Y152362
R04Y5906
Y205512
R04Y-5906
X243701Y205512
R04Y-5906
X236024Y205512
X230709Y227953
X214961
X215039Y214291
X212283Y220157
X207205Y214252
X207087Y227953
Y220079
X199213Y227953
Y220079
X191339Y227953
Y220079
X183465Y227953
Y220079
X175591Y227953
Y220079
X167717Y227953
Y220079
X159843Y227953
Y220079
X151969Y227953
Y220079
X144094Y227953
Y220079
X136220Y227953
Y220079
X128346Y227953
Y220079
X120472Y227953
Y220079
X112598Y227953
Y220079
X104724Y227953
Y220079
X96850Y227953
Y220079
X88976Y227953
Y220079
X81102Y227953
Y220079
X73228Y227953
R02X-7874
Y220079
X49606Y227953
Y220079
X42087Y219882
X41929Y212559
X41732Y227953
X26654Y212756
X25984Y227953
X16811Y204409
X16772Y200079
X12205Y193307
X4331Y201181
Y193307
T04
X248031Y27953
Y33465
T05
X175453Y141043
R05Y5000
X180453
R05Y-5000
T06
X128476Y14374
X138476
T07
X45433Y179094
Y200748
X10000
T08
X225984Y25197
X172008Y14488
X10000Y31161
R04Y10000
X43819Y124685
X10000Y179094
X175787Y188465
X225197Y209843
T09
X29432Y10606
R02X10000
T10
X240157Y88780
X240326Y128150
T11
X12598Y12598
X243307
X276374
X507083
Y219685
X276374
X243307
X12598
T12
X254926Y23609
R02Y3930
Y35399
Y39329
X264746Y23609
R02Y3930
Y35399
Y39329
X254926Y192955
R02Y3930
Y204745
Y208675
X264746Y192955
R02Y3930
Y204745
Y208675
T13
X276693Y33307
X276055Y198976
M30
