G04 ================== begin FILE IDENTIFICATION RECORD ==================*
G04 Layout Name:  REF_WLC_TX15W_C1-MP A11 15W POWER TRANSMITTER REV04 31MAR2022.brd*
G04 Film Name:    SSM*
G04 File Format:  Gerber RS274X*
G04 File Origin:  Cadence Allegro 17.2-S071*
G04 Origin Date:  Thu Mar 31 11:57:37 2022*
G04 *
G04 Layer:  PIN/SOLDERMASK_BOTTOM*
G04 Layer:  PACKAGE GEOMETRY/SOLDERMASK_BOTTOM*
G04 Layer:  BOARD GEOMETRY/OUTLINE*
G04 Layer:  BOARD GEOMETRY/SOLDERMASK_BOTTOM*
G04 *
G04 Offset:    (0.0000 0.0000)*
G04 Mirror:    No*
G04 Mode:      Positive*
G04 Rotation:  0*
G04 FullContactRelief:  No*
G04 UndefLineWidth:     0.1270*
G04 ================== end FILE IDENTIFICATION RECORD ====================*
%FSLAX25Y25*MOIN*%
%IR0*IPPOS*OFA0.00000B0.00000*MIA0B0*SFA1.00000B1.00000*%
%ADD21C,.024*%
%ADD20O,.181102X.165354*%
%ADD19C,.03937*%
%ADD22C,.11811*%
%ADD15O,.086677X.047307*%
%ADD10C,.153543*%
%ADD12C,.065*%
%ADD14C,.067*%
%ADD13O,.147732X.049307*%
%ADD18R,.06X.06*%
%ADD17C,.064*%
%ADD16C,.046*%
%ADD11R,.065X.065*%
%ADD23C,.012*%
%ADD24C,.005*%
G75*
%LPD*%
G75*
G36*
G01X12969Y200748D02*
G03I-2969J0D01*
G37*
G36*
G01X48402Y179094D02*
G03I-2969J0D01*
G37*
G36*
G01Y200748D02*
G03I-2969J0D01*
G37*
G36*
G01X90157Y101142D02*
Y87953D01*
X91969Y86142D01*
X102402D01*
X103425Y87165D01*
Y107598D01*
X102244Y108780D01*
X97795D01*
X90157Y101142D01*
G37*
G36*
G01X110433Y108465D02*
Y87205D01*
X111811Y85827D01*
X115512D01*
X116929Y87244D01*
Y107874D01*
X114567Y110236D01*
X112205D01*
X110433Y108465D01*
G37*
G36*
G01X105669Y188228D02*
X98189D01*
X97638Y187677D01*
Y181969D01*
X98189Y181417D01*
X105669D01*
X106181Y181929D01*
Y187717D01*
X105669Y188228D01*
G37*
G36*
G01X105709Y205394D02*
X98031D01*
X97520Y204882D01*
Y199213D01*
X98071Y198661D01*
X105748D01*
X106142Y199055D01*
Y204961D01*
X105709Y205394D01*
G37*
G36*
G01X187008Y100591D02*
Y93150D01*
X187559Y92598D01*
X193583D01*
X193976Y92992D01*
Y99134D01*
X191929Y101181D01*
X187598D01*
X187008Y100591D01*
G37*
G36*
G01X186969Y134724D02*
Y127992D01*
X187795Y127165D01*
X193346D01*
X194291Y128110D01*
Y134803D01*
X193504Y135591D01*
X187835D01*
X186969Y134724D01*
G37*
G36*
G01X203819Y100197D02*
Y93307D01*
X204882Y92244D01*
X210512D01*
X211457Y93189D01*
Y100354D01*
X210630Y101181D01*
X204803D01*
X203819Y100197D01*
G37*
G36*
G01X202146Y135020D02*
Y128130D01*
X203386Y126890D01*
X213071D01*
X214390Y128209D01*
Y134744D01*
X213346Y135787D01*
X202913D01*
X202146Y135020D01*
G37*
G54D10*
X12598Y12598D03*
Y219685D03*
X243307Y12598D03*
Y219685D03*
X276374Y12598D03*
Y219685D03*
X507083Y12598D03*
Y219685D03*
G54D11*
X10000Y31161D03*
G54D20*
X240157Y88780D03*
X240326Y128150D03*
G54D12*
X10000Y51161D03*
Y41161D03*
Y61161D03*
Y71161D03*
Y179094D03*
X43819Y124685D03*
X172008Y14488D03*
X175787Y188465D03*
X225984Y25197D03*
X225197Y209843D03*
G54D21*
X254926Y23609D03*
Y27539D03*
Y31469D03*
Y35399D03*
Y39329D03*
Y196885D03*
Y192955D03*
Y208675D03*
Y204745D03*
Y200815D03*
X264746Y35399D03*
Y31469D03*
Y27539D03*
Y23609D03*
Y39329D03*
Y192955D03*
Y196885D03*
Y200815D03*
Y204745D03*
Y208675D03*
G54D13*
X9016Y102283D03*
Y138661D03*
G54D22*
X276693Y33307D03*
X276055Y198976D03*
G54D23*
G01X433172Y-30597D02*
X432297Y-29430D01*
X431547Y-28764D01*
X430547Y-28431D01*
X429672Y-28764D01*
X429047Y-29430D01*
X428547Y-30430D01*
X428422Y-31597D01*
X428547Y-32597D01*
X429047Y-33597D01*
X429797Y-34431D01*
X430672Y-34764D01*
X431672Y-34431D01*
X432547Y-33431D01*
X433047Y-31930D01*
X433172Y-30264D01*
X432922Y-28097D01*
X432547Y-26930D01*
X431922Y-25764D01*
X431047Y-24930D01*
X430172Y-24764D01*
X429297Y-25097D01*
X428672Y-25930D01*
G01X420797Y-24764D02*
X421797Y-25097D01*
X422547Y-25930D01*
X423047Y-26930D01*
X423422Y-28264D01*
X423547Y-29764D01*
X423422Y-31264D01*
X423047Y-32597D01*
X422547Y-33597D01*
X421797Y-34431D01*
X420797Y-34764D01*
X419797Y-34431D01*
X419047Y-33597D01*
X418547Y-32597D01*
X418172Y-31264D01*
X418047Y-29764D01*
X418172Y-28264D01*
X418547Y-26930D01*
X419047Y-25930D01*
X419797Y-25097D01*
X420797Y-24764D01*
G01X410797D02*
X411797Y-25097D01*
X412547Y-25930D01*
X413047Y-26930D01*
X413422Y-28264D01*
X413547Y-29764D01*
X413422Y-31264D01*
X413047Y-32597D01*
X412547Y-33597D01*
X411797Y-34431D01*
X410797Y-34764D01*
X409797Y-34431D01*
X409047Y-33597D01*
X408547Y-32597D01*
X408172Y-31264D01*
X408047Y-29764D01*
X408172Y-28264D01*
X408547Y-26930D01*
X409047Y-25930D01*
X409797Y-25097D01*
X410797Y-24764D01*
G01X402422Y-31431D02*
X399172D01*
G01X393172Y-30597D02*
X392297Y-29430D01*
X391547Y-28764D01*
X390547Y-28431D01*
X389672Y-28764D01*
X389047Y-29430D01*
X388547Y-30430D01*
X388422Y-31597D01*
X388547Y-32597D01*
X389047Y-33597D01*
X389797Y-34431D01*
X390672Y-34764D01*
X391672Y-34431D01*
X392547Y-33431D01*
X393047Y-31930D01*
X393172Y-30264D01*
X392922Y-28097D01*
X392547Y-26930D01*
X391922Y-25764D01*
X391047Y-24930D01*
X390172Y-24764D01*
X389297Y-25097D01*
X388672Y-25930D01*
G01X380797Y-24764D02*
X381797Y-25097D01*
X382547Y-25930D01*
X383047Y-26930D01*
X383422Y-28264D01*
X383547Y-29764D01*
X383422Y-31264D01*
X383047Y-32597D01*
X382547Y-33597D01*
X381797Y-34431D01*
X380797Y-34764D01*
X379797Y-34431D01*
X379047Y-33597D01*
X378547Y-32597D01*
X378172Y-31264D01*
X378047Y-29764D01*
X378172Y-28264D01*
X378547Y-26930D01*
X379047Y-25930D01*
X379797Y-25097D01*
X380797Y-24764D01*
G01X373172Y-30597D02*
X372297Y-29430D01*
X371547Y-28764D01*
X370547Y-28431D01*
X369672Y-28764D01*
X369047Y-29430D01*
X368547Y-30430D01*
X368422Y-31597D01*
X368547Y-32597D01*
X369047Y-33597D01*
X369797Y-34431D01*
X370672Y-34764D01*
X371672Y-34431D01*
X372547Y-33431D01*
X373047Y-31930D01*
X373172Y-30264D01*
X372922Y-28097D01*
X372547Y-26930D01*
X371922Y-25764D01*
X371047Y-24930D01*
X370172Y-24764D01*
X369297Y-25097D01*
X368672Y-25930D01*
G01X363172Y-26430D02*
X362422Y-25431D01*
X361547Y-24930D01*
X360547Y-24764D01*
X359297Y-25097D01*
X358422Y-25930D01*
X358172Y-26930D01*
X358297Y-27931D01*
X358797Y-28764D01*
X361297Y-30430D01*
X362422Y-31597D01*
X363172Y-33264D01*
X363422Y-34764D01*
X358172D01*
G01X350797D02*
X349922Y-34597D01*
X348922Y-34097D01*
X348297Y-33264D01*
X348047Y-32097D01*
X348297Y-30931D01*
X349047Y-29931D01*
X350172Y-29430D01*
X351422D01*
X352172Y-29097D01*
X352797Y-28264D01*
X353047Y-27097D01*
X352672Y-25930D01*
X351797Y-25097D01*
X350797Y-24764D01*
X349797Y-25097D01*
X348922Y-25930D01*
X348547Y-27097D01*
X348797Y-28264D01*
X349422Y-29097D01*
X350172Y-29430D01*
X351422D01*
X352547Y-29931D01*
X353297Y-30931D01*
X353547Y-32097D01*
X353297Y-33264D01*
X352672Y-34097D01*
X351672Y-34597D01*
X350797Y-34764D01*
G01X342422Y-31431D02*
X339172D01*
G01X330797Y-24764D02*
X331797Y-25097D01*
X332547Y-25930D01*
X333047Y-26930D01*
X333422Y-28264D01*
X333547Y-29764D01*
X333422Y-31264D01*
X333047Y-32597D01*
X332547Y-33597D01*
X331797Y-34431D01*
X330797Y-34764D01*
X329797Y-34431D01*
X329047Y-33597D01*
X328547Y-32597D01*
X328172Y-31264D01*
X328047Y-29764D01*
X328172Y-28264D01*
X328547Y-26930D01*
X329047Y-25930D01*
X329797Y-25097D01*
X330797Y-24764D01*
G01X320797Y-34764D02*
Y-24764D01*
X322297Y-26764D01*
G01Y-34764D02*
X319298D01*
G01X303297D02*
Y-24764D01*
X300172D01*
X299172Y-25264D01*
X298547Y-25930D01*
X298297Y-27264D01*
X298547Y-28597D01*
X299297Y-29430D01*
X300172Y-29931D01*
X303297D01*
G01X300172D02*
X298297Y-34764D01*
G01X288297D02*
X293297D01*
Y-24764D01*
X288297D01*
G01X290297Y-29597D02*
X293297D01*
G01X283922Y-24764D02*
X280797Y-34764D01*
X277672Y-24764D01*
G01X270797D02*
X271797Y-25097D01*
X272547Y-25930D01*
X273047Y-26930D01*
X273422Y-28264D01*
X273547Y-29764D01*
X273422Y-31264D01*
X273047Y-32597D01*
X272547Y-33597D01*
X271797Y-34431D01*
X270797Y-34764D01*
X269797Y-34431D01*
X269047Y-33597D01*
X268547Y-32597D01*
X268172Y-31264D01*
X268047Y-29764D01*
X268172Y-28264D01*
X268547Y-26930D01*
X269047Y-25930D01*
X269797Y-25097D01*
X270797Y-24764D01*
G01X259297Y-34764D02*
Y-24764D01*
X263922Y-31930D01*
X257672D01*
G01X243422Y-33431D02*
X242422Y-34264D01*
X241297Y-34764D01*
X240297D01*
X239297Y-34264D01*
X238547Y-33431D01*
X238172Y-32264D01*
X238422Y-31097D01*
X239047Y-30097D01*
X240172Y-29430D01*
X241672Y-29097D01*
X242547Y-28431D01*
X242922Y-27264D01*
X242672Y-26097D01*
X242047Y-25264D01*
X241172Y-24764D01*
X240297D01*
X239422Y-25097D01*
X238672Y-25930D01*
G01X228297Y-34764D02*
X233297D01*
Y-24764D01*
X228297D01*
G01X230297Y-29597D02*
X233297D01*
G01X218047Y-25597D02*
X218797Y-25097D01*
X219672Y-24764D01*
X220672D01*
X221797Y-25264D01*
X222672Y-26097D01*
X223297Y-27097D01*
X223797Y-28764D01*
X223922Y-30264D01*
X223672Y-31764D01*
X223297Y-32764D01*
X222547Y-33764D01*
X221672Y-34431D01*
X220797Y-34764D01*
X219922D01*
X219047Y-34431D01*
X218297Y-33931D01*
X217672Y-33264D01*
G01X210797Y-34764D02*
X211797Y-34597D01*
X212672Y-33931D01*
X213422Y-32931D01*
X213922Y-31764D01*
X214172Y-30430D01*
Y-29097D01*
X213922Y-27764D01*
X213422Y-26597D01*
X212672Y-25597D01*
X211797Y-24930D01*
X210797Y-24764D01*
X209797Y-24930D01*
X208922Y-25597D01*
X208172Y-26597D01*
X207672Y-27764D01*
X207422Y-29097D01*
Y-30430D01*
X207672Y-31764D01*
X208172Y-32931D01*
X208922Y-33931D01*
X209797Y-34597D01*
X210797Y-34764D01*
G01X203672D02*
Y-24764D01*
X197922Y-34764D01*
Y-24764D01*
G01X193547Y-34764D02*
Y-24764D01*
X191047D01*
X190047Y-25264D01*
X189297Y-25930D01*
X188672Y-26930D01*
X188172Y-28097D01*
X188047Y-29764D01*
X188172Y-31431D01*
X188672Y-32597D01*
X189297Y-33597D01*
X190047Y-34264D01*
X191047Y-34764D01*
X193547D01*
G01X183922D02*
X180797Y-24764D01*
X177672Y-34764D01*
G01X178797Y-31264D02*
X182797D01*
G01X173297Y-34764D02*
Y-24764D01*
X170172D01*
X169172Y-25264D01*
X168547Y-25930D01*
X168297Y-27264D01*
X168547Y-28597D01*
X169297Y-29430D01*
X170172Y-29931D01*
X173297D01*
G01X170172D02*
X168297Y-34764D01*
G01X160797D02*
Y-30264D01*
X163297Y-24764D01*
G01X158297D02*
X160797Y-30264D01*
G01X143422Y-33431D02*
X142422Y-34264D01*
X141297Y-34764D01*
X140297D01*
X139297Y-34264D01*
X138547Y-33431D01*
X138172Y-32264D01*
X138422Y-31097D01*
X139047Y-30097D01*
X140172Y-29430D01*
X141672Y-29097D01*
X142547Y-28431D01*
X142922Y-27264D01*
X142672Y-26097D01*
X142047Y-25264D01*
X141172Y-24764D01*
X140297D01*
X139422Y-25097D01*
X138672Y-25930D01*
G01X130797Y-34764D02*
X131797Y-34597D01*
X132672Y-33931D01*
X133422Y-32931D01*
X133922Y-31764D01*
X134172Y-30430D01*
Y-29097D01*
X133922Y-27764D01*
X133422Y-26597D01*
X132672Y-25597D01*
X131797Y-24930D01*
X130797Y-24764D01*
X129797Y-24930D01*
X128922Y-25597D01*
X128172Y-26597D01*
X127672Y-27764D01*
X127422Y-29097D01*
Y-30430D01*
X127672Y-31764D01*
X128172Y-32931D01*
X128922Y-33931D01*
X129797Y-34597D01*
X130797Y-34764D01*
G01X123297Y-24764D02*
Y-34764D01*
X118297D01*
G01X113547D02*
Y-24764D01*
X111047D01*
X110047Y-25264D01*
X109297Y-25930D01*
X108672Y-26930D01*
X108172Y-28097D01*
X108047Y-29764D01*
X108172Y-31431D01*
X108672Y-32597D01*
X109297Y-33597D01*
X110047Y-34264D01*
X111047Y-34764D01*
X113547D01*
G01X98297D02*
X103297D01*
Y-24764D01*
X98297D01*
G01X100297Y-29597D02*
X103297D01*
G01X93297Y-34764D02*
Y-24764D01*
X90172D01*
X89172Y-25264D01*
X88547Y-25930D01*
X88297Y-27264D01*
X88547Y-28597D01*
X89297Y-29430D01*
X90172Y-29931D01*
X93297D01*
G01X90172D02*
X88297Y-34764D01*
G01X74047D02*
Y-24764D01*
X70797Y-33097D01*
X67547Y-24764D01*
Y-34764D01*
G01X63922D02*
X60797Y-24764D01*
X57672Y-34764D01*
G01X58797Y-31264D02*
X62797D01*
G01X53422Y-33431D02*
X52422Y-34264D01*
X51297Y-34764D01*
X50297D01*
X49297Y-34264D01*
X48547Y-33431D01*
X48172Y-32264D01*
X48422Y-31097D01*
X49047Y-30097D01*
X50172Y-29430D01*
X51672Y-29097D01*
X52547Y-28431D01*
X52922Y-27264D01*
X52672Y-26097D01*
X52047Y-25264D01*
X51172Y-24764D01*
X50297D01*
X49422Y-25097D01*
X48672Y-25930D01*
G01X43547Y-34764D02*
Y-24764D01*
G01X38797D02*
X43547Y-30931D01*
G01X38047Y-34764D02*
X41422Y-28097D01*
G54D14*
X29432Y10606D03*
X39432D03*
X49432D03*
G54D24*
G01X263776Y214565D02*
Y232283D01*
X519681D01*
Y0D01*
X263776D01*
Y17719D01*
G03X259846Y21649I-3930J0D01*
G01X259835D01*
G03X255906Y17719I0J-3930D01*
G01Y0D01*
X0D01*
Y232283D01*
X255906D01*
Y214565D01*
G03X259835Y210635I3930J0D01*
G01X259846D01*
G03X263776Y214565I0J3930D01*
G01X250859Y182655D02*
X250869D01*
G01X259846Y21649D02*
X259835D01*
G01X255906Y45219D02*
G03X263776I3935J5D01*
G01Y73031D01*
X289933D01*
Y143898D01*
X263776D01*
Y187065D01*
G03X255906I-3935J-5D01*
G01Y45219D01*
G01X259846Y190995D02*
X259835D01*
G01Y210635D02*
X259846D01*
G54D15*
X30118Y103465D03*
Y137480D03*
G54D16*
X72205Y132795D03*
X79724Y131024D03*
X122047Y101181D03*
X135039Y125984D03*
X153543Y106693D03*
X140551Y131890D03*
X201575Y75591D03*
X209921Y150394D03*
X201299Y151654D03*
X223622Y140157D03*
G54D17*
X128476Y14374D03*
G54D18*
X138476D03*
G54D19*
X175453Y141043D03*
Y146043D03*
Y156043D03*
Y151043D03*
Y166043D03*
Y161043D03*
X180453Y141043D03*
Y146043D03*
Y156043D03*
Y151043D03*
Y166043D03*
Y161043D03*
X248031Y27953D03*
Y33465D03*
M02*
