G04 ================== begin FILE IDENTIFICATION RECORD ==================*
G04 Layout Name:  REF_WLC_TX15W_C1-MP A11 15W POWER TRANSMITTER REV04 31MAR2022.brd*
G04 Film Name:    SSP*
G04 File Format:  Gerber RS274X*
G04 File Origin:  Cadence Allegro 17.2-S071*
G04 Origin Date:  Thu Mar 31 11:57:37 2022*
G04 *
G04 Layer:  PIN/PASTEMASK_BOTTOM*
G04 Layer:  PACKAGE GEOMETRY/PASTEMASK_BOTTOM*
G04 Layer:  BOARD GEOMETRY/OUTLINE*
G04 Layer:  BOARD GEOMETRY/PASTEMASK_BOTTOM*
G04 *
G04 Offset:    (0.0000 0.0000)*
G04 Mirror:    No*
G04 Mode:      Positive*
G04 Rotation:  0*
G04 FullContactRelief:  No*
G04 UndefLineWidth:     0.1270*
G04 ================== end FILE IDENTIFICATION RECORD ====================*
%FSLAX25Y25*MOIN*%
%IR0*IPPOS*OFA0.00000B0.00000*MIA0B0*SFA1.00000B1.00000*%
%ADD10C,.012*%
%ADD11C,.005*%
G75*
%LPD*%
G75*
G54D10*
G01X434078Y-29534D02*
X433203Y-28367D01*
X432453Y-27701D01*
X431453Y-27368D01*
X430578Y-27701D01*
X429953Y-28367D01*
X429453Y-29367D01*
X429328Y-30534D01*
X429453Y-31534D01*
X429953Y-32534D01*
X430703Y-33368D01*
X431578Y-33701D01*
X432578Y-33368D01*
X433453Y-32368D01*
X433953Y-30867D01*
X434078Y-29201D01*
X433828Y-27034D01*
X433453Y-25867D01*
X432828Y-24701D01*
X431953Y-23867D01*
X431078Y-23701D01*
X430203Y-24034D01*
X429578Y-24867D01*
G01X421703Y-23701D02*
X422703Y-24034D01*
X423453Y-24867D01*
X423953Y-25867D01*
X424328Y-27201D01*
X424453Y-28701D01*
X424328Y-30201D01*
X423953Y-31534D01*
X423453Y-32534D01*
X422703Y-33368D01*
X421703Y-33701D01*
X420703Y-33368D01*
X419953Y-32534D01*
X419453Y-31534D01*
X419078Y-30201D01*
X418953Y-28701D01*
X419078Y-27201D01*
X419453Y-25867D01*
X419953Y-24867D01*
X420703Y-24034D01*
X421703Y-23701D01*
G01X411703D02*
X412703Y-24034D01*
X413453Y-24867D01*
X413953Y-25867D01*
X414328Y-27201D01*
X414453Y-28701D01*
X414328Y-30201D01*
X413953Y-31534D01*
X413453Y-32534D01*
X412703Y-33368D01*
X411703Y-33701D01*
X410703Y-33368D01*
X409953Y-32534D01*
X409453Y-31534D01*
X409078Y-30201D01*
X408953Y-28701D01*
X409078Y-27201D01*
X409453Y-25867D01*
X409953Y-24867D01*
X410703Y-24034D01*
X411703Y-23701D01*
G01X403328Y-30368D02*
X400078D01*
G01X394078Y-29534D02*
X393203Y-28367D01*
X392453Y-27701D01*
X391453Y-27368D01*
X390578Y-27701D01*
X389953Y-28367D01*
X389453Y-29367D01*
X389328Y-30534D01*
X389453Y-31534D01*
X389953Y-32534D01*
X390703Y-33368D01*
X391578Y-33701D01*
X392578Y-33368D01*
X393453Y-32368D01*
X393953Y-30867D01*
X394078Y-29201D01*
X393828Y-27034D01*
X393453Y-25867D01*
X392828Y-24701D01*
X391953Y-23867D01*
X391078Y-23701D01*
X390203Y-24034D01*
X389578Y-24867D01*
G01X381703Y-23701D02*
X382703Y-24034D01*
X383453Y-24867D01*
X383953Y-25867D01*
X384328Y-27201D01*
X384453Y-28701D01*
X384328Y-30201D01*
X383953Y-31534D01*
X383453Y-32534D01*
X382703Y-33368D01*
X381703Y-33701D01*
X380703Y-33368D01*
X379953Y-32534D01*
X379453Y-31534D01*
X379078Y-30201D01*
X378953Y-28701D01*
X379078Y-27201D01*
X379453Y-25867D01*
X379953Y-24867D01*
X380703Y-24034D01*
X381703Y-23701D01*
G01X374078Y-29534D02*
X373203Y-28367D01*
X372453Y-27701D01*
X371453Y-27368D01*
X370578Y-27701D01*
X369953Y-28367D01*
X369453Y-29367D01*
X369328Y-30534D01*
X369453Y-31534D01*
X369953Y-32534D01*
X370703Y-33368D01*
X371578Y-33701D01*
X372578Y-33368D01*
X373453Y-32368D01*
X373953Y-30867D01*
X374078Y-29201D01*
X373828Y-27034D01*
X373453Y-25867D01*
X372828Y-24701D01*
X371953Y-23867D01*
X371078Y-23701D01*
X370203Y-24034D01*
X369578Y-24867D01*
G01X364078Y-25367D02*
X363328Y-24368D01*
X362453Y-23867D01*
X361453Y-23701D01*
X360203Y-24034D01*
X359328Y-24867D01*
X359078Y-25867D01*
X359203Y-26868D01*
X359703Y-27701D01*
X362203Y-29367D01*
X363328Y-30534D01*
X364078Y-32201D01*
X364328Y-33701D01*
X359078D01*
G01X351703D02*
X350828Y-33534D01*
X349828Y-33034D01*
X349203Y-32201D01*
X348953Y-31034D01*
X349203Y-29868D01*
X349953Y-28868D01*
X351078Y-28367D01*
X352328D01*
X353078Y-28034D01*
X353703Y-27201D01*
X353953Y-26034D01*
X353578Y-24867D01*
X352703Y-24034D01*
X351703Y-23701D01*
X350703Y-24034D01*
X349828Y-24867D01*
X349453Y-26034D01*
X349703Y-27201D01*
X350328Y-28034D01*
X351078Y-28367D01*
X352328D01*
X353453Y-28868D01*
X354203Y-29868D01*
X354453Y-31034D01*
X354203Y-32201D01*
X353578Y-33034D01*
X352578Y-33534D01*
X351703Y-33701D01*
G01X343328Y-30368D02*
X340078D01*
G01X331703Y-23701D02*
X332703Y-24034D01*
X333453Y-24867D01*
X333953Y-25867D01*
X334328Y-27201D01*
X334453Y-28701D01*
X334328Y-30201D01*
X333953Y-31534D01*
X333453Y-32534D01*
X332703Y-33368D01*
X331703Y-33701D01*
X330703Y-33368D01*
X329953Y-32534D01*
X329453Y-31534D01*
X329078Y-30201D01*
X328953Y-28701D01*
X329078Y-27201D01*
X329453Y-25867D01*
X329953Y-24867D01*
X330703Y-24034D01*
X331703Y-23701D01*
G01X321703Y-33701D02*
Y-23701D01*
X323203Y-25701D01*
G01Y-33701D02*
X320203D01*
G01X304203D02*
Y-23701D01*
X301078D01*
X300078Y-24201D01*
X299453Y-24867D01*
X299203Y-26201D01*
X299453Y-27534D01*
X300203Y-28367D01*
X301078Y-28868D01*
X304203D01*
G01X301078D02*
X299203Y-33701D01*
G01X289203D02*
X294203D01*
Y-23701D01*
X289203D01*
G01X291203Y-28534D02*
X294203D01*
G01X284828Y-23701D02*
X281703Y-33701D01*
X278578Y-23701D01*
G01X271703D02*
X272703Y-24034D01*
X273453Y-24867D01*
X273953Y-25867D01*
X274328Y-27201D01*
X274453Y-28701D01*
X274328Y-30201D01*
X273953Y-31534D01*
X273453Y-32534D01*
X272703Y-33368D01*
X271703Y-33701D01*
X270703Y-33368D01*
X269953Y-32534D01*
X269453Y-31534D01*
X269078Y-30201D01*
X268953Y-28701D01*
X269078Y-27201D01*
X269453Y-25867D01*
X269953Y-24867D01*
X270703Y-24034D01*
X271703Y-23701D01*
G01X260203Y-33701D02*
Y-23701D01*
X264828Y-30867D01*
X258578D01*
G01X244328Y-32368D02*
X243328Y-33201D01*
X242203Y-33701D01*
X241203D01*
X240203Y-33201D01*
X239453Y-32368D01*
X239078Y-31201D01*
X239328Y-30034D01*
X239953Y-29034D01*
X241078Y-28367D01*
X242578Y-28034D01*
X243453Y-27368D01*
X243828Y-26201D01*
X243578Y-25034D01*
X242953Y-24201D01*
X242078Y-23701D01*
X241203D01*
X240328Y-24034D01*
X239578Y-24867D01*
G01X229203Y-33701D02*
X234203D01*
Y-23701D01*
X229203D01*
G01X231203Y-28534D02*
X234203D01*
G01X218953Y-24534D02*
X219703Y-24034D01*
X220578Y-23701D01*
X221578D01*
X222703Y-24201D01*
X223578Y-25034D01*
X224203Y-26034D01*
X224703Y-27701D01*
X224828Y-29201D01*
X224578Y-30701D01*
X224203Y-31701D01*
X223453Y-32701D01*
X222578Y-33368D01*
X221703Y-33701D01*
X220828D01*
X219953Y-33368D01*
X219203Y-32868D01*
X218578Y-32201D01*
G01X211703Y-33701D02*
X212703Y-33534D01*
X213578Y-32868D01*
X214328Y-31868D01*
X214828Y-30701D01*
X215078Y-29367D01*
Y-28034D01*
X214828Y-26701D01*
X214328Y-25534D01*
X213578Y-24534D01*
X212703Y-23867D01*
X211703Y-23701D01*
X210703Y-23867D01*
X209828Y-24534D01*
X209078Y-25534D01*
X208578Y-26701D01*
X208328Y-28034D01*
Y-29367D01*
X208578Y-30701D01*
X209078Y-31868D01*
X209828Y-32868D01*
X210703Y-33534D01*
X211703Y-33701D01*
G01X204578D02*
Y-23701D01*
X198828Y-33701D01*
Y-23701D01*
G01X194453Y-33701D02*
Y-23701D01*
X191953D01*
X190953Y-24201D01*
X190203Y-24867D01*
X189578Y-25867D01*
X189078Y-27034D01*
X188953Y-28701D01*
X189078Y-30368D01*
X189578Y-31534D01*
X190203Y-32534D01*
X190953Y-33201D01*
X191953Y-33701D01*
X194453D01*
G01X184828D02*
X181703Y-23701D01*
X178578Y-33701D01*
G01X179703Y-30201D02*
X183703D01*
G01X174203Y-33701D02*
Y-23701D01*
X171078D01*
X170078Y-24201D01*
X169453Y-24867D01*
X169203Y-26201D01*
X169453Y-27534D01*
X170203Y-28367D01*
X171078Y-28868D01*
X174203D01*
G01X171078D02*
X169203Y-33701D01*
G01X161703D02*
Y-29201D01*
X164203Y-23701D01*
G01X159203D02*
X161703Y-29201D01*
G01X144328Y-32368D02*
X143328Y-33201D01*
X142203Y-33701D01*
X141203D01*
X140203Y-33201D01*
X139453Y-32368D01*
X139078Y-31201D01*
X139328Y-30034D01*
X139953Y-29034D01*
X141078Y-28367D01*
X142578Y-28034D01*
X143453Y-27368D01*
X143828Y-26201D01*
X143578Y-25034D01*
X142953Y-24201D01*
X142078Y-23701D01*
X141203D01*
X140328Y-24034D01*
X139578Y-24867D01*
G01X131703Y-33701D02*
X132703Y-33534D01*
X133578Y-32868D01*
X134328Y-31868D01*
X134828Y-30701D01*
X135078Y-29367D01*
Y-28034D01*
X134828Y-26701D01*
X134328Y-25534D01*
X133578Y-24534D01*
X132703Y-23867D01*
X131703Y-23701D01*
X130703Y-23867D01*
X129828Y-24534D01*
X129078Y-25534D01*
X128578Y-26701D01*
X128328Y-28034D01*
Y-29367D01*
X128578Y-30701D01*
X129078Y-31868D01*
X129828Y-32868D01*
X130703Y-33534D01*
X131703Y-33701D01*
G01X124203Y-23701D02*
Y-33701D01*
X119203D01*
G01X114453D02*
Y-23701D01*
X111953D01*
X110953Y-24201D01*
X110203Y-24867D01*
X109578Y-25867D01*
X109078Y-27034D01*
X108953Y-28701D01*
X109078Y-30368D01*
X109578Y-31534D01*
X110203Y-32534D01*
X110953Y-33201D01*
X111953Y-33701D01*
X114453D01*
G01X99203D02*
X104203D01*
Y-23701D01*
X99203D01*
G01X101203Y-28534D02*
X104203D01*
G01X94203Y-33701D02*
Y-23701D01*
X91078D01*
X90078Y-24201D01*
X89453Y-24867D01*
X89203Y-26201D01*
X89453Y-27534D01*
X90203Y-28367D01*
X91078Y-28868D01*
X94203D01*
G01X91078D02*
X89203Y-33701D01*
G01X84203D02*
Y-23701D01*
X81203D01*
X80203Y-24201D01*
X79453Y-25367D01*
X79203Y-26701D01*
X79453Y-28034D01*
X80078Y-29034D01*
X81203Y-29534D01*
X84203D01*
G01X74828Y-33701D02*
X71703Y-23701D01*
X68578Y-33701D01*
G01X69703Y-30201D02*
X73703D01*
G01X64328Y-32368D02*
X63328Y-33201D01*
X62203Y-33701D01*
X61203D01*
X60203Y-33201D01*
X59453Y-32368D01*
X59078Y-31201D01*
X59328Y-30034D01*
X59953Y-29034D01*
X61078Y-28367D01*
X62578Y-28034D01*
X63453Y-27368D01*
X63828Y-26201D01*
X63578Y-25034D01*
X62953Y-24201D01*
X62078Y-23701D01*
X61203D01*
X60328Y-24034D01*
X59578Y-24867D01*
G01X51703Y-23701D02*
Y-33701D01*
G01X54578Y-23701D02*
X48828D01*
G01X39203Y-33701D02*
X44203D01*
Y-23701D01*
X39203D01*
G01X41203Y-28534D02*
X44203D01*
G54D11*
G01X263776Y214565D02*
Y232283D01*
X519681D01*
Y0D01*
X263776D01*
Y17719D01*
G03X259846Y21649I-3930J0D01*
G01X259835D01*
G03X255906Y17719I0J-3930D01*
G01Y0D01*
X0D01*
Y232283D01*
X255906D01*
Y214565D01*
G03X259835Y210635I3930J0D01*
G01X259846D01*
G03X263776Y214565I0J3930D01*
G01X250859Y182655D02*
X250869D01*
G01X259846Y21649D02*
X259835D01*
G01X255906Y45219D02*
G03X263776I3935J5D01*
G01Y73031D01*
X289933D01*
Y143898D01*
X263776D01*
Y187065D01*
G03X255906I-3935J-5D01*
G01Y45219D01*
G01X259846Y190995D02*
X259835D01*
G01Y210635D02*
X259846D01*
M02*
