M48
; DRILL file KiCad 10.0.0 date 2026-07-21T19:03:10
; FORMAT={-:-/ absolute / metric / decimal}
; #@! TF.CreationDate,2026-07-21T19:03:10+10:00
; #@! TF.GenerationSoftware,Kicad,Pcbnew,10.0.0
; #@! TF.FileFunction,Plated,1,2,PTH
FMAT,2
METRIC
; #@! TA.AperFunction,Plated,PTH,ViaDrill
T1C0.300
; #@! TA.AperFunction,Plated,PTH,ComponentDrill
T2C1.000
; #@! TA.AperFunction,Plated,PTH,ComponentDrill
T3C1.150
; #@! TA.AperFunction,Plated,PTH,ComponentDrill
T4C1.300
; #@! TA.AperFunction,Plated,PTH,ComponentDrill
T5C3.200
%
G90
G05
T1
X42.5Y-45.0
X42.5Y-60.0
X43.86Y-69.73
X43.86Y-81.13
X43.86Y-82.93
X45.0Y-47.5
X45.0Y-55.0
X45.0Y-57.5
X45.0Y-62.5
X45.71Y-91.63
X46.0Y-76.0
X46.559Y-77.8
X47.0Y-79.2
X47.5Y-40.0
X47.5Y-45.0
X47.5Y-55.0
X47.5Y-57.5
X47.5Y-60.0
X47.5Y-65.0
X48.0Y-87.0
X48.0Y-88.5
X48.628Y-90.427
X48.8Y-80.198
X49.36Y-76.83
X49.5Y-87.0
X49.5Y-88.5
X50.0Y-42.5
X50.0Y-47.5
X50.0Y-52.5
X50.0Y-55.0
X50.0Y-57.5
X50.0Y-62.5
X50.0Y-67.5
X50.0Y-100.0
X50.914Y-91.062
X51.0Y-87.0
X51.0Y-88.5
X52.17Y-72.886
X52.5Y-40.0
X52.5Y-55.0
X52.5Y-60.0
X52.5Y-65.0
X53.36Y-71.43
X53.56Y-75.93
X54.21Y-75.08
X54.21Y-76.83
X54.218Y-81.0
X55.0Y-42.5
X55.0Y-100.0
X55.26Y-68.83
X55.76Y-73.305
X55.8Y-80.612
X55.96Y-92.63
X56.41Y-67.33
X56.5Y-79.0
X56.76Y-87.63
X57.5Y-40.0
X57.81Y-53.23
X57.81Y-54.08
X58.0Y-77.5
X58.026Y-70.107
X59.042Y-68.71
X59.523Y-67.231
X60.0Y-42.5
X60.0Y-100.0
X60.125Y-66.629
X60.312Y-62.317
X60.36Y-92.78
X60.46Y-75.93
X60.46Y-96.83
X60.462Y-74.665
X61.201Y-44.58
X61.201Y-49.279
X61.455Y-80.521
X61.639Y-73.395
X61.66Y-75.93
X61.662Y-74.665
X61.836Y-84.458
X62.5Y-40.0
X62.5Y-55.0
X62.989Y-73.395
X62.991Y-72.13
X63.01Y-75.93
X63.012Y-74.665
X63.16Y-48.23
X63.181Y-68.13
X63.459Y-86.473
X63.66Y-67.33
X63.71Y-92.33
X63.741Y-83.579
X63.868Y-60.328
X64.331Y-82.553
X64.339Y-73.395
X64.341Y-72.13
X64.36Y-70.83
X64.36Y-75.93
X64.362Y-74.665
X64.436Y-80.146
X64.63Y-44.834
X65.0Y-52.5
X65.0Y-100.0
X65.539Y-73.395
X65.541Y-72.13
X65.56Y-70.83
X65.56Y-75.93
X65.562Y-74.665
X65.76Y-58.38
X65.76Y-60.08
X65.87Y-67.93
X66.006Y-79.34
X66.31Y-87.83
X66.36Y-67.43
X67.173Y-69.094
X67.46Y-78.83
X67.5Y-40.0
X67.5Y-55.0
X67.551Y-80.775
X67.689Y-61.559
X67.805Y-83.315
X68.059Y-69.98
X68.51Y-79.33
X69.959Y-70.742
X69.96Y-71.53
X69.964Y-72.774
X70.0Y-42.5
X70.0Y-52.5
X70.0Y-57.5
X70.0Y-95.0
X70.0Y-100.4
X70.36Y-82.73
X70.86Y-90.03
X71.66Y-86.38
X72.359Y-97.431
X72.5Y-40.0
X72.5Y-45.0
X72.5Y-50.0
X72.5Y-55.0
X72.5Y-92.5
X72.91Y-73.68
X73.46Y-79.93
X73.61Y-76.13
X73.96Y-66.13
X74.5Y-86.75
X74.663Y-79.124
X75.0Y-42.5
X75.0Y-90.0
X75.0Y-95.0
X75.0Y-100.0
X75.01Y-73.48
X76.75Y-90.5
X77.359Y-97.431
X77.5Y-40.0
X77.5Y-57.5
X77.51Y-91.93
X78.36Y-51.83
X78.6Y-75.06
X79.81Y-86.68
X79.86Y-74.13
X80.0Y-42.5
X80.0Y-95.0
X80.0Y-100.0
X80.61Y-74.88
X82.31Y-79.23
X82.359Y-97.431
X82.5Y-40.0
X82.5Y-57.5
X84.66Y-71.23
X85.0Y-42.5
X85.0Y-95.0
X85.0Y-100.0
X85.965Y-55.426
X85.966Y-54.232
X87.359Y-97.431
X87.5Y-40.0
X87.617Y-62.855
X87.617Y-76.965
X87.617Y-79.124
X87.617Y-81.283
X87.617Y-83.569
X87.998Y-66.297
X88.26Y-71.73
X89.014Y-89.03
X89.268Y-66.932
X89.268Y-75.822
X89.268Y-77.981
X89.268Y-80.267
X89.268Y-82.426
X89.268Y-84.585
X90.0Y-42.5
X90.0Y-100.0
X90.538Y-66.297
X90.665Y-83.569
X90.665Y-85.728
X90.665Y-87.887
X92.039Y-63.605
X92.359Y-97.431
X92.36Y-71.83
X92.5Y-40.0
X92.5Y-45.0
X92.5Y-55.0
X92.5Y-60.0
X95.0Y-42.5
X95.0Y-52.5
X95.0Y-57.5
X95.0Y-100.0
X95.745Y-78.87
X95.745Y-81.029
X97.396Y-79.886
X97.396Y-82.172
X97.396Y-84.585
X97.396Y-86.744
X97.396Y-89.03
X97.396Y-91.189
X97.396Y-93.348
X97.5Y-45.0
X97.5Y-50.0
X97.5Y-55.0
X97.5Y-60.0
X99.174Y-83.442
X99.174Y-85.728
X99.174Y-87.887
X99.174Y-90.046
X99.174Y-92.332
X100.0Y-47.5
X100.0Y-52.5
X100.0Y-57.5
X100.825Y-84.585
X100.825Y-86.744
X100.825Y-89.03
X100.825Y-91.189
X102.476Y-83.442
X102.476Y-85.728
X102.476Y-87.887
X102.476Y-90.046
X102.5Y-45.0
X102.5Y-50.0
X102.5Y-55.0
X102.5Y-60.0
T2
X41.495Y-63.405
X41.516Y-67.059
X41.516Y-69.599
X41.583Y-73.414
X41.583Y-75.954
X41.583Y-80.267
X41.583Y-82.807
X41.583Y-85.347
X41.583Y-87.887
X41.583Y-90.427
T3
X41.515Y-51.359
X41.515Y-56.159
T4
X100.617Y-74.557
X100.617Y-79.637
T5
X41.953Y-98.942
X42.0Y-41.0
X100.0Y-41.0
X100.0Y-99.034
M30
