%TF.GenerationSoftware,KiCad,Pcbnew,10.0.0*%
%TF.CreationDate,2026-07-21T18:02:03+10:00*%
%TF.ProjectId,project,70726f6a-6563-4742-9e6b-696361645f70,rev?*%
%TF.SameCoordinates,Original*%
%TF.FileFunction,Paste,Top*%
%TF.FilePolarity,Positive*%
%FSLAX46Y46*%
G04 Gerber Fmt 4.6, Leading zero omitted, Abs format (unit mm)*
G04 Created by KiCad (PCBNEW 10.0.0) date 2026-07-21 18:02:03*
%MOMM*%
%LPD*%
G01*
G04 APERTURE LIST*
G04 Aperture macros list*
%AMRoundRect*
0 Rectangle with rounded corners*
0 $1 Rounding radius*
0 $2 $3 $4 $5 $6 $7 $8 $9 X,Y pos of 4 corners*
0 Add a 4 corners polygon primitive as box body*
4,1,4,$2,$3,$4,$5,$6,$7,$8,$9,$2,$3,0*
0 Add four circle primitives for the rounded corners*
1,1,$1+$1,$2,$3*
1,1,$1+$1,$4,$5*
1,1,$1+$1,$6,$7*
1,1,$1+$1,$8,$9*
0 Add four rect primitives between the rounded corners*
20,1,$1+$1,$2,$3,$4,$5,0*
20,1,$1+$1,$4,$5,$6,$7,0*
20,1,$1+$1,$6,$7,$8,$9,0*
20,1,$1+$1,$8,$9,$2,$3,0*%
G04 Aperture macros list end*
%ADD10C,0.000000*%
%ADD11RoundRect,0.160000X-0.160000X0.197500X-0.160000X-0.197500X0.160000X-0.197500X0.160000X0.197500X0*%
%ADD12RoundRect,0.155000X0.155000X-0.212500X0.155000X0.212500X-0.155000X0.212500X-0.155000X-0.212500X0*%
%ADD13R,1.333500X0.431800*%
%ADD14RoundRect,0.237500X-0.250000X-0.237500X0.250000X-0.237500X0.250000X0.237500X-0.250000X0.237500X0*%
%ADD15RoundRect,0.155000X-0.155000X0.212500X-0.155000X-0.212500X0.155000X-0.212500X0.155000X0.212500X0*%
%ADD16RoundRect,0.237500X-0.237500X0.250000X-0.237500X-0.250000X0.237500X-0.250000X0.237500X0.250000X0*%
%ADD17RoundRect,0.155000X-0.212500X-0.155000X0.212500X-0.155000X0.212500X0.155000X-0.212500X0.155000X0*%
%ADD18RoundRect,0.250000X-0.412500X-0.650000X0.412500X-0.650000X0.412500X0.650000X-0.412500X0.650000X0*%
%ADD19RoundRect,0.237500X0.237500X-0.300000X0.237500X0.300000X-0.237500X0.300000X-0.237500X-0.300000X0*%
%ADD20RoundRect,0.237500X-0.300000X-0.237500X0.300000X-0.237500X0.300000X0.237500X-0.300000X0.237500X0*%
%ADD21RoundRect,0.237500X0.237500X-0.250000X0.237500X0.250000X-0.237500X0.250000X-0.237500X-0.250000X0*%
%ADD22RoundRect,0.237500X-0.237500X0.300000X-0.237500X-0.300000X0.237500X-0.300000X0.237500X0.300000X0*%
%ADD23RoundRect,0.160000X-0.197500X-0.160000X0.197500X-0.160000X0.197500X0.160000X-0.197500X0.160000X0*%
%ADD24RoundRect,0.237500X0.250000X0.237500X-0.250000X0.237500X-0.250000X-0.237500X0.250000X-0.237500X0*%
%ADD25RoundRect,0.150000X0.150000X0.200000X-0.150000X0.200000X-0.150000X-0.200000X0.150000X-0.200000X0*%
%ADD26RoundRect,0.250000X0.475000X-0.337500X0.475000X0.337500X-0.475000X0.337500X-0.475000X-0.337500X0*%
%ADD27RoundRect,0.250000X0.650000X-0.412500X0.650000X0.412500X-0.650000X0.412500X-0.650000X-0.412500X0*%
%ADD28R,0.757199X0.254800*%
%ADD29R,1.803400X2.590800*%
%ADD30RoundRect,0.237500X0.300000X0.237500X-0.300000X0.237500X-0.300000X-0.237500X0.300000X-0.237500X0*%
%ADD31RoundRect,0.250000X-0.625000X0.400000X-0.625000X-0.400000X0.625000X-0.400000X0.625000X0.400000X0*%
%ADD32R,0.550000X0.420000*%
%ADD33R,0.500000X0.750000*%
%ADD34RoundRect,0.150000X-0.150000X-0.200000X0.150000X-0.200000X0.150000X0.200000X-0.150000X0.200000X0*%
%ADD35R,4.100000X3.500000*%
%ADD36RoundRect,0.250000X-0.337500X-0.475000X0.337500X-0.475000X0.337500X0.475000X-0.337500X0.475000X0*%
%ADD37RoundRect,0.090000X0.139000X0.090000X-0.139000X0.090000X-0.139000X-0.090000X0.139000X-0.090000X0*%
%ADD38R,0.807999X0.204000*%
%ADD39R,0.204000X0.807999*%
%ADD40R,5.791200X5.791200*%
%ADD41R,1.050000X0.700000*%
%ADD42RoundRect,0.160000X0.197500X0.160000X-0.197500X0.160000X-0.197500X-0.160000X0.197500X-0.160000X0*%
%ADD43RoundRect,0.150000X-0.587500X-0.150000X0.587500X-0.150000X0.587500X0.150000X-0.587500X0.150000X0*%
%ADD44RoundRect,0.250000X-0.400000X-0.625000X0.400000X-0.625000X0.400000X0.625000X-0.400000X0.625000X0*%
%ADD45R,0.750000X1.050000*%
G04 APERTURE END LIST*
D10*
%TO.C,Q3*%
G36*
X62018420Y-44076740D02*
G01*
X62028520Y-44079450D01*
X62038000Y-44083870D01*
X62046570Y-44089870D01*
X62053970Y-44097270D01*
X62059960Y-44105830D01*
X62064380Y-44115310D01*
X62067090Y-44125410D01*
X62068000Y-44135830D01*
X62068000Y-44715830D01*
X62067090Y-44726250D01*
X62064380Y-44736350D01*
X62059960Y-44745830D01*
X62053970Y-44754400D01*
X62046570Y-44761800D01*
X62038000Y-44767790D01*
X62028520Y-44772210D01*
X62018420Y-44774920D01*
X62008000Y-44775830D01*
X61888000Y-44775830D01*
X61877580Y-44774920D01*
X61867480Y-44772210D01*
X61858000Y-44767790D01*
X61849440Y-44761800D01*
X61842040Y-44754400D01*
X61836040Y-44745830D01*
X61831620Y-44736350D01*
X61828910Y-44726250D01*
X61828000Y-44715830D01*
X61828000Y-44135830D01*
X61828910Y-44125410D01*
X61831620Y-44115310D01*
X61836040Y-44105830D01*
X61842040Y-44097270D01*
X61849440Y-44089870D01*
X61858000Y-44083870D01*
X61867480Y-44079450D01*
X61877580Y-44076740D01*
X61888000Y-44075830D01*
X62008000Y-44075830D01*
X62018420Y-44076740D01*
G37*
G36*
X62018420Y-47176670D02*
G01*
X62028520Y-47179380D01*
X62038000Y-47183800D01*
X62046570Y-47189790D01*
X62053970Y-47197190D01*
X62059960Y-47205760D01*
X62064380Y-47215240D01*
X62067090Y-47225340D01*
X62068000Y-47235760D01*
X62068000Y-47715760D01*
X62067090Y-47726170D01*
X62064380Y-47736280D01*
X62059960Y-47745760D01*
X62053970Y-47754320D01*
X62046570Y-47761720D01*
X62038000Y-47767720D01*
X62028520Y-47772140D01*
X62018420Y-47774840D01*
X62008000Y-47775760D01*
X61888000Y-47775760D01*
X61877580Y-47774840D01*
X61867480Y-47772140D01*
X61858000Y-47767720D01*
X61849440Y-47761720D01*
X61842040Y-47754320D01*
X61836040Y-47745760D01*
X61831620Y-47736280D01*
X61828910Y-47726170D01*
X61828000Y-47715760D01*
X61828000Y-47235760D01*
X61828910Y-47225340D01*
X61831620Y-47215240D01*
X61836040Y-47205760D01*
X61842040Y-47197190D01*
X61849440Y-47189790D01*
X61858000Y-47183800D01*
X61867480Y-47179380D01*
X61877580Y-47176670D01*
X61888000Y-47175760D01*
X62008000Y-47175760D01*
X62018420Y-47176670D01*
G37*
G36*
X62018420Y-45576750D02*
G01*
X62028520Y-45579460D01*
X62038000Y-45583880D01*
X62046570Y-45589870D01*
X62053970Y-45597270D01*
X62059960Y-45605840D01*
X62064380Y-45615320D01*
X62067090Y-45625420D01*
X62068000Y-45635840D01*
X62068000Y-46915840D01*
X62067090Y-46926250D01*
X62064380Y-46936360D01*
X62059960Y-46945840D01*
X62053970Y-46954400D01*
X62046570Y-46961800D01*
X62038000Y-46967800D01*
X62028520Y-46972220D01*
X62018420Y-46974920D01*
X62008000Y-46975840D01*
X61888000Y-46975840D01*
X61877580Y-46974920D01*
X61867480Y-46972220D01*
X61858000Y-46967800D01*
X61849440Y-46961800D01*
X61842040Y-46954400D01*
X61836040Y-46945840D01*
X61831620Y-46936360D01*
X61828910Y-46926250D01*
X61828000Y-46915840D01*
X61828000Y-45635840D01*
X61828910Y-45625420D01*
X61831620Y-45615320D01*
X61836040Y-45605840D01*
X61842040Y-45597270D01*
X61849440Y-45589870D01*
X61858000Y-45583880D01*
X61867480Y-45579460D01*
X61877580Y-45576750D01*
X61888000Y-45575840D01*
X62008000Y-45575840D01*
X62018420Y-45576750D01*
G37*
G36*
X63418420Y-45576750D02*
G01*
X63428520Y-45579450D01*
X63438000Y-45583870D01*
X63446570Y-45589870D01*
X63453970Y-45597270D01*
X63459960Y-45605830D01*
X63464380Y-45615310D01*
X63467090Y-45625420D01*
X63468000Y-45635830D01*
X63468000Y-46915840D01*
X63467090Y-46926260D01*
X63464380Y-46936360D01*
X63459960Y-46945840D01*
X63453970Y-46954410D01*
X63446570Y-46961800D01*
X63438000Y-46967800D01*
X63428520Y-46972220D01*
X63418420Y-46974930D01*
X63408000Y-46975840D01*
X62438000Y-46975840D01*
X62427580Y-46974930D01*
X62417480Y-46972220D01*
X62408000Y-46967800D01*
X62399430Y-46961800D01*
X62392040Y-46954410D01*
X62386040Y-46945840D01*
X62381620Y-46936360D01*
X62378910Y-46926260D01*
X62378000Y-46915840D01*
X62378000Y-45635830D01*
X62378910Y-45625420D01*
X62381620Y-45615310D01*
X62386040Y-45605830D01*
X62392040Y-45597270D01*
X62399430Y-45589870D01*
X62408000Y-45583870D01*
X62417480Y-45579450D01*
X62427580Y-45576750D01*
X62438000Y-45575830D01*
X63408000Y-45575830D01*
X63418420Y-45576750D01*
G37*
G36*
X62668420Y-44081760D02*
G01*
X62678520Y-44084470D01*
X62688000Y-44088890D01*
X62696570Y-44094890D01*
X62703970Y-44102280D01*
X62709960Y-44110850D01*
X62714380Y-44120330D01*
X62717090Y-44130430D01*
X62718000Y-44140850D01*
X62718000Y-44320850D01*
X62717090Y-44331270D01*
X62714380Y-44341370D01*
X62709960Y-44350850D01*
X62703970Y-44359420D01*
X62696570Y-44366820D01*
X62688000Y-44372810D01*
X62678520Y-44377230D01*
X62668420Y-44379940D01*
X62658000Y-44380850D01*
X62538000Y-44380850D01*
X62527580Y-44379940D01*
X62517480Y-44377230D01*
X62508000Y-44372810D01*
X62499430Y-44366820D01*
X62492040Y-44359420D01*
X62486040Y-44350850D01*
X62481620Y-44341370D01*
X62478910Y-44331270D01*
X62478000Y-44320850D01*
X62478000Y-44140850D01*
X62478910Y-44130430D01*
X62481620Y-44120330D01*
X62486040Y-44110850D01*
X62492040Y-44102280D01*
X62499430Y-44094890D01*
X62508000Y-44088890D01*
X62517480Y-44084470D01*
X62527580Y-44081760D01*
X62538000Y-44080850D01*
X62658000Y-44080850D01*
X62668420Y-44081760D01*
G37*
G36*
X62668420Y-47176670D02*
G01*
X62678520Y-47179380D01*
X62688000Y-47183800D01*
X62696570Y-47189790D01*
X62703970Y-47197190D01*
X62709960Y-47205760D01*
X62714380Y-47215240D01*
X62717090Y-47225340D01*
X62718000Y-47235760D01*
X62718000Y-47715760D01*
X62717090Y-47726170D01*
X62714380Y-47736280D01*
X62709960Y-47745760D01*
X62703970Y-47754320D01*
X62696570Y-47761720D01*
X62688000Y-47767720D01*
X62678520Y-47772140D01*
X62668420Y-47774840D01*
X62658000Y-47775760D01*
X62538000Y-47775760D01*
X62527580Y-47774840D01*
X62517480Y-47772140D01*
X62508000Y-47767720D01*
X62499430Y-47761720D01*
X62492040Y-47754320D01*
X62486040Y-47745760D01*
X62481620Y-47736280D01*
X62478910Y-47726170D01*
X62478000Y-47715760D01*
X62478000Y-47235760D01*
X62478910Y-47225340D01*
X62481620Y-47215240D01*
X62486040Y-47205760D01*
X62492040Y-47197190D01*
X62499430Y-47189790D01*
X62508000Y-47183800D01*
X62517480Y-47179380D01*
X62527580Y-47176670D01*
X62538000Y-47175760D01*
X62658000Y-47175760D01*
X62668420Y-47176670D01*
G37*
G36*
X63098420Y-44531740D02*
G01*
X63108520Y-44534450D01*
X63118000Y-44538870D01*
X63126570Y-44544870D01*
X63133970Y-44552260D01*
X63139960Y-44560830D01*
X63144380Y-44570310D01*
X63147090Y-44580410D01*
X63148000Y-44590830D01*
X63148000Y-44820830D01*
X63147090Y-44831250D01*
X63144380Y-44841350D01*
X63139960Y-44850830D01*
X63133970Y-44859400D01*
X63126570Y-44866800D01*
X63118000Y-44872790D01*
X63108520Y-44877210D01*
X63098420Y-44879920D01*
X63088000Y-44880830D01*
X62538000Y-44880830D01*
X62527580Y-44879920D01*
X62517480Y-44877210D01*
X62508000Y-44872790D01*
X62499430Y-44866800D01*
X62492040Y-44859400D01*
X62486040Y-44850830D01*
X62481620Y-44841350D01*
X62478910Y-44831250D01*
X62478000Y-44820830D01*
X62478000Y-44590830D01*
X62478910Y-44580410D01*
X62481620Y-44570310D01*
X62486040Y-44560830D01*
X62492040Y-44552260D01*
X62499430Y-44544870D01*
X62508000Y-44538870D01*
X62517480Y-44534450D01*
X62527580Y-44531740D01*
X62538000Y-44530830D01*
X63088000Y-44530830D01*
X63098420Y-44531740D01*
G37*
G36*
X63318420Y-44081760D02*
G01*
X63328520Y-44084470D01*
X63338000Y-44088890D01*
X63346570Y-44094890D01*
X63353960Y-44102280D01*
X63359960Y-44110850D01*
X63364380Y-44120330D01*
X63367090Y-44130430D01*
X63368000Y-44140850D01*
X63368000Y-44320850D01*
X63367090Y-44331270D01*
X63364380Y-44341370D01*
X63359960Y-44350850D01*
X63353960Y-44359420D01*
X63346570Y-44366820D01*
X63338000Y-44372810D01*
X63328520Y-44377230D01*
X63318420Y-44379940D01*
X63308000Y-44380850D01*
X63188000Y-44380850D01*
X63177580Y-44379940D01*
X63167480Y-44377230D01*
X63158000Y-44372810D01*
X63149430Y-44366820D01*
X63142040Y-44359420D01*
X63136040Y-44350850D01*
X63131620Y-44341370D01*
X63128910Y-44331270D01*
X63128000Y-44320850D01*
X63128000Y-44140850D01*
X63128910Y-44130430D01*
X63131620Y-44120330D01*
X63136040Y-44110850D01*
X63142040Y-44102280D01*
X63149430Y-44094890D01*
X63158000Y-44088890D01*
X63167480Y-44084470D01*
X63177580Y-44081760D01*
X63188000Y-44080850D01*
X63308000Y-44080850D01*
X63318420Y-44081760D01*
G37*
G36*
X63318420Y-47176670D02*
G01*
X63328520Y-47179380D01*
X63338000Y-47183800D01*
X63346570Y-47189790D01*
X63353970Y-47197190D01*
X63359960Y-47205760D01*
X63364380Y-47215240D01*
X63367090Y-47225340D01*
X63368000Y-47235760D01*
X63368000Y-47715760D01*
X63367090Y-47726170D01*
X63364380Y-47736280D01*
X63359960Y-47745760D01*
X63353970Y-47754320D01*
X63346570Y-47761720D01*
X63338000Y-47767720D01*
X63328520Y-47772140D01*
X63318420Y-47774840D01*
X63308000Y-47775760D01*
X63188000Y-47775760D01*
X63177580Y-47774840D01*
X63167480Y-47772140D01*
X63158000Y-47767720D01*
X63149440Y-47761720D01*
X63142040Y-47754320D01*
X63136040Y-47745760D01*
X63131620Y-47736280D01*
X63128920Y-47726170D01*
X63128000Y-47715760D01*
X63128000Y-47235760D01*
X63128920Y-47225340D01*
X63131620Y-47215240D01*
X63136040Y-47205760D01*
X63142040Y-47197190D01*
X63149440Y-47189790D01*
X63158000Y-47183800D01*
X63167480Y-47179380D01*
X63177580Y-47176670D01*
X63188000Y-47175760D01*
X63308000Y-47175760D01*
X63318420Y-47176670D01*
G37*
G36*
X63968420Y-44081760D02*
G01*
X63978520Y-44084470D01*
X63988000Y-44088890D01*
X63996570Y-44094890D01*
X64003970Y-44102280D01*
X64009960Y-44110850D01*
X64014380Y-44120330D01*
X64017090Y-44130430D01*
X64018000Y-44140850D01*
X64018000Y-44320850D01*
X64017090Y-44331270D01*
X64014380Y-44341370D01*
X64009960Y-44350850D01*
X64003970Y-44359420D01*
X63996570Y-44366820D01*
X63988000Y-44372810D01*
X63978520Y-44377230D01*
X63968420Y-44379940D01*
X63958000Y-44380850D01*
X63838000Y-44380850D01*
X63827580Y-44379940D01*
X63817480Y-44377230D01*
X63808000Y-44372810D01*
X63799440Y-44366820D01*
X63792040Y-44359420D01*
X63786040Y-44350850D01*
X63781620Y-44341370D01*
X63778910Y-44331270D01*
X63778000Y-44320850D01*
X63778000Y-44140850D01*
X63778910Y-44130430D01*
X63781620Y-44120330D01*
X63786040Y-44110850D01*
X63792040Y-44102280D01*
X63799440Y-44094890D01*
X63808000Y-44088890D01*
X63817480Y-44084470D01*
X63827580Y-44081760D01*
X63838000Y-44080850D01*
X63958000Y-44080850D01*
X63968420Y-44081760D01*
G37*
G36*
X63968420Y-47176670D02*
G01*
X63978520Y-47179380D01*
X63988000Y-47183800D01*
X63996570Y-47189790D01*
X64003970Y-47197190D01*
X64009960Y-47205760D01*
X64014380Y-47215240D01*
X64017090Y-47225340D01*
X64018000Y-47235760D01*
X64018000Y-47715760D01*
X64017090Y-47726170D01*
X64014380Y-47736280D01*
X64009960Y-47745760D01*
X64003970Y-47754320D01*
X63996570Y-47761720D01*
X63988000Y-47767720D01*
X63978520Y-47772140D01*
X63968420Y-47774840D01*
X63958000Y-47775760D01*
X63838000Y-47775760D01*
X63827580Y-47774840D01*
X63817480Y-47772140D01*
X63808000Y-47767720D01*
X63799440Y-47761720D01*
X63792040Y-47754320D01*
X63786040Y-47745760D01*
X63781620Y-47736280D01*
X63778910Y-47726170D01*
X63778000Y-47715760D01*
X63778000Y-47235760D01*
X63778910Y-47225340D01*
X63781620Y-47215240D01*
X63786040Y-47205760D01*
X63792040Y-47197190D01*
X63799440Y-47189790D01*
X63808000Y-47183800D01*
X63817480Y-47179380D01*
X63827580Y-47176670D01*
X63838000Y-47175760D01*
X63958000Y-47175760D01*
X63968420Y-47176670D01*
G37*
G36*
X63968420Y-44531740D02*
G01*
X63978520Y-44534450D01*
X63988000Y-44538870D01*
X63996570Y-44544870D01*
X64003970Y-44552260D01*
X64009960Y-44560830D01*
X64014380Y-44570310D01*
X64017090Y-44580410D01*
X64018000Y-44590830D01*
X64018000Y-44820830D01*
X64017090Y-44831250D01*
X64014380Y-44841350D01*
X64009960Y-44850830D01*
X64003970Y-44859400D01*
X63996570Y-44866800D01*
X63988000Y-44872790D01*
X63978520Y-44877210D01*
X63968420Y-44879920D01*
X63958000Y-44880830D01*
X63408000Y-44880830D01*
X63397580Y-44879920D01*
X63387480Y-44877210D01*
X63378000Y-44872790D01*
X63369430Y-44866800D01*
X63362040Y-44859400D01*
X63356040Y-44850830D01*
X63351620Y-44841350D01*
X63348910Y-44831250D01*
X63348000Y-44820830D01*
X63348000Y-44590830D01*
X63348910Y-44580410D01*
X63351620Y-44570310D01*
X63356040Y-44560830D01*
X63362040Y-44552260D01*
X63369430Y-44544870D01*
X63378000Y-44538870D01*
X63387480Y-44534450D01*
X63397580Y-44531740D01*
X63408000Y-44530830D01*
X63958000Y-44530830D01*
X63968420Y-44531740D01*
G37*
G36*
X63968420Y-45576750D02*
G01*
X63978520Y-45579450D01*
X63988000Y-45583870D01*
X63996570Y-45589870D01*
X64003970Y-45597270D01*
X64009960Y-45605830D01*
X64014380Y-45615310D01*
X64017090Y-45625420D01*
X64018000Y-45635830D01*
X64018000Y-46915830D01*
X64017090Y-46926250D01*
X64014380Y-46936350D01*
X64009960Y-46945830D01*
X64003970Y-46954400D01*
X63996570Y-46961800D01*
X63988000Y-46967790D01*
X63978520Y-46972210D01*
X63968420Y-46974920D01*
X63958000Y-46975830D01*
X63838000Y-46975830D01*
X63827580Y-46974920D01*
X63817480Y-46972210D01*
X63808000Y-46967790D01*
X63799440Y-46961800D01*
X63792040Y-46954400D01*
X63786040Y-46945830D01*
X63781620Y-46936350D01*
X63778910Y-46926250D01*
X63778000Y-46915830D01*
X63778000Y-45635830D01*
X63778910Y-45625420D01*
X63781620Y-45615310D01*
X63786040Y-45605830D01*
X63792040Y-45597270D01*
X63799440Y-45589870D01*
X63808000Y-45583870D01*
X63817480Y-45579450D01*
X63827580Y-45576750D01*
X63838000Y-45575830D01*
X63958000Y-45575830D01*
X63968420Y-45576750D01*
G37*
%TO.C,Q6*%
G36*
X84870660Y-63551910D02*
G01*
X84880760Y-63554620D01*
X84890240Y-63559040D01*
X84898810Y-63565040D01*
X84906210Y-63572440D01*
X84912200Y-63581000D01*
X84916620Y-63590480D01*
X84919330Y-63600580D01*
X84920240Y-63611000D01*
X84920240Y-63731000D01*
X84919330Y-63741420D01*
X84916620Y-63751520D01*
X84912200Y-63761000D01*
X84906210Y-63769570D01*
X84898810Y-63776970D01*
X84890240Y-63782960D01*
X84880760Y-63787380D01*
X84870660Y-63790090D01*
X84860240Y-63791000D01*
X84380240Y-63791000D01*
X84369830Y-63790090D01*
X84359720Y-63787380D01*
X84350240Y-63782960D01*
X84341680Y-63776970D01*
X84334280Y-63769570D01*
X84328280Y-63761000D01*
X84323860Y-63751520D01*
X84321160Y-63741420D01*
X84320240Y-63731000D01*
X84320240Y-63611000D01*
X84321160Y-63600580D01*
X84323860Y-63590480D01*
X84328280Y-63581000D01*
X84334280Y-63572440D01*
X84341680Y-63565040D01*
X84350240Y-63559040D01*
X84359720Y-63554620D01*
X84369830Y-63551910D01*
X84380240Y-63551000D01*
X84860240Y-63551000D01*
X84870660Y-63551910D01*
G37*
G36*
X84870660Y-64201910D02*
G01*
X84880760Y-64204620D01*
X84890240Y-64209040D01*
X84898810Y-64215040D01*
X84906210Y-64222430D01*
X84912200Y-64231000D01*
X84916620Y-64240480D01*
X84919330Y-64250580D01*
X84920240Y-64261000D01*
X84920240Y-64381000D01*
X84919330Y-64391420D01*
X84916620Y-64401520D01*
X84912200Y-64411000D01*
X84906210Y-64419570D01*
X84898810Y-64426970D01*
X84890240Y-64432960D01*
X84880760Y-64437380D01*
X84870660Y-64440090D01*
X84860240Y-64441000D01*
X84380240Y-64441000D01*
X84369830Y-64440090D01*
X84359720Y-64437380D01*
X84350240Y-64432960D01*
X84341680Y-64426970D01*
X84334280Y-64419570D01*
X84328280Y-64411000D01*
X84323860Y-64401520D01*
X84321160Y-64391420D01*
X84320240Y-64381000D01*
X84320240Y-64261000D01*
X84321160Y-64250580D01*
X84323860Y-64240480D01*
X84328280Y-64231000D01*
X84334280Y-64222430D01*
X84341680Y-64215040D01*
X84350240Y-64209040D01*
X84359720Y-64204620D01*
X84369830Y-64201910D01*
X84380240Y-64201000D01*
X84860240Y-64201000D01*
X84870660Y-64201910D01*
G37*
G36*
X84870660Y-64851920D02*
G01*
X84880760Y-64854620D01*
X84890240Y-64859040D01*
X84898810Y-64865040D01*
X84906210Y-64872440D01*
X84912200Y-64881000D01*
X84916620Y-64890480D01*
X84919330Y-64900580D01*
X84920240Y-64911000D01*
X84920240Y-65031000D01*
X84919330Y-65041420D01*
X84916620Y-65051520D01*
X84912200Y-65061000D01*
X84906210Y-65069570D01*
X84898810Y-65076970D01*
X84890240Y-65082960D01*
X84880760Y-65087380D01*
X84870660Y-65090090D01*
X84860240Y-65091000D01*
X84380240Y-65091000D01*
X84369830Y-65090090D01*
X84359720Y-65087380D01*
X84350240Y-65082960D01*
X84341680Y-65076970D01*
X84334280Y-65069570D01*
X84328280Y-65061000D01*
X84323860Y-65051520D01*
X84321160Y-65041420D01*
X84320240Y-65031000D01*
X84320240Y-64911000D01*
X84321160Y-64900580D01*
X84323860Y-64890480D01*
X84328280Y-64881000D01*
X84334280Y-64872440D01*
X84341680Y-64865040D01*
X84350240Y-64859040D01*
X84359720Y-64854620D01*
X84369830Y-64851920D01*
X84380240Y-64851000D01*
X84860240Y-64851000D01*
X84870660Y-64851920D01*
G37*
G36*
X84870660Y-65501910D02*
G01*
X84880760Y-65504620D01*
X84890240Y-65509040D01*
X84898810Y-65515040D01*
X84906210Y-65522440D01*
X84912200Y-65531000D01*
X84916620Y-65540480D01*
X84919330Y-65550580D01*
X84920240Y-65561000D01*
X84920240Y-65681000D01*
X84919330Y-65691420D01*
X84916620Y-65701520D01*
X84912200Y-65711000D01*
X84906210Y-65719570D01*
X84898810Y-65726970D01*
X84890240Y-65732960D01*
X84880760Y-65737380D01*
X84870660Y-65740090D01*
X84860240Y-65741000D01*
X84380240Y-65741000D01*
X84369830Y-65740090D01*
X84359720Y-65737380D01*
X84350240Y-65732960D01*
X84341680Y-65726970D01*
X84334280Y-65719570D01*
X84328280Y-65711000D01*
X84323860Y-65701520D01*
X84321160Y-65691420D01*
X84320240Y-65681000D01*
X84320240Y-65561000D01*
X84321160Y-65550580D01*
X84323860Y-65540480D01*
X84328280Y-65531000D01*
X84334280Y-65522440D01*
X84341680Y-65515040D01*
X84350240Y-65509040D01*
X84359720Y-65504620D01*
X84369830Y-65501910D01*
X84380240Y-65501000D01*
X84860240Y-65501000D01*
X84870660Y-65501910D01*
G37*
G36*
X86470580Y-63551910D02*
G01*
X86480680Y-63554620D01*
X86490160Y-63559040D01*
X86498730Y-63565040D01*
X86506130Y-63572440D01*
X86512120Y-63581000D01*
X86516540Y-63590480D01*
X86519250Y-63600580D01*
X86520160Y-63611000D01*
X86520160Y-63731000D01*
X86519250Y-63741420D01*
X86516540Y-63751520D01*
X86512120Y-63761000D01*
X86506130Y-63769570D01*
X86498730Y-63776970D01*
X86490160Y-63782960D01*
X86480680Y-63787380D01*
X86470580Y-63790090D01*
X86460160Y-63791000D01*
X85180160Y-63791000D01*
X85169750Y-63790090D01*
X85159640Y-63787380D01*
X85150160Y-63782960D01*
X85141600Y-63776970D01*
X85134200Y-63769570D01*
X85128200Y-63761000D01*
X85123780Y-63751520D01*
X85121080Y-63741420D01*
X85120160Y-63731000D01*
X85120160Y-63611000D01*
X85121080Y-63600580D01*
X85123780Y-63590480D01*
X85128200Y-63581000D01*
X85134200Y-63572440D01*
X85141600Y-63565040D01*
X85150160Y-63559040D01*
X85159640Y-63554620D01*
X85169750Y-63551910D01*
X85180160Y-63551000D01*
X86460160Y-63551000D01*
X86470580Y-63551910D01*
G37*
G36*
X86470580Y-64101910D02*
G01*
X86480690Y-64104620D01*
X86490170Y-64109040D01*
X86498730Y-64115040D01*
X86506130Y-64122430D01*
X86512130Y-64131000D01*
X86516550Y-64140480D01*
X86519250Y-64150580D01*
X86520170Y-64161000D01*
X86520170Y-65131000D01*
X86519250Y-65141420D01*
X86516550Y-65151520D01*
X86512130Y-65161000D01*
X86506130Y-65169570D01*
X86498730Y-65176970D01*
X86490170Y-65182960D01*
X86480690Y-65187380D01*
X86470580Y-65190090D01*
X86460170Y-65191000D01*
X85180160Y-65191000D01*
X85169740Y-65190090D01*
X85159640Y-65187380D01*
X85150160Y-65182960D01*
X85141590Y-65176970D01*
X85134200Y-65169570D01*
X85128200Y-65161000D01*
X85123780Y-65151520D01*
X85121070Y-65141420D01*
X85120160Y-65131000D01*
X85120160Y-64161000D01*
X85121070Y-64150580D01*
X85123780Y-64140480D01*
X85128200Y-64131000D01*
X85134200Y-64122430D01*
X85141590Y-64115040D01*
X85150160Y-64109040D01*
X85159640Y-64104620D01*
X85169740Y-64101910D01*
X85180160Y-64101000D01*
X86460170Y-64101000D01*
X86470580Y-64101910D01*
G37*
G36*
X86470580Y-65501910D02*
G01*
X86480690Y-65504620D01*
X86490170Y-65509040D01*
X86498730Y-65515040D01*
X86506130Y-65522440D01*
X86512130Y-65531000D01*
X86516550Y-65540480D01*
X86519250Y-65550580D01*
X86520170Y-65561000D01*
X86520170Y-65681000D01*
X86519250Y-65691420D01*
X86516550Y-65701520D01*
X86512130Y-65711000D01*
X86506130Y-65719570D01*
X86498730Y-65726970D01*
X86490170Y-65732960D01*
X86480690Y-65737380D01*
X86470580Y-65740090D01*
X86460170Y-65741000D01*
X85180170Y-65741000D01*
X85169750Y-65740090D01*
X85159650Y-65737380D01*
X85150170Y-65732960D01*
X85141600Y-65726970D01*
X85134200Y-65719570D01*
X85128210Y-65711000D01*
X85123790Y-65701520D01*
X85121080Y-65691420D01*
X85120170Y-65681000D01*
X85120170Y-65561000D01*
X85121080Y-65550580D01*
X85123790Y-65540480D01*
X85128210Y-65531000D01*
X85134200Y-65522440D01*
X85141600Y-65515040D01*
X85150170Y-65509040D01*
X85159650Y-65504620D01*
X85169750Y-65501910D01*
X85180170Y-65501000D01*
X86460170Y-65501000D01*
X86470580Y-65501910D01*
G37*
G36*
X87515590Y-64201910D02*
G01*
X87525690Y-64204620D01*
X87535170Y-64209040D01*
X87543740Y-64215040D01*
X87551130Y-64222430D01*
X87557130Y-64231000D01*
X87561550Y-64240480D01*
X87564260Y-64250580D01*
X87565170Y-64261000D01*
X87565170Y-64811000D01*
X87564260Y-64821420D01*
X87561550Y-64831520D01*
X87557130Y-64841000D01*
X87551130Y-64849570D01*
X87543740Y-64856970D01*
X87535170Y-64862960D01*
X87525690Y-64867380D01*
X87515590Y-64870090D01*
X87505170Y-64871000D01*
X87275170Y-64871000D01*
X87264750Y-64870090D01*
X87254650Y-64867380D01*
X87245170Y-64862960D01*
X87236600Y-64856970D01*
X87229200Y-64849570D01*
X87223210Y-64841000D01*
X87218790Y-64831520D01*
X87216080Y-64821420D01*
X87215170Y-64811000D01*
X87215170Y-64261000D01*
X87216080Y-64250580D01*
X87218790Y-64240480D01*
X87223210Y-64231000D01*
X87229200Y-64222430D01*
X87236600Y-64215040D01*
X87245170Y-64209040D01*
X87254650Y-64204620D01*
X87264750Y-64201910D01*
X87275170Y-64201000D01*
X87505170Y-64201000D01*
X87515590Y-64201910D01*
G37*
G36*
X87515590Y-65071910D02*
G01*
X87525690Y-65074620D01*
X87535170Y-65079040D01*
X87543740Y-65085040D01*
X87551130Y-65092430D01*
X87557130Y-65101000D01*
X87561550Y-65110480D01*
X87564260Y-65120580D01*
X87565170Y-65131000D01*
X87565170Y-65681000D01*
X87564260Y-65691420D01*
X87561550Y-65701520D01*
X87557130Y-65711000D01*
X87551130Y-65719570D01*
X87543740Y-65726970D01*
X87535170Y-65732960D01*
X87525690Y-65737380D01*
X87515590Y-65740090D01*
X87505170Y-65741000D01*
X87275170Y-65741000D01*
X87264750Y-65740090D01*
X87254650Y-65737380D01*
X87245170Y-65732960D01*
X87236600Y-65726970D01*
X87229200Y-65719570D01*
X87223210Y-65711000D01*
X87218790Y-65701520D01*
X87216080Y-65691420D01*
X87215170Y-65681000D01*
X87215170Y-65131000D01*
X87216080Y-65120580D01*
X87218790Y-65110480D01*
X87223210Y-65101000D01*
X87229200Y-65092430D01*
X87236600Y-65085040D01*
X87245170Y-65079040D01*
X87254650Y-65074620D01*
X87264750Y-65071910D01*
X87275170Y-65071000D01*
X87505170Y-65071000D01*
X87515590Y-65071910D01*
G37*
G36*
X87965570Y-64201910D02*
G01*
X87975670Y-64204620D01*
X87985150Y-64209040D01*
X87993720Y-64215040D01*
X88001110Y-64222430D01*
X88007110Y-64231000D01*
X88011530Y-64240480D01*
X88014240Y-64250580D01*
X88015150Y-64261000D01*
X88015150Y-64381000D01*
X88014240Y-64391420D01*
X88011530Y-64401520D01*
X88007110Y-64411000D01*
X88001110Y-64419570D01*
X87993720Y-64426970D01*
X87985150Y-64432960D01*
X87975670Y-64437380D01*
X87965570Y-64440090D01*
X87955150Y-64441000D01*
X87775150Y-64441000D01*
X87764730Y-64440090D01*
X87754630Y-64437380D01*
X87745150Y-64432960D01*
X87736580Y-64426970D01*
X87729180Y-64419570D01*
X87723190Y-64411000D01*
X87718770Y-64401520D01*
X87716060Y-64391420D01*
X87715150Y-64381000D01*
X87715150Y-64261000D01*
X87716060Y-64250580D01*
X87718770Y-64240480D01*
X87723190Y-64231000D01*
X87729180Y-64222430D01*
X87736580Y-64215040D01*
X87745150Y-64209040D01*
X87754630Y-64204620D01*
X87764730Y-64201910D01*
X87775150Y-64201000D01*
X87955150Y-64201000D01*
X87965570Y-64201910D01*
G37*
G36*
X87965570Y-64851910D02*
G01*
X87975670Y-64854620D01*
X87985150Y-64859040D01*
X87993720Y-64865040D01*
X88001110Y-64872430D01*
X88007110Y-64881000D01*
X88011530Y-64890480D01*
X88014240Y-64900580D01*
X88015150Y-64911000D01*
X88015150Y-65031000D01*
X88014240Y-65041420D01*
X88011530Y-65051520D01*
X88007110Y-65061000D01*
X88001110Y-65069570D01*
X87993720Y-65076960D01*
X87985150Y-65082960D01*
X87975670Y-65087380D01*
X87965570Y-65090090D01*
X87955150Y-65091000D01*
X87775150Y-65091000D01*
X87764730Y-65090090D01*
X87754630Y-65087380D01*
X87745150Y-65082960D01*
X87736580Y-65076960D01*
X87729180Y-65069570D01*
X87723190Y-65061000D01*
X87718770Y-65051520D01*
X87716060Y-65041420D01*
X87715150Y-65031000D01*
X87715150Y-64911000D01*
X87716060Y-64900580D01*
X87718770Y-64890480D01*
X87723190Y-64881000D01*
X87729180Y-64872430D01*
X87736580Y-64865040D01*
X87745150Y-64859040D01*
X87754630Y-64854620D01*
X87764730Y-64851910D01*
X87775150Y-64851000D01*
X87955150Y-64851000D01*
X87965570Y-64851910D01*
G37*
G36*
X87965570Y-65501910D02*
G01*
X87975670Y-65504620D01*
X87985150Y-65509040D01*
X87993720Y-65515040D01*
X88001110Y-65522440D01*
X88007110Y-65531000D01*
X88011530Y-65540480D01*
X88014240Y-65550580D01*
X88015150Y-65561000D01*
X88015150Y-65681000D01*
X88014240Y-65691420D01*
X88011530Y-65701520D01*
X88007110Y-65711000D01*
X88001110Y-65719570D01*
X87993720Y-65726970D01*
X87985150Y-65732960D01*
X87975670Y-65737380D01*
X87965570Y-65740090D01*
X87955150Y-65741000D01*
X87775150Y-65741000D01*
X87764730Y-65740090D01*
X87754630Y-65737380D01*
X87745150Y-65732960D01*
X87736580Y-65726970D01*
X87729180Y-65719570D01*
X87723190Y-65711000D01*
X87718770Y-65701520D01*
X87716060Y-65691420D01*
X87715150Y-65681000D01*
X87715150Y-65561000D01*
X87716060Y-65550580D01*
X87718770Y-65540480D01*
X87723190Y-65531000D01*
X87729180Y-65522440D01*
X87736580Y-65515040D01*
X87745150Y-65509040D01*
X87754630Y-65504620D01*
X87764730Y-65501910D01*
X87775150Y-65501000D01*
X87955150Y-65501000D01*
X87965570Y-65501910D01*
G37*
G36*
X87970590Y-63551910D02*
G01*
X87980690Y-63554620D01*
X87990170Y-63559040D01*
X87998730Y-63565040D01*
X88006130Y-63572440D01*
X88012130Y-63581000D01*
X88016550Y-63590480D01*
X88019260Y-63600580D01*
X88020170Y-63611000D01*
X88020170Y-63731000D01*
X88019260Y-63741420D01*
X88016550Y-63751520D01*
X88012130Y-63761000D01*
X88006130Y-63769570D01*
X87998730Y-63776970D01*
X87990170Y-63782960D01*
X87980690Y-63787380D01*
X87970590Y-63790090D01*
X87960170Y-63791000D01*
X87380170Y-63791000D01*
X87369750Y-63790090D01*
X87359650Y-63787380D01*
X87350170Y-63782960D01*
X87341600Y-63776970D01*
X87334200Y-63769570D01*
X87328210Y-63761000D01*
X87323790Y-63751520D01*
X87321080Y-63741420D01*
X87320170Y-63731000D01*
X87320170Y-63611000D01*
X87321080Y-63600580D01*
X87323790Y-63590480D01*
X87328210Y-63581000D01*
X87334200Y-63572440D01*
X87341600Y-63565040D01*
X87350170Y-63559040D01*
X87359650Y-63554620D01*
X87369750Y-63551910D01*
X87380170Y-63551000D01*
X87960170Y-63551000D01*
X87970590Y-63551910D01*
G37*
%TO.C,Q7*%
G36*
X89289660Y-63510910D02*
G01*
X89299760Y-63513620D01*
X89309240Y-63518040D01*
X89317810Y-63524040D01*
X89325210Y-63531440D01*
X89331200Y-63540000D01*
X89335620Y-63549480D01*
X89338330Y-63559580D01*
X89339240Y-63570000D01*
X89339240Y-63690000D01*
X89338330Y-63700420D01*
X89335620Y-63710520D01*
X89331200Y-63720000D01*
X89325210Y-63728570D01*
X89317810Y-63735970D01*
X89309240Y-63741960D01*
X89299760Y-63746380D01*
X89289660Y-63749090D01*
X89279240Y-63750000D01*
X88799240Y-63750000D01*
X88788830Y-63749090D01*
X88778720Y-63746380D01*
X88769240Y-63741960D01*
X88760680Y-63735970D01*
X88753280Y-63728570D01*
X88747280Y-63720000D01*
X88742860Y-63710520D01*
X88740160Y-63700420D01*
X88739240Y-63690000D01*
X88739240Y-63570000D01*
X88740160Y-63559580D01*
X88742860Y-63549480D01*
X88747280Y-63540000D01*
X88753280Y-63531440D01*
X88760680Y-63524040D01*
X88769240Y-63518040D01*
X88778720Y-63513620D01*
X88788830Y-63510910D01*
X88799240Y-63510000D01*
X89279240Y-63510000D01*
X89289660Y-63510910D01*
G37*
G36*
X89289660Y-64160910D02*
G01*
X89299760Y-64163620D01*
X89309240Y-64168040D01*
X89317810Y-64174040D01*
X89325210Y-64181430D01*
X89331200Y-64190000D01*
X89335620Y-64199480D01*
X89338330Y-64209580D01*
X89339240Y-64220000D01*
X89339240Y-64340000D01*
X89338330Y-64350420D01*
X89335620Y-64360520D01*
X89331200Y-64370000D01*
X89325210Y-64378570D01*
X89317810Y-64385970D01*
X89309240Y-64391960D01*
X89299760Y-64396380D01*
X89289660Y-64399090D01*
X89279240Y-64400000D01*
X88799240Y-64400000D01*
X88788830Y-64399090D01*
X88778720Y-64396380D01*
X88769240Y-64391960D01*
X88760680Y-64385970D01*
X88753280Y-64378570D01*
X88747280Y-64370000D01*
X88742860Y-64360520D01*
X88740160Y-64350420D01*
X88739240Y-64340000D01*
X88739240Y-64220000D01*
X88740160Y-64209580D01*
X88742860Y-64199480D01*
X88747280Y-64190000D01*
X88753280Y-64181430D01*
X88760680Y-64174040D01*
X88769240Y-64168040D01*
X88778720Y-64163620D01*
X88788830Y-64160910D01*
X88799240Y-64160000D01*
X89279240Y-64160000D01*
X89289660Y-64160910D01*
G37*
G36*
X89289660Y-64810920D02*
G01*
X89299760Y-64813620D01*
X89309240Y-64818040D01*
X89317810Y-64824040D01*
X89325210Y-64831440D01*
X89331200Y-64840000D01*
X89335620Y-64849480D01*
X89338330Y-64859580D01*
X89339240Y-64870000D01*
X89339240Y-64990000D01*
X89338330Y-65000420D01*
X89335620Y-65010520D01*
X89331200Y-65020000D01*
X89325210Y-65028570D01*
X89317810Y-65035970D01*
X89309240Y-65041960D01*
X89299760Y-65046380D01*
X89289660Y-65049090D01*
X89279240Y-65050000D01*
X88799240Y-65050000D01*
X88788830Y-65049090D01*
X88778720Y-65046380D01*
X88769240Y-65041960D01*
X88760680Y-65035970D01*
X88753280Y-65028570D01*
X88747280Y-65020000D01*
X88742860Y-65010520D01*
X88740160Y-65000420D01*
X88739240Y-64990000D01*
X88739240Y-64870000D01*
X88740160Y-64859580D01*
X88742860Y-64849480D01*
X88747280Y-64840000D01*
X88753280Y-64831440D01*
X88760680Y-64824040D01*
X88769240Y-64818040D01*
X88778720Y-64813620D01*
X88788830Y-64810920D01*
X88799240Y-64810000D01*
X89279240Y-64810000D01*
X89289660Y-64810920D01*
G37*
G36*
X89289660Y-65460910D02*
G01*
X89299760Y-65463620D01*
X89309240Y-65468040D01*
X89317810Y-65474040D01*
X89325210Y-65481440D01*
X89331200Y-65490000D01*
X89335620Y-65499480D01*
X89338330Y-65509580D01*
X89339240Y-65520000D01*
X89339240Y-65640000D01*
X89338330Y-65650420D01*
X89335620Y-65660520D01*
X89331200Y-65670000D01*
X89325210Y-65678570D01*
X89317810Y-65685970D01*
X89309240Y-65691960D01*
X89299760Y-65696380D01*
X89289660Y-65699090D01*
X89279240Y-65700000D01*
X88799240Y-65700000D01*
X88788830Y-65699090D01*
X88778720Y-65696380D01*
X88769240Y-65691960D01*
X88760680Y-65685970D01*
X88753280Y-65678570D01*
X88747280Y-65670000D01*
X88742860Y-65660520D01*
X88740160Y-65650420D01*
X88739240Y-65640000D01*
X88739240Y-65520000D01*
X88740160Y-65509580D01*
X88742860Y-65499480D01*
X88747280Y-65490000D01*
X88753280Y-65481440D01*
X88760680Y-65474040D01*
X88769240Y-65468040D01*
X88778720Y-65463620D01*
X88788830Y-65460910D01*
X88799240Y-65460000D01*
X89279240Y-65460000D01*
X89289660Y-65460910D01*
G37*
G36*
X90889580Y-63510910D02*
G01*
X90899680Y-63513620D01*
X90909160Y-63518040D01*
X90917730Y-63524040D01*
X90925130Y-63531440D01*
X90931120Y-63540000D01*
X90935540Y-63549480D01*
X90938250Y-63559580D01*
X90939160Y-63570000D01*
X90939160Y-63690000D01*
X90938250Y-63700420D01*
X90935540Y-63710520D01*
X90931120Y-63720000D01*
X90925130Y-63728570D01*
X90917730Y-63735970D01*
X90909160Y-63741960D01*
X90899680Y-63746380D01*
X90889580Y-63749090D01*
X90879160Y-63750000D01*
X89599160Y-63750000D01*
X89588750Y-63749090D01*
X89578640Y-63746380D01*
X89569160Y-63741960D01*
X89560600Y-63735970D01*
X89553200Y-63728570D01*
X89547200Y-63720000D01*
X89542780Y-63710520D01*
X89540080Y-63700420D01*
X89539160Y-63690000D01*
X89539160Y-63570000D01*
X89540080Y-63559580D01*
X89542780Y-63549480D01*
X89547200Y-63540000D01*
X89553200Y-63531440D01*
X89560600Y-63524040D01*
X89569160Y-63518040D01*
X89578640Y-63513620D01*
X89588750Y-63510910D01*
X89599160Y-63510000D01*
X90879160Y-63510000D01*
X90889580Y-63510910D01*
G37*
G36*
X90889580Y-64060910D02*
G01*
X90899690Y-64063620D01*
X90909170Y-64068040D01*
X90917730Y-64074040D01*
X90925130Y-64081430D01*
X90931130Y-64090000D01*
X90935550Y-64099480D01*
X90938250Y-64109580D01*
X90939170Y-64120000D01*
X90939170Y-65090000D01*
X90938250Y-65100420D01*
X90935550Y-65110520D01*
X90931130Y-65120000D01*
X90925130Y-65128570D01*
X90917730Y-65135970D01*
X90909170Y-65141960D01*
X90899690Y-65146380D01*
X90889580Y-65149090D01*
X90879170Y-65150000D01*
X89599160Y-65150000D01*
X89588740Y-65149090D01*
X89578640Y-65146380D01*
X89569160Y-65141960D01*
X89560590Y-65135970D01*
X89553200Y-65128570D01*
X89547200Y-65120000D01*
X89542780Y-65110520D01*
X89540070Y-65100420D01*
X89539160Y-65090000D01*
X89539160Y-64120000D01*
X89540070Y-64109580D01*
X89542780Y-64099480D01*
X89547200Y-64090000D01*
X89553200Y-64081430D01*
X89560590Y-64074040D01*
X89569160Y-64068040D01*
X89578640Y-64063620D01*
X89588740Y-64060910D01*
X89599160Y-64060000D01*
X90879170Y-64060000D01*
X90889580Y-64060910D01*
G37*
G36*
X90889580Y-65460910D02*
G01*
X90899690Y-65463620D01*
X90909170Y-65468040D01*
X90917730Y-65474040D01*
X90925130Y-65481440D01*
X90931130Y-65490000D01*
X90935550Y-65499480D01*
X90938250Y-65509580D01*
X90939170Y-65520000D01*
X90939170Y-65640000D01*
X90938250Y-65650420D01*
X90935550Y-65660520D01*
X90931130Y-65670000D01*
X90925130Y-65678570D01*
X90917730Y-65685970D01*
X90909170Y-65691960D01*
X90899690Y-65696380D01*
X90889580Y-65699090D01*
X90879170Y-65700000D01*
X89599170Y-65700000D01*
X89588750Y-65699090D01*
X89578650Y-65696380D01*
X89569170Y-65691960D01*
X89560600Y-65685970D01*
X89553200Y-65678570D01*
X89547210Y-65670000D01*
X89542790Y-65660520D01*
X89540080Y-65650420D01*
X89539170Y-65640000D01*
X89539170Y-65520000D01*
X89540080Y-65509580D01*
X89542790Y-65499480D01*
X89547210Y-65490000D01*
X89553200Y-65481440D01*
X89560600Y-65474040D01*
X89569170Y-65468040D01*
X89578650Y-65463620D01*
X89588750Y-65460910D01*
X89599170Y-65460000D01*
X90879170Y-65460000D01*
X90889580Y-65460910D01*
G37*
G36*
X91934590Y-64160910D02*
G01*
X91944690Y-64163620D01*
X91954170Y-64168040D01*
X91962740Y-64174040D01*
X91970130Y-64181430D01*
X91976130Y-64190000D01*
X91980550Y-64199480D01*
X91983260Y-64209580D01*
X91984170Y-64220000D01*
X91984170Y-64770000D01*
X91983260Y-64780420D01*
X91980550Y-64790520D01*
X91976130Y-64800000D01*
X91970130Y-64808570D01*
X91962740Y-64815970D01*
X91954170Y-64821960D01*
X91944690Y-64826380D01*
X91934590Y-64829090D01*
X91924170Y-64830000D01*
X91694170Y-64830000D01*
X91683750Y-64829090D01*
X91673650Y-64826380D01*
X91664170Y-64821960D01*
X91655600Y-64815970D01*
X91648200Y-64808570D01*
X91642210Y-64800000D01*
X91637790Y-64790520D01*
X91635080Y-64780420D01*
X91634170Y-64770000D01*
X91634170Y-64220000D01*
X91635080Y-64209580D01*
X91637790Y-64199480D01*
X91642210Y-64190000D01*
X91648200Y-64181430D01*
X91655600Y-64174040D01*
X91664170Y-64168040D01*
X91673650Y-64163620D01*
X91683750Y-64160910D01*
X91694170Y-64160000D01*
X91924170Y-64160000D01*
X91934590Y-64160910D01*
G37*
G36*
X91934590Y-65030910D02*
G01*
X91944690Y-65033620D01*
X91954170Y-65038040D01*
X91962740Y-65044040D01*
X91970130Y-65051430D01*
X91976130Y-65060000D01*
X91980550Y-65069480D01*
X91983260Y-65079580D01*
X91984170Y-65090000D01*
X91984170Y-65640000D01*
X91983260Y-65650420D01*
X91980550Y-65660520D01*
X91976130Y-65670000D01*
X91970130Y-65678570D01*
X91962740Y-65685970D01*
X91954170Y-65691960D01*
X91944690Y-65696380D01*
X91934590Y-65699090D01*
X91924170Y-65700000D01*
X91694170Y-65700000D01*
X91683750Y-65699090D01*
X91673650Y-65696380D01*
X91664170Y-65691960D01*
X91655600Y-65685970D01*
X91648200Y-65678570D01*
X91642210Y-65670000D01*
X91637790Y-65660520D01*
X91635080Y-65650420D01*
X91634170Y-65640000D01*
X91634170Y-65090000D01*
X91635080Y-65079580D01*
X91637790Y-65069480D01*
X91642210Y-65060000D01*
X91648200Y-65051430D01*
X91655600Y-65044040D01*
X91664170Y-65038040D01*
X91673650Y-65033620D01*
X91683750Y-65030910D01*
X91694170Y-65030000D01*
X91924170Y-65030000D01*
X91934590Y-65030910D01*
G37*
G36*
X92384570Y-64160910D02*
G01*
X92394670Y-64163620D01*
X92404150Y-64168040D01*
X92412720Y-64174040D01*
X92420110Y-64181430D01*
X92426110Y-64190000D01*
X92430530Y-64199480D01*
X92433240Y-64209580D01*
X92434150Y-64220000D01*
X92434150Y-64340000D01*
X92433240Y-64350420D01*
X92430530Y-64360520D01*
X92426110Y-64370000D01*
X92420110Y-64378570D01*
X92412720Y-64385970D01*
X92404150Y-64391960D01*
X92394670Y-64396380D01*
X92384570Y-64399090D01*
X92374150Y-64400000D01*
X92194150Y-64400000D01*
X92183730Y-64399090D01*
X92173630Y-64396380D01*
X92164150Y-64391960D01*
X92155580Y-64385970D01*
X92148180Y-64378570D01*
X92142190Y-64370000D01*
X92137770Y-64360520D01*
X92135060Y-64350420D01*
X92134150Y-64340000D01*
X92134150Y-64220000D01*
X92135060Y-64209580D01*
X92137770Y-64199480D01*
X92142190Y-64190000D01*
X92148180Y-64181430D01*
X92155580Y-64174040D01*
X92164150Y-64168040D01*
X92173630Y-64163620D01*
X92183730Y-64160910D01*
X92194150Y-64160000D01*
X92374150Y-64160000D01*
X92384570Y-64160910D01*
G37*
G36*
X92384570Y-64810910D02*
G01*
X92394670Y-64813620D01*
X92404150Y-64818040D01*
X92412720Y-64824040D01*
X92420110Y-64831430D01*
X92426110Y-64840000D01*
X92430530Y-64849480D01*
X92433240Y-64859580D01*
X92434150Y-64870000D01*
X92434150Y-64990000D01*
X92433240Y-65000420D01*
X92430530Y-65010520D01*
X92426110Y-65020000D01*
X92420110Y-65028570D01*
X92412720Y-65035960D01*
X92404150Y-65041960D01*
X92394670Y-65046380D01*
X92384570Y-65049090D01*
X92374150Y-65050000D01*
X92194150Y-65050000D01*
X92183730Y-65049090D01*
X92173630Y-65046380D01*
X92164150Y-65041960D01*
X92155580Y-65035960D01*
X92148180Y-65028570D01*
X92142190Y-65020000D01*
X92137770Y-65010520D01*
X92135060Y-65000420D01*
X92134150Y-64990000D01*
X92134150Y-64870000D01*
X92135060Y-64859580D01*
X92137770Y-64849480D01*
X92142190Y-64840000D01*
X92148180Y-64831430D01*
X92155580Y-64824040D01*
X92164150Y-64818040D01*
X92173630Y-64813620D01*
X92183730Y-64810910D01*
X92194150Y-64810000D01*
X92374150Y-64810000D01*
X92384570Y-64810910D01*
G37*
G36*
X92384570Y-65460910D02*
G01*
X92394670Y-65463620D01*
X92404150Y-65468040D01*
X92412720Y-65474040D01*
X92420110Y-65481440D01*
X92426110Y-65490000D01*
X92430530Y-65499480D01*
X92433240Y-65509580D01*
X92434150Y-65520000D01*
X92434150Y-65640000D01*
X92433240Y-65650420D01*
X92430530Y-65660520D01*
X92426110Y-65670000D01*
X92420110Y-65678570D01*
X92412720Y-65685970D01*
X92404150Y-65691960D01*
X92394670Y-65696380D01*
X92384570Y-65699090D01*
X92374150Y-65700000D01*
X92194150Y-65700000D01*
X92183730Y-65699090D01*
X92173630Y-65696380D01*
X92164150Y-65691960D01*
X92155580Y-65685970D01*
X92148180Y-65678570D01*
X92142190Y-65670000D01*
X92137770Y-65660520D01*
X92135060Y-65650420D01*
X92134150Y-65640000D01*
X92134150Y-65520000D01*
X92135060Y-65509580D01*
X92137770Y-65499480D01*
X92142190Y-65490000D01*
X92148180Y-65481440D01*
X92155580Y-65474040D01*
X92164150Y-65468040D01*
X92173630Y-65463620D01*
X92183730Y-65460910D01*
X92194150Y-65460000D01*
X92374150Y-65460000D01*
X92384570Y-65460910D01*
G37*
G36*
X92389590Y-63510910D02*
G01*
X92399690Y-63513620D01*
X92409170Y-63518040D01*
X92417730Y-63524040D01*
X92425130Y-63531440D01*
X92431130Y-63540000D01*
X92435550Y-63549480D01*
X92438260Y-63559580D01*
X92439170Y-63570000D01*
X92439170Y-63690000D01*
X92438260Y-63700420D01*
X92435550Y-63710520D01*
X92431130Y-63720000D01*
X92425130Y-63728570D01*
X92417730Y-63735970D01*
X92409170Y-63741960D01*
X92399690Y-63746380D01*
X92389590Y-63749090D01*
X92379170Y-63750000D01*
X91799170Y-63750000D01*
X91788750Y-63749090D01*
X91778650Y-63746380D01*
X91769170Y-63741960D01*
X91760600Y-63735970D01*
X91753200Y-63728570D01*
X91747210Y-63720000D01*
X91742790Y-63710520D01*
X91740080Y-63700420D01*
X91739170Y-63690000D01*
X91739170Y-63570000D01*
X91740080Y-63559580D01*
X91742790Y-63549480D01*
X91747210Y-63540000D01*
X91753200Y-63531440D01*
X91760600Y-63524040D01*
X91769170Y-63518040D01*
X91778650Y-63513620D01*
X91788750Y-63510910D01*
X91799170Y-63510000D01*
X92379170Y-63510000D01*
X92389590Y-63510910D01*
G37*
%TO.C,Q4*%
G36*
X84870660Y-72314910D02*
G01*
X84880760Y-72317620D01*
X84890240Y-72322040D01*
X84898810Y-72328040D01*
X84906210Y-72335440D01*
X84912200Y-72344000D01*
X84916620Y-72353480D01*
X84919330Y-72363580D01*
X84920240Y-72374000D01*
X84920240Y-72494000D01*
X84919330Y-72504420D01*
X84916620Y-72514520D01*
X84912200Y-72524000D01*
X84906210Y-72532570D01*
X84898810Y-72539970D01*
X84890240Y-72545960D01*
X84880760Y-72550380D01*
X84870660Y-72553090D01*
X84860240Y-72554000D01*
X84380240Y-72554000D01*
X84369830Y-72553090D01*
X84359720Y-72550380D01*
X84350240Y-72545960D01*
X84341680Y-72539970D01*
X84334280Y-72532570D01*
X84328280Y-72524000D01*
X84323860Y-72514520D01*
X84321160Y-72504420D01*
X84320240Y-72494000D01*
X84320240Y-72374000D01*
X84321160Y-72363580D01*
X84323860Y-72353480D01*
X84328280Y-72344000D01*
X84334280Y-72335440D01*
X84341680Y-72328040D01*
X84350240Y-72322040D01*
X84359720Y-72317620D01*
X84369830Y-72314910D01*
X84380240Y-72314000D01*
X84860240Y-72314000D01*
X84870660Y-72314910D01*
G37*
G36*
X84870660Y-72964910D02*
G01*
X84880760Y-72967620D01*
X84890240Y-72972040D01*
X84898810Y-72978040D01*
X84906210Y-72985430D01*
X84912200Y-72994000D01*
X84916620Y-73003480D01*
X84919330Y-73013580D01*
X84920240Y-73024000D01*
X84920240Y-73144000D01*
X84919330Y-73154420D01*
X84916620Y-73164520D01*
X84912200Y-73174000D01*
X84906210Y-73182570D01*
X84898810Y-73189970D01*
X84890240Y-73195960D01*
X84880760Y-73200380D01*
X84870660Y-73203090D01*
X84860240Y-73204000D01*
X84380240Y-73204000D01*
X84369830Y-73203090D01*
X84359720Y-73200380D01*
X84350240Y-73195960D01*
X84341680Y-73189970D01*
X84334280Y-73182570D01*
X84328280Y-73174000D01*
X84323860Y-73164520D01*
X84321160Y-73154420D01*
X84320240Y-73144000D01*
X84320240Y-73024000D01*
X84321160Y-73013580D01*
X84323860Y-73003480D01*
X84328280Y-72994000D01*
X84334280Y-72985430D01*
X84341680Y-72978040D01*
X84350240Y-72972040D01*
X84359720Y-72967620D01*
X84369830Y-72964910D01*
X84380240Y-72964000D01*
X84860240Y-72964000D01*
X84870660Y-72964910D01*
G37*
G36*
X84870660Y-73614920D02*
G01*
X84880760Y-73617620D01*
X84890240Y-73622040D01*
X84898810Y-73628040D01*
X84906210Y-73635440D01*
X84912200Y-73644000D01*
X84916620Y-73653480D01*
X84919330Y-73663580D01*
X84920240Y-73674000D01*
X84920240Y-73794000D01*
X84919330Y-73804420D01*
X84916620Y-73814520D01*
X84912200Y-73824000D01*
X84906210Y-73832570D01*
X84898810Y-73839970D01*
X84890240Y-73845960D01*
X84880760Y-73850380D01*
X84870660Y-73853090D01*
X84860240Y-73854000D01*
X84380240Y-73854000D01*
X84369830Y-73853090D01*
X84359720Y-73850380D01*
X84350240Y-73845960D01*
X84341680Y-73839970D01*
X84334280Y-73832570D01*
X84328280Y-73824000D01*
X84323860Y-73814520D01*
X84321160Y-73804420D01*
X84320240Y-73794000D01*
X84320240Y-73674000D01*
X84321160Y-73663580D01*
X84323860Y-73653480D01*
X84328280Y-73644000D01*
X84334280Y-73635440D01*
X84341680Y-73628040D01*
X84350240Y-73622040D01*
X84359720Y-73617620D01*
X84369830Y-73614920D01*
X84380240Y-73614000D01*
X84860240Y-73614000D01*
X84870660Y-73614920D01*
G37*
G36*
X84870660Y-74264910D02*
G01*
X84880760Y-74267620D01*
X84890240Y-74272040D01*
X84898810Y-74278040D01*
X84906210Y-74285440D01*
X84912200Y-74294000D01*
X84916620Y-74303480D01*
X84919330Y-74313580D01*
X84920240Y-74324000D01*
X84920240Y-74444000D01*
X84919330Y-74454420D01*
X84916620Y-74464520D01*
X84912200Y-74474000D01*
X84906210Y-74482570D01*
X84898810Y-74489970D01*
X84890240Y-74495960D01*
X84880760Y-74500380D01*
X84870660Y-74503090D01*
X84860240Y-74504000D01*
X84380240Y-74504000D01*
X84369830Y-74503090D01*
X84359720Y-74500380D01*
X84350240Y-74495960D01*
X84341680Y-74489970D01*
X84334280Y-74482570D01*
X84328280Y-74474000D01*
X84323860Y-74464520D01*
X84321160Y-74454420D01*
X84320240Y-74444000D01*
X84320240Y-74324000D01*
X84321160Y-74313580D01*
X84323860Y-74303480D01*
X84328280Y-74294000D01*
X84334280Y-74285440D01*
X84341680Y-74278040D01*
X84350240Y-74272040D01*
X84359720Y-74267620D01*
X84369830Y-74264910D01*
X84380240Y-74264000D01*
X84860240Y-74264000D01*
X84870660Y-74264910D01*
G37*
G36*
X86470580Y-72314910D02*
G01*
X86480680Y-72317620D01*
X86490160Y-72322040D01*
X86498730Y-72328040D01*
X86506130Y-72335440D01*
X86512120Y-72344000D01*
X86516540Y-72353480D01*
X86519250Y-72363580D01*
X86520160Y-72374000D01*
X86520160Y-72494000D01*
X86519250Y-72504420D01*
X86516540Y-72514520D01*
X86512120Y-72524000D01*
X86506130Y-72532570D01*
X86498730Y-72539970D01*
X86490160Y-72545960D01*
X86480680Y-72550380D01*
X86470580Y-72553090D01*
X86460160Y-72554000D01*
X85180160Y-72554000D01*
X85169750Y-72553090D01*
X85159640Y-72550380D01*
X85150160Y-72545960D01*
X85141600Y-72539970D01*
X85134200Y-72532570D01*
X85128200Y-72524000D01*
X85123780Y-72514520D01*
X85121080Y-72504420D01*
X85120160Y-72494000D01*
X85120160Y-72374000D01*
X85121080Y-72363580D01*
X85123780Y-72353480D01*
X85128200Y-72344000D01*
X85134200Y-72335440D01*
X85141600Y-72328040D01*
X85150160Y-72322040D01*
X85159640Y-72317620D01*
X85169750Y-72314910D01*
X85180160Y-72314000D01*
X86460160Y-72314000D01*
X86470580Y-72314910D01*
G37*
G36*
X86470580Y-72864910D02*
G01*
X86480690Y-72867620D01*
X86490170Y-72872040D01*
X86498730Y-72878040D01*
X86506130Y-72885430D01*
X86512130Y-72894000D01*
X86516550Y-72903480D01*
X86519250Y-72913580D01*
X86520170Y-72924000D01*
X86520170Y-73894000D01*
X86519250Y-73904420D01*
X86516550Y-73914520D01*
X86512130Y-73924000D01*
X86506130Y-73932570D01*
X86498730Y-73939970D01*
X86490170Y-73945960D01*
X86480690Y-73950380D01*
X86470580Y-73953090D01*
X86460170Y-73954000D01*
X85180160Y-73954000D01*
X85169740Y-73953090D01*
X85159640Y-73950380D01*
X85150160Y-73945960D01*
X85141590Y-73939970D01*
X85134200Y-73932570D01*
X85128200Y-73924000D01*
X85123780Y-73914520D01*
X85121070Y-73904420D01*
X85120160Y-73894000D01*
X85120160Y-72924000D01*
X85121070Y-72913580D01*
X85123780Y-72903480D01*
X85128200Y-72894000D01*
X85134200Y-72885430D01*
X85141590Y-72878040D01*
X85150160Y-72872040D01*
X85159640Y-72867620D01*
X85169740Y-72864910D01*
X85180160Y-72864000D01*
X86460170Y-72864000D01*
X86470580Y-72864910D01*
G37*
G36*
X86470580Y-74264910D02*
G01*
X86480690Y-74267620D01*
X86490170Y-74272040D01*
X86498730Y-74278040D01*
X86506130Y-74285440D01*
X86512130Y-74294000D01*
X86516550Y-74303480D01*
X86519250Y-74313580D01*
X86520170Y-74324000D01*
X86520170Y-74444000D01*
X86519250Y-74454420D01*
X86516550Y-74464520D01*
X86512130Y-74474000D01*
X86506130Y-74482570D01*
X86498730Y-74489970D01*
X86490170Y-74495960D01*
X86480690Y-74500380D01*
X86470580Y-74503090D01*
X86460170Y-74504000D01*
X85180170Y-74504000D01*
X85169750Y-74503090D01*
X85159650Y-74500380D01*
X85150170Y-74495960D01*
X85141600Y-74489970D01*
X85134200Y-74482570D01*
X85128210Y-74474000D01*
X85123790Y-74464520D01*
X85121080Y-74454420D01*
X85120170Y-74444000D01*
X85120170Y-74324000D01*
X85121080Y-74313580D01*
X85123790Y-74303480D01*
X85128210Y-74294000D01*
X85134200Y-74285440D01*
X85141600Y-74278040D01*
X85150170Y-74272040D01*
X85159650Y-74267620D01*
X85169750Y-74264910D01*
X85180170Y-74264000D01*
X86460170Y-74264000D01*
X86470580Y-74264910D01*
G37*
G36*
X87515590Y-72964910D02*
G01*
X87525690Y-72967620D01*
X87535170Y-72972040D01*
X87543740Y-72978040D01*
X87551130Y-72985430D01*
X87557130Y-72994000D01*
X87561550Y-73003480D01*
X87564260Y-73013580D01*
X87565170Y-73024000D01*
X87565170Y-73574000D01*
X87564260Y-73584420D01*
X87561550Y-73594520D01*
X87557130Y-73604000D01*
X87551130Y-73612570D01*
X87543740Y-73619970D01*
X87535170Y-73625960D01*
X87525690Y-73630380D01*
X87515590Y-73633090D01*
X87505170Y-73634000D01*
X87275170Y-73634000D01*
X87264750Y-73633090D01*
X87254650Y-73630380D01*
X87245170Y-73625960D01*
X87236600Y-73619970D01*
X87229200Y-73612570D01*
X87223210Y-73604000D01*
X87218790Y-73594520D01*
X87216080Y-73584420D01*
X87215170Y-73574000D01*
X87215170Y-73024000D01*
X87216080Y-73013580D01*
X87218790Y-73003480D01*
X87223210Y-72994000D01*
X87229200Y-72985430D01*
X87236600Y-72978040D01*
X87245170Y-72972040D01*
X87254650Y-72967620D01*
X87264750Y-72964910D01*
X87275170Y-72964000D01*
X87505170Y-72964000D01*
X87515590Y-72964910D01*
G37*
G36*
X87515590Y-73834910D02*
G01*
X87525690Y-73837620D01*
X87535170Y-73842040D01*
X87543740Y-73848040D01*
X87551130Y-73855430D01*
X87557130Y-73864000D01*
X87561550Y-73873480D01*
X87564260Y-73883580D01*
X87565170Y-73894000D01*
X87565170Y-74444000D01*
X87564260Y-74454420D01*
X87561550Y-74464520D01*
X87557130Y-74474000D01*
X87551130Y-74482570D01*
X87543740Y-74489970D01*
X87535170Y-74495960D01*
X87525690Y-74500380D01*
X87515590Y-74503090D01*
X87505170Y-74504000D01*
X87275170Y-74504000D01*
X87264750Y-74503090D01*
X87254650Y-74500380D01*
X87245170Y-74495960D01*
X87236600Y-74489970D01*
X87229200Y-74482570D01*
X87223210Y-74474000D01*
X87218790Y-74464520D01*
X87216080Y-74454420D01*
X87215170Y-74444000D01*
X87215170Y-73894000D01*
X87216080Y-73883580D01*
X87218790Y-73873480D01*
X87223210Y-73864000D01*
X87229200Y-73855430D01*
X87236600Y-73848040D01*
X87245170Y-73842040D01*
X87254650Y-73837620D01*
X87264750Y-73834910D01*
X87275170Y-73834000D01*
X87505170Y-73834000D01*
X87515590Y-73834910D01*
G37*
G36*
X87965570Y-72964910D02*
G01*
X87975670Y-72967620D01*
X87985150Y-72972040D01*
X87993720Y-72978040D01*
X88001110Y-72985430D01*
X88007110Y-72994000D01*
X88011530Y-73003480D01*
X88014240Y-73013580D01*
X88015150Y-73024000D01*
X88015150Y-73144000D01*
X88014240Y-73154420D01*
X88011530Y-73164520D01*
X88007110Y-73174000D01*
X88001110Y-73182570D01*
X87993720Y-73189970D01*
X87985150Y-73195960D01*
X87975670Y-73200380D01*
X87965570Y-73203090D01*
X87955150Y-73204000D01*
X87775150Y-73204000D01*
X87764730Y-73203090D01*
X87754630Y-73200380D01*
X87745150Y-73195960D01*
X87736580Y-73189970D01*
X87729180Y-73182570D01*
X87723190Y-73174000D01*
X87718770Y-73164520D01*
X87716060Y-73154420D01*
X87715150Y-73144000D01*
X87715150Y-73024000D01*
X87716060Y-73013580D01*
X87718770Y-73003480D01*
X87723190Y-72994000D01*
X87729180Y-72985430D01*
X87736580Y-72978040D01*
X87745150Y-72972040D01*
X87754630Y-72967620D01*
X87764730Y-72964910D01*
X87775150Y-72964000D01*
X87955150Y-72964000D01*
X87965570Y-72964910D01*
G37*
G36*
X87965570Y-73614910D02*
G01*
X87975670Y-73617620D01*
X87985150Y-73622040D01*
X87993720Y-73628040D01*
X88001110Y-73635430D01*
X88007110Y-73644000D01*
X88011530Y-73653480D01*
X88014240Y-73663580D01*
X88015150Y-73674000D01*
X88015150Y-73794000D01*
X88014240Y-73804420D01*
X88011530Y-73814520D01*
X88007110Y-73824000D01*
X88001110Y-73832570D01*
X87993720Y-73839960D01*
X87985150Y-73845960D01*
X87975670Y-73850380D01*
X87965570Y-73853090D01*
X87955150Y-73854000D01*
X87775150Y-73854000D01*
X87764730Y-73853090D01*
X87754630Y-73850380D01*
X87745150Y-73845960D01*
X87736580Y-73839960D01*
X87729180Y-73832570D01*
X87723190Y-73824000D01*
X87718770Y-73814520D01*
X87716060Y-73804420D01*
X87715150Y-73794000D01*
X87715150Y-73674000D01*
X87716060Y-73663580D01*
X87718770Y-73653480D01*
X87723190Y-73644000D01*
X87729180Y-73635430D01*
X87736580Y-73628040D01*
X87745150Y-73622040D01*
X87754630Y-73617620D01*
X87764730Y-73614910D01*
X87775150Y-73614000D01*
X87955150Y-73614000D01*
X87965570Y-73614910D01*
G37*
G36*
X87965570Y-74264910D02*
G01*
X87975670Y-74267620D01*
X87985150Y-74272040D01*
X87993720Y-74278040D01*
X88001110Y-74285440D01*
X88007110Y-74294000D01*
X88011530Y-74303480D01*
X88014240Y-74313580D01*
X88015150Y-74324000D01*
X88015150Y-74444000D01*
X88014240Y-74454420D01*
X88011530Y-74464520D01*
X88007110Y-74474000D01*
X88001110Y-74482570D01*
X87993720Y-74489970D01*
X87985150Y-74495960D01*
X87975670Y-74500380D01*
X87965570Y-74503090D01*
X87955150Y-74504000D01*
X87775150Y-74504000D01*
X87764730Y-74503090D01*
X87754630Y-74500380D01*
X87745150Y-74495960D01*
X87736580Y-74489970D01*
X87729180Y-74482570D01*
X87723190Y-74474000D01*
X87718770Y-74464520D01*
X87716060Y-74454420D01*
X87715150Y-74444000D01*
X87715150Y-74324000D01*
X87716060Y-74313580D01*
X87718770Y-74303480D01*
X87723190Y-74294000D01*
X87729180Y-74285440D01*
X87736580Y-74278040D01*
X87745150Y-74272040D01*
X87754630Y-74267620D01*
X87764730Y-74264910D01*
X87775150Y-74264000D01*
X87955150Y-74264000D01*
X87965570Y-74264910D01*
G37*
G36*
X87970590Y-72314910D02*
G01*
X87980690Y-72317620D01*
X87990170Y-72322040D01*
X87998730Y-72328040D01*
X88006130Y-72335440D01*
X88012130Y-72344000D01*
X88016550Y-72353480D01*
X88019260Y-72363580D01*
X88020170Y-72374000D01*
X88020170Y-72494000D01*
X88019260Y-72504420D01*
X88016550Y-72514520D01*
X88012130Y-72524000D01*
X88006130Y-72532570D01*
X87998730Y-72539970D01*
X87990170Y-72545960D01*
X87980690Y-72550380D01*
X87970590Y-72553090D01*
X87960170Y-72554000D01*
X87380170Y-72554000D01*
X87369750Y-72553090D01*
X87359650Y-72550380D01*
X87350170Y-72545960D01*
X87341600Y-72539970D01*
X87334200Y-72532570D01*
X87328210Y-72524000D01*
X87323790Y-72514520D01*
X87321080Y-72504420D01*
X87320170Y-72494000D01*
X87320170Y-72374000D01*
X87321080Y-72363580D01*
X87323790Y-72353480D01*
X87328210Y-72344000D01*
X87334200Y-72335440D01*
X87341600Y-72328040D01*
X87350170Y-72322040D01*
X87359650Y-72317620D01*
X87369750Y-72314910D01*
X87380170Y-72314000D01*
X87960170Y-72314000D01*
X87970590Y-72314910D01*
G37*
%TO.C,Q5*%
G36*
X89442660Y-72314910D02*
G01*
X89452760Y-72317620D01*
X89462240Y-72322040D01*
X89470810Y-72328040D01*
X89478210Y-72335440D01*
X89484200Y-72344000D01*
X89488620Y-72353480D01*
X89491330Y-72363580D01*
X89492240Y-72374000D01*
X89492240Y-72494000D01*
X89491330Y-72504420D01*
X89488620Y-72514520D01*
X89484200Y-72524000D01*
X89478210Y-72532570D01*
X89470810Y-72539970D01*
X89462240Y-72545960D01*
X89452760Y-72550380D01*
X89442660Y-72553090D01*
X89432240Y-72554000D01*
X88952240Y-72554000D01*
X88941830Y-72553090D01*
X88931720Y-72550380D01*
X88922240Y-72545960D01*
X88913680Y-72539970D01*
X88906280Y-72532570D01*
X88900280Y-72524000D01*
X88895860Y-72514520D01*
X88893160Y-72504420D01*
X88892240Y-72494000D01*
X88892240Y-72374000D01*
X88893160Y-72363580D01*
X88895860Y-72353480D01*
X88900280Y-72344000D01*
X88906280Y-72335440D01*
X88913680Y-72328040D01*
X88922240Y-72322040D01*
X88931720Y-72317620D01*
X88941830Y-72314910D01*
X88952240Y-72314000D01*
X89432240Y-72314000D01*
X89442660Y-72314910D01*
G37*
G36*
X89442660Y-72964910D02*
G01*
X89452760Y-72967620D01*
X89462240Y-72972040D01*
X89470810Y-72978040D01*
X89478210Y-72985430D01*
X89484200Y-72994000D01*
X89488620Y-73003480D01*
X89491330Y-73013580D01*
X89492240Y-73024000D01*
X89492240Y-73144000D01*
X89491330Y-73154420D01*
X89488620Y-73164520D01*
X89484200Y-73174000D01*
X89478210Y-73182570D01*
X89470810Y-73189970D01*
X89462240Y-73195960D01*
X89452760Y-73200380D01*
X89442660Y-73203090D01*
X89432240Y-73204000D01*
X88952240Y-73204000D01*
X88941830Y-73203090D01*
X88931720Y-73200380D01*
X88922240Y-73195960D01*
X88913680Y-73189970D01*
X88906280Y-73182570D01*
X88900280Y-73174000D01*
X88895860Y-73164520D01*
X88893160Y-73154420D01*
X88892240Y-73144000D01*
X88892240Y-73024000D01*
X88893160Y-73013580D01*
X88895860Y-73003480D01*
X88900280Y-72994000D01*
X88906280Y-72985430D01*
X88913680Y-72978040D01*
X88922240Y-72972040D01*
X88931720Y-72967620D01*
X88941830Y-72964910D01*
X88952240Y-72964000D01*
X89432240Y-72964000D01*
X89442660Y-72964910D01*
G37*
G36*
X89442660Y-73614920D02*
G01*
X89452760Y-73617620D01*
X89462240Y-73622040D01*
X89470810Y-73628040D01*
X89478210Y-73635440D01*
X89484200Y-73644000D01*
X89488620Y-73653480D01*
X89491330Y-73663580D01*
X89492240Y-73674000D01*
X89492240Y-73794000D01*
X89491330Y-73804420D01*
X89488620Y-73814520D01*
X89484200Y-73824000D01*
X89478210Y-73832570D01*
X89470810Y-73839970D01*
X89462240Y-73845960D01*
X89452760Y-73850380D01*
X89442660Y-73853090D01*
X89432240Y-73854000D01*
X88952240Y-73854000D01*
X88941830Y-73853090D01*
X88931720Y-73850380D01*
X88922240Y-73845960D01*
X88913680Y-73839970D01*
X88906280Y-73832570D01*
X88900280Y-73824000D01*
X88895860Y-73814520D01*
X88893160Y-73804420D01*
X88892240Y-73794000D01*
X88892240Y-73674000D01*
X88893160Y-73663580D01*
X88895860Y-73653480D01*
X88900280Y-73644000D01*
X88906280Y-73635440D01*
X88913680Y-73628040D01*
X88922240Y-73622040D01*
X88931720Y-73617620D01*
X88941830Y-73614920D01*
X88952240Y-73614000D01*
X89432240Y-73614000D01*
X89442660Y-73614920D01*
G37*
G36*
X89442660Y-74264910D02*
G01*
X89452760Y-74267620D01*
X89462240Y-74272040D01*
X89470810Y-74278040D01*
X89478210Y-74285440D01*
X89484200Y-74294000D01*
X89488620Y-74303480D01*
X89491330Y-74313580D01*
X89492240Y-74324000D01*
X89492240Y-74444000D01*
X89491330Y-74454420D01*
X89488620Y-74464520D01*
X89484200Y-74474000D01*
X89478210Y-74482570D01*
X89470810Y-74489970D01*
X89462240Y-74495960D01*
X89452760Y-74500380D01*
X89442660Y-74503090D01*
X89432240Y-74504000D01*
X88952240Y-74504000D01*
X88941830Y-74503090D01*
X88931720Y-74500380D01*
X88922240Y-74495960D01*
X88913680Y-74489970D01*
X88906280Y-74482570D01*
X88900280Y-74474000D01*
X88895860Y-74464520D01*
X88893160Y-74454420D01*
X88892240Y-74444000D01*
X88892240Y-74324000D01*
X88893160Y-74313580D01*
X88895860Y-74303480D01*
X88900280Y-74294000D01*
X88906280Y-74285440D01*
X88913680Y-74278040D01*
X88922240Y-74272040D01*
X88931720Y-74267620D01*
X88941830Y-74264910D01*
X88952240Y-74264000D01*
X89432240Y-74264000D01*
X89442660Y-74264910D01*
G37*
G36*
X91042580Y-72314910D02*
G01*
X91052680Y-72317620D01*
X91062160Y-72322040D01*
X91070730Y-72328040D01*
X91078130Y-72335440D01*
X91084120Y-72344000D01*
X91088540Y-72353480D01*
X91091250Y-72363580D01*
X91092160Y-72374000D01*
X91092160Y-72494000D01*
X91091250Y-72504420D01*
X91088540Y-72514520D01*
X91084120Y-72524000D01*
X91078130Y-72532570D01*
X91070730Y-72539970D01*
X91062160Y-72545960D01*
X91052680Y-72550380D01*
X91042580Y-72553090D01*
X91032160Y-72554000D01*
X89752160Y-72554000D01*
X89741750Y-72553090D01*
X89731640Y-72550380D01*
X89722160Y-72545960D01*
X89713600Y-72539970D01*
X89706200Y-72532570D01*
X89700200Y-72524000D01*
X89695780Y-72514520D01*
X89693080Y-72504420D01*
X89692160Y-72494000D01*
X89692160Y-72374000D01*
X89693080Y-72363580D01*
X89695780Y-72353480D01*
X89700200Y-72344000D01*
X89706200Y-72335440D01*
X89713600Y-72328040D01*
X89722160Y-72322040D01*
X89731640Y-72317620D01*
X89741750Y-72314910D01*
X89752160Y-72314000D01*
X91032160Y-72314000D01*
X91042580Y-72314910D01*
G37*
G36*
X91042580Y-72864910D02*
G01*
X91052690Y-72867620D01*
X91062170Y-72872040D01*
X91070730Y-72878040D01*
X91078130Y-72885430D01*
X91084130Y-72894000D01*
X91088550Y-72903480D01*
X91091250Y-72913580D01*
X91092170Y-72924000D01*
X91092170Y-73894000D01*
X91091250Y-73904420D01*
X91088550Y-73914520D01*
X91084130Y-73924000D01*
X91078130Y-73932570D01*
X91070730Y-73939970D01*
X91062170Y-73945960D01*
X91052690Y-73950380D01*
X91042580Y-73953090D01*
X91032170Y-73954000D01*
X89752160Y-73954000D01*
X89741740Y-73953090D01*
X89731640Y-73950380D01*
X89722160Y-73945960D01*
X89713590Y-73939970D01*
X89706200Y-73932570D01*
X89700200Y-73924000D01*
X89695780Y-73914520D01*
X89693070Y-73904420D01*
X89692160Y-73894000D01*
X89692160Y-72924000D01*
X89693070Y-72913580D01*
X89695780Y-72903480D01*
X89700200Y-72894000D01*
X89706200Y-72885430D01*
X89713590Y-72878040D01*
X89722160Y-72872040D01*
X89731640Y-72867620D01*
X89741740Y-72864910D01*
X89752160Y-72864000D01*
X91032170Y-72864000D01*
X91042580Y-72864910D01*
G37*
G36*
X91042580Y-74264910D02*
G01*
X91052690Y-74267620D01*
X91062170Y-74272040D01*
X91070730Y-74278040D01*
X91078130Y-74285440D01*
X91084130Y-74294000D01*
X91088550Y-74303480D01*
X91091250Y-74313580D01*
X91092170Y-74324000D01*
X91092170Y-74444000D01*
X91091250Y-74454420D01*
X91088550Y-74464520D01*
X91084130Y-74474000D01*
X91078130Y-74482570D01*
X91070730Y-74489970D01*
X91062170Y-74495960D01*
X91052690Y-74500380D01*
X91042580Y-74503090D01*
X91032170Y-74504000D01*
X89752170Y-74504000D01*
X89741750Y-74503090D01*
X89731650Y-74500380D01*
X89722170Y-74495960D01*
X89713600Y-74489970D01*
X89706200Y-74482570D01*
X89700210Y-74474000D01*
X89695790Y-74464520D01*
X89693080Y-74454420D01*
X89692170Y-74444000D01*
X89692170Y-74324000D01*
X89693080Y-74313580D01*
X89695790Y-74303480D01*
X89700210Y-74294000D01*
X89706200Y-74285440D01*
X89713600Y-74278040D01*
X89722170Y-74272040D01*
X89731650Y-74267620D01*
X89741750Y-74264910D01*
X89752170Y-74264000D01*
X91032170Y-74264000D01*
X91042580Y-74264910D01*
G37*
G36*
X92087590Y-72964910D02*
G01*
X92097690Y-72967620D01*
X92107170Y-72972040D01*
X92115740Y-72978040D01*
X92123130Y-72985430D01*
X92129130Y-72994000D01*
X92133550Y-73003480D01*
X92136260Y-73013580D01*
X92137170Y-73024000D01*
X92137170Y-73574000D01*
X92136260Y-73584420D01*
X92133550Y-73594520D01*
X92129130Y-73604000D01*
X92123130Y-73612570D01*
X92115740Y-73619970D01*
X92107170Y-73625960D01*
X92097690Y-73630380D01*
X92087590Y-73633090D01*
X92077170Y-73634000D01*
X91847170Y-73634000D01*
X91836750Y-73633090D01*
X91826650Y-73630380D01*
X91817170Y-73625960D01*
X91808600Y-73619970D01*
X91801200Y-73612570D01*
X91795210Y-73604000D01*
X91790790Y-73594520D01*
X91788080Y-73584420D01*
X91787170Y-73574000D01*
X91787170Y-73024000D01*
X91788080Y-73013580D01*
X91790790Y-73003480D01*
X91795210Y-72994000D01*
X91801200Y-72985430D01*
X91808600Y-72978040D01*
X91817170Y-72972040D01*
X91826650Y-72967620D01*
X91836750Y-72964910D01*
X91847170Y-72964000D01*
X92077170Y-72964000D01*
X92087590Y-72964910D01*
G37*
G36*
X92087590Y-73834910D02*
G01*
X92097690Y-73837620D01*
X92107170Y-73842040D01*
X92115740Y-73848040D01*
X92123130Y-73855430D01*
X92129130Y-73864000D01*
X92133550Y-73873480D01*
X92136260Y-73883580D01*
X92137170Y-73894000D01*
X92137170Y-74444000D01*
X92136260Y-74454420D01*
X92133550Y-74464520D01*
X92129130Y-74474000D01*
X92123130Y-74482570D01*
X92115740Y-74489970D01*
X92107170Y-74495960D01*
X92097690Y-74500380D01*
X92087590Y-74503090D01*
X92077170Y-74504000D01*
X91847170Y-74504000D01*
X91836750Y-74503090D01*
X91826650Y-74500380D01*
X91817170Y-74495960D01*
X91808600Y-74489970D01*
X91801200Y-74482570D01*
X91795210Y-74474000D01*
X91790790Y-74464520D01*
X91788080Y-74454420D01*
X91787170Y-74444000D01*
X91787170Y-73894000D01*
X91788080Y-73883580D01*
X91790790Y-73873480D01*
X91795210Y-73864000D01*
X91801200Y-73855430D01*
X91808600Y-73848040D01*
X91817170Y-73842040D01*
X91826650Y-73837620D01*
X91836750Y-73834910D01*
X91847170Y-73834000D01*
X92077170Y-73834000D01*
X92087590Y-73834910D01*
G37*
G36*
X92537570Y-72964910D02*
G01*
X92547670Y-72967620D01*
X92557150Y-72972040D01*
X92565720Y-72978040D01*
X92573110Y-72985430D01*
X92579110Y-72994000D01*
X92583530Y-73003480D01*
X92586240Y-73013580D01*
X92587150Y-73024000D01*
X92587150Y-73144000D01*
X92586240Y-73154420D01*
X92583530Y-73164520D01*
X92579110Y-73174000D01*
X92573110Y-73182570D01*
X92565720Y-73189970D01*
X92557150Y-73195960D01*
X92547670Y-73200380D01*
X92537570Y-73203090D01*
X92527150Y-73204000D01*
X92347150Y-73204000D01*
X92336730Y-73203090D01*
X92326630Y-73200380D01*
X92317150Y-73195960D01*
X92308580Y-73189970D01*
X92301180Y-73182570D01*
X92295190Y-73174000D01*
X92290770Y-73164520D01*
X92288060Y-73154420D01*
X92287150Y-73144000D01*
X92287150Y-73024000D01*
X92288060Y-73013580D01*
X92290770Y-73003480D01*
X92295190Y-72994000D01*
X92301180Y-72985430D01*
X92308580Y-72978040D01*
X92317150Y-72972040D01*
X92326630Y-72967620D01*
X92336730Y-72964910D01*
X92347150Y-72964000D01*
X92527150Y-72964000D01*
X92537570Y-72964910D01*
G37*
G36*
X92537570Y-73614910D02*
G01*
X92547670Y-73617620D01*
X92557150Y-73622040D01*
X92565720Y-73628040D01*
X92573110Y-73635430D01*
X92579110Y-73644000D01*
X92583530Y-73653480D01*
X92586240Y-73663580D01*
X92587150Y-73674000D01*
X92587150Y-73794000D01*
X92586240Y-73804420D01*
X92583530Y-73814520D01*
X92579110Y-73824000D01*
X92573110Y-73832570D01*
X92565720Y-73839960D01*
X92557150Y-73845960D01*
X92547670Y-73850380D01*
X92537570Y-73853090D01*
X92527150Y-73854000D01*
X92347150Y-73854000D01*
X92336730Y-73853090D01*
X92326630Y-73850380D01*
X92317150Y-73845960D01*
X92308580Y-73839960D01*
X92301180Y-73832570D01*
X92295190Y-73824000D01*
X92290770Y-73814520D01*
X92288060Y-73804420D01*
X92287150Y-73794000D01*
X92287150Y-73674000D01*
X92288060Y-73663580D01*
X92290770Y-73653480D01*
X92295190Y-73644000D01*
X92301180Y-73635430D01*
X92308580Y-73628040D01*
X92317150Y-73622040D01*
X92326630Y-73617620D01*
X92336730Y-73614910D01*
X92347150Y-73614000D01*
X92527150Y-73614000D01*
X92537570Y-73614910D01*
G37*
G36*
X92537570Y-74264910D02*
G01*
X92547670Y-74267620D01*
X92557150Y-74272040D01*
X92565720Y-74278040D01*
X92573110Y-74285440D01*
X92579110Y-74294000D01*
X92583530Y-74303480D01*
X92586240Y-74313580D01*
X92587150Y-74324000D01*
X92587150Y-74444000D01*
X92586240Y-74454420D01*
X92583530Y-74464520D01*
X92579110Y-74474000D01*
X92573110Y-74482570D01*
X92565720Y-74489970D01*
X92557150Y-74495960D01*
X92547670Y-74500380D01*
X92537570Y-74503090D01*
X92527150Y-74504000D01*
X92347150Y-74504000D01*
X92336730Y-74503090D01*
X92326630Y-74500380D01*
X92317150Y-74495960D01*
X92308580Y-74489970D01*
X92301180Y-74482570D01*
X92295190Y-74474000D01*
X92290770Y-74464520D01*
X92288060Y-74454420D01*
X92287150Y-74444000D01*
X92287150Y-74324000D01*
X92288060Y-74313580D01*
X92290770Y-74303480D01*
X92295190Y-74294000D01*
X92301180Y-74285440D01*
X92308580Y-74278040D01*
X92317150Y-74272040D01*
X92326630Y-74267620D01*
X92336730Y-74264910D01*
X92347150Y-74264000D01*
X92527150Y-74264000D01*
X92537570Y-74264910D01*
G37*
G36*
X92542590Y-72314910D02*
G01*
X92552690Y-72317620D01*
X92562170Y-72322040D01*
X92570730Y-72328040D01*
X92578130Y-72335440D01*
X92584130Y-72344000D01*
X92588550Y-72353480D01*
X92591260Y-72363580D01*
X92592170Y-72374000D01*
X92592170Y-72494000D01*
X92591260Y-72504420D01*
X92588550Y-72514520D01*
X92584130Y-72524000D01*
X92578130Y-72532570D01*
X92570730Y-72539970D01*
X92562170Y-72545960D01*
X92552690Y-72550380D01*
X92542590Y-72553090D01*
X92532170Y-72554000D01*
X91952170Y-72554000D01*
X91941750Y-72553090D01*
X91931650Y-72550380D01*
X91922170Y-72545960D01*
X91913600Y-72539970D01*
X91906200Y-72532570D01*
X91900210Y-72524000D01*
X91895790Y-72514520D01*
X91893080Y-72504420D01*
X91892170Y-72494000D01*
X91892170Y-72374000D01*
X91893080Y-72363580D01*
X91895790Y-72353480D01*
X91900210Y-72344000D01*
X91906200Y-72335440D01*
X91913600Y-72328040D01*
X91922170Y-72322040D01*
X91931650Y-72317620D01*
X91941750Y-72314910D01*
X91952170Y-72314000D01*
X92532170Y-72314000D01*
X92542590Y-72314910D01*
G37*
%TO.C,U2*%
G36*
X68521700Y-84919999D02*
G01*
X66918300Y-84919999D01*
X66918300Y-83824599D01*
X68521700Y-83824599D01*
X68521700Y-84919999D01*
G37*
G36*
X68521700Y-86215399D02*
G01*
X66918300Y-86215399D01*
X66918300Y-85119999D01*
X68521700Y-85119999D01*
X68521700Y-86215399D01*
G37*
%TO.C,Q2*%
G36*
X61947420Y-48749740D02*
G01*
X61957520Y-48752450D01*
X61967000Y-48756870D01*
X61975570Y-48762870D01*
X61982970Y-48770270D01*
X61988960Y-48778830D01*
X61993380Y-48788310D01*
X61996090Y-48798410D01*
X61997000Y-48808830D01*
X61997000Y-49388830D01*
X61996090Y-49399250D01*
X61993380Y-49409350D01*
X61988960Y-49418830D01*
X61982970Y-49427400D01*
X61975570Y-49434800D01*
X61967000Y-49440790D01*
X61957520Y-49445210D01*
X61947420Y-49447920D01*
X61937000Y-49448830D01*
X61817000Y-49448830D01*
X61806580Y-49447920D01*
X61796480Y-49445210D01*
X61787000Y-49440790D01*
X61778440Y-49434800D01*
X61771040Y-49427400D01*
X61765040Y-49418830D01*
X61760620Y-49409350D01*
X61757910Y-49399250D01*
X61757000Y-49388830D01*
X61757000Y-48808830D01*
X61757910Y-48798410D01*
X61760620Y-48788310D01*
X61765040Y-48778830D01*
X61771040Y-48770270D01*
X61778440Y-48762870D01*
X61787000Y-48756870D01*
X61796480Y-48752450D01*
X61806580Y-48749740D01*
X61817000Y-48748830D01*
X61937000Y-48748830D01*
X61947420Y-48749740D01*
G37*
G36*
X61947420Y-51849670D02*
G01*
X61957520Y-51852380D01*
X61967000Y-51856800D01*
X61975570Y-51862790D01*
X61982970Y-51870190D01*
X61988960Y-51878760D01*
X61993380Y-51888240D01*
X61996090Y-51898340D01*
X61997000Y-51908760D01*
X61997000Y-52388760D01*
X61996090Y-52399170D01*
X61993380Y-52409280D01*
X61988960Y-52418760D01*
X61982970Y-52427320D01*
X61975570Y-52434720D01*
X61967000Y-52440720D01*
X61957520Y-52445140D01*
X61947420Y-52447840D01*
X61937000Y-52448760D01*
X61817000Y-52448760D01*
X61806580Y-52447840D01*
X61796480Y-52445140D01*
X61787000Y-52440720D01*
X61778440Y-52434720D01*
X61771040Y-52427320D01*
X61765040Y-52418760D01*
X61760620Y-52409280D01*
X61757910Y-52399170D01*
X61757000Y-52388760D01*
X61757000Y-51908760D01*
X61757910Y-51898340D01*
X61760620Y-51888240D01*
X61765040Y-51878760D01*
X61771040Y-51870190D01*
X61778440Y-51862790D01*
X61787000Y-51856800D01*
X61796480Y-51852380D01*
X61806580Y-51849670D01*
X61817000Y-51848760D01*
X61937000Y-51848760D01*
X61947420Y-51849670D01*
G37*
G36*
X61947420Y-50249750D02*
G01*
X61957520Y-50252460D01*
X61967000Y-50256880D01*
X61975570Y-50262870D01*
X61982970Y-50270270D01*
X61988960Y-50278840D01*
X61993380Y-50288320D01*
X61996090Y-50298420D01*
X61997000Y-50308840D01*
X61997000Y-51588840D01*
X61996090Y-51599250D01*
X61993380Y-51609360D01*
X61988960Y-51618840D01*
X61982970Y-51627400D01*
X61975570Y-51634800D01*
X61967000Y-51640800D01*
X61957520Y-51645220D01*
X61947420Y-51647920D01*
X61937000Y-51648840D01*
X61817000Y-51648840D01*
X61806580Y-51647920D01*
X61796480Y-51645220D01*
X61787000Y-51640800D01*
X61778440Y-51634800D01*
X61771040Y-51627400D01*
X61765040Y-51618840D01*
X61760620Y-51609360D01*
X61757910Y-51599250D01*
X61757000Y-51588840D01*
X61757000Y-50308840D01*
X61757910Y-50298420D01*
X61760620Y-50288320D01*
X61765040Y-50278840D01*
X61771040Y-50270270D01*
X61778440Y-50262870D01*
X61787000Y-50256880D01*
X61796480Y-50252460D01*
X61806580Y-50249750D01*
X61817000Y-50248840D01*
X61937000Y-50248840D01*
X61947420Y-50249750D01*
G37*
G36*
X63347420Y-50249750D02*
G01*
X63357520Y-50252450D01*
X63367000Y-50256870D01*
X63375570Y-50262870D01*
X63382970Y-50270270D01*
X63388960Y-50278830D01*
X63393380Y-50288310D01*
X63396090Y-50298420D01*
X63397000Y-50308830D01*
X63397000Y-51588840D01*
X63396090Y-51599260D01*
X63393380Y-51609360D01*
X63388960Y-51618840D01*
X63382970Y-51627410D01*
X63375570Y-51634800D01*
X63367000Y-51640800D01*
X63357520Y-51645220D01*
X63347420Y-51647930D01*
X63337000Y-51648840D01*
X62367000Y-51648840D01*
X62356580Y-51647930D01*
X62346480Y-51645220D01*
X62337000Y-51640800D01*
X62328430Y-51634800D01*
X62321040Y-51627410D01*
X62315040Y-51618840D01*
X62310620Y-51609360D01*
X62307910Y-51599260D01*
X62307000Y-51588840D01*
X62307000Y-50308830D01*
X62307910Y-50298420D01*
X62310620Y-50288310D01*
X62315040Y-50278830D01*
X62321040Y-50270270D01*
X62328430Y-50262870D01*
X62337000Y-50256870D01*
X62346480Y-50252450D01*
X62356580Y-50249750D01*
X62367000Y-50248830D01*
X63337000Y-50248830D01*
X63347420Y-50249750D01*
G37*
G36*
X62597420Y-48754760D02*
G01*
X62607520Y-48757470D01*
X62617000Y-48761890D01*
X62625570Y-48767890D01*
X62632970Y-48775280D01*
X62638960Y-48783850D01*
X62643380Y-48793330D01*
X62646090Y-48803430D01*
X62647000Y-48813850D01*
X62647000Y-48993850D01*
X62646090Y-49004270D01*
X62643380Y-49014370D01*
X62638960Y-49023850D01*
X62632970Y-49032420D01*
X62625570Y-49039820D01*
X62617000Y-49045810D01*
X62607520Y-49050230D01*
X62597420Y-49052940D01*
X62587000Y-49053850D01*
X62467000Y-49053850D01*
X62456580Y-49052940D01*
X62446480Y-49050230D01*
X62437000Y-49045810D01*
X62428430Y-49039820D01*
X62421040Y-49032420D01*
X62415040Y-49023850D01*
X62410620Y-49014370D01*
X62407910Y-49004270D01*
X62407000Y-48993850D01*
X62407000Y-48813850D01*
X62407910Y-48803430D01*
X62410620Y-48793330D01*
X62415040Y-48783850D01*
X62421040Y-48775280D01*
X62428430Y-48767890D01*
X62437000Y-48761890D01*
X62446480Y-48757470D01*
X62456580Y-48754760D01*
X62467000Y-48753850D01*
X62587000Y-48753850D01*
X62597420Y-48754760D01*
G37*
G36*
X62597420Y-51849670D02*
G01*
X62607520Y-51852380D01*
X62617000Y-51856800D01*
X62625570Y-51862790D01*
X62632970Y-51870190D01*
X62638960Y-51878760D01*
X62643380Y-51888240D01*
X62646090Y-51898340D01*
X62647000Y-51908760D01*
X62647000Y-52388760D01*
X62646090Y-52399170D01*
X62643380Y-52409280D01*
X62638960Y-52418760D01*
X62632970Y-52427320D01*
X62625570Y-52434720D01*
X62617000Y-52440720D01*
X62607520Y-52445140D01*
X62597420Y-52447840D01*
X62587000Y-52448760D01*
X62467000Y-52448760D01*
X62456580Y-52447840D01*
X62446480Y-52445140D01*
X62437000Y-52440720D01*
X62428430Y-52434720D01*
X62421040Y-52427320D01*
X62415040Y-52418760D01*
X62410620Y-52409280D01*
X62407910Y-52399170D01*
X62407000Y-52388760D01*
X62407000Y-51908760D01*
X62407910Y-51898340D01*
X62410620Y-51888240D01*
X62415040Y-51878760D01*
X62421040Y-51870190D01*
X62428430Y-51862790D01*
X62437000Y-51856800D01*
X62446480Y-51852380D01*
X62456580Y-51849670D01*
X62467000Y-51848760D01*
X62587000Y-51848760D01*
X62597420Y-51849670D01*
G37*
G36*
X63027420Y-49204740D02*
G01*
X63037520Y-49207450D01*
X63047000Y-49211870D01*
X63055570Y-49217870D01*
X63062970Y-49225260D01*
X63068960Y-49233830D01*
X63073380Y-49243310D01*
X63076090Y-49253410D01*
X63077000Y-49263830D01*
X63077000Y-49493830D01*
X63076090Y-49504250D01*
X63073380Y-49514350D01*
X63068960Y-49523830D01*
X63062970Y-49532400D01*
X63055570Y-49539800D01*
X63047000Y-49545790D01*
X63037520Y-49550210D01*
X63027420Y-49552920D01*
X63017000Y-49553830D01*
X62467000Y-49553830D01*
X62456580Y-49552920D01*
X62446480Y-49550210D01*
X62437000Y-49545790D01*
X62428430Y-49539800D01*
X62421040Y-49532400D01*
X62415040Y-49523830D01*
X62410620Y-49514350D01*
X62407910Y-49504250D01*
X62407000Y-49493830D01*
X62407000Y-49263830D01*
X62407910Y-49253410D01*
X62410620Y-49243310D01*
X62415040Y-49233830D01*
X62421040Y-49225260D01*
X62428430Y-49217870D01*
X62437000Y-49211870D01*
X62446480Y-49207450D01*
X62456580Y-49204740D01*
X62467000Y-49203830D01*
X63017000Y-49203830D01*
X63027420Y-49204740D01*
G37*
G36*
X63247420Y-48754760D02*
G01*
X63257520Y-48757470D01*
X63267000Y-48761890D01*
X63275570Y-48767890D01*
X63282960Y-48775280D01*
X63288960Y-48783850D01*
X63293380Y-48793330D01*
X63296090Y-48803430D01*
X63297000Y-48813850D01*
X63297000Y-48993850D01*
X63296090Y-49004270D01*
X63293380Y-49014370D01*
X63288960Y-49023850D01*
X63282960Y-49032420D01*
X63275570Y-49039820D01*
X63267000Y-49045810D01*
X63257520Y-49050230D01*
X63247420Y-49052940D01*
X63237000Y-49053850D01*
X63117000Y-49053850D01*
X63106580Y-49052940D01*
X63096480Y-49050230D01*
X63087000Y-49045810D01*
X63078430Y-49039820D01*
X63071040Y-49032420D01*
X63065040Y-49023850D01*
X63060620Y-49014370D01*
X63057910Y-49004270D01*
X63057000Y-48993850D01*
X63057000Y-48813850D01*
X63057910Y-48803430D01*
X63060620Y-48793330D01*
X63065040Y-48783850D01*
X63071040Y-48775280D01*
X63078430Y-48767890D01*
X63087000Y-48761890D01*
X63096480Y-48757470D01*
X63106580Y-48754760D01*
X63117000Y-48753850D01*
X63237000Y-48753850D01*
X63247420Y-48754760D01*
G37*
G36*
X63247420Y-51849670D02*
G01*
X63257520Y-51852380D01*
X63267000Y-51856800D01*
X63275570Y-51862790D01*
X63282970Y-51870190D01*
X63288960Y-51878760D01*
X63293380Y-51888240D01*
X63296090Y-51898340D01*
X63297000Y-51908760D01*
X63297000Y-52388760D01*
X63296090Y-52399170D01*
X63293380Y-52409280D01*
X63288960Y-52418760D01*
X63282970Y-52427320D01*
X63275570Y-52434720D01*
X63267000Y-52440720D01*
X63257520Y-52445140D01*
X63247420Y-52447840D01*
X63237000Y-52448760D01*
X63117000Y-52448760D01*
X63106580Y-52447840D01*
X63096480Y-52445140D01*
X63087000Y-52440720D01*
X63078440Y-52434720D01*
X63071040Y-52427320D01*
X63065040Y-52418760D01*
X63060620Y-52409280D01*
X63057920Y-52399170D01*
X63057000Y-52388760D01*
X63057000Y-51908760D01*
X63057920Y-51898340D01*
X63060620Y-51888240D01*
X63065040Y-51878760D01*
X63071040Y-51870190D01*
X63078440Y-51862790D01*
X63087000Y-51856800D01*
X63096480Y-51852380D01*
X63106580Y-51849670D01*
X63117000Y-51848760D01*
X63237000Y-51848760D01*
X63247420Y-51849670D01*
G37*
G36*
X63897420Y-48754760D02*
G01*
X63907520Y-48757470D01*
X63917000Y-48761890D01*
X63925570Y-48767890D01*
X63932970Y-48775280D01*
X63938960Y-48783850D01*
X63943380Y-48793330D01*
X63946090Y-48803430D01*
X63947000Y-48813850D01*
X63947000Y-48993850D01*
X63946090Y-49004270D01*
X63943380Y-49014370D01*
X63938960Y-49023850D01*
X63932970Y-49032420D01*
X63925570Y-49039820D01*
X63917000Y-49045810D01*
X63907520Y-49050230D01*
X63897420Y-49052940D01*
X63887000Y-49053850D01*
X63767000Y-49053850D01*
X63756580Y-49052940D01*
X63746480Y-49050230D01*
X63737000Y-49045810D01*
X63728440Y-49039820D01*
X63721040Y-49032420D01*
X63715040Y-49023850D01*
X63710620Y-49014370D01*
X63707910Y-49004270D01*
X63707000Y-48993850D01*
X63707000Y-48813850D01*
X63707910Y-48803430D01*
X63710620Y-48793330D01*
X63715040Y-48783850D01*
X63721040Y-48775280D01*
X63728440Y-48767890D01*
X63737000Y-48761890D01*
X63746480Y-48757470D01*
X63756580Y-48754760D01*
X63767000Y-48753850D01*
X63887000Y-48753850D01*
X63897420Y-48754760D01*
G37*
G36*
X63897420Y-51849670D02*
G01*
X63907520Y-51852380D01*
X63917000Y-51856800D01*
X63925570Y-51862790D01*
X63932970Y-51870190D01*
X63938960Y-51878760D01*
X63943380Y-51888240D01*
X63946090Y-51898340D01*
X63947000Y-51908760D01*
X63947000Y-52388760D01*
X63946090Y-52399170D01*
X63943380Y-52409280D01*
X63938960Y-52418760D01*
X63932970Y-52427320D01*
X63925570Y-52434720D01*
X63917000Y-52440720D01*
X63907520Y-52445140D01*
X63897420Y-52447840D01*
X63887000Y-52448760D01*
X63767000Y-52448760D01*
X63756580Y-52447840D01*
X63746480Y-52445140D01*
X63737000Y-52440720D01*
X63728440Y-52434720D01*
X63721040Y-52427320D01*
X63715040Y-52418760D01*
X63710620Y-52409280D01*
X63707910Y-52399170D01*
X63707000Y-52388760D01*
X63707000Y-51908760D01*
X63707910Y-51898340D01*
X63710620Y-51888240D01*
X63715040Y-51878760D01*
X63721040Y-51870190D01*
X63728440Y-51862790D01*
X63737000Y-51856800D01*
X63746480Y-51852380D01*
X63756580Y-51849670D01*
X63767000Y-51848760D01*
X63887000Y-51848760D01*
X63897420Y-51849670D01*
G37*
G36*
X63897420Y-49204740D02*
G01*
X63907520Y-49207450D01*
X63917000Y-49211870D01*
X63925570Y-49217870D01*
X63932970Y-49225260D01*
X63938960Y-49233830D01*
X63943380Y-49243310D01*
X63946090Y-49253410D01*
X63947000Y-49263830D01*
X63947000Y-49493830D01*
X63946090Y-49504250D01*
X63943380Y-49514350D01*
X63938960Y-49523830D01*
X63932970Y-49532400D01*
X63925570Y-49539800D01*
X63917000Y-49545790D01*
X63907520Y-49550210D01*
X63897420Y-49552920D01*
X63887000Y-49553830D01*
X63337000Y-49553830D01*
X63326580Y-49552920D01*
X63316480Y-49550210D01*
X63307000Y-49545790D01*
X63298430Y-49539800D01*
X63291040Y-49532400D01*
X63285040Y-49523830D01*
X63280620Y-49514350D01*
X63277910Y-49504250D01*
X63277000Y-49493830D01*
X63277000Y-49263830D01*
X63277910Y-49253410D01*
X63280620Y-49243310D01*
X63285040Y-49233830D01*
X63291040Y-49225260D01*
X63298430Y-49217870D01*
X63307000Y-49211870D01*
X63316480Y-49207450D01*
X63326580Y-49204740D01*
X63337000Y-49203830D01*
X63887000Y-49203830D01*
X63897420Y-49204740D01*
G37*
G36*
X63897420Y-50249750D02*
G01*
X63907520Y-50252450D01*
X63917000Y-50256870D01*
X63925570Y-50262870D01*
X63932970Y-50270270D01*
X63938960Y-50278830D01*
X63943380Y-50288310D01*
X63946090Y-50298420D01*
X63947000Y-50308830D01*
X63947000Y-51588830D01*
X63946090Y-51599250D01*
X63943380Y-51609350D01*
X63938960Y-51618830D01*
X63932970Y-51627400D01*
X63925570Y-51634800D01*
X63917000Y-51640790D01*
X63907520Y-51645210D01*
X63897420Y-51647920D01*
X63887000Y-51648830D01*
X63767000Y-51648830D01*
X63756580Y-51647920D01*
X63746480Y-51645210D01*
X63737000Y-51640790D01*
X63728440Y-51634800D01*
X63721040Y-51627400D01*
X63715040Y-51618830D01*
X63710620Y-51609350D01*
X63707910Y-51599250D01*
X63707000Y-51588830D01*
X63707000Y-50308830D01*
X63707910Y-50298420D01*
X63710620Y-50288310D01*
X63715040Y-50278830D01*
X63721040Y-50270270D01*
X63728440Y-50262870D01*
X63737000Y-50256870D01*
X63746480Y-50252450D01*
X63756580Y-50249750D01*
X63767000Y-50248830D01*
X63887000Y-50248830D01*
X63897420Y-50249750D01*
G37*
%TD*%
D11*
%TO.C,R43*%
X76695000Y-87782500D03*
X76695000Y-88977500D03*
%TD*%
D12*
%TO.C,C8*%
X51803000Y-79654000D03*
X51803000Y-78519000D03*
%TD*%
D13*
%TO.C,U3*%
X61753450Y-90087001D03*
X61753450Y-90736999D03*
X61753450Y-91387001D03*
X61753450Y-92036999D03*
X66185750Y-92036999D03*
X66185750Y-91387001D03*
X66185750Y-90736999D03*
X66185750Y-90087001D03*
%TD*%
D14*
%TO.C,R14*%
X59122000Y-94110000D03*
X60947000Y-94110000D03*
%TD*%
D15*
%TO.C,C57*%
X56121000Y-69599000D03*
X56121000Y-70734000D03*
%TD*%
D14*
%TO.C,R42*%
X82283000Y-87125000D03*
X84108000Y-87125000D03*
%TD*%
D16*
%TO.C,R31*%
X44945000Y-82275500D03*
X44945000Y-84100500D03*
%TD*%
D17*
%TO.C,C22*%
X57104000Y-67440000D03*
X58239000Y-67440000D03*
%TD*%
D18*
%TO.C,C38*%
X92050000Y-89067000D03*
X95175000Y-89067000D03*
%TD*%
D19*
%TO.C,C19*%
X44437000Y-88977000D03*
X44437000Y-87252000D03*
%TD*%
D20*
%TO.C,C5*%
X60873000Y-81664000D03*
X62598000Y-81664000D03*
%TD*%
D12*
%TO.C,C47*%
X70980000Y-75982000D03*
X70980000Y-74847000D03*
%TD*%
D14*
%TO.C,R25*%
X62551000Y-58296000D03*
X64376000Y-58296000D03*
%TD*%
D19*
%TO.C,C15*%
X57137000Y-90882000D03*
X57137000Y-89157000D03*
%TD*%
D21*
%TO.C,R3*%
X93967000Y-75869000D03*
X93967000Y-74044000D03*
%TD*%
D20*
%TO.C,C45*%
X59349000Y-65662000D03*
X61074000Y-65662000D03*
%TD*%
%TO.C,C30*%
X88813000Y-59312000D03*
X90538000Y-59312000D03*
%TD*%
D16*
%TO.C,R21*%
X65900000Y-80517500D03*
X65900000Y-82342500D03*
%TD*%
D22*
%TO.C,C48*%
X75933000Y-77018000D03*
X75933000Y-78743000D03*
%TD*%
D23*
%TO.C,R10*%
X73214000Y-74552000D03*
X74409000Y-74552000D03*
%TD*%
D12*
%TO.C,C39*%
X70980000Y-73155000D03*
X70980000Y-72020000D03*
%TD*%
D21*
%TO.C,R6*%
X47993000Y-93268000D03*
X47993000Y-91443000D03*
%TD*%
D15*
%TO.C,C56*%
X71742000Y-68777500D03*
X71742000Y-69912500D03*
%TD*%
D21*
%TO.C,R38*%
X80124000Y-85140000D03*
X80124000Y-83315000D03*
%TD*%
D24*
%TO.C,R12*%
X60994000Y-95634000D03*
X59169000Y-95634000D03*
%TD*%
D22*
%TO.C,C46*%
X80505000Y-77018000D03*
X80505000Y-78743000D03*
%TD*%
D16*
%TO.C,R33*%
X77457000Y-76918000D03*
X77457000Y-78743000D03*
%TD*%
D22*
%TO.C,C7*%
X52565000Y-75367000D03*
X52565000Y-77092000D03*
%TD*%
D25*
%TO.C,D10*%
X72120000Y-73028000D03*
X73520000Y-73028000D03*
%TD*%
D21*
%TO.C,R2*%
X44945000Y-80568000D03*
X44945000Y-78743000D03*
%TD*%
D26*
%TO.C,C27*%
X58153000Y-46844500D03*
X58153000Y-48919500D03*
%TD*%
D27*
%TO.C,C23*%
X84950000Y-47259000D03*
X84950000Y-44134000D03*
%TD*%
D21*
%TO.C,R36*%
X78600000Y-85140000D03*
X78600000Y-83315000D03*
%TD*%
D24*
%TO.C,R15*%
X68233000Y-95634000D03*
X66408000Y-95634000D03*
%TD*%
D28*
%TO.C,U2*%
X66300000Y-84019998D03*
X66300000Y-84520000D03*
X66300000Y-85019999D03*
X66300000Y-85519998D03*
X66300000Y-86020000D03*
X69140000Y-86020000D03*
X69140000Y-85519998D03*
X69140000Y-85019999D03*
X69140000Y-84520000D03*
X69140000Y-84019998D03*
D29*
X67720000Y-85019999D03*
%TD*%
D21*
%TO.C,R24*%
X94094000Y-67487000D03*
X94094000Y-65662000D03*
%TD*%
D23*
%TO.C,R30*%
X49173500Y-78997000D03*
X50368500Y-78997000D03*
%TD*%
D20*
%TO.C,C33*%
X90591000Y-76457000D03*
X92316000Y-76457000D03*
%TD*%
D18*
%TO.C,C36*%
X92050000Y-84047000D03*
X95175000Y-84047000D03*
%TD*%
D19*
%TO.C,C51*%
X81648000Y-85040000D03*
X81648000Y-83315000D03*
%TD*%
D20*
%TO.C,C18*%
X67477000Y-82426000D03*
X69202000Y-82426000D03*
%TD*%
D27*
%TO.C,C24*%
X87998000Y-47259000D03*
X87998000Y-44134000D03*
%TD*%
D20*
%TO.C,C3*%
X47538000Y-74044000D03*
X49263000Y-74044000D03*
%TD*%
D18*
%TO.C,C26*%
X90499500Y-50392000D03*
X93624500Y-50392000D03*
%TD*%
D24*
%TO.C,R20*%
X72551000Y-85474000D03*
X70726000Y-85474000D03*
%TD*%
D30*
%TO.C,C12*%
X58862000Y-92586000D03*
X57137000Y-92586000D03*
%TD*%
D20*
%TO.C,C17*%
X68085500Y-89157000D03*
X69810500Y-89157000D03*
%TD*%
D31*
%TO.C,R23*%
X89854210Y-53271154D03*
X89854210Y-56371154D03*
%TD*%
D16*
%TO.C,R11*%
X55610000Y-82067500D03*
X55610000Y-83892500D03*
%TD*%
D14*
%TO.C,R17*%
X61027000Y-88014000D03*
X62852000Y-88014000D03*
%TD*%
D17*
%TO.C,C54*%
X72893000Y-78235000D03*
X74028000Y-78235000D03*
%TD*%
D20*
%TO.C,C43*%
X63681892Y-63335992D03*
X65406892Y-63335992D03*
%TD*%
D32*
%TO.C,D7*%
X45707000Y-90554000D03*
X44157000Y-90554000D03*
%TD*%
D33*
%TO.C,IC1*%
X53872000Y-85489000D03*
X52572000Y-85489000D03*
X53222000Y-87689000D03*
%TD*%
D34*
%TO.C,D9*%
X54473000Y-73536000D03*
X53073000Y-73536000D03*
%TD*%
D18*
%TO.C,C34*%
X90839199Y-79018095D03*
X93964199Y-79018095D03*
%TD*%
D35*
%TO.C,L1*%
X67881000Y-47882000D03*
X77381000Y-47882000D03*
%TD*%
D15*
%TO.C,C58*%
X54724000Y-69607000D03*
X54724000Y-70742000D03*
%TD*%
D24*
%TO.C,R19*%
X72504000Y-83950000D03*
X70679000Y-83950000D03*
%TD*%
D21*
%TO.C,R16*%
X58661000Y-90935000D03*
X58661000Y-89110000D03*
%TD*%
D36*
%TO.C,C44*%
X59042000Y-63122000D03*
X61117000Y-63122000D03*
%TD*%
D37*
%TO.C,D2*%
X51600500Y-95126000D03*
X50735500Y-95126000D03*
%TD*%
D21*
%TO.C,R18*%
X69075000Y-92506000D03*
X69075000Y-90681000D03*
%TD*%
D17*
%TO.C,C9*%
X75806000Y-74552000D03*
X76941000Y-74552000D03*
%TD*%
D30*
%TO.C,C50*%
X78928000Y-81791000D03*
X77203000Y-81791000D03*
%TD*%
D14*
%TO.C,R34*%
X77156000Y-80267000D03*
X78981000Y-80267000D03*
%TD*%
D27*
%TO.C,C20*%
X53357000Y-48898000D03*
X53357000Y-45773000D03*
%TD*%
D23*
%TO.C,R8*%
X55561000Y-72393000D03*
X56756000Y-72393000D03*
%TD*%
D21*
%TO.C,R41*%
X83045000Y-90450500D03*
X83045000Y-88625500D03*
%TD*%
D19*
%TO.C,C49*%
X77076000Y-85040000D03*
X77076000Y-83315000D03*
%TD*%
D38*
%TO.C,U1*%
X59094838Y-70171339D03*
X59094838Y-70571339D03*
X59094838Y-70971338D03*
X59094838Y-71371337D03*
X59094838Y-71771339D03*
X59094838Y-72171338D03*
X59094838Y-72571337D03*
X59094838Y-72971339D03*
X59094838Y-73371338D03*
X59094838Y-73771337D03*
X59094838Y-74171339D03*
X59094838Y-74571338D03*
X59094838Y-74971337D03*
X59094838Y-75371337D03*
X59094838Y-75771338D03*
X59094838Y-76171337D03*
X59094838Y-76571337D03*
D39*
X59791339Y-77267838D03*
X60191339Y-77267838D03*
X60591338Y-77267838D03*
X60991339Y-77267838D03*
X61391339Y-77267838D03*
X61791338Y-77267838D03*
X62191337Y-77267838D03*
X62591339Y-77267838D03*
X62991338Y-77267838D03*
X63391337Y-77267838D03*
X63791339Y-77267838D03*
X64191338Y-77267838D03*
X64591337Y-77267838D03*
X64991337Y-77267838D03*
X65391338Y-77267838D03*
X65791337Y-77267838D03*
X66191337Y-77267838D03*
D38*
X66887838Y-76571337D03*
X66887838Y-76171337D03*
X66887838Y-75771338D03*
X66887838Y-75371337D03*
X66887838Y-74971337D03*
X66887838Y-74571338D03*
X66887838Y-74171339D03*
X66887838Y-73771337D03*
X66887838Y-73371338D03*
X66887838Y-72971339D03*
X66887838Y-72571337D03*
X66887838Y-72171338D03*
X66887838Y-71771339D03*
X66887838Y-71371339D03*
X66887838Y-70971338D03*
X66887838Y-70571339D03*
X66887838Y-70171339D03*
D39*
X66191337Y-69474838D03*
X65791337Y-69474838D03*
X65391338Y-69474838D03*
X64991337Y-69474838D03*
X64591337Y-69474838D03*
X64191338Y-69474838D03*
X63791339Y-69474838D03*
X63391337Y-69474838D03*
X62991338Y-69474838D03*
X62591339Y-69474838D03*
X62191337Y-69474838D03*
X61791338Y-69474838D03*
X61391339Y-69474838D03*
X60991339Y-69474838D03*
X60591338Y-69474838D03*
X60191339Y-69474838D03*
X59791339Y-69474838D03*
D40*
X62991338Y-73371338D03*
%TD*%
D30*
%TO.C,C11*%
X54036000Y-84077000D03*
X52311000Y-84077000D03*
%TD*%
%TO.C,C13*%
X68260000Y-94110000D03*
X66535000Y-94110000D03*
%TD*%
D22*
%TO.C,C10*%
X55613000Y-85527000D03*
X55613000Y-87252000D03*
%TD*%
D27*
%TO.C,C21*%
X55867000Y-48898000D03*
X55867000Y-45773000D03*
%TD*%
D16*
%TO.C,R32*%
X78981000Y-76941500D03*
X78981000Y-78766500D03*
%TD*%
D20*
%TO.C,C52*%
X88432000Y-94110000D03*
X90157000Y-94110000D03*
%TD*%
%TO.C,C6*%
X60873000Y-83188000D03*
X62598000Y-83188000D03*
%TD*%
%TO.C,C41*%
X90337000Y-67440000D03*
X92062000Y-67440000D03*
%TD*%
D41*
%TO.C,D13*%
X78593000Y-90366000D03*
X78593000Y-92266000D03*
X80893000Y-91316000D03*
%TD*%
D20*
%TO.C,C1*%
X62651000Y-64900000D03*
X64376000Y-64900000D03*
%TD*%
D25*
%TO.C,D11*%
X68691000Y-66424000D03*
X70091000Y-66424000D03*
%TD*%
D42*
%TO.C,R9*%
X54455000Y-72130000D03*
X53260000Y-72130000D03*
%TD*%
D20*
%TO.C,C16*%
X63032000Y-93983000D03*
X64757000Y-93983000D03*
%TD*%
D21*
%TO.C,R1*%
X50914000Y-75996000D03*
X50914000Y-74171000D03*
%TD*%
D14*
%TO.C,R29*%
X48731500Y-77600000D03*
X50556500Y-77600000D03*
%TD*%
D16*
%TO.C,R39*%
X85839000Y-85935000D03*
X85839000Y-87760000D03*
%TD*%
D17*
%TO.C,C53*%
X72852000Y-77092000D03*
X73987000Y-77092000D03*
%TD*%
D18*
%TO.C,C25*%
X90499500Y-47882000D03*
X93624500Y-47882000D03*
%TD*%
D36*
%TO.C,C29*%
X86606000Y-68710000D03*
X88681000Y-68710000D03*
%TD*%
D34*
%TO.C,D8*%
X57964000Y-66170000D03*
X56564000Y-66170000D03*
%TD*%
D43*
%TO.C,Q8*%
X78630000Y-86683000D03*
X78630000Y-88583000D03*
X80505000Y-87633000D03*
%TD*%
D20*
%TO.C,C4*%
X47538000Y-75695000D03*
X49263000Y-75695000D03*
%TD*%
D19*
%TO.C,C28*%
X59931000Y-48972000D03*
X59931000Y-47247000D03*
%TD*%
D42*
%TO.C,R28*%
X88083133Y-55424012D03*
X86888133Y-55424012D03*
%TD*%
D37*
%TO.C,D1*%
X51627000Y-96015000D03*
X50762000Y-96015000D03*
%TD*%
D44*
%TO.C,R22*%
X55815000Y-51692000D03*
X58915000Y-51692000D03*
%TD*%
D22*
%TO.C,C2*%
X55105000Y-75086500D03*
X55105000Y-76811500D03*
%TD*%
D18*
%TO.C,C35*%
X90839199Y-81528095D03*
X93964199Y-81528095D03*
%TD*%
D45*
%TO.C,D12*%
X84696000Y-80604000D03*
X84696000Y-84204000D03*
%TD*%
D20*
%TO.C,C31*%
X86781000Y-70488000D03*
X88506000Y-70488000D03*
%TD*%
D30*
%TO.C,C14*%
X57338000Y-94237000D03*
X55613000Y-94237000D03*
%TD*%
D42*
%TO.C,R27*%
X88080000Y-54225537D03*
X86885000Y-54225537D03*
%TD*%
D14*
%TO.C,R37*%
X80458000Y-81791000D03*
X82283000Y-81791000D03*
%TD*%
%TO.C,R35*%
X80458000Y-80267000D03*
X82283000Y-80267000D03*
%TD*%
D20*
%TO.C,C32*%
X88813000Y-61090000D03*
X90538000Y-61090000D03*
%TD*%
D18*
%TO.C,C37*%
X92050000Y-86557000D03*
X95175000Y-86557000D03*
%TD*%
D16*
%TO.C,R13*%
X55613000Y-89006500D03*
X55613000Y-90831500D03*
%TD*%
D15*
%TO.C,C55*%
X70726000Y-68777500D03*
X70726000Y-69912500D03*
%TD*%
D20*
%TO.C,C40*%
X67477000Y-67948000D03*
X69202000Y-67948000D03*
%TD*%
D21*
%TO.C,R7*%
X49771000Y-93244500D03*
X49771000Y-91419500D03*
%TD*%
D24*
%TO.C,R40*%
X85839000Y-91951000D03*
X84014000Y-91951000D03*
%TD*%
D20*
%TO.C,C42*%
X63614000Y-61852000D03*
X65339000Y-61852000D03*
%TD*%
M02*
