%TF.GenerationSoftware,KiCad,Pcbnew,10.0.0*%
%TF.CreationDate,2026-07-21T19:03:02+10:00*%
%TF.ProjectId,project,70726f6a-6563-4742-9e6b-696361645f70,rev?*%
%TF.SameCoordinates,Original*%
%TF.FileFunction,Soldermask,Top*%
%TF.FilePolarity,Negative*%
%FSLAX46Y46*%
G04 Gerber Fmt 4.6, Leading zero omitted, Abs format (unit mm)*
G04 Created by KiCad (PCBNEW 10.0.0) date 2026-07-21 19:03:02*
%MOMM*%
%LPD*%
G01*
G04 APERTURE LIST*
G04 Aperture macros list*
%AMRoundRect*
0 Rectangle with rounded corners*
0 $1 Rounding radius*
0 $2 $3 $4 $5 $6 $7 $8 $9 X,Y pos of 4 corners*
0 Add a 4 corners polygon primitive as box body*
4,1,4,$2,$3,$4,$5,$6,$7,$8,$9,$2,$3,0*
0 Add four circle primitives for the rounded corners*
1,1,$1+$1,$2,$3*
1,1,$1+$1,$4,$5*
1,1,$1+$1,$6,$7*
1,1,$1+$1,$8,$9*
0 Add four rect primitives between the rounded corners*
20,1,$1+$1,$2,$3,$4,$5,0*
20,1,$1+$1,$4,$5,$6,$7,0*
20,1,$1+$1,$6,$7,$8,$9,0*
20,1,$1+$1,$8,$9,$2,$3,0*%
G04 Aperture macros list end*
%ADD10C,0.000000*%
%ADD11C,6.400000*%
%ADD12R,1.333500X0.431800*%
%ADD13RoundRect,0.155000X0.155000X-0.212500X0.155000X0.212500X-0.155000X0.212500X-0.155000X-0.212500X0*%
%ADD14RoundRect,0.237500X-0.250000X-0.237500X0.250000X-0.237500X0.250000X0.237500X-0.250000X0.237500X0*%
%ADD15R,0.340000X0.550000*%
%ADD16R,0.340000X0.900000*%
%ADD17R,0.340000X0.750000*%
%ADD18RoundRect,0.155000X-0.155000X0.212500X-0.155000X-0.212500X0.155000X-0.212500X0.155000X0.212500X0*%
%ADD19R,0.550000X0.340000*%
%ADD20R,0.900000X0.340000*%
%ADD21R,0.750000X0.340000*%
%ADD22RoundRect,0.237500X-0.237500X0.250000X-0.237500X-0.250000X0.237500X-0.250000X0.237500X0.250000X0*%
%ADD23RoundRect,0.155000X-0.212500X-0.155000X0.212500X-0.155000X0.212500X0.155000X-0.212500X0.155000X0*%
%ADD24RoundRect,0.250000X-0.412500X-0.650000X0.412500X-0.650000X0.412500X0.650000X-0.412500X0.650000X0*%
%ADD25RoundRect,0.237500X0.237500X-0.300000X0.237500X0.300000X-0.237500X0.300000X-0.237500X-0.300000X0*%
%ADD26RoundRect,0.237500X-0.300000X-0.237500X0.300000X-0.237500X0.300000X0.237500X-0.300000X0.237500X0*%
%ADD27C,2.000000*%
%ADD28RoundRect,0.237500X0.237500X-0.250000X0.237500X0.250000X-0.237500X0.250000X-0.237500X-0.250000X0*%
%ADD29RoundRect,0.250001X0.899999X-0.899999X0.899999X0.899999X-0.899999X0.899999X-0.899999X-0.899999X0*%
%ADD30C,2.300000*%
%ADD31RoundRect,0.237500X-0.237500X0.300000X-0.237500X-0.300000X0.237500X-0.300000X0.237500X0.300000X0*%
%ADD32RoundRect,0.160000X-0.197500X-0.160000X0.197500X-0.160000X0.197500X0.160000X-0.197500X0.160000X0*%
%ADD33R,1.700000X1.700000*%
%ADD34C,1.700000*%
%ADD35C,1.500000*%
%ADD36RoundRect,0.237500X0.250000X0.237500X-0.250000X0.237500X-0.250000X-0.237500X0.250000X-0.237500X0*%
%ADD37RoundRect,0.150000X0.150000X0.200000X-0.150000X0.200000X-0.150000X-0.200000X0.150000X-0.200000X0*%
%ADD38RoundRect,0.250000X0.475000X-0.337500X0.475000X0.337500X-0.475000X0.337500X-0.475000X-0.337500X0*%
%ADD39RoundRect,0.250000X0.650000X-0.412500X0.650000X0.412500X-0.650000X0.412500X-0.650000X-0.412500X0*%
%ADD40R,0.757199X0.254800*%
%ADD41R,1.803400X2.590800*%
%ADD42RoundRect,0.237500X0.300000X0.237500X-0.300000X0.237500X-0.300000X-0.237500X0.300000X-0.237500X0*%
%ADD43RoundRect,0.250000X-0.625000X0.400000X-0.625000X-0.400000X0.625000X-0.400000X0.625000X0.400000X0*%
%ADD44R,0.550000X0.420000*%
%ADD45R,0.500000X0.750000*%
%ADD46RoundRect,0.150000X-0.150000X-0.200000X0.150000X-0.200000X0.150000X0.200000X-0.150000X0.200000X0*%
%ADD47R,4.100000X3.500000*%
%ADD48RoundRect,0.250000X-0.337500X-0.475000X0.337500X-0.475000X0.337500X0.475000X-0.337500X0.475000X0*%
%ADD49RoundRect,0.100000X0.217500X0.100000X-0.217500X0.100000X-0.217500X-0.100000X0.217500X-0.100000X0*%
%ADD50R,0.807999X0.204000*%
%ADD51R,0.204000X0.807999*%
%ADD52R,5.791200X5.791200*%
%ADD53R,1.050000X0.700000*%
%ADD54RoundRect,0.160000X0.197500X0.160000X-0.197500X0.160000X-0.197500X-0.160000X0.197500X-0.160000X0*%
%ADD55C,1.000000*%
%ADD56RoundRect,0.250000X1.050000X-1.050000X1.050000X1.050000X-1.050000X1.050000X-1.050000X-1.050000X0*%
%ADD57C,2.600000*%
%ADD58RoundRect,0.150000X-0.587500X-0.150000X0.587500X-0.150000X0.587500X0.150000X-0.587500X0.150000X0*%
%ADD59RoundRect,0.250000X-0.400000X-0.625000X0.400000X-0.625000X0.400000X0.625000X-0.400000X0.625000X0*%
%ADD60R,0.750000X1.050000*%
%ADD61RoundRect,0.160000X-0.160000X0.197500X-0.160000X-0.197500X0.160000X-0.197500X0.160000X0.197500X0*%
G04 APERTURE END LIST*
D10*
%TO.C,Q3*%
G36*
X64068000Y-44925750D02*
G01*
X62428000Y-44925750D01*
X62428000Y-44475750D01*
X64068000Y-44475750D01*
X64068000Y-44925750D01*
G37*
G36*
X64068000Y-47176250D02*
G01*
X61778000Y-47176250D01*
X61778000Y-45465750D01*
X64068000Y-45465750D01*
X64068000Y-47176250D01*
G37*
%TO.C,Q6*%
G36*
X86630250Y-65791000D02*
G01*
X84919750Y-65791000D01*
X84919750Y-63501000D01*
X86630250Y-63501000D01*
X86630250Y-65791000D01*
G37*
G36*
X87620250Y-65791000D02*
G01*
X87170250Y-65791000D01*
X87170250Y-64151000D01*
X87620250Y-64151000D01*
X87620250Y-65791000D01*
G37*
%TO.C,Q7*%
G36*
X91049250Y-65750000D02*
G01*
X89338750Y-65750000D01*
X89338750Y-63460000D01*
X91049250Y-63460000D01*
X91049250Y-65750000D01*
G37*
G36*
X92039250Y-65750000D02*
G01*
X91589250Y-65750000D01*
X91589250Y-64110000D01*
X92039250Y-64110000D01*
X92039250Y-65750000D01*
G37*
%TO.C,Q4*%
G36*
X86630250Y-74554000D02*
G01*
X84919750Y-74554000D01*
X84919750Y-72264000D01*
X86630250Y-72264000D01*
X86630250Y-74554000D01*
G37*
G36*
X87620250Y-74554000D02*
G01*
X87170250Y-74554000D01*
X87170250Y-72914000D01*
X87620250Y-72914000D01*
X87620250Y-74554000D01*
G37*
%TO.C,Q5*%
G36*
X91202250Y-74554000D02*
G01*
X89491750Y-74554000D01*
X89491750Y-72264000D01*
X91202250Y-72264000D01*
X91202250Y-74554000D01*
G37*
G36*
X92192250Y-74554000D02*
G01*
X91742250Y-74554000D01*
X91742250Y-72914000D01*
X92192250Y-72914000D01*
X92192250Y-74554000D01*
G37*
%TO.C,Q2*%
G36*
X63997000Y-49598750D02*
G01*
X62357000Y-49598750D01*
X62357000Y-49148750D01*
X63997000Y-49148750D01*
X63997000Y-49598750D01*
G37*
G36*
X63997000Y-51849250D02*
G01*
X61707000Y-51849250D01*
X61707000Y-50138750D01*
X63997000Y-50138750D01*
X63997000Y-51849250D01*
G37*
%TD*%
D11*
%TO.C,H2*%
X42000000Y-41000000D03*
%TD*%
D12*
%TO.C,U3*%
X61753450Y-90087001D03*
X61753450Y-90736999D03*
X61753450Y-91387001D03*
X61753450Y-92036999D03*
X66185750Y-92036999D03*
X66185750Y-91387001D03*
X66185750Y-90736999D03*
X66185750Y-90087001D03*
%TD*%
D13*
%TO.C,C8*%
X51803000Y-79654000D03*
X51803000Y-78519000D03*
%TD*%
D14*
%TO.C,R14*%
X59122000Y-94110000D03*
X60947000Y-94110000D03*
%TD*%
D15*
%TO.C,Q3*%
X63898000Y-44250750D03*
X63248000Y-44250750D03*
X62598000Y-44250750D03*
D16*
X61948000Y-44475750D03*
D17*
X61948000Y-47501000D03*
X62598000Y-47501000D03*
X63248000Y-47501000D03*
X63898000Y-47501250D03*
%TD*%
D18*
%TO.C,C57*%
X56121000Y-69599000D03*
X56121000Y-70734000D03*
%TD*%
D19*
%TO.C,Q6*%
X87845250Y-65621000D03*
X87845250Y-64971000D03*
X87845250Y-64321000D03*
D20*
X87620250Y-63671000D03*
D21*
X84595000Y-63671000D03*
X84595000Y-64321000D03*
X84595000Y-64971000D03*
X84594750Y-65621000D03*
%TD*%
D14*
%TO.C,R42*%
X82283000Y-87125000D03*
X84108000Y-87125000D03*
%TD*%
D22*
%TO.C,R31*%
X44945000Y-82275500D03*
X44945000Y-84100500D03*
%TD*%
D23*
%TO.C,C22*%
X57104000Y-67440000D03*
X58239000Y-67440000D03*
%TD*%
D19*
%TO.C,Q7*%
X92264250Y-65580000D03*
X92264250Y-64930000D03*
X92264250Y-64280000D03*
D20*
X92039250Y-63630000D03*
D21*
X89014000Y-63630000D03*
X89014000Y-64280000D03*
X89014000Y-64930000D03*
X89013750Y-65580000D03*
%TD*%
D24*
%TO.C,C38*%
X92050000Y-89067000D03*
X95175000Y-89067000D03*
%TD*%
D25*
%TO.C,C19*%
X44437000Y-88977000D03*
X44437000Y-87252000D03*
%TD*%
D26*
%TO.C,C5*%
X60873000Y-81664000D03*
X62598000Y-81664000D03*
%TD*%
D11*
%TO.C,H3*%
X100000000Y-99033537D03*
%TD*%
D13*
%TO.C,C47*%
X70980000Y-75982000D03*
X70980000Y-74847000D03*
%TD*%
D27*
%TO.C,TP18*%
X81961153Y-50930000D03*
%TD*%
D14*
%TO.C,R25*%
X62551000Y-58296000D03*
X64376000Y-58296000D03*
%TD*%
D25*
%TO.C,C15*%
X57137000Y-90882000D03*
X57137000Y-89157000D03*
%TD*%
D27*
%TO.C,TP5*%
X52819000Y-51819000D03*
%TD*%
D19*
%TO.C,Q4*%
X87845250Y-74384000D03*
X87845250Y-73734000D03*
X87845250Y-73084000D03*
D20*
X87620250Y-72434000D03*
D21*
X84595000Y-72434000D03*
X84595000Y-73084000D03*
X84595000Y-73734000D03*
X84594750Y-74384000D03*
%TD*%
D28*
%TO.C,R3*%
X93967000Y-75869000D03*
X93967000Y-74044000D03*
%TD*%
D26*
%TO.C,C45*%
X59349000Y-65662000D03*
X61074000Y-65662000D03*
%TD*%
%TO.C,C30*%
X88813000Y-59312000D03*
X90538000Y-59312000D03*
%TD*%
D29*
%TO.C,J5*%
X41514507Y-56158853D03*
D30*
X41514507Y-51358853D03*
%TD*%
D22*
%TO.C,R21*%
X65900000Y-80517500D03*
X65900000Y-82342500D03*
%TD*%
D31*
%TO.C,C48*%
X75933000Y-77018000D03*
X75933000Y-78743000D03*
%TD*%
D32*
%TO.C,R10*%
X73214000Y-74552000D03*
X74409000Y-74552000D03*
%TD*%
D13*
%TO.C,C39*%
X70980000Y-73155000D03*
X70980000Y-72020000D03*
%TD*%
D28*
%TO.C,R6*%
X47993000Y-93268000D03*
X47993000Y-91443000D03*
%TD*%
D33*
%TO.C,J4*%
X41583000Y-90427000D03*
D34*
X41583000Y-87887000D03*
X41583000Y-85347000D03*
X41583000Y-82807000D03*
X41583000Y-80267000D03*
%TD*%
D35*
%TO.C,TP8*%
X64376000Y-41887600D03*
%TD*%
D18*
%TO.C,C56*%
X71742000Y-68777500D03*
X71742000Y-69912500D03*
%TD*%
D28*
%TO.C,R38*%
X80124000Y-85140000D03*
X80124000Y-83315000D03*
%TD*%
D19*
%TO.C,Q5*%
X92417250Y-74384000D03*
X92417250Y-73734000D03*
X92417250Y-73084000D03*
D20*
X92192250Y-72434000D03*
D21*
X89167000Y-72434000D03*
X89167000Y-73084000D03*
X89167000Y-73734000D03*
X89166750Y-74384000D03*
%TD*%
D36*
%TO.C,R12*%
X60994000Y-95634000D03*
X59169000Y-95634000D03*
%TD*%
D31*
%TO.C,C46*%
X80505000Y-77018000D03*
X80505000Y-78743000D03*
%TD*%
D22*
%TO.C,R33*%
X77457000Y-76918000D03*
X77457000Y-78743000D03*
%TD*%
D33*
%TO.C,J2*%
X41516000Y-69599000D03*
D34*
X41516000Y-67059000D03*
%TD*%
D31*
%TO.C,C7*%
X52565000Y-75367000D03*
X52565000Y-77092000D03*
%TD*%
D37*
%TO.C,D10*%
X72120000Y-73028000D03*
X73520000Y-73028000D03*
%TD*%
D28*
%TO.C,R2*%
X44945000Y-80568000D03*
X44945000Y-78743000D03*
%TD*%
D38*
%TO.C,C27*%
X58153000Y-48919500D03*
X58153000Y-46844500D03*
%TD*%
D39*
%TO.C,C23*%
X84950000Y-47259000D03*
X84950000Y-44134000D03*
%TD*%
D28*
%TO.C,R36*%
X78600000Y-85140000D03*
X78600000Y-83315000D03*
%TD*%
D36*
%TO.C,R15*%
X68233000Y-95634000D03*
X66408000Y-95634000D03*
%TD*%
D40*
%TO.C,U2*%
X66300000Y-84019998D03*
X66300000Y-84520000D03*
X66300000Y-85019999D03*
X66300000Y-85519998D03*
X66300000Y-86020000D03*
X69140000Y-86020000D03*
X69140000Y-85519998D03*
X69140000Y-85019999D03*
X69140000Y-84520000D03*
X69140000Y-84019998D03*
D41*
X67720000Y-85019999D03*
%TD*%
D28*
%TO.C,R24*%
X94094000Y-67487000D03*
X94094000Y-65662000D03*
%TD*%
D32*
%TO.C,R30*%
X49173500Y-78997000D03*
X50368500Y-78997000D03*
%TD*%
D26*
%TO.C,C33*%
X90591000Y-76457000D03*
X92316000Y-76457000D03*
%TD*%
D24*
%TO.C,C36*%
X92050000Y-84047000D03*
X95175000Y-84047000D03*
%TD*%
D25*
%TO.C,C51*%
X81648000Y-85040000D03*
X81648000Y-83315000D03*
%TD*%
D26*
%TO.C,C18*%
X67477000Y-82426000D03*
X69202000Y-82426000D03*
%TD*%
D27*
%TO.C,TP14*%
X89014000Y-86872000D03*
%TD*%
D33*
%TO.C,J1*%
X41583000Y-75954000D03*
D34*
X41583000Y-73414000D03*
%TD*%
D39*
%TO.C,C24*%
X87998000Y-47259000D03*
X87998000Y-44134000D03*
%TD*%
D15*
%TO.C,Q2*%
X63827000Y-48923750D03*
X63177000Y-48923750D03*
X62527000Y-48923750D03*
D16*
X61877000Y-49148750D03*
D17*
X61877000Y-52174000D03*
X62527000Y-52174000D03*
X63177000Y-52174000D03*
X63827000Y-52174250D03*
%TD*%
D26*
%TO.C,C3*%
X47538000Y-74044000D03*
X49263000Y-74044000D03*
%TD*%
D24*
%TO.C,C26*%
X90499500Y-50392000D03*
X93624500Y-50392000D03*
%TD*%
D27*
%TO.C,TP20*%
X74790000Y-84077000D03*
%TD*%
D36*
%TO.C,R20*%
X72551000Y-85474000D03*
X70726000Y-85474000D03*
%TD*%
D42*
%TO.C,C12*%
X58862000Y-92586000D03*
X57137000Y-92586000D03*
%TD*%
D26*
%TO.C,C17*%
X68085500Y-89157000D03*
X69810500Y-89157000D03*
%TD*%
D43*
%TO.C,R23*%
X89854210Y-53271154D03*
X89854210Y-56371154D03*
%TD*%
D22*
%TO.C,R11*%
X55610000Y-82067500D03*
X55610000Y-83892500D03*
%TD*%
D27*
%TO.C,TP3*%
X73260000Y-88730000D03*
%TD*%
D14*
%TO.C,R17*%
X61027000Y-88014000D03*
X62852000Y-88014000D03*
%TD*%
D23*
%TO.C,C54*%
X72893000Y-78235000D03*
X74028000Y-78235000D03*
%TD*%
D26*
%TO.C,C43*%
X63681892Y-63335992D03*
X65406892Y-63335992D03*
%TD*%
D44*
%TO.C,D7*%
X45707000Y-90554000D03*
X44157000Y-90554000D03*
%TD*%
D45*
%TO.C,IC1*%
X53872000Y-85489000D03*
X52572000Y-85489000D03*
X53222000Y-87689000D03*
%TD*%
D46*
%TO.C,D9*%
X54473000Y-73536000D03*
X53073000Y-73536000D03*
%TD*%
D24*
%TO.C,C34*%
X90839199Y-79018095D03*
X93964199Y-79018095D03*
%TD*%
D47*
%TO.C,L1*%
X67881000Y-47882000D03*
X77381000Y-47882000D03*
%TD*%
D18*
%TO.C,C58*%
X54724000Y-69607000D03*
X54724000Y-70742000D03*
%TD*%
D36*
%TO.C,R19*%
X72504000Y-83950000D03*
X70679000Y-83950000D03*
%TD*%
D28*
%TO.C,R16*%
X58661000Y-90935000D03*
X58661000Y-89110000D03*
%TD*%
D48*
%TO.C,C44*%
X59042000Y-63122000D03*
X61117000Y-63122000D03*
%TD*%
D27*
%TO.C,TP11*%
X94954461Y-92117628D03*
%TD*%
D49*
%TO.C,D2*%
X51575500Y-95126000D03*
X50760500Y-95126000D03*
%TD*%
D28*
%TO.C,R18*%
X69075000Y-92506000D03*
X69075000Y-90681000D03*
%TD*%
D23*
%TO.C,C9*%
X75806000Y-74552000D03*
X76941000Y-74552000D03*
%TD*%
D42*
%TO.C,C50*%
X78928000Y-81791000D03*
X77203000Y-81791000D03*
%TD*%
D14*
%TO.C,R34*%
X77156000Y-80267000D03*
X78981000Y-80267000D03*
%TD*%
D39*
%TO.C,C20*%
X53357000Y-48898000D03*
X53357000Y-45773000D03*
%TD*%
D32*
%TO.C,R8*%
X55561000Y-72393000D03*
X56756000Y-72393000D03*
%TD*%
D28*
%TO.C,R41*%
X83045000Y-90450500D03*
X83045000Y-88625500D03*
%TD*%
D25*
%TO.C,C49*%
X77076000Y-85040000D03*
X77076000Y-83315000D03*
%TD*%
D50*
%TO.C,U1*%
X59094838Y-70171339D03*
X59094838Y-70571339D03*
X59094838Y-70971338D03*
X59094838Y-71371337D03*
X59094838Y-71771339D03*
X59094838Y-72171338D03*
X59094838Y-72571337D03*
X59094838Y-72971339D03*
X59094838Y-73371338D03*
X59094838Y-73771337D03*
X59094838Y-74171339D03*
X59094838Y-74571338D03*
X59094838Y-74971337D03*
X59094838Y-75371337D03*
X59094838Y-75771338D03*
X59094838Y-76171337D03*
X59094838Y-76571337D03*
D51*
X59791339Y-77267838D03*
X60191339Y-77267838D03*
X60591338Y-77267838D03*
X60991339Y-77267838D03*
X61391339Y-77267838D03*
X61791338Y-77267838D03*
X62191337Y-77267838D03*
X62591339Y-77267838D03*
X62991338Y-77267838D03*
X63391337Y-77267838D03*
X63791339Y-77267838D03*
X64191338Y-77267838D03*
X64591337Y-77267838D03*
X64991337Y-77267838D03*
X65391338Y-77267838D03*
X65791337Y-77267838D03*
X66191337Y-77267838D03*
D50*
X66887838Y-76571337D03*
X66887838Y-76171337D03*
X66887838Y-75771338D03*
X66887838Y-75371337D03*
X66887838Y-74971337D03*
X66887838Y-74571338D03*
X66887838Y-74171339D03*
X66887838Y-73771337D03*
X66887838Y-73371338D03*
X66887838Y-72971339D03*
X66887838Y-72571337D03*
X66887838Y-72171338D03*
X66887838Y-71771339D03*
X66887838Y-71371339D03*
X66887838Y-70971338D03*
X66887838Y-70571339D03*
X66887838Y-70171339D03*
D51*
X66191337Y-69474838D03*
X65791337Y-69474838D03*
X65391338Y-69474838D03*
X64991337Y-69474838D03*
X64591337Y-69474838D03*
X64191338Y-69474838D03*
X63791339Y-69474838D03*
X63391337Y-69474838D03*
X62991338Y-69474838D03*
X62591339Y-69474838D03*
X62191337Y-69474838D03*
X61791338Y-69474838D03*
X61391339Y-69474838D03*
X60991339Y-69474838D03*
X60591338Y-69474838D03*
X60191339Y-69474838D03*
X59791339Y-69474838D03*
D52*
X62991338Y-73371338D03*
%TD*%
D42*
%TO.C,C11*%
X54036000Y-84077000D03*
X52311000Y-84077000D03*
%TD*%
%TO.C,C13*%
X68260000Y-94110000D03*
X66535000Y-94110000D03*
%TD*%
D31*
%TO.C,C10*%
X55613000Y-85527000D03*
X55613000Y-87252000D03*
%TD*%
D39*
%TO.C,C21*%
X55867000Y-48898000D03*
X55867000Y-45773000D03*
%TD*%
D22*
%TO.C,R32*%
X78981000Y-76941500D03*
X78981000Y-78766500D03*
%TD*%
D11*
%TO.C,H1*%
X41953225Y-98942394D03*
%TD*%
D26*
%TO.C,C52*%
X88432000Y-94110000D03*
X90157000Y-94110000D03*
%TD*%
%TO.C,C6*%
X60873000Y-83188000D03*
X62598000Y-83188000D03*
%TD*%
D27*
%TO.C,TP19*%
X74917000Y-81029000D03*
%TD*%
D26*
%TO.C,C41*%
X90337000Y-67440000D03*
X92062000Y-67440000D03*
%TD*%
D53*
%TO.C,D13*%
X78593000Y-90366000D03*
X78593000Y-92266000D03*
X80893000Y-91316000D03*
%TD*%
D35*
%TO.C,TP1*%
X58500000Y-82320000D03*
%TD*%
D26*
%TO.C,C1*%
X62651000Y-64900000D03*
X64376000Y-64900000D03*
%TD*%
D11*
%TO.C,H4*%
X100000000Y-41000000D03*
%TD*%
D37*
%TO.C,D11*%
X68691000Y-66424000D03*
X70091000Y-66424000D03*
%TD*%
D54*
%TO.C,R9*%
X54455000Y-72130000D03*
X53260000Y-72130000D03*
%TD*%
D26*
%TO.C,C16*%
X63032000Y-93983000D03*
X64757000Y-93983000D03*
%TD*%
D28*
%TO.C,R1*%
X50914000Y-75996000D03*
X50914000Y-74171000D03*
%TD*%
D14*
%TO.C,R29*%
X48731500Y-77600000D03*
X50556500Y-77600000D03*
%TD*%
D55*
%TO.C,TP22*%
X77120727Y-72755153D03*
%TD*%
%TO.C,TP21*%
X61074000Y-79251000D03*
%TD*%
%TO.C,TP23*%
X62090000Y-60455000D03*
%TD*%
D22*
%TO.C,R39*%
X85839000Y-85935000D03*
X85839000Y-87760000D03*
%TD*%
D23*
%TO.C,C53*%
X72852000Y-77092000D03*
X73987000Y-77092000D03*
%TD*%
D24*
%TO.C,C25*%
X90499500Y-47882000D03*
X93624500Y-47882000D03*
%TD*%
D48*
%TO.C,C29*%
X86606000Y-68710000D03*
X88681000Y-68710000D03*
%TD*%
D56*
%TO.C,L2*%
X100616500Y-79637000D03*
D57*
X100616500Y-74557000D03*
%TD*%
D27*
%TO.C,TP4*%
X63360000Y-96396000D03*
%TD*%
D46*
%TO.C,D8*%
X57964000Y-66170000D03*
X56564000Y-66170000D03*
%TD*%
D58*
%TO.C,Q8*%
X78630000Y-86683000D03*
X78630000Y-88583000D03*
X80505000Y-87633000D03*
%TD*%
D26*
%TO.C,C4*%
X47538000Y-75695000D03*
X49263000Y-75695000D03*
%TD*%
D25*
%TO.C,C28*%
X59931000Y-48972000D03*
X59931000Y-47247000D03*
%TD*%
D54*
%TO.C,R28*%
X88083133Y-55424012D03*
X86888133Y-55424012D03*
%TD*%
D35*
%TO.C,TP17*%
X59804000Y-60836000D03*
%TD*%
D49*
%TO.C,D1*%
X51602000Y-96015000D03*
X50787000Y-96015000D03*
%TD*%
D59*
%TO.C,R22*%
X55815000Y-51692000D03*
X58915000Y-51692000D03*
%TD*%
D31*
%TO.C,C2*%
X55105000Y-75086500D03*
X55105000Y-76811500D03*
%TD*%
D24*
%TO.C,C35*%
X90839199Y-81528095D03*
X93964199Y-81528095D03*
%TD*%
D60*
%TO.C,D12*%
X84696000Y-80604000D03*
X84696000Y-84204000D03*
%TD*%
D26*
%TO.C,C31*%
X86781000Y-70488000D03*
X88506000Y-70488000D03*
%TD*%
D42*
%TO.C,C14*%
X57338000Y-94237000D03*
X55613000Y-94237000D03*
%TD*%
D61*
%TO.C,R43*%
X76695000Y-87782500D03*
X76695000Y-88977500D03*
%TD*%
D27*
%TO.C,TP2*%
X58777065Y-86829664D03*
%TD*%
D33*
%TO.C,J3*%
X41495000Y-63405000D03*
%TD*%
D54*
%TO.C,R27*%
X88080000Y-54225537D03*
X86885000Y-54225537D03*
%TD*%
D14*
%TO.C,R37*%
X80458000Y-81791000D03*
X82283000Y-81791000D03*
%TD*%
%TO.C,R35*%
X80458000Y-80267000D03*
X82283000Y-80267000D03*
%TD*%
D26*
%TO.C,C32*%
X88813000Y-61090000D03*
X90538000Y-61090000D03*
%TD*%
D24*
%TO.C,C37*%
X92050000Y-86557000D03*
X95175000Y-86557000D03*
%TD*%
D22*
%TO.C,R13*%
X55613000Y-89006500D03*
X55613000Y-90831500D03*
%TD*%
D18*
%TO.C,C55*%
X70726000Y-68777500D03*
X70726000Y-69912500D03*
%TD*%
D26*
%TO.C,C40*%
X67477000Y-67948000D03*
X69202000Y-67948000D03*
%TD*%
D28*
%TO.C,R7*%
X49771000Y-93244500D03*
X49771000Y-91419500D03*
%TD*%
D36*
%TO.C,R40*%
X85839000Y-91951000D03*
X84014000Y-91951000D03*
%TD*%
D26*
%TO.C,C42*%
X63614000Y-61852000D03*
X65339000Y-61852000D03*
%TD*%
M02*
